<svg width="241" height="81" viewBox="0 0 241 81" fill="none" xmlns="http://www.w3.org/2000/svg">
<rect width="241" height="81" rx="40.5" fill="url(#paint0_linear_1683_4603)"/>
<path d="M83.3381 28.982V30.7416C83.3102 32.4453 83.3102 34.7076 82.7236 37.4168L78.8135 37.1096C79.1766 35.1545 79.2743 33.5625 79.3162 32.1939H69.9598V28.982H83.3381ZM76.9701 34.7635V39.0088C79.4419 38.925 81.9556 38.7574 84.2877 38.4781L84.4832 41.2711C79.1766 42.1928 73.423 42.3604 68.8146 42.3604L68.4795 39.1484C69.862 39.1484 71.3842 39.1484 72.9762 39.1205V34.7635H76.9701ZM89.6781 27.6414V33.758H92.6107V37.0537H89.6781V43.1703H85.5445V27.6414H89.6781ZM80.8244 43.4496C86.3824 43.4496 89.8457 45.3209 89.8457 48.2814C89.8457 51.4096 86.3824 53.225 80.8244 53.225C75.2664 53.225 71.7752 51.4096 71.7752 48.2814C71.7752 45.3209 75.2664 43.4496 80.8244 43.4496ZM80.8244 46.5498C77.6125 46.5219 75.8809 47.1363 75.9088 48.2814C75.8809 49.6221 77.6125 50.1248 80.8244 50.0969C84.0363 50.1248 85.6842 49.6221 85.7121 48.2814C85.6842 47.1363 84.0363 46.5219 80.8244 46.5498ZM113.727 29.7361V32.1381C113.727 35.35 113.727 39.0088 112.693 44.5389L108.616 44.1199C109.593 39.4277 109.663 35.8667 109.705 32.9201H94.8462V29.7361H113.727ZM115.821 47.0525V50.2924H92.4443V47.0525H100.572V38.3385H104.566V47.0525H115.821ZM131.156 28.982V32.166H126.296C126.589 34.6378 128.335 37.1096 132.245 38.115L130.234 41.2711C127.358 40.4611 125.388 38.7993 124.257 36.6906C123.084 38.9809 121.059 40.7963 118.057 41.69L116.018 38.5619C120.054 37.4447 121.827 34.8054 122.135 32.166H117.107V28.982H131.156ZM137.552 27.6414V41.5504H133.53V27.6414H137.552ZM124.201 42.5559V44.7344H133.53V42.5559H137.552V53.0016H120.263V42.5559H124.201ZM124.201 49.7896H133.53V47.8346H124.201V49.7896ZM161.684 27.6414V43.673H157.858V37.0537H156.266V42.8352H152.495V28.1162H156.266V33.7859H157.858V27.6414H161.684ZM151.853 30.1551V33.2553H139.452V30.1551H143.67V27.8928H147.664V30.1551H151.853ZM145.681 33.9535C148.948 33.9535 151.322 35.7689 151.322 38.4502C151.322 41.1035 148.948 42.9189 145.681 42.9189C142.497 42.9189 140.122 41.1035 140.122 38.4502C140.122 35.7689 142.497 33.9535 145.681 33.9535ZM145.681 36.8303C144.507 36.8023 143.725 37.3889 143.725 38.4502C143.725 39.5115 144.507 40.098 145.681 40.098C146.881 40.098 147.691 39.5115 147.691 38.4502C147.691 37.3889 146.881 36.8023 145.681 36.8303ZM152.831 43.8406C158.416 43.8406 161.796 45.5723 161.824 48.5607C161.796 51.5771 158.416 53.3088 152.831 53.2809C147.3 53.3088 143.865 51.5771 143.893 48.5607C143.865 45.5723 147.3 43.8406 152.831 43.8406ZM152.831 46.8291C149.535 46.8291 147.887 47.3598 147.915 48.5607C147.887 49.7338 149.535 50.2645 152.831 50.2645C156.182 50.2645 157.746 49.7338 157.774 48.5607C157.746 47.3598 156.182 46.8291 152.831 46.8291ZM177.997 31.6633C177.997 34.6238 179.534 37.5285 183.695 38.7854L181.572 41.8855C178.905 41.0477 177.09 39.4138 176.014 37.3051C174.911 39.7489 172.998 41.6621 170.121 42.6117L167.943 39.4836C172.356 38.0312 173.948 34.6518 173.948 31.2443V29.0379H177.997V31.6633ZM188.834 27.6414V33.4229H192.158V36.7465H188.834V42.7234H184.812V27.6414H188.834ZM180.371 43.1982C185.706 43.1982 189.085 45.0695 189.085 48.2256C189.085 51.4375 185.706 53.3088 180.371 53.2809C174.925 53.3088 171.518 51.4375 171.518 48.2256C171.518 45.0695 174.925 43.1982 180.371 43.1982ZM180.371 46.3264C177.187 46.3264 175.512 46.9687 175.54 48.2256C175.512 49.5662 177.187 50.1527 180.371 50.1527C183.527 50.1527 185.119 49.5662 185.119 48.2256C185.119 46.9687 183.527 46.3264 180.371 46.3264ZM212.408 27.6414V33.2553H215.732V36.551H212.408V41.9693H208.386V27.6414H212.408ZM204.364 29.2055V32.3895H196.935V38.0033C201.404 37.9894 203.833 37.7938 206.515 37.2492L206.934 40.4053C203.833 41.1314 200.901 41.2152 195.119 41.2152H192.913V29.2055H204.364ZM212.408 42.9748V52.9736H195.482V42.9748H212.408ZM199.449 46.1588V49.8455H208.442V46.1588H199.449Z" fill="white"/>
<path d="M35.5034 41.7549H37.9466L36.7273 38.2442L35.5034 41.7549ZM48.3389 40.6999C48.0258 40.6999 47.7198 40.7927 47.4594 40.9667C47.1991 41.1406 46.9962 41.3878 46.8764 41.6771C46.7566 41.9664 46.7252 42.2847 46.7863 42.5918C46.8474 42.8988 46.9982 43.1809 47.2195 43.4023C47.4409 43.6237 47.723 43.7745 48.0301 43.8356C48.3372 43.8966 48.6555 43.8653 48.9447 43.7455C49.234 43.6257 49.4812 43.4227 49.6552 43.1624C49.8291 42.9021 49.922 42.596 49.922 42.2829C49.9217 42.0746 49.8804 41.8685 49.8003 41.6762C49.7203 41.4839 49.6032 41.3092 49.4557 41.1622C49.3081 41.0152 49.1331 40.8987 48.9405 40.8194C48.7479 40.74 48.5416 40.6994 48.3333 40.6999H48.3389ZM55.7216 28.0332H28.2772C27.4376 28.0335 26.6324 28.3672 26.0387 28.9609C25.445 29.5546 25.1114 30.3597 25.1111 31.1993V50.2004C25.1114 51.04 25.445 51.8452 26.0387 52.4389C26.6324 53.0326 27.4376 53.3662 28.2772 53.3665H55.7216C56.5614 53.3665 57.3669 53.033 57.9608 52.4393C58.5547 51.8455 58.8886 51.0402 58.8889 50.2004V31.1993C58.8886 30.3595 58.5547 29.5542 57.9608 28.9605C57.3669 28.3667 56.5614 28.0332 55.7216 28.0332ZM41.6419 47.0332H40.525C40.3057 47.033 40.0919 46.9647 39.9131 46.8376C39.7344 46.7105 39.5996 46.531 39.5274 46.3239L39.041 44.9221H34.4045L33.9181 46.3239C33.8462 46.5312 33.7115 46.7109 33.5327 46.838C33.3539 46.9651 33.1399 47.0334 32.9205 47.0332H31.8025C31.6341 47.0331 31.4682 46.9928 31.3186 46.9156C31.169 46.8384 31.04 46.7266 30.9424 46.5894C30.8448 46.4523 30.7813 46.2938 30.7574 46.1271C30.7335 45.9605 30.7498 45.7905 30.8049 45.6314L34.3437 35.4305C34.4515 35.1198 34.6534 34.8504 34.9214 34.6598C35.1893 34.4691 35.51 34.3666 35.8389 34.3665H37.5976C37.9265 34.3666 38.2472 34.4691 38.5151 34.6598C38.7831 34.8504 38.985 35.1198 39.0928 35.4305L42.635 45.6314C42.6902 45.7901 42.7068 45.9598 42.6832 46.1262C42.6596 46.2926 42.5966 46.4509 42.4995 46.5881C42.4023 46.7252 42.2738 46.8372 42.1247 46.9146C41.9755 46.992 41.81 47.0327 41.6419 47.0332ZM53.0825 45.9782C53.0826 46.1168 53.0554 46.2542 53.0025 46.3823C52.9495 46.5104 52.8718 46.6268 52.7739 46.7249C52.6759 46.823 52.5595 46.9008 52.4315 46.9539C52.3034 47.007 52.1661 47.0343 52.0275 47.0343H50.9725C50.8218 47.0327 50.6732 46.9984 50.5371 46.9336C50.401 46.8689 50.2807 46.7753 50.1843 46.6594C49.4708 46.971 48.6918 47.1028 47.9155 47.0433C47.1392 46.9839 46.3893 46.735 45.7315 46.3185C45.0737 45.9019 44.5281 45.3304 44.1425 44.6541C43.7569 43.9777 43.543 43.2171 43.5196 42.4389C43.4962 41.6606 43.6639 40.8885 44.0082 40.1902C44.3525 39.4919 44.8628 38.8886 45.4943 38.4333C46.1259 37.978 46.8594 37.6845 47.6308 37.5785C48.4021 37.4725 49.1877 37.5573 49.9186 37.8254V35.4215C49.9186 35.2829 49.9459 35.1456 49.999 35.0175C50.0521 34.8895 50.1299 34.7731 50.228 34.6751C50.3261 34.5772 50.4425 34.4995 50.5707 34.4465C50.6988 34.3936 50.8361 34.3664 50.9747 34.3665H52.0308C52.1696 34.3664 52.307 34.3936 52.4352 34.4466C52.5634 34.4996 52.6799 34.5774 52.778 34.6755C52.8761 34.7736 52.9539 34.8901 53.0069 35.0183C53.0599 35.1465 53.0871 35.2839 53.087 35.4227L53.0825 45.9782Z" fill="white"/>
<defs>
<linearGradient id="paint0_linear_1683_4603" x1="241" y1="40.5" x2="0" y2="40.5" gradientUnits="userSpaceOnUse">
<stop stop-color="#6D49F7"/>
<stop offset="1" stop-color="#955EFE"/>
</linearGradient>
</defs>
</svg>
