<svg width="512" height="512" viewBox="0 0 512 512" fill="none" xmlns="http://www.w3.org/2000/svg">
<circle cx="40" cy="40" r="40" fill="white"/>
<circle cx="50.4297" cy="29.8467" r="12.0069" fill="#B68CFF"/>
<path d="M57.75 39.321C58.5838 37.5624 59.0063 35.6762 59.0063 33.7084C59.0063 26.4673 53.0816 20.5762 45.7991 20.5762C38.9221 20.5762 33.2636 25.8899 32.7117 32.6269C25.933 33.1755 20.5853 38.8357 20.5853 45.7149C20.5853 47.6828 21.0078 49.569 21.8416 51.3276L20.6071 57.5007C20.4682 58.1955 20.9999 58.847 21.7109 58.847C21.8729 58.847 21.329 58.9443 28.1786 57.5901C29.9375 58.4244 31.8241 58.847 33.7925 58.847C40.6691 58.847 46.3275 53.5338 46.8798 46.7972C48.4592 46.6704 49.9786 46.2639 51.413 45.5835L57.6624 46.8191C58.4486 46.9746 59.1416 46.2798 58.9845 45.4942L57.75 39.321ZM33.7925 56.5959C32.05 56.5959 30.386 56.1968 28.8464 55.4098C28.6212 55.2947 28.3638 55.2587 28.1157 55.3078L23.145 56.2906L24.1242 51.3942C24.174 51.1454 24.1383 50.887 24.0226 50.661C23.2357 49.1215 22.8365 47.4575 22.8365 45.7149C22.8365 40.0744 27.1805 35.4231 32.7203 34.8861C32.9677 37.6554 34.0781 40.1798 35.7804 42.188H29.5902C28.9686 42.188 28.4646 42.692 28.4646 43.3136C28.4646 43.9353 28.9686 44.4392 29.5902 44.4392H38.2377C40.075 45.7377 42.2588 46.576 44.6207 46.7871C44.0804 52.2855 39.4306 56.5959 33.7925 56.5959ZM55.4675 39.3876L56.4467 44.2841L51.476 43.3012C51.2279 43.2523 50.9705 43.2881 50.7453 43.4032C49.2057 44.1902 47.5417 44.5893 45.7992 44.5893C39.7994 44.5893 34.9182 39.7081 34.9182 33.7084C34.9182 27.7086 39.7994 22.8274 45.7992 22.8274C51.8404 22.8274 56.7552 27.7086 56.7552 33.7084C56.7552 35.4509 56.3561 37.1149 55.5691 38.6545C55.4535 38.8804 55.4177 39.1388 55.4675 39.3876Z" fill="#222222"/>
<path d="M45.8628 27.1823C43.8886 27.1452 42.2725 28.7299 42.2725 30.6999C42.2725 31.3215 42.7764 31.8255 43.3981 31.8255C44.0197 31.8255 44.5237 31.3215 44.5237 30.6999C44.5237 29.9788 45.1164 29.418 45.8175 29.4331C46.4778 29.4463 47.0218 29.9725 47.056 30.6309C47.0938 31.3613 46.5138 31.9688 45.7956 31.971C45.1753 31.9728 44.6734 32.4762 44.6734 33.0966V35.5115C44.6734 36.1331 45.1774 36.6371 45.799 36.6371C46.4207 36.6371 46.9246 36.1331 46.9246 35.5115V34.0326C48.3641 33.5392 49.3891 32.1497 49.3042 30.5142C49.2091 28.6828 47.6975 27.2192 45.8628 27.1823Z" fill="#222222"/>
<path d="M46.9034 38.8937C46.8414 38.5981 46.6779 38.3494 46.4246 38.1778C45.8415 37.7946 45.1003 38.0238 44.8066 38.5838C44.5049 39.1604 44.7421 39.8243 45.2689 40.1057C46.0982 40.5505 47.0803 39.8398 46.9034 38.8937Z" fill="#222222"/>
<path d="M37.9941 46.9941H29.5895C28.9678 46.9941 28.4639 47.4981 28.4639 48.1198C28.4639 48.7414 28.9678 49.2454 29.5895 49.2454H37.9941C38.6157 49.2454 39.1197 48.7414 39.1197 48.1198C39.1197 47.4981 38.6158 46.9941 37.9941 46.9941Z" fill="#222222"/>
<circle cx="40" cy="120" r="40" fill="white"/>
<circle cx="50.4297" cy="109.847" r="12.0069" fill="#B68CFF"/>
<path d="M57.75 119.321C58.5838 117.562 59.0063 115.676 59.0063 113.708C59.0063 106.467 53.0816 100.576 45.7991 100.576C38.9221 100.576 33.2636 105.89 32.7117 112.627C25.933 113.175 20.5853 118.836 20.5853 125.715C20.5853 127.683 21.0078 129.569 21.8416 131.328L20.6071 137.501C20.4682 138.196 20.9999 138.847 21.7109 138.847C21.8729 138.847 21.329 138.944 28.1786 137.59C29.9375 138.424 31.8241 138.847 33.7925 138.847C40.6691 138.847 46.3275 133.534 46.8798 126.797C48.4592 126.67 49.9786 126.264 51.413 125.584L57.6624 126.819C58.4486 126.975 59.1416 126.28 58.9845 125.494L57.75 119.321ZM33.7925 136.596C32.05 136.596 30.386 136.197 28.8464 135.41C28.6212 135.295 28.3638 135.259 28.1157 135.308L23.145 136.291L24.1242 131.394C24.174 131.145 24.1383 130.887 24.0226 130.661C23.2357 129.121 22.8365 127.457 22.8365 125.715C22.8365 120.074 27.1805 115.423 32.7203 114.886C32.9677 117.655 34.0781 120.18 35.7804 122.188H29.5902C28.9686 122.188 28.4646 122.692 28.4646 123.314C28.4646 123.935 28.9686 124.439 29.5902 124.439H38.2377C40.075 125.738 42.2588 126.576 44.6207 126.787C44.0804 132.285 39.4306 136.596 33.7925 136.596ZM55.4675 119.388L56.4467 124.284L51.476 123.301C51.2279 123.252 50.9705 123.288 50.7453 123.403C49.2057 124.19 47.5417 124.589 45.7992 124.589C39.7994 124.589 34.9182 119.708 34.9182 113.708C34.9182 107.709 39.7994 102.827 45.7992 102.827C51.8404 102.827 56.7552 107.709 56.7552 113.708C56.7552 115.451 56.3561 117.115 55.5691 118.654C55.4535 118.88 55.4177 119.139 55.4675 119.388Z" fill="#222222"/>
<path d="M45.8628 107.182C43.8886 107.145 42.2725 108.73 42.2725 110.7C42.2725 111.322 42.7764 111.826 43.3981 111.826C44.0197 111.826 44.5237 111.322 44.5237 110.7C44.5237 109.979 45.1164 109.418 45.8175 109.433C46.4778 109.446 47.0218 109.973 47.056 110.631C47.0938 111.361 46.5138 111.969 45.7956 111.971C45.1753 111.973 44.6734 112.476 44.6734 113.097V115.511C44.6734 116.133 45.1774 116.637 45.799 116.637C46.4207 116.637 46.9246 116.133 46.9246 115.511V114.033C48.3641 113.539 49.3891 112.15 49.3042 110.514C49.2091 108.683 47.6975 107.219 45.8628 107.182Z" fill="#222222"/>
<path d="M46.9034 118.894C46.8414 118.598 46.6779 118.349 46.4246 118.178C45.8415 117.795 45.1003 118.024 44.8066 118.584C44.5049 119.16 44.7421 119.824 45.2689 120.106C46.0982 120.551 47.0803 119.84 46.9034 118.894Z" fill="#222222"/>
<path d="M37.9941 126.994H29.5895C28.9678 126.994 28.4639 127.498 28.4639 128.12C28.4639 128.741 28.9678 129.245 29.5895 129.245H37.9941C38.6157 129.245 39.1197 128.741 39.1197 128.12C39.1197 127.498 38.6158 126.994 37.9941 126.994Z" fill="#222222"/>
<circle cx="40" cy="200" r="40" fill="white"/>
<circle cx="50.4297" cy="189.847" r="12.0069" fill="#B68CFF"/>
<circle cx="40" cy="280" r="40" fill="white"/>
<circle cx="50.4297" cy="269.847" r="12.0069" fill="#B68CFF"/>
<circle cx="120" cy="200" r="40" fill="white"/>
<circle cx="130.43" cy="189.847" r="12.0069" fill="#B68CFF"/>
<circle cx="120" cy="280" r="40" fill="white"/>
<circle cx="130.43" cy="269.847" r="12.0069" fill="#B68CFF"/>
<circle cx="200" cy="200" r="40" fill="white"/>
<circle cx="210.43" cy="189.847" r="12.0069" fill="#B68CFF"/>
<circle cx="281" cy="280" r="40" fill="white"/>
<circle cx="291.43" cy="269.847" r="12.0069" fill="#B68CFF"/>
<circle cx="281" cy="200" r="40" fill="white"/>
<circle cx="291.43" cy="189.847" r="12.0069" fill="#B68CFF"/>
<circle cx="200" cy="280" r="40" fill="white"/>
<circle cx="210.43" cy="269.847" r="12.0069" fill="#B68CFF"/>
<circle cx="120" cy="40" r="40" fill="white"/>
<circle cx="127.959" cy="29.1241" r="12.0069" fill="#B68CFF"/>
<path fill-rule="evenodd" clip-rule="evenodd" d="M126.271 23.02L133.791 30.5402V51.4616C133.791 52.009 133.573 52.5316 133.187 52.9191C132.8 53.3049 132.277 53.5225 131.73 53.5225H111.12C110.437 53.5225 109.883 52.9686 109.883 52.286C109.883 51.6034 109.329 51.0494 108.647 51.0494C107.964 51.0494 107.41 51.6034 107.41 52.286C107.41 54.3354 109.07 55.9957 111.12 55.9957H131.73C132.932 55.9957 134.086 55.5176 134.937 54.6684C135.786 53.8177 136.264 52.6635 136.264 51.4616C136.264 45.3347 136.264 32.6127 136.264 30.3687C136.264 29.8229 136.046 29.2986 135.66 28.9112C134.455 27.7059 129.105 22.3556 127.9 21.1503C127.512 20.7645 126.988 20.5469 126.442 20.5469H111.944C110.742 20.5469 109.588 21.025 108.737 21.8741C107.888 22.7249 107.41 23.8791 107.41 25.081V31.6762C107.41 32.3588 107.964 32.9127 108.647 32.9127C109.329 32.9127 109.883 32.3588 109.883 31.6762V25.081C109.883 24.5336 110.101 24.011 110.487 23.6235C110.874 23.2377 111.397 23.02 111.944 23.02H126.271Z" fill="#222222"/>
<path fill-rule="evenodd" clip-rule="evenodd" d="M125.547 21.7835V30.0274C125.547 30.71 126.101 31.264 126.783 31.264H135.027C135.71 31.264 136.264 30.71 136.264 30.0274C136.264 29.3448 135.71 28.7908 135.027 28.7908H128.02V21.7835C128.02 21.1009 127.466 20.5469 126.783 20.5469C126.101 20.5469 125.547 21.1009 125.547 21.7835Z" fill="#222222"/>
<path fill-rule="evenodd" clip-rule="evenodd" d="M113.387 35.1981C109.644 33.0365 104.85 34.3209 102.688 38.0637C100.528 41.8081 101.813 46.6011 105.555 48.7626C109.298 50.9242 114.093 49.6398 116.254 45.8954C118.414 42.1527 117.13 37.358 113.387 35.1981ZM112.151 37.3399C114.711 38.8188 115.59 42.0982 114.113 44.6588C112.634 47.221 109.353 48.0998 106.792 46.6209C104.231 45.1419 103.351 41.8625 104.83 39.3003C106.309 36.7397 109.59 35.8609 112.151 37.3399Z" fill="#222222"/>
<path fill-rule="evenodd" clip-rule="evenodd" d="M105.102 47.0726L101.023 54.1409C100.682 54.7312 100.885 55.4896 101.475 55.8309C102.067 56.1706 102.824 55.9678 103.165 55.3775L107.244 48.3092C107.585 47.7189 107.383 46.9621 106.792 46.6208C106.2 46.2795 105.444 46.4823 105.102 47.0726Z" fill="#222222"/>
<path fill-rule="evenodd" clip-rule="evenodd" d="M113.594 29.6138H121.838C122.521 29.6138 123.075 29.0598 123.075 28.3772C123.075 27.6946 122.521 27.1406 121.838 27.1406H113.594C112.911 27.1406 112.357 27.6946 112.357 28.3772C112.357 29.0598 112.911 29.6138 113.594 29.6138Z" fill="#222222"/>
<path fill-rule="evenodd" clip-rule="evenodd" d="M118.539 36.2095H130.081C130.763 36.2095 131.317 35.6555 131.317 34.9729C131.317 34.2903 130.763 33.7363 130.081 33.7363H118.539C117.857 33.7363 117.303 34.2903 117.303 34.9729C117.303 35.6555 117.857 36.2095 118.539 36.2095Z" fill="#222222"/>
<path fill-rule="evenodd" clip-rule="evenodd" d="M120.189 42.8072H130.081C130.764 42.8072 131.318 42.2532 131.318 41.5706C131.318 40.888 130.764 40.334 130.081 40.334H120.189C119.506 40.334 118.952 40.888 118.952 41.5706C118.952 42.2532 119.506 42.8072 120.189 42.8072Z" fill="#222222"/>
<path fill-rule="evenodd" clip-rule="evenodd" d="M118.539 49.4009H130.081C130.763 49.4009 131.317 48.8469 131.317 48.1643C131.317 47.4817 130.763 46.9277 130.081 46.9277H118.539C117.857 46.9277 117.303 47.4817 117.303 48.1643C117.303 48.8469 117.857 49.4009 118.539 49.4009Z" fill="#222222"/>
<circle cx="120" cy="120" r="40" fill="white"/>
<circle cx="127.959" cy="109.124" r="12.0069" fill="#B68CFF"/>
<path fill-rule="evenodd" clip-rule="evenodd" d="M126.271 103.02L133.791 110.54V131.462C133.791 132.009 133.573 132.532 133.187 132.919C132.8 133.305 132.277 133.523 131.73 133.523H111.12C110.437 133.523 109.883 132.969 109.883 132.286C109.883 131.603 109.329 131.049 108.647 131.049C107.964 131.049 107.41 131.603 107.41 132.286C107.41 134.335 109.07 135.996 111.12 135.996H131.73C132.932 135.996 134.086 135.518 134.937 134.668C135.786 133.818 136.264 132.664 136.264 131.462C136.264 125.335 136.264 112.613 136.264 110.369C136.264 109.823 136.046 109.299 135.66 108.911C134.455 107.706 129.105 102.356 127.9 101.15C127.512 100.765 126.988 100.547 126.442 100.547H111.944C110.742 100.547 109.588 101.025 108.737 101.874C107.888 102.725 107.41 103.879 107.41 105.081V111.676C107.41 112.359 107.964 112.913 108.647 112.913C109.329 112.913 109.883 112.359 109.883 111.676V105.081C109.883 104.534 110.101 104.011 110.487 103.624C110.874 103.238 111.397 103.02 111.944 103.02H126.271Z" fill="#222222"/>
<path fill-rule="evenodd" clip-rule="evenodd" d="M125.547 101.783V110.027C125.547 110.71 126.101 111.264 126.783 111.264H135.027C135.71 111.264 136.264 110.71 136.264 110.027C136.264 109.345 135.71 108.791 135.027 108.791H128.02V101.783C128.02 101.101 127.466 100.547 126.783 100.547C126.101 100.547 125.547 101.101 125.547 101.783Z" fill="#222222"/>
<path fill-rule="evenodd" clip-rule="evenodd" d="M113.387 115.198C109.644 113.037 104.85 114.321 102.688 118.064C100.528 121.808 101.813 126.601 105.555 128.763C109.298 130.924 114.093 129.64 116.254 125.895C118.414 122.153 117.13 117.358 113.387 115.198ZM112.151 117.34C114.711 118.819 115.59 122.098 114.113 124.659C112.634 127.221 109.353 128.1 106.792 126.621C104.231 125.142 103.351 121.862 104.83 119.3C106.309 116.74 109.59 115.861 112.151 117.34Z" fill="#222222"/>
<path fill-rule="evenodd" clip-rule="evenodd" d="M105.102 127.073L101.023 134.141C100.682 134.731 100.885 135.49 101.475 135.831C102.067 136.171 102.824 135.968 103.165 135.378L107.244 128.309C107.585 127.719 107.383 126.962 106.792 126.621C106.2 126.28 105.444 126.482 105.102 127.073Z" fill="#222222"/>
<path fill-rule="evenodd" clip-rule="evenodd" d="M113.594 109.614H121.838C122.521 109.614 123.075 109.06 123.075 108.377C123.075 107.695 122.521 107.141 121.838 107.141H113.594C112.911 107.141 112.357 107.695 112.357 108.377C112.357 109.06 112.911 109.614 113.594 109.614Z" fill="#222222"/>
<path fill-rule="evenodd" clip-rule="evenodd" d="M118.539 116.21H130.081C130.763 116.21 131.317 115.656 131.317 114.973C131.317 114.29 130.763 113.736 130.081 113.736H118.539C117.857 113.736 117.303 114.29 117.303 114.973C117.303 115.656 117.857 116.21 118.539 116.21Z" fill="#222222"/>
<path fill-rule="evenodd" clip-rule="evenodd" d="M120.189 122.807H130.081C130.764 122.807 131.318 122.253 131.318 121.571C131.318 120.888 130.764 120.334 130.081 120.334H120.189C119.506 120.334 118.952 120.888 118.952 121.571C118.952 122.253 119.506 122.807 120.189 122.807Z" fill="#222222"/>
<path fill-rule="evenodd" clip-rule="evenodd" d="M118.539 129.401H130.081C130.763 129.401 131.317 128.847 131.317 128.164C131.317 127.482 130.763 126.928 130.081 126.928H118.539C117.857 126.928 117.303 127.482 117.303 128.164C117.303 128.847 117.857 129.401 118.539 129.401Z" fill="#222222"/>
<circle cx="200.068" cy="39.9648" r="39.9316" fill="white"/>
<circle cx="199.932" cy="39.9316" r="39.9316" fill="white"/>
<circle cx="186.713" cy="39.0384" r="11.6439" fill="#B68CFF"/>
<path d="M222.542 51.0597L213.12 43.993C216.425 43.9059 219.212 41.2176 219.212 37.7407V28.8639C219.212 25.3288 216.332 22.6074 212.955 22.6074H188.861C185.484 22.6074 182.604 25.3288 182.604 28.8639V37.7407C182.604 41.2751 185.484 43.9971 188.861 43.9971H206.699V58.9815C206.699 59.3918 206.911 59.773 207.26 59.9887C207.61 60.2043 208.046 60.224 208.412 60.0403L212.002 58.2447L214.065 62.3649C214.359 62.9507 215.07 63.1854 215.654 62.8936L220.301 60.5685C220.886 60.2761 221.123 59.5653 220.831 58.9805L218.773 54.8613L222.362 53.0657C222.729 52.8821 222.975 52.5217 223.011 52.1131C223.048 51.7044 222.871 51.3058 222.542 51.0597ZM188.861 41.6292C186.731 41.6292 184.972 39.9116 184.972 37.7407V28.8639C184.972 26.6889 186.735 24.9753 188.861 24.9753H212.955C215.086 24.9753 216.844 26.6942 216.844 28.8639V37.7407C216.844 39.9161 215.08 41.6293 212.955 41.6293H188.861V41.6292ZM216.655 53.2731C216.07 53.5656 215.833 54.2764 216.125 54.8611L218.183 58.9803L215.652 60.2465L213.589 56.1262C213.296 55.5408 212.584 55.3056 212.001 55.5976L209.067 57.0654V43.9127L219.589 51.8049L216.655 53.2731Z" fill="#222222"/>
<path d="M203.445 27.6797C202.791 27.6797 202.261 28.2098 202.261 28.8636V35.2042C202.261 35.9498 201.654 36.5565 200.909 36.5565C200.163 36.5565 199.556 35.9498 199.556 35.2042V28.8636C199.556 28.2098 199.026 27.6797 198.372 27.6797C197.719 27.6797 197.188 28.2098 197.188 28.8636V35.2042C197.188 37.2555 198.857 38.9243 200.909 38.9243C202.96 38.9243 204.629 37.2555 204.629 35.2042V28.8636C204.629 28.2097 204.099 27.6797 203.445 27.6797Z" fill="#222222"/>
<path d="M214.141 31.3998V28.8636C214.141 28.2098 213.61 27.6797 212.957 27.6797C212.303 27.6797 211.773 28.2098 211.773 28.8636V31.3998C211.773 32.1455 211.166 32.7521 210.42 32.7521C209.675 32.7521 209.068 32.1455 209.068 31.3998V28.8636C209.068 28.2098 208.538 27.6797 207.884 27.6797C207.23 27.6797 206.7 28.2098 206.7 28.8636V31.3998C206.7 33.0372 207.764 34.43 209.236 34.9257V37.7405C209.236 38.3943 209.767 38.9244 210.42 38.9244C211.074 38.9244 211.604 38.3943 211.604 37.7405V34.9257C213.077 34.4299 214.141 33.0372 214.141 31.3998Z" fill="#222222"/>
<path d="M191.715 27.6797H188.862C188.208 27.6797 187.678 28.2098 187.678 28.8636V37.7405C187.678 38.3943 188.208 38.9244 188.862 38.9244H191.715C193.57 38.9244 195.118 37.4189 195.118 35.5213C195.118 34.7102 194.82 33.9151 194.293 33.3023C194.827 32.6852 195.118 31.9064 195.118 31.0829C195.118 29.2256 193.607 27.6797 191.715 27.6797ZM191.715 36.5565H190.046V34.4859H191.715C192.28 34.4859 192.75 34.9471 192.75 35.5213C192.75 36.0981 192.275 36.5565 191.715 36.5565ZM191.715 32.1181H190.046V30.0475H191.715C192.288 30.0475 192.75 30.5208 192.75 31.0829C192.75 31.6621 192.272 32.1181 191.715 32.1181Z" fill="#222222"/>
<circle cx="200.068" cy="119.965" r="39.9316" fill="white"/>
<circle cx="199.932" cy="119.932" r="39.9316" fill="white"/>
<circle cx="186.713" cy="119.038" r="11.6439" fill="#B68CFF"/>
<path d="M222.542 131.06L213.12 123.993C216.425 123.906 219.212 121.218 219.212 117.741V108.864C219.212 105.329 216.332 102.607 212.955 102.607H188.861C185.484 102.607 182.604 105.329 182.604 108.864V117.741C182.604 121.275 185.484 123.997 188.861 123.997H206.699V138.981C206.699 139.392 206.911 139.773 207.26 139.989C207.61 140.204 208.046 140.224 208.412 140.04L212.002 138.245L214.065 142.365C214.359 142.951 215.07 143.185 215.654 142.894L220.301 140.569C220.886 140.276 221.123 139.565 220.831 138.981L218.773 134.861L222.362 133.066C222.729 132.882 222.975 132.522 223.011 132.113C223.048 131.704 222.871 131.306 222.542 131.06ZM188.861 121.629C186.731 121.629 184.972 119.912 184.972 117.741V108.864C184.972 106.689 186.735 104.975 188.861 104.975H212.955C215.086 104.975 216.844 106.694 216.844 108.864V117.741C216.844 119.916 215.08 121.629 212.955 121.629H188.861V121.629ZM216.655 133.273C216.07 133.566 215.833 134.276 216.125 134.861L218.183 138.98L215.652 140.246L213.589 136.126C213.296 135.541 212.584 135.306 212.001 135.598L209.067 137.065V123.913L219.589 131.805L216.655 133.273Z" fill="#222222"/>
<path d="M203.445 107.68C202.791 107.68 202.261 108.21 202.261 108.864V115.204C202.261 115.95 201.654 116.556 200.909 116.556C200.163 116.556 199.556 115.95 199.556 115.204V108.864C199.556 108.21 199.026 107.68 198.372 107.68C197.719 107.68 197.188 108.21 197.188 108.864V115.204C197.188 117.255 198.857 118.924 200.909 118.924C202.96 118.924 204.629 117.255 204.629 115.204V108.864C204.629 108.21 204.099 107.68 203.445 107.68Z" fill="#222222"/>
<path d="M214.141 111.4V108.864C214.141 108.21 213.61 107.68 212.957 107.68C212.303 107.68 211.773 108.21 211.773 108.864V111.4C211.773 112.145 211.166 112.752 210.42 112.752C209.675 112.752 209.068 112.145 209.068 111.4V108.864C209.068 108.21 208.538 107.68 207.884 107.68C207.23 107.68 206.7 108.21 206.7 108.864V111.4C206.7 113.037 207.764 114.43 209.236 114.926V117.74C209.236 118.394 209.767 118.924 210.42 118.924C211.074 118.924 211.604 118.394 211.604 117.74V114.926C213.077 114.43 214.141 113.037 214.141 111.4Z" fill="#222222"/>
<path d="M191.715 107.68H188.862C188.208 107.68 187.678 108.21 187.678 108.864V117.74C187.678 118.394 188.208 118.924 188.862 118.924H191.715C193.57 118.924 195.118 117.419 195.118 115.521C195.118 114.71 194.82 113.915 194.293 113.302C194.827 112.685 195.118 111.906 195.118 111.083C195.118 109.226 193.607 107.68 191.715 107.68ZM191.715 116.556H190.046V114.486H191.715C192.28 114.486 192.75 114.947 192.75 115.521C192.75 116.098 192.275 116.556 191.715 116.556ZM191.715 112.118H190.046V110.048H191.715C192.288 110.048 192.75 110.521 192.75 111.083C192.75 111.662 192.272 112.118 191.715 112.118Z" fill="#222222"/>
<circle cx="280" cy="40" r="40" fill="white"/>
<circle cx="290.703" cy="29.0914" r="10.566" fill="#B68CFF"/>
<g clip-path="url(#clip0_1624_4718)">
<path d="M290.477 36.7675C290.546 36.51 290.51 36.2357 290.376 36.0048L288.366 32.5232C288.233 32.2924 288.013 32.124 287.756 32.055C287.499 31.986 287.224 32.0221 286.993 32.1554L285.664 32.9228C284.831 32.2162 283.864 31.6638 282.812 31.2937V29.7414C282.812 29.1863 282.362 28.7363 281.807 28.7363H277.787C277.232 28.7363 276.782 29.1863 276.782 29.7414V31.2937C275.73 31.6638 274.763 32.2162 273.93 32.9228L272.601 32.1554C272.37 32.0221 272.095 31.986 271.838 32.055C271.581 32.1239 271.361 32.2924 271.228 32.5232L269.218 36.0048C269.085 36.2357 269.048 36.51 269.117 36.7675C269.186 37.0249 269.355 37.2444 269.586 37.3777L270.927 38.1521C270.808 38.7298 270.752 39.2634 270.752 39.7918C270.752 40.3201 270.808 40.8537 270.927 41.4314L269.586 42.2058C269.355 42.3391 269.186 42.5586 269.117 42.816C269.048 43.0735 269.084 43.3478 269.218 43.5787L271.228 47.0603C271.361 47.2911 271.581 47.4595 271.838 47.5285C272.096 47.5976 272.37 47.5614 272.601 47.4281L273.93 46.6607C274.763 47.3673 275.73 47.9197 276.782 48.2898V49.8421C276.782 50.3972 277.232 50.8472 277.787 50.8472H281.807C282.362 50.8472 282.812 50.3972 282.812 49.8421V48.2898C283.864 47.9197 284.831 47.3673 285.664 46.6607L286.993 47.4281C287.224 47.5614 287.499 47.5975 287.756 47.5285C288.013 47.4596 288.233 47.2911 288.366 47.0603L290.376 43.5787C290.51 43.3478 290.546 43.0735 290.477 42.816C290.408 42.5586 290.239 42.3391 290.008 42.2058L288.667 41.4314C288.786 40.8537 288.842 40.3201 288.842 39.7918C288.842 39.2634 288.786 38.7298 288.667 38.1521L290.009 37.3777C290.239 37.2444 290.408 37.0249 290.477 36.7675ZM286.545 37.9265C286.741 38.6331 286.832 39.2258 286.832 39.7918C286.832 40.3577 286.741 40.9504 286.545 41.657C286.422 42.0985 286.614 42.5671 287.011 42.7961L288.133 43.444L287.128 45.1847L286.027 44.5493C285.631 44.3202 285.129 44.3884 284.808 44.7152C283.934 45.605 282.808 46.2477 281.554 46.5738C281.111 46.689 280.802 47.0889 280.802 47.5466V48.8371H278.792V47.5466C278.792 47.0889 278.483 46.689 278.04 46.5738C276.785 46.2477 275.66 45.6051 274.786 44.7152C274.465 44.3883 273.963 44.3201 273.567 44.5493L272.466 45.1847L271.461 43.444L272.583 42.7961C272.98 42.5671 273.172 42.0985 273.049 41.657C272.853 40.9504 272.762 40.3577 272.762 39.7918C272.762 39.2258 272.853 38.6331 273.049 37.9265C273.172 37.485 272.98 37.0164 272.583 36.7874L271.461 36.1395L272.466 34.3988L273.567 35.0342C273.964 35.2632 274.465 35.1951 274.786 34.8683C275.66 33.9785 276.786 33.3358 278.04 33.0097C278.483 32.8945 278.792 32.4946 278.792 32.0369V30.7464H280.802V32.0369C280.802 32.4946 281.111 32.8945 281.554 33.0097C282.809 33.3358 283.934 33.9784 284.808 34.8683C285.129 35.1951 285.631 35.2632 286.027 35.0342L287.128 34.3988L288.133 36.1395L287.011 36.7874C286.614 37.0164 286.422 37.485 286.545 37.9265Z" fill="#222222"/>
<path d="M279.797 34.7676C277.026 34.7676 274.771 37.0219 274.771 39.7928C274.771 42.5637 277.026 44.818 279.797 44.818C282.568 44.818 284.822 42.5637 284.822 39.7928C284.822 37.0219 282.568 34.7676 279.797 34.7676ZM279.797 42.8079C278.134 42.8079 276.782 41.4553 276.782 39.7928C276.782 38.1302 278.134 36.7777 279.797 36.7777C281.459 36.7777 282.812 38.1302 282.812 39.7928C282.812 41.4553 281.459 42.8079 279.797 42.8079Z" fill="#222222"/>
<path d="M293.299 30.5546C293.707 30.1459 293.542 29.526 293.542 29.526L292.12 25.262C291.945 24.7353 291.375 24.4507 290.849 24.6263C290.322 24.8019 290.038 25.371 290.213 25.8976L290.334 26.26C289.432 25.5736 288.46 24.9686 287.437 24.4612C285.036 23.2702 282.394 22.6406 279.796 22.6406C275.239 22.6406 270.939 24.4317 267.687 27.6838C264.435 30.9359 262.644 35.2365 262.644 39.7933C262.644 41.8979 263.086 44.0539 263.958 46.2016C264.116 46.5921 264.492 46.8288 264.889 46.8288C265.015 46.8288 265.143 46.805 265.267 46.7548C265.781 46.5459 266.029 45.9598 265.82 45.4455C265.046 43.5391 264.654 41.6375 264.654 39.7933C264.654 31.4436 271.447 24.6507 279.796 24.6507C282.861 24.6507 285.955 25.6702 288.525 27.4384C288.034 27.3374 287.533 27.617 287.371 28.1047C287.195 28.6313 287.48 29.2004 288.006 29.376L292.27 30.7973C292.27 30.7973 292.871 30.982 293.299 30.5546Z" fill="#222222"/>
<path d="M266.051 50.0606L267.472 54.3246C267.613 54.7458 268.005 55.0122 268.426 55.0121C268.531 55.0121 268.638 54.9954 268.744 54.9603C269.27 54.7848 269.555 54.2157 269.379 53.689L269.258 53.3266C270.16 54.013 271.132 54.618 272.155 55.1256C274.557 56.3165 277.199 56.946 279.797 56.946C284.353 56.946 288.654 55.155 291.906 51.9029C295.158 48.6507 296.949 44.3501 296.949 39.7934C296.949 37.6887 296.507 35.5327 295.635 33.385C295.426 32.8707 294.84 32.6231 294.326 32.8319C293.812 33.0407 293.564 33.6268 293.773 34.1412C294.547 36.0475 294.939 37.9492 294.939 39.7934C294.939 48.143 288.146 54.9359 279.797 54.9359C276.732 54.9359 273.638 53.9164 271.068 52.1482C271.559 52.2491 272.059 51.9697 272.222 51.4819C272.397 50.9553 272.113 50.3861 271.586 50.2106L267.322 48.7893C266.727 48.5907 266.294 49.0321 266.294 49.0321C265.876 49.4495 266.051 50.0606 266.051 50.0606Z" fill="#222222"/>
</g>
<circle cx="280" cy="120" r="40" fill="white"/>
<circle cx="290.703" cy="109.091" r="10.566" fill="#B68CFF"/>
<g clip-path="url(#clip1_1624_4718)">
<path d="M290.477 116.767C290.546 116.51 290.51 116.236 290.376 116.005L288.366 112.523C288.233 112.292 288.013 112.124 287.756 112.055C287.499 111.986 287.224 112.022 286.993 112.155L285.664 112.923C284.831 112.216 283.864 111.664 282.812 111.294V109.741C282.812 109.186 282.362 108.736 281.807 108.736H277.787C277.232 108.736 276.782 109.186 276.782 109.741V111.294C275.73 111.664 274.763 112.216 273.93 112.923L272.601 112.155C272.37 112.022 272.095 111.986 271.838 112.055C271.581 112.124 271.361 112.292 271.228 112.523L269.218 116.005C269.085 116.236 269.048 116.51 269.117 116.767C269.186 117.025 269.355 117.244 269.586 117.378L270.927 118.152C270.808 118.73 270.752 119.263 270.752 119.792C270.752 120.32 270.808 120.854 270.927 121.431L269.586 122.206C269.355 122.339 269.186 122.559 269.117 122.816C269.048 123.074 269.084 123.348 269.218 123.579L271.228 127.06C271.361 127.291 271.581 127.46 271.838 127.529C272.096 127.598 272.37 127.561 272.601 127.428L273.93 126.661C274.763 127.367 275.73 127.92 276.782 128.29V129.842C276.782 130.397 277.232 130.847 277.787 130.847H281.807C282.362 130.847 282.812 130.397 282.812 129.842V128.29C283.864 127.92 284.831 127.367 285.664 126.661L286.993 127.428C287.224 127.561 287.499 127.597 287.756 127.529C288.013 127.46 288.233 127.291 288.366 127.06L290.376 123.579C290.51 123.348 290.546 123.073 290.477 122.816C290.408 122.559 290.239 122.339 290.008 122.206L288.667 121.431C288.786 120.854 288.842 120.32 288.842 119.792C288.842 119.263 288.786 118.73 288.667 118.152L290.009 117.378C290.239 117.244 290.408 117.025 290.477 116.767ZM286.545 117.927C286.741 118.633 286.832 119.226 286.832 119.792C286.832 120.358 286.741 120.95 286.545 121.657C286.422 122.099 286.614 122.567 287.011 122.796L288.133 123.444L287.128 125.185L286.027 124.549C285.631 124.32 285.129 124.388 284.808 124.715C283.934 125.605 282.808 126.248 281.554 126.574C281.111 126.689 280.802 127.089 280.802 127.547V128.837H278.792V127.547C278.792 127.089 278.483 126.689 278.04 126.574C276.785 126.248 275.66 125.605 274.786 124.715C274.465 124.388 273.963 124.32 273.567 124.549L272.466 125.185L271.461 123.444L272.583 122.796C272.98 122.567 273.172 122.099 273.049 121.657C272.853 120.95 272.762 120.358 272.762 119.792C272.762 119.226 272.853 118.633 273.049 117.927C273.172 117.485 272.98 117.016 272.583 116.787L271.461 116.14L272.466 114.399L273.567 115.034C273.964 115.263 274.465 115.195 274.786 114.868C275.66 113.978 276.786 113.336 278.04 113.01C278.483 112.895 278.792 112.495 278.792 112.037V110.746H280.802V112.037C280.802 112.495 281.111 112.895 281.554 113.01C282.809 113.336 283.934 113.978 284.808 114.868C285.129 115.195 285.631 115.263 286.027 115.034L287.128 114.399L288.133 116.14L287.011 116.787C286.614 117.016 286.422 117.485 286.545 117.927Z" fill="#222222"/>
<path d="M279.797 114.768C277.026 114.768 274.771 117.022 274.771 119.793C274.771 122.564 277.026 124.818 279.797 124.818C282.568 124.818 284.822 122.564 284.822 119.793C284.822 117.022 282.568 114.768 279.797 114.768ZM279.797 122.808C278.134 122.808 276.782 121.455 276.782 119.793C276.782 118.13 278.134 116.778 279.797 116.778C281.459 116.778 282.812 118.13 282.812 119.793C282.812 121.455 281.459 122.808 279.797 122.808Z" fill="#222222"/>
<path d="M293.299 110.555C293.707 110.146 293.542 109.526 293.542 109.526L292.12 105.262C291.945 104.735 291.375 104.451 290.849 104.626C290.322 104.802 290.038 105.371 290.213 105.898L290.334 106.26C289.432 105.574 288.46 104.969 287.437 104.461C285.036 103.27 282.394 102.641 279.796 102.641C275.239 102.641 270.939 104.432 267.687 107.684C264.435 110.936 262.644 115.237 262.644 119.793C262.644 121.898 263.086 124.054 263.958 126.202C264.116 126.592 264.492 126.829 264.889 126.829C265.015 126.829 265.143 126.805 265.267 126.755C265.781 126.546 266.029 125.96 265.82 125.445C265.046 123.539 264.654 121.637 264.654 119.793C264.654 111.444 271.447 104.651 279.796 104.651C282.861 104.651 285.955 105.67 288.525 107.438C288.034 107.337 287.533 107.617 287.371 108.105C287.195 108.631 287.48 109.2 288.006 109.376L292.27 110.797C292.27 110.797 292.871 110.982 293.299 110.555Z" fill="#222222"/>
<path d="M266.051 130.061L267.472 134.325C267.613 134.746 268.005 135.012 268.426 135.012C268.531 135.012 268.638 134.995 268.744 134.96C269.27 134.785 269.555 134.216 269.379 133.689L269.258 133.327C270.16 134.013 271.132 134.618 272.155 135.126C274.557 136.316 277.199 136.946 279.797 136.946C284.353 136.946 288.654 135.155 291.906 131.903C295.158 128.651 296.949 124.35 296.949 119.793C296.949 117.689 296.507 115.533 295.635 113.385C295.426 112.871 294.84 112.623 294.326 112.832C293.812 113.041 293.564 113.627 293.773 114.141C294.547 116.048 294.939 117.949 294.939 119.793C294.939 128.143 288.146 134.936 279.797 134.936C276.732 134.936 273.638 133.916 271.068 132.148C271.559 132.249 272.059 131.97 272.222 131.482C272.397 130.955 272.113 130.386 271.586 130.211L267.322 128.789C266.727 128.591 266.294 129.032 266.294 129.032C265.876 129.45 266.051 130.061 266.051 130.061Z" fill="#222222"/>
</g>
<circle cx="360" cy="40" r="40" fill="white"/>
<circle cx="348.131" cy="48.9508" r="10.566" fill="#B68CFF"/>
<path d="M372.693 22.6055H347.033C344.46 22.6055 342.367 24.6979 342.367 27.271V45.9331C342.367 48.5062 344.46 50.5986 347.033 50.5986H356.364V55.2641H352.865C352.22 55.2641 351.698 55.7858 351.698 56.4305C351.698 57.0752 352.22 57.5969 352.865 57.5969H366.861C367.506 57.5969 368.028 57.0752 368.028 56.4305C368.028 55.7858 367.506 55.2641 366.861 55.2641H363.362V50.5986H372.693C375.266 50.5986 377.359 48.5062 377.359 45.9331V27.271C377.359 24.6979 375.266 22.6055 372.693 22.6055ZM361.029 55.2641H358.697V50.5986H361.029V55.2641ZM375.026 45.9331C375.026 47.2191 373.979 48.2658 372.693 48.2658H347.033C345.746 48.2658 344.7 47.2191 344.7 45.9331V27.271C344.7 25.985 345.746 24.9382 347.033 24.9382H372.693C373.979 24.9382 375.026 25.985 375.026 27.271V45.9331ZM366.861 29.6038V33.1029C366.861 33.7476 366.34 34.2693 365.695 34.2693C365.05 34.2693 364.528 33.7476 364.528 33.1029V32.4195L360.688 36.2603C360.232 36.7159 359.494 36.7159 359.038 36.2603L357.53 34.7522L353.689 38.5931C353.461 38.8209 353.163 38.9348 352.865 38.9348C352.566 38.9348 352.268 38.8209 352.04 38.5931C351.584 38.1375 351.584 37.3994 352.04 36.9438L356.705 32.2782C357.161 31.8226 357.899 31.8226 358.355 32.2782L359.863 33.7863L362.879 30.7701H362.196C361.551 30.7701 361.029 30.2485 361.029 29.6038C361.029 28.9591 361.551 28.4374 362.196 28.4374H365.695C366.34 28.4374 366.861 28.9591 366.861 29.6038ZM366.861 43.6003C366.861 44.245 366.34 44.7667 365.695 44.7667H354.031C353.387 44.7667 352.865 44.245 352.865 43.6003C352.865 42.9556 353.387 42.4339 354.031 42.4339V40.1012C354.031 39.4565 354.553 38.9348 355.197 38.9348C355.842 38.9348 356.364 39.4565 356.364 40.1012V42.4339H358.697V40.1012C358.697 39.4565 359.219 38.9348 359.863 38.9348C360.507 38.9348 361.029 39.4565 361.029 40.1012V42.4339H363.362V36.602C363.362 35.9573 363.884 35.4357 364.528 35.4357C365.173 35.4357 365.695 35.9573 365.695 36.602V42.4339C366.34 42.4339 366.861 42.9556 366.861 43.6003Z" fill="#222222"/>
<circle cx="360" cy="120" r="40" fill="white"/>
<circle cx="348.131" cy="128.951" r="10.566" fill="#B68CFF"/>
<path d="M372.693 102.605H347.033C344.46 102.605 342.367 104.698 342.367 107.271V125.933C342.367 128.506 344.46 130.599 347.033 130.599H356.364V135.264H352.865C352.22 135.264 351.698 135.786 351.698 136.431C351.698 137.075 352.22 137.597 352.865 137.597H366.861C367.506 137.597 368.028 137.075 368.028 136.431C368.028 135.786 367.506 135.264 366.861 135.264H363.362V130.599H372.693C375.266 130.599 377.359 128.506 377.359 125.933V107.271C377.359 104.698 375.266 102.605 372.693 102.605ZM361.029 135.264H358.697V130.599H361.029V135.264ZM375.026 125.933C375.026 127.219 373.979 128.266 372.693 128.266H347.033C345.746 128.266 344.7 127.219 344.7 125.933V107.271C344.7 105.985 345.746 104.938 347.033 104.938H372.693C373.979 104.938 375.026 105.985 375.026 107.271V125.933ZM366.861 109.604V113.103C366.861 113.748 366.34 114.269 365.695 114.269C365.05 114.269 364.528 113.748 364.528 113.103V112.419L360.688 116.26C360.232 116.716 359.494 116.716 359.038 116.26L357.53 114.752L353.689 118.593C353.461 118.821 353.163 118.935 352.865 118.935C352.566 118.935 352.268 118.821 352.04 118.593C351.584 118.137 351.584 117.399 352.04 116.944L356.705 112.278C357.161 111.823 357.899 111.823 358.355 112.278L359.863 113.786L362.879 110.77H362.196C361.551 110.77 361.029 110.248 361.029 109.604C361.029 108.959 361.551 108.437 362.196 108.437H365.695C366.34 108.437 366.861 108.959 366.861 109.604ZM366.861 123.6C366.861 124.245 366.34 124.767 365.695 124.767H354.031C353.387 124.767 352.865 124.245 352.865 123.6C352.865 122.956 353.387 122.434 354.031 122.434V120.101C354.031 119.456 354.553 118.935 355.197 118.935C355.842 118.935 356.364 119.456 356.364 120.101V122.434H358.697V120.101C358.697 119.456 359.219 118.935 359.863 118.935C360.507 118.935 361.029 119.456 361.029 120.101V122.434H363.362V116.602C363.362 115.957 363.884 115.436 364.528 115.436C365.173 115.436 365.695 115.957 365.695 116.602V122.434C366.34 122.434 366.861 122.956 366.861 123.6Z" fill="#222222"/>
<path d="M132.019 196.238C132.093 195.96 132.054 195.665 131.91 195.416L129.742 191.661C129.599 191.412 129.362 191.23 129.084 191.155C128.807 191.081 128.511 191.12 128.262 191.264L126.828 192.091C125.93 191.329 124.886 190.734 123.752 190.334V188.66C123.752 188.062 123.267 187.576 122.668 187.576H118.332C117.733 187.576 117.248 188.062 117.248 188.66V190.334C116.113 190.734 115.07 191.329 114.172 192.091L112.738 191.264C112.489 191.12 112.193 191.081 111.916 191.155C111.638 191.23 111.401 191.412 111.258 191.661L109.09 195.416C108.946 195.665 108.907 195.96 108.981 196.238C109.056 196.516 109.237 196.753 109.486 196.896L110.933 197.731C110.805 198.355 110.744 198.93 110.744 199.5C110.744 200.07 110.805 200.645 110.933 201.268L109.486 202.104C109.237 202.247 109.056 202.484 108.981 202.762C108.907 203.04 108.946 203.335 109.09 203.584L111.258 207.339C111.401 207.588 111.638 207.77 111.916 207.844C112.194 207.919 112.489 207.88 112.738 207.736L114.172 206.908C115.07 207.67 116.113 208.266 117.248 208.665V210.34C117.248 210.938 117.733 211.424 118.332 211.424H122.668C123.266 211.424 123.752 210.938 123.752 210.34V208.665C124.886 208.266 125.929 207.67 126.828 206.908L128.261 207.736C128.51 207.88 128.806 207.919 129.084 207.844C129.362 207.77 129.598 207.588 129.742 207.339L131.91 203.584C132.054 203.335 132.093 203.039 132.018 202.762C131.944 202.484 131.762 202.247 131.513 202.104L130.067 201.268C130.195 200.645 130.256 200.07 130.256 199.5C130.256 198.93 130.195 198.355 130.067 197.731L131.513 196.896C131.762 196.753 131.944 196.516 132.019 196.238ZM127.778 197.488C127.989 198.25 128.088 198.89 128.088 199.5C128.088 200.11 127.989 200.75 127.778 201.512C127.646 201.988 127.852 202.493 128.28 202.74L129.491 203.439L128.407 205.317L127.22 204.631C126.792 204.384 126.251 204.458 125.904 204.81C124.961 205.77 123.748 206.463 122.395 206.815C121.917 206.939 121.584 207.37 121.584 207.864V209.256H119.416V207.864C119.416 207.37 119.082 206.939 118.605 206.815C117.252 206.463 116.038 205.77 115.095 204.81C114.749 204.458 114.208 204.384 113.78 204.631L112.593 205.317L111.509 203.439L112.719 202.74C113.147 202.493 113.354 201.988 113.222 201.512C113.011 200.75 112.912 200.11 112.912 199.5C112.912 198.89 113.011 198.25 113.222 197.488C113.354 197.012 113.148 196.507 112.72 196.26L111.509 195.561L112.593 193.683L113.78 194.369C114.208 194.616 114.749 194.542 115.095 194.19C116.038 193.23 117.252 192.537 118.605 192.185C119.082 192.061 119.416 191.63 119.416 191.136V189.744H121.584V191.136C121.584 191.63 121.917 192.061 122.395 192.185C123.748 192.537 124.961 193.23 125.905 194.19C126.251 194.542 126.792 194.616 127.22 194.369L128.407 193.683L129.491 195.561L128.28 196.26C127.852 196.507 127.646 197.012 127.778 197.488Z" fill="black"/>
<path d="M120.5 194.08C117.511 194.08 115.08 196.511 115.08 199.5C115.08 202.489 117.511 204.92 120.5 204.92C123.489 204.92 125.92 202.489 125.92 199.5C125.92 196.511 123.489 194.08 120.5 194.08ZM120.5 202.752C118.707 202.752 117.248 201.293 117.248 199.5C117.248 197.707 118.707 196.248 120.5 196.248C122.293 196.248 123.752 197.707 123.752 199.5C123.752 201.293 122.293 202.752 120.5 202.752Z" fill="black"/>
<path d="M135.063 189.536C135.504 189.095 135.325 188.426 135.325 188.426L133.792 183.827C133.603 183.259 132.989 182.952 132.421 183.142C131.853 183.331 131.546 183.945 131.735 184.513L131.866 184.904C130.893 184.163 129.845 183.511 128.741 182.964C126.151 181.679 123.302 181 120.5 181C115.585 181 110.947 182.932 107.439 186.439C103.932 189.947 102 194.585 102 199.5C102 201.77 102.477 204.095 103.417 206.412C103.588 206.833 103.994 207.088 104.422 207.088C104.558 207.088 104.696 207.062 104.829 207.008C105.384 206.783 105.651 206.151 105.426 205.596C104.591 203.54 104.168 201.489 104.168 199.5C104.168 190.494 111.494 183.168 120.5 183.168C123.805 183.168 127.142 184.268 129.915 186.175C129.385 186.066 128.845 186.367 128.669 186.893C128.48 187.461 128.787 188.075 129.355 188.264L133.954 189.797C133.954 189.797 134.602 189.997 135.063 189.536Z" fill="black"/>
<path d="M105.675 210.574L107.208 215.173C107.359 215.627 107.782 215.914 108.236 215.914C108.35 215.914 108.465 215.896 108.579 215.859C109.147 215.669 109.454 215.055 109.265 214.487L109.134 214.096C110.107 214.837 111.155 215.489 112.259 216.037C114.849 217.321 117.698 218 120.5 218C125.415 218 130.053 216.069 133.561 212.561C137.068 209.053 139 204.415 139 199.5C139 197.23 138.523 194.905 137.583 192.589C137.358 192.034 136.725 191.767 136.171 191.992C135.616 192.217 135.349 192.849 135.574 193.404C136.409 195.46 136.832 197.511 136.832 199.5C136.832 208.506 129.506 215.832 120.5 215.832C117.195 215.832 113.858 214.733 111.086 212.825C111.616 212.934 112.155 212.633 112.331 212.107C112.52 211.539 112.213 210.925 111.645 210.736L107.046 209.203C106.404 208.989 105.937 209.465 105.937 209.465C105.486 209.915 105.675 210.574 105.675 210.574Z" fill="black"/>
<mask id="path-85-outside-1_1624_4718" maskUnits="userSpaceOnUse" x="182" y="178" width="44" height="44" fill="black">
<rect fill="white" x="182" y="178" width="44" height="44"/>
<path d="M223.643 196.733L220.296 197.802C220.229 197.827 220.157 197.839 220.085 197.837C219.918 197.836 219.757 197.776 219.63 197.668C219.503 197.559 219.418 197.409 219.392 197.244C219.366 197.079 219.399 196.91 219.486 196.767C219.573 196.625 219.708 196.518 219.867 196.466L223.228 195.39C223.316 195.362 223.409 195.351 223.501 195.359C223.594 195.367 223.683 195.392 223.766 195.435C223.848 195.477 223.921 195.536 223.981 195.606C224.041 195.677 224.086 195.759 224.114 195.847C224.142 195.935 224.153 196.028 224.145 196.12C224.137 196.212 224.111 196.302 224.069 196.384C224.027 196.467 223.968 196.54 223.898 196.6C223.827 196.659 223.745 196.705 223.657 196.733H223.643ZM219.635 194.11L221.456 190.595C221.542 190.429 221.558 190.235 221.502 190.057C221.445 189.879 221.32 189.731 221.154 189.645C220.988 189.56 220.795 189.543 220.617 189.6C220.439 189.657 220.29 189.782 220.205 189.948L218.384 193.463C218.341 193.545 218.315 193.635 218.307 193.727C218.299 193.82 218.31 193.912 218.338 194.001C218.366 194.089 218.411 194.171 218.471 194.241C218.53 194.312 218.604 194.37 218.686 194.413C218.788 194.454 218.899 194.473 219.009 194.469C219.136 194.471 219.262 194.439 219.372 194.376C219.482 194.313 219.573 194.221 219.635 194.11ZM225.014 201.676L221.498 199.855C221.416 199.812 221.326 199.786 221.234 199.779C221.142 199.771 221.049 199.781 220.961 199.809C220.873 199.837 220.791 199.883 220.721 199.942C220.65 200.002 220.592 200.075 220.549 200.157C220.507 200.239 220.481 200.329 220.473 200.421C220.465 200.513 220.476 200.606 220.504 200.694C220.532 200.782 220.577 200.864 220.637 200.935C220.696 201.006 220.769 201.064 220.851 201.106L224.367 202.927C224.467 202.979 224.578 203.005 224.691 203.005C224.849 203.005 225.002 202.953 225.127 202.855C225.251 202.758 225.339 202.621 225.377 202.468C225.414 202.314 225.399 202.153 225.333 202.009C225.267 201.865 225.155 201.748 225.014 201.676ZM204.947 188.141C204.946 188.27 204.91 188.398 204.842 188.508C204.774 188.619 204.676 188.708 204.56 188.766L200.341 190.876C200.243 190.926 200.135 190.952 200.025 190.953C199.893 190.954 199.764 190.917 199.652 190.848C199.551 190.784 199.467 190.696 199.41 190.592C199.352 190.487 199.322 190.369 199.322 190.25V186.031C199.322 185.911 199.353 185.794 199.412 185.689C199.471 185.585 199.555 185.497 199.657 185.434C199.759 185.371 199.876 185.336 199.996 185.331C200.115 185.326 200.234 185.352 200.341 185.405L204.56 187.515C204.676 187.573 204.774 187.663 204.842 187.773C204.91 187.884 204.946 188.011 204.947 188.141ZM202.669 188.141L200.728 187.17V189.111L202.669 188.141ZM192.291 181.812H186.666C186.479 181.812 186.3 181.887 186.168 182.018C186.037 182.15 185.962 182.329 185.962 182.516C185.962 182.702 186.037 182.881 186.168 183.013C186.3 183.145 186.479 183.219 186.666 183.219H192.291C192.477 183.219 192.656 183.145 192.788 183.013C192.92 182.881 192.994 182.702 192.994 182.516C192.994 182.329 192.92 182.15 192.788 182.018C192.656 181.887 192.477 181.812 192.291 181.812ZM192.291 184.625H186.666C186.479 184.625 186.3 184.699 186.168 184.831C186.037 184.963 185.962 185.142 185.962 185.328C185.962 185.515 186.037 185.693 186.168 185.825C186.3 185.957 186.479 186.031 186.666 186.031H192.291C192.477 186.031 192.656 185.957 192.788 185.825C192.92 185.693 192.994 185.515 192.994 185.328C192.994 185.142 192.92 184.963 192.788 184.831C192.656 184.699 192.477 184.625 192.291 184.625ZM192.291 187.438H186.666C186.479 187.438 186.3 187.512 186.168 187.643C186.037 187.775 185.962 187.954 185.962 188.141C185.962 188.327 186.037 188.506 186.168 188.638C186.3 188.77 186.479 188.844 186.666 188.844H192.291C192.477 188.844 192.656 188.77 192.788 188.638C192.92 188.506 192.994 188.327 192.994 188.141C192.994 187.954 192.92 187.775 192.788 187.643C192.656 187.512 192.477 187.438 192.291 187.438ZM215.606 200.516L214.903 200.72L217.153 208.123C217.183 208.227 217.19 208.336 217.171 208.442C217.153 208.548 217.111 208.648 217.048 208.735C216.985 208.823 216.903 208.896 216.808 208.947C216.713 208.998 216.607 209.027 216.499 209.03L213.588 209.129L194.871 209.762L196.903 216.47C197.062 216.995 197.096 217.549 197.002 218.09C196.909 218.63 196.69 219.142 196.363 219.582C196.036 220.023 195.611 220.381 195.121 220.628C194.632 220.875 194.091 221.004 193.542 221.005C192.788 221.004 192.055 220.761 191.45 220.311C190.844 219.862 190.4 219.23 190.181 218.509L188.072 211.344C186.78 211.216 185.573 210.646 184.654 209.73C183.735 208.813 183.161 207.607 183.029 206.316C182.897 205.025 183.216 203.728 183.932 202.646C184.647 201.563 185.715 200.761 186.954 200.375L191.566 198.969L200.004 193.737H196.488C195.937 193.732 195.41 193.511 195.02 193.122C194.63 192.733 194.407 192.207 194.4 191.656H192.48L187.72 194.377C187.613 194.438 187.492 194.47 187.369 194.469C187.244 194.471 187.122 194.437 187.017 194.37C186.911 194.309 186.822 194.221 186.761 194.115C186.699 194.009 186.666 193.888 186.666 193.766V191.656H185.259C184.7 191.656 184.163 191.434 183.768 191.038C183.372 190.643 183.15 190.106 183.15 189.547V181.109C183.15 180.55 183.372 180.013 183.768 179.618C184.163 179.222 184.7 179 185.259 179H198.619C199.178 179 199.715 179.222 200.11 179.618C200.506 180.013 200.728 180.55 200.728 181.109V182.516H206.43C206.976 182.536 207.493 182.767 207.872 183.16C208.251 183.554 208.463 184.079 208.462 184.625V188.499L210.009 187.543C210.101 187.485 210.205 187.45 210.313 187.439C210.42 187.428 210.529 187.442 210.631 187.48C210.732 187.518 210.823 187.579 210.897 187.659C210.971 187.738 211.026 187.833 211.057 187.937L213.3 195.341L214.003 195.137C214.361 195.013 214.74 194.963 215.117 194.989C215.495 195.015 215.863 195.117 216.2 195.289C216.538 195.461 216.836 195.7 217.079 195.99C217.322 196.28 217.504 196.616 217.614 196.978C217.724 197.341 217.759 197.721 217.719 198.098C217.678 198.474 217.562 198.838 217.377 199.168C217.192 199.499 216.942 199.788 216.643 200.02C216.344 200.251 216 200.42 215.634 200.516H215.606ZM194.4 190.25V184.625C194.4 184.079 194.611 183.554 194.99 183.16C195.369 182.767 195.886 182.536 196.432 182.516H199.322V181.109C199.322 180.923 199.248 180.744 199.116 180.612C198.984 180.48 198.805 180.406 198.619 180.406H185.259C185.073 180.406 184.894 180.48 184.762 180.612C184.63 180.744 184.556 180.923 184.556 181.109V189.547C184.556 189.733 184.63 189.912 184.762 190.044C184.894 190.176 185.073 190.25 185.259 190.25H187.369C187.555 190.25 187.734 190.324 187.866 190.456C187.998 190.588 188.072 190.767 188.072 190.953V192.556L191.939 190.341C192.047 190.283 192.168 190.252 192.291 190.25H194.4ZM202.24 192.359L207.056 189.371V184.625C207.057 184.451 206.994 184.283 206.878 184.153C206.763 184.023 206.603 183.941 206.43 183.922H196.432C196.259 183.941 196.1 184.023 195.984 184.153C195.869 184.283 195.805 184.451 195.806 184.625V191.656C195.805 191.83 195.869 191.998 195.984 192.128C196.1 192.258 196.259 192.34 196.432 192.359H202.24ZM188.564 210.001C188.974 209.999 189.381 209.937 189.773 209.818L193.809 208.595L191.355 200.523L187.327 201.746C186.358 202.041 185.528 202.674 184.988 203.529C184.447 204.385 184.233 205.407 184.383 206.408C184.533 207.408 185.038 208.322 185.805 208.982C186.573 209.641 187.552 210.003 188.564 210.001ZM195.595 216.877L193.542 210.148L190.181 211.168C189.949 211.231 189.724 211.28 189.478 211.323L191.531 218.101C191.612 218.367 191.744 218.614 191.92 218.828C192.096 219.043 192.313 219.221 192.558 219.351C192.803 219.482 193.071 219.563 193.347 219.59C193.624 219.616 193.902 219.588 194.168 219.507C194.703 219.345 195.152 218.976 195.415 218.483C195.679 217.99 195.736 217.413 195.574 216.877H195.595ZM212.681 207.751L207.499 190.756L192.656 199.953L195.202 208.341L212.681 207.751ZM215.599 207.652L209.974 189.223L208.737 189.99L214.087 207.702L215.599 207.652ZM215.226 199.173C215.405 199.116 215.57 199.025 215.712 198.905C215.855 198.784 215.971 198.636 216.056 198.47C216.146 198.307 216.202 198.128 216.22 197.943C216.238 197.758 216.218 197.571 216.162 197.394C216.053 197.038 215.808 196.74 215.479 196.565C215.151 196.389 214.767 196.351 214.411 196.459L213.708 196.663L214.523 199.391L215.226 199.173Z"/>
</mask>
<path d="M223.643 196.733L220.296 197.802C220.229 197.827 220.157 197.839 220.085 197.837C219.918 197.836 219.757 197.776 219.63 197.668C219.503 197.559 219.418 197.409 219.392 197.244C219.366 197.079 219.399 196.91 219.486 196.767C219.573 196.625 219.708 196.518 219.867 196.466L223.228 195.39C223.316 195.362 223.409 195.351 223.501 195.359C223.594 195.367 223.683 195.392 223.766 195.435C223.848 195.477 223.921 195.536 223.981 195.606C224.041 195.677 224.086 195.759 224.114 195.847C224.142 195.935 224.153 196.028 224.145 196.12C224.137 196.212 224.111 196.302 224.069 196.384C224.027 196.467 223.968 196.54 223.898 196.6C223.827 196.659 223.745 196.705 223.657 196.733H223.643ZM219.635 194.11L221.456 190.595C221.542 190.429 221.558 190.235 221.502 190.057C221.445 189.879 221.32 189.731 221.154 189.645C220.988 189.56 220.795 189.543 220.617 189.6C220.439 189.657 220.29 189.782 220.205 189.948L218.384 193.463C218.341 193.545 218.315 193.635 218.307 193.727C218.299 193.82 218.31 193.912 218.338 194.001C218.366 194.089 218.411 194.171 218.471 194.241C218.53 194.312 218.604 194.37 218.686 194.413C218.788 194.454 218.899 194.473 219.009 194.469C219.136 194.471 219.262 194.439 219.372 194.376C219.482 194.313 219.573 194.221 219.635 194.11ZM225.014 201.676L221.498 199.855C221.416 199.812 221.326 199.786 221.234 199.779C221.142 199.771 221.049 199.781 220.961 199.809C220.873 199.837 220.791 199.883 220.721 199.942C220.65 200.002 220.592 200.075 220.549 200.157C220.507 200.239 220.481 200.329 220.473 200.421C220.465 200.513 220.476 200.606 220.504 200.694C220.532 200.782 220.577 200.864 220.637 200.935C220.696 201.006 220.769 201.064 220.851 201.106L224.367 202.927C224.467 202.979 224.578 203.005 224.691 203.005C224.849 203.005 225.002 202.953 225.127 202.855C225.251 202.758 225.339 202.621 225.377 202.468C225.414 202.314 225.399 202.153 225.333 202.009C225.267 201.865 225.155 201.748 225.014 201.676ZM204.947 188.141C204.946 188.27 204.91 188.398 204.842 188.508C204.774 188.619 204.676 188.708 204.56 188.766L200.341 190.876C200.243 190.926 200.135 190.952 200.025 190.953C199.893 190.954 199.764 190.917 199.652 190.848C199.551 190.784 199.467 190.696 199.41 190.592C199.352 190.487 199.322 190.369 199.322 190.25V186.031C199.322 185.911 199.353 185.794 199.412 185.689C199.471 185.585 199.555 185.497 199.657 185.434C199.759 185.371 199.876 185.336 199.996 185.331C200.115 185.326 200.234 185.352 200.341 185.405L204.56 187.515C204.676 187.573 204.774 187.663 204.842 187.773C204.91 187.884 204.946 188.011 204.947 188.141ZM202.669 188.141L200.728 187.17V189.111L202.669 188.141ZM192.291 181.812H186.666C186.479 181.812 186.3 181.887 186.168 182.018C186.037 182.15 185.962 182.329 185.962 182.516C185.962 182.702 186.037 182.881 186.168 183.013C186.3 183.145 186.479 183.219 186.666 183.219H192.291C192.477 183.219 192.656 183.145 192.788 183.013C192.92 182.881 192.994 182.702 192.994 182.516C192.994 182.329 192.92 182.15 192.788 182.018C192.656 181.887 192.477 181.812 192.291 181.812ZM192.291 184.625H186.666C186.479 184.625 186.3 184.699 186.168 184.831C186.037 184.963 185.962 185.142 185.962 185.328C185.962 185.515 186.037 185.693 186.168 185.825C186.3 185.957 186.479 186.031 186.666 186.031H192.291C192.477 186.031 192.656 185.957 192.788 185.825C192.92 185.693 192.994 185.515 192.994 185.328C192.994 185.142 192.92 184.963 192.788 184.831C192.656 184.699 192.477 184.625 192.291 184.625ZM192.291 187.438H186.666C186.479 187.438 186.3 187.512 186.168 187.643C186.037 187.775 185.962 187.954 185.962 188.141C185.962 188.327 186.037 188.506 186.168 188.638C186.3 188.77 186.479 188.844 186.666 188.844H192.291C192.477 188.844 192.656 188.77 192.788 188.638C192.92 188.506 192.994 188.327 192.994 188.141C192.994 187.954 192.92 187.775 192.788 187.643C192.656 187.512 192.477 187.438 192.291 187.438ZM215.606 200.516L214.903 200.72L217.153 208.123C217.183 208.227 217.19 208.336 217.171 208.442C217.153 208.548 217.111 208.648 217.048 208.735C216.985 208.823 216.903 208.896 216.808 208.947C216.713 208.998 216.607 209.027 216.499 209.03L213.588 209.129L194.871 209.762L196.903 216.47C197.062 216.995 197.096 217.549 197.002 218.09C196.909 218.63 196.69 219.142 196.363 219.582C196.036 220.023 195.611 220.381 195.121 220.628C194.632 220.875 194.091 221.004 193.542 221.005C192.788 221.004 192.055 220.761 191.45 220.311C190.844 219.862 190.4 219.23 190.181 218.509L188.072 211.344C186.78 211.216 185.573 210.646 184.654 209.73C183.735 208.813 183.161 207.607 183.029 206.316C182.897 205.025 183.216 203.728 183.932 202.646C184.647 201.563 185.715 200.761 186.954 200.375L191.566 198.969L200.004 193.737H196.488C195.937 193.732 195.41 193.511 195.02 193.122C194.63 192.733 194.407 192.207 194.4 191.656H192.48L187.72 194.377C187.613 194.438 187.492 194.47 187.369 194.469C187.244 194.471 187.122 194.437 187.017 194.37C186.911 194.309 186.822 194.221 186.761 194.115C186.699 194.009 186.666 193.888 186.666 193.766V191.656H185.259C184.7 191.656 184.163 191.434 183.768 191.038C183.372 190.643 183.15 190.106 183.15 189.547V181.109C183.15 180.55 183.372 180.013 183.768 179.618C184.163 179.222 184.7 179 185.259 179H198.619C199.178 179 199.715 179.222 200.11 179.618C200.506 180.013 200.728 180.55 200.728 181.109V182.516H206.43C206.976 182.536 207.493 182.767 207.872 183.16C208.251 183.554 208.463 184.079 208.462 184.625V188.499L210.009 187.543C210.101 187.485 210.205 187.45 210.313 187.439C210.42 187.428 210.529 187.442 210.631 187.48C210.732 187.518 210.823 187.579 210.897 187.659C210.971 187.738 211.026 187.833 211.057 187.937L213.3 195.341L214.003 195.137C214.361 195.013 214.74 194.963 215.117 194.989C215.495 195.015 215.863 195.117 216.2 195.289C216.538 195.461 216.836 195.7 217.079 195.99C217.322 196.28 217.504 196.616 217.614 196.978C217.724 197.341 217.759 197.721 217.719 198.098C217.678 198.474 217.562 198.838 217.377 199.168C217.192 199.499 216.942 199.788 216.643 200.02C216.344 200.251 216 200.42 215.634 200.516H215.606ZM194.4 190.25V184.625C194.4 184.079 194.611 183.554 194.99 183.16C195.369 182.767 195.886 182.536 196.432 182.516H199.322V181.109C199.322 180.923 199.248 180.744 199.116 180.612C198.984 180.48 198.805 180.406 198.619 180.406H185.259C185.073 180.406 184.894 180.48 184.762 180.612C184.63 180.744 184.556 180.923 184.556 181.109V189.547C184.556 189.733 184.63 189.912 184.762 190.044C184.894 190.176 185.073 190.25 185.259 190.25H187.369C187.555 190.25 187.734 190.324 187.866 190.456C187.998 190.588 188.072 190.767 188.072 190.953V192.556L191.939 190.341C192.047 190.283 192.168 190.252 192.291 190.25H194.4ZM202.24 192.359L207.056 189.371V184.625C207.057 184.451 206.994 184.283 206.878 184.153C206.763 184.023 206.603 183.941 206.43 183.922H196.432C196.259 183.941 196.1 184.023 195.984 184.153C195.869 184.283 195.805 184.451 195.806 184.625V191.656C195.805 191.83 195.869 191.998 195.984 192.128C196.1 192.258 196.259 192.34 196.432 192.359H202.24ZM188.564 210.001C188.974 209.999 189.381 209.937 189.773 209.818L193.809 208.595L191.355 200.523L187.327 201.746C186.358 202.041 185.528 202.674 184.988 203.529C184.447 204.385 184.233 205.407 184.383 206.408C184.533 207.408 185.038 208.322 185.805 208.982C186.573 209.641 187.552 210.003 188.564 210.001ZM195.595 216.877L193.542 210.148L190.181 211.168C189.949 211.231 189.724 211.28 189.478 211.323L191.531 218.101C191.612 218.367 191.744 218.614 191.92 218.828C192.096 219.043 192.313 219.221 192.558 219.351C192.803 219.482 193.071 219.563 193.347 219.59C193.624 219.616 193.902 219.588 194.168 219.507C194.703 219.345 195.152 218.976 195.415 218.483C195.679 217.99 195.736 217.413 195.574 216.877H195.595ZM212.681 207.751L207.499 190.756L192.656 199.953L195.202 208.341L212.681 207.751ZM215.599 207.652L209.974 189.223L208.737 189.99L214.087 207.702L215.599 207.652ZM215.226 199.173C215.405 199.116 215.57 199.025 215.712 198.905C215.855 198.784 215.971 198.636 216.056 198.47C216.146 198.307 216.202 198.128 216.22 197.943C216.238 197.758 216.218 197.571 216.162 197.394C216.053 197.038 215.808 196.74 215.479 196.565C215.151 196.389 214.767 196.351 214.411 196.459L213.708 196.663L214.523 199.391L215.226 199.173Z" fill="black"/>
<path d="M223.643 196.733L220.296 197.802C220.229 197.827 220.157 197.839 220.085 197.837C219.918 197.836 219.757 197.776 219.63 197.668C219.503 197.559 219.418 197.409 219.392 197.244C219.366 197.079 219.399 196.91 219.486 196.767C219.573 196.625 219.708 196.518 219.867 196.466L223.228 195.39C223.316 195.362 223.409 195.351 223.501 195.359C223.594 195.367 223.683 195.392 223.766 195.435C223.848 195.477 223.921 195.536 223.981 195.606C224.041 195.677 224.086 195.759 224.114 195.847C224.142 195.935 224.153 196.028 224.145 196.12C224.137 196.212 224.111 196.302 224.069 196.384C224.027 196.467 223.968 196.54 223.898 196.6C223.827 196.659 223.745 196.705 223.657 196.733H223.643ZM219.635 194.11L221.456 190.595C221.542 190.429 221.558 190.235 221.502 190.057C221.445 189.879 221.32 189.731 221.154 189.645C220.988 189.56 220.795 189.543 220.617 189.6C220.439 189.657 220.29 189.782 220.205 189.948L218.384 193.463C218.341 193.545 218.315 193.635 218.307 193.727C218.299 193.82 218.31 193.912 218.338 194.001C218.366 194.089 218.411 194.171 218.471 194.241C218.53 194.312 218.604 194.37 218.686 194.413C218.788 194.454 218.899 194.473 219.009 194.469C219.136 194.471 219.262 194.439 219.372 194.376C219.482 194.313 219.573 194.221 219.635 194.11ZM225.014 201.676L221.498 199.855C221.416 199.812 221.326 199.786 221.234 199.779C221.142 199.771 221.049 199.781 220.961 199.809C220.873 199.837 220.791 199.883 220.721 199.942C220.65 200.002 220.592 200.075 220.549 200.157C220.507 200.239 220.481 200.329 220.473 200.421C220.465 200.513 220.476 200.606 220.504 200.694C220.532 200.782 220.577 200.864 220.637 200.935C220.696 201.006 220.769 201.064 220.851 201.106L224.367 202.927C224.467 202.979 224.578 203.005 224.691 203.005C224.849 203.005 225.002 202.953 225.127 202.855C225.251 202.758 225.339 202.621 225.377 202.468C225.414 202.314 225.399 202.153 225.333 202.009C225.267 201.865 225.155 201.748 225.014 201.676ZM204.947 188.141C204.946 188.27 204.91 188.398 204.842 188.508C204.774 188.619 204.676 188.708 204.56 188.766L200.341 190.876C200.243 190.926 200.135 190.952 200.025 190.953C199.893 190.954 199.764 190.917 199.652 190.848C199.551 190.784 199.467 190.696 199.41 190.592C199.352 190.487 199.322 190.369 199.322 190.25V186.031C199.322 185.911 199.353 185.794 199.412 185.689C199.471 185.585 199.555 185.497 199.657 185.434C199.759 185.371 199.876 185.336 199.996 185.331C200.115 185.326 200.234 185.352 200.341 185.405L204.56 187.515C204.676 187.573 204.774 187.663 204.842 187.773C204.91 187.884 204.946 188.011 204.947 188.141ZM202.669 188.141L200.728 187.17V189.111L202.669 188.141ZM192.291 181.812H186.666C186.479 181.812 186.3 181.887 186.168 182.018C186.037 182.15 185.962 182.329 185.962 182.516C185.962 182.702 186.037 182.881 186.168 183.013C186.3 183.145 186.479 183.219 186.666 183.219H192.291C192.477 183.219 192.656 183.145 192.788 183.013C192.92 182.881 192.994 182.702 192.994 182.516C192.994 182.329 192.92 182.15 192.788 182.018C192.656 181.887 192.477 181.812 192.291 181.812ZM192.291 184.625H186.666C186.479 184.625 186.3 184.699 186.168 184.831C186.037 184.963 185.962 185.142 185.962 185.328C185.962 185.515 186.037 185.693 186.168 185.825C186.3 185.957 186.479 186.031 186.666 186.031H192.291C192.477 186.031 192.656 185.957 192.788 185.825C192.92 185.693 192.994 185.515 192.994 185.328C192.994 185.142 192.92 184.963 192.788 184.831C192.656 184.699 192.477 184.625 192.291 184.625ZM192.291 187.438H186.666C186.479 187.438 186.3 187.512 186.168 187.643C186.037 187.775 185.962 187.954 185.962 188.141C185.962 188.327 186.037 188.506 186.168 188.638C186.3 188.77 186.479 188.844 186.666 188.844H192.291C192.477 188.844 192.656 188.77 192.788 188.638C192.92 188.506 192.994 188.327 192.994 188.141C192.994 187.954 192.92 187.775 192.788 187.643C192.656 187.512 192.477 187.438 192.291 187.438ZM215.606 200.516L214.903 200.72L217.153 208.123C217.183 208.227 217.19 208.336 217.171 208.442C217.153 208.548 217.111 208.648 217.048 208.735C216.985 208.823 216.903 208.896 216.808 208.947C216.713 208.998 216.607 209.027 216.499 209.03L213.588 209.129L194.871 209.762L196.903 216.47C197.062 216.995 197.096 217.549 197.002 218.09C196.909 218.63 196.69 219.142 196.363 219.582C196.036 220.023 195.611 220.381 195.121 220.628C194.632 220.875 194.091 221.004 193.542 221.005C192.788 221.004 192.055 220.761 191.45 220.311C190.844 219.862 190.4 219.23 190.181 218.509L188.072 211.344C186.78 211.216 185.573 210.646 184.654 209.73C183.735 208.813 183.161 207.607 183.029 206.316C182.897 205.025 183.216 203.728 183.932 202.646C184.647 201.563 185.715 200.761 186.954 200.375L191.566 198.969L200.004 193.737H196.488C195.937 193.732 195.41 193.511 195.02 193.122C194.63 192.733 194.407 192.207 194.4 191.656H192.48L187.72 194.377C187.613 194.438 187.492 194.47 187.369 194.469C187.244 194.471 187.122 194.437 187.017 194.37C186.911 194.309 186.822 194.221 186.761 194.115C186.699 194.009 186.666 193.888 186.666 193.766V191.656H185.259C184.7 191.656 184.163 191.434 183.768 191.038C183.372 190.643 183.15 190.106 183.15 189.547V181.109C183.15 180.55 183.372 180.013 183.768 179.618C184.163 179.222 184.7 179 185.259 179H198.619C199.178 179 199.715 179.222 200.11 179.618C200.506 180.013 200.728 180.55 200.728 181.109V182.516H206.43C206.976 182.536 207.493 182.767 207.872 183.16C208.251 183.554 208.463 184.079 208.462 184.625V188.499L210.009 187.543C210.101 187.485 210.205 187.45 210.313 187.439C210.42 187.428 210.529 187.442 210.631 187.48C210.732 187.518 210.823 187.579 210.897 187.659C210.971 187.738 211.026 187.833 211.057 187.937L213.3 195.341L214.003 195.137C214.361 195.013 214.74 194.963 215.117 194.989C215.495 195.015 215.863 195.117 216.2 195.289C216.538 195.461 216.836 195.7 217.079 195.99C217.322 196.28 217.504 196.616 217.614 196.978C217.724 197.341 217.759 197.721 217.719 198.098C217.678 198.474 217.562 198.838 217.377 199.168C217.192 199.499 216.942 199.788 216.643 200.02C216.344 200.251 216 200.42 215.634 200.516H215.606ZM194.4 190.25V184.625C194.4 184.079 194.611 183.554 194.99 183.16C195.369 182.767 195.886 182.536 196.432 182.516H199.322V181.109C199.322 180.923 199.248 180.744 199.116 180.612C198.984 180.48 198.805 180.406 198.619 180.406H185.259C185.073 180.406 184.894 180.48 184.762 180.612C184.63 180.744 184.556 180.923 184.556 181.109V189.547C184.556 189.733 184.63 189.912 184.762 190.044C184.894 190.176 185.073 190.25 185.259 190.25H187.369C187.555 190.25 187.734 190.324 187.866 190.456C187.998 190.588 188.072 190.767 188.072 190.953V192.556L191.939 190.341C192.047 190.283 192.168 190.252 192.291 190.25H194.4ZM202.24 192.359L207.056 189.371V184.625C207.057 184.451 206.994 184.283 206.878 184.153C206.763 184.023 206.603 183.941 206.43 183.922H196.432C196.259 183.941 196.1 184.023 195.984 184.153C195.869 184.283 195.805 184.451 195.806 184.625V191.656C195.805 191.83 195.869 191.998 195.984 192.128C196.1 192.258 196.259 192.34 196.432 192.359H202.24ZM188.564 210.001C188.974 209.999 189.381 209.937 189.773 209.818L193.809 208.595L191.355 200.523L187.327 201.746C186.358 202.041 185.528 202.674 184.988 203.529C184.447 204.385 184.233 205.407 184.383 206.408C184.533 207.408 185.038 208.322 185.805 208.982C186.573 209.641 187.552 210.003 188.564 210.001ZM195.595 216.877L193.542 210.148L190.181 211.168C189.949 211.231 189.724 211.28 189.478 211.323L191.531 218.101C191.612 218.367 191.744 218.614 191.92 218.828C192.096 219.043 192.313 219.221 192.558 219.351C192.803 219.482 193.071 219.563 193.347 219.59C193.624 219.616 193.902 219.588 194.168 219.507C194.703 219.345 195.152 218.976 195.415 218.483C195.679 217.99 195.736 217.413 195.574 216.877H195.595ZM212.681 207.751L207.499 190.756L192.656 199.953L195.202 208.341L212.681 207.751ZM215.599 207.652L209.974 189.223L208.737 189.99L214.087 207.702L215.599 207.652ZM215.226 199.173C215.405 199.116 215.57 199.025 215.712 198.905C215.855 198.784 215.971 198.636 216.056 198.47C216.146 198.307 216.202 198.128 216.22 197.943C216.238 197.758 216.218 197.571 216.162 197.394C216.053 197.038 215.808 196.74 215.479 196.565C215.151 196.389 214.767 196.351 214.411 196.459L213.708 196.663L214.523 199.391L215.226 199.173Z" stroke="black" stroke-width="0.4" mask="url(#path-85-outside-1_1624_4718)"/>
<path d="M305.727 207.57C304.611 206.282 303.25 205.23 301.723 204.473C300.196 203.717 298.534 203.272 296.834 203.164C295.122 203.265 293.448 203.711 291.913 204.475C290.377 205.239 289.012 206.306 287.9 207.611C287.804 207.706 287.727 207.819 287.675 207.944C287.623 208.069 287.597 208.203 287.597 208.338C287.597 208.473 287.623 208.607 287.675 208.732C287.727 208.857 287.804 208.97 287.9 209.065C289.019 210.349 290.385 211.395 291.916 212.141C293.447 212.888 295.112 213.319 296.813 213.41C298.52 213.299 300.188 212.849 301.719 212.085C303.249 211.322 304.612 210.26 305.727 208.963C305.903 208.774 306 208.525 306 208.266C306 208.008 305.903 207.759 305.727 207.57ZM296.813 211.36C296.205 211.36 295.611 211.18 295.106 210.842C294.6 210.505 294.206 210.025 293.974 209.463C293.741 208.901 293.68 208.283 293.799 207.687C293.917 207.091 294.21 206.543 294.64 206.113C295.07 205.684 295.617 205.391 296.214 205.272C296.81 205.154 297.428 205.214 297.99 205.447C298.551 205.68 299.031 206.074 299.369 206.579C299.707 207.085 299.887 207.679 299.887 208.287C299.887 209.102 299.563 209.884 298.987 210.46C298.41 211.037 297.629 211.36 296.813 211.36ZM291.916 206.852C291.609 207.784 291.609 208.789 291.916 209.721C291.274 209.287 290.665 208.808 290.092 208.287C290.665 207.766 291.275 207.286 291.916 206.852ZM301.711 209.701C302.013 208.775 302.013 207.778 301.711 206.852C302.353 207.286 302.962 207.765 303.534 208.287C302.962 208.802 302.352 209.274 301.711 209.701Z" fill="black"/>
<path d="M288.617 213.409H285.543V208.286C285.543 208.014 285.435 207.754 285.243 207.561C285.051 207.369 284.79 207.261 284.518 207.261H265.052V205.212H286.568C286.839 205.212 287.1 205.104 287.292 204.912C287.484 204.72 287.592 204.459 287.592 204.188C287.592 203.916 287.484 203.655 287.292 203.463C287.1 203.271 286.839 203.163 286.568 203.163H265.052V182.672H295.789V200.09C295.789 200.361 295.896 200.622 296.089 200.814C296.281 201.006 296.541 201.114 296.813 201.114C297.085 201.114 297.345 201.006 297.538 200.814C297.73 200.622 297.838 200.361 297.838 200.09V181.648C297.838 181.376 297.73 181.115 297.538 180.923C297.345 180.731 297.085 180.623 296.813 180.623H264.027C263.756 180.623 263.495 180.731 263.303 180.923C263.111 181.115 263.003 181.376 263.003 181.648V208.286C263.003 208.558 263.111 208.818 263.303 209.01C263.495 209.203 263.756 209.31 264.027 209.31H275.298V213.409H272.224C271.952 213.409 271.692 213.517 271.499 213.709C271.307 213.901 271.199 214.161 271.199 214.433C271.199 214.705 271.307 214.966 271.499 215.158C271.692 215.35 271.952 215.458 272.224 215.458H288.617C288.888 215.458 289.149 215.35 289.341 215.158C289.533 214.966 289.641 214.705 289.641 214.433C289.641 214.161 289.533 213.901 289.341 213.709C289.149 213.517 288.888 213.409 288.617 213.409ZM277.347 209.31H283.494V213.409H277.347V209.31Z" fill="black"/>
<path d="M224.727 287.57C223.611 286.282 222.25 285.23 220.723 284.473C219.196 283.717 217.534 283.272 215.834 283.164C214.122 283.265 212.448 283.711 210.913 284.475C209.377 285.239 208.012 286.306 206.9 287.611C206.804 287.706 206.727 287.819 206.675 287.944C206.623 288.069 206.597 288.203 206.597 288.338C206.597 288.473 206.623 288.607 206.675 288.732C206.727 288.857 206.804 288.97 206.9 289.065C208.019 290.349 209.385 291.395 210.916 292.141C212.447 292.888 214.112 293.319 215.813 293.41C217.52 293.299 219.188 292.849 220.719 292.085C222.249 291.322 223.612 290.26 224.727 288.963C224.903 288.774 225 288.525 225 288.266C225 288.008 224.903 287.759 224.727 287.57ZM215.813 291.36C215.205 291.36 214.611 291.18 214.106 290.842C213.6 290.505 213.206 290.025 212.974 289.463C212.741 288.901 212.68 288.283 212.799 287.687C212.917 287.091 213.21 286.543 213.64 286.113C214.07 285.684 214.617 285.391 215.214 285.272C215.81 285.154 216.428 285.214 216.99 285.447C217.551 285.68 218.031 286.074 218.369 286.579C218.707 287.085 218.887 287.679 218.887 288.287C218.887 289.102 218.563 289.884 217.987 290.46C217.41 291.037 216.629 291.36 215.813 291.36ZM210.916 286.852C210.609 287.784 210.609 288.789 210.916 289.721C210.274 289.287 209.665 288.808 209.092 288.287C209.665 287.766 210.275 287.286 210.916 286.852ZM220.711 289.701C221.013 288.775 221.013 287.778 220.711 286.852C221.353 287.286 221.962 287.765 222.534 288.287C221.962 288.802 221.352 289.274 220.711 289.701Z" fill="black"/>
<path d="M207.617 293.409H204.543V288.286C204.543 288.014 204.435 287.754 204.243 287.561C204.051 287.369 203.79 287.261 203.518 287.261H184.052V285.212H205.568C205.839 285.212 206.1 285.104 206.292 284.912C206.484 284.72 206.592 284.459 206.592 284.188C206.592 283.916 206.484 283.655 206.292 283.463C206.1 283.271 205.839 283.163 205.568 283.163H184.052V262.672H214.789V280.09C214.789 280.361 214.896 280.622 215.089 280.814C215.281 281.006 215.541 281.114 215.813 281.114C216.085 281.114 216.345 281.006 216.538 280.814C216.73 280.622 216.838 280.361 216.838 280.09V261.648C216.838 261.376 216.73 261.115 216.538 260.923C216.345 260.731 216.085 260.623 215.813 260.623H183.027C182.756 260.623 182.495 260.731 182.303 260.923C182.111 261.115 182.003 261.376 182.003 261.648V288.286C182.003 288.558 182.111 288.818 182.303 289.01C182.495 289.203 182.756 289.31 183.027 289.31H194.298V293.409H191.224C190.952 293.409 190.692 293.517 190.499 293.709C190.307 293.901 190.199 294.161 190.199 294.433C190.199 294.705 190.307 294.966 190.499 295.158C190.692 295.35 190.952 295.458 191.224 295.458H207.617C207.888 295.458 208.149 295.35 208.341 295.158C208.533 294.966 208.641 294.705 208.641 294.433C208.641 294.161 208.533 293.901 208.341 293.709C208.149 293.517 207.888 293.409 207.617 293.409ZM196.347 289.31H202.494V293.409H196.347V289.31Z" fill="black"/>
<path d="M57.9297 186.482C59.1555 186.482 60.1493 187.476 60.1494 188.702V216.297C60.1492 217.523 59.1554 218.516 57.9297 218.516H20.6777C19.4521 218.516 18.4582 217.522 18.458 216.297V188.702C18.4581 187.476 19.4521 186.483 20.6777 186.482H57.9297ZM20.6777 188.162C20.3797 188.162 20.1378 188.404 20.1377 188.702V216.297C20.1378 216.595 20.3798 216.837 20.6777 216.837H57.9297C58.2278 216.837 58.4696 216.595 58.4697 216.297V188.702C58.4696 188.404 58.2278 188.162 57.9297 188.162H20.6777Z" fill="black" stroke="black" stroke-width="0.3"/>
<path d="M30.7695 189.943C35.2206 190.173 38.7588 193.853 38.7637 198.36C38.7636 203.015 34.9907 206.788 30.3359 206.788C25.6812 206.788 21.9073 203.015 21.9072 198.36C21.9072 193.706 25.6811 189.932 30.3359 189.932L30.7695 189.943ZM29.4961 191.667C26.0044 192.107 23.4244 195.165 23.6016 198.698C23.7815 202.287 26.7425 205.105 30.3359 205.108L30.6592 205.101C33.9237 204.942 36.6179 202.458 37.0293 199.2H34.5371C34.1233 201.289 32.2329 202.766 30.0938 202.647C27.9118 202.526 26.1689 200.784 26.0479 198.603C25.9293 196.463 27.407 194.573 29.4961 194.159V191.667ZM30.3359 195.751C28.8948 195.751 27.7266 196.919 27.7266 198.36C27.7266 199.801 28.8948 200.97 30.3359 200.97C31.777 200.97 32.9453 199.801 32.9453 198.36C32.9453 196.919 31.777 195.751 30.3359 195.751ZM31.1758 194.162C32.87 194.503 34.193 195.826 34.5342 197.521H37.0293C36.6425 194.463 34.2336 192.053 31.1758 191.666V194.162Z" fill="black" stroke="black" stroke-width="0.3"/>
<path d="M55.1709 206.49C56.0157 206.49 56.7011 207.176 56.7012 208.021V213.539C56.7012 214.384 56.0158 215.069 55.1709 215.069H41.374C40.5292 215.069 39.8438 214.384 39.8438 213.539V208.021C39.8438 207.176 40.5292 206.49 41.374 206.49H55.1709ZM49.0664 213.389H55.0205V208.17H52.1982L49.0664 213.389ZM45.6172 213.389H47.1074L50.2393 208.17H48.748L45.6172 213.389ZM41.5234 213.389H43.6582L46.79 208.17H41.5234V213.389Z" fill="black" stroke="black" stroke-width="0.3"/>
<path d="M49.6514 198.898C50.1151 198.898 50.491 199.275 50.4912 199.738C50.4912 200.202 50.1152 200.578 49.6514 200.578H41.373C40.9094 200.578 40.5332 200.202 40.5332 199.738C40.5334 199.275 40.9095 198.899 41.373 198.898H49.6514Z" fill="black" stroke="black" stroke-width="0.3"/>
<path d="M48.9619 192.002C49.4256 192.002 49.8015 192.378 49.8018 192.842C49.8018 193.306 49.4257 193.682 48.9619 193.682H41.373C40.9093 193.681 40.5332 193.306 40.5332 192.842C40.5334 192.378 40.9095 192.002 41.373 192.002H48.9619Z" fill="black" stroke="black" stroke-width="0.3"/>
<path d="M31.0264 207.869C31.49 207.869 31.866 208.245 31.8662 208.709V213.389H32.9463V212.158C32.9465 211.695 33.3224 211.318 33.7861 211.318C34.2497 211.319 34.6258 211.695 34.626 212.158V213.389H35.8555C36.3192 213.389 36.6953 213.765 36.6953 214.229C36.6951 214.692 36.3191 215.068 35.8555 215.068H23.4375C22.9739 215.068 22.5979 214.692 22.5977 214.229C22.5977 213.765 22.9738 213.389 23.4375 213.389H24.668V209.399C24.668 208.936 25.0441 208.56 25.5078 208.56C25.9714 208.56 26.3477 208.936 26.3477 209.399V213.389H27.4268V210.779C27.4268 210.316 27.8029 209.94 28.2666 209.939C28.7305 209.939 29.1064 210.315 29.1064 210.779V213.389H30.1865V208.709C30.1867 208.245 30.5626 207.869 31.0264 207.869Z" fill="black" stroke="black" stroke-width="0.3"/>
<path d="M29.4648 266.23C30.9593 266.097 32.4171 266.553 33.5684 267.516C34.3687 268.185 34.9662 269.06 35.2949 270.047C35.4361 270.471 35.2062 270.929 34.7822 271.07C34.3583 271.211 33.9 270.982 33.7588 270.559C33.525 269.857 33.1003 269.233 32.5303 268.757C30.8379 267.342 28.3098 267.568 26.8955 269.261C25.4811 270.953 25.708 273.481 27.4004 274.896C28.2204 275.581 29.2569 275.906 30.3213 275.811C31.3858 275.715 32.3488 275.212 33.0342 274.392C33.3507 274.013 33.5921 273.585 33.751 273.118C33.8951 272.695 34.3555 272.468 34.7783 272.612C35.2013 272.756 35.4274 273.217 35.2832 273.64C35.0599 274.295 34.721 274.898 34.2764 275.43C33.3142 276.581 31.9603 277.289 30.4658 277.423C30.2953 277.438 30.1252 277.445 29.9561 277.445C28.6426 277.445 27.382 276.99 26.3623 276.138C25.211 275.175 24.5029 273.822 24.3691 272.327C24.2354 270.833 24.6921 269.375 25.6543 268.224C26.6165 267.072 27.9703 266.364 29.4648 266.23Z" fill="black" stroke="black" stroke-width="0.3"/>
<path d="M41.4355 262.017C41.8206 261.794 42.2986 261.794 42.6836 262.017L56.4121 269.943C56.7972 270.166 57.0361 270.58 57.0361 271.024V275.399C57.0359 275.846 56.6741 276.208 56.2275 276.208C55.7808 276.208 55.4182 275.846 55.418 275.399V272.171L42.8691 279.417V293.907L48.8301 290.466V281.635C48.8301 280.942 49.3933 280.379 50.0859 280.379H55.418V278.475C55.4182 278.028 55.7808 277.666 56.2275 277.666C56.6741 277.666 57.0359 278.028 57.0361 278.475V280.379H58.8945C59.587 280.379 60.1504 280.942 60.1504 281.635V294.899C60.1504 295.592 59.587 296.155 58.8945 296.155H57.4512C57.0043 296.155 56.6416 295.793 56.6416 295.346C56.6418 294.899 57.0044 294.537 57.4512 294.537H58.5312V281.997H50.4482V294.537H54.375C54.8218 294.537 55.1844 294.899 55.1846 295.346C55.1846 295.793 54.8219 296.155 54.375 296.155H50.0859C49.3933 296.155 48.8301 295.592 48.8301 294.899V292.334L42.6836 295.884C42.491 295.995 42.2751 296.051 42.0596 296.051C41.8441 296.051 41.6283 295.995 41.4355 295.884L27.707 287.958C27.3218 287.736 27.082 287.321 27.082 286.876V279.261C26.8775 279.181 26.6764 279.093 26.4785 278.996L24.6855 281.142C24.7046 281.213 24.7207 281.286 24.7275 281.362C24.7594 281.718 24.6509 282.066 24.4219 282.341V282.342L18.9824 288.85C18.7531 289.124 18.4294 289.292 18.0732 289.324C18.0331 289.328 17.9926 289.33 17.9521 289.33C17.6388 289.33 17.3377 289.222 17.0947 289.019L15.3301 287.543C14.7633 287.069 14.6873 286.222 15.1611 285.655L20.6006 279.147C20.8894 278.802 21.3158 278.643 21.7324 278.675L23.5283 276.526C21.4197 273.639 21.4521 269.576 23.8467 266.711C26.6628 263.342 31.6914 262.887 35.0654 265.694L41.4355 262.017ZM36.3555 276.591C36.2686 276.708 36.1802 276.826 36.085 276.939C34.7191 278.574 32.7972 279.579 30.6758 279.769C30.4338 279.79 30.1922 279.801 29.9521 279.801C29.53 279.801 29.1122 279.765 28.7012 279.699V286.662L41.25 293.907V279.417L36.3555 276.591ZM16.5811 286.479L17.9189 287.598L23.001 281.517L21.6631 280.398L16.5811 286.479ZM23.1357 279.521L23.6045 279.912L25.0918 278.132C25.0117 278.07 24.9301 278.01 24.8516 277.944C24.7727 277.878 24.6981 277.808 24.623 277.74L23.1357 279.521ZM34.042 266.948C31.3528 264.701 27.3355 265.06 25.0879 267.749C22.8406 270.438 23.2005 274.455 25.8896 276.702C27.1926 277.791 28.8407 278.308 30.5322 278.156C32.2235 278.005 33.7538 277.204 34.8428 275.901C35.9318 274.598 36.4482 272.95 36.2969 271.259C36.1456 269.568 35.3448 268.037 34.042 266.948ZM36.2285 266.891C37.1816 268.095 37.7681 269.549 37.9082 271.114C38.0358 272.54 37.7827 273.941 37.1895 275.204L42.0586 278.016L54.6084 270.771L42.0586 263.524L36.2285 266.891Z" fill="black" stroke="black" stroke-width="0.3"/>
<path d="M56.5703 283.57C57.0172 283.57 57.3799 283.933 57.3799 284.38C57.3799 284.827 57.0172 285.189 56.5703 285.189H52.4111C51.9642 285.189 51.6016 284.827 51.6016 284.38C51.6016 283.933 51.9642 283.57 52.4111 283.57H56.5703Z" fill="black" stroke="black" stroke-width="0.3"/>
<path d="M56.5703 286.053C57.0172 286.053 57.3799 286.415 57.3799 286.862C57.3799 287.309 57.0172 287.672 56.5703 287.672H52.4111C51.9642 287.672 51.6016 287.309 51.6016 286.862C51.6016 286.415 51.9642 286.053 52.4111 286.053H56.5703Z" fill="black" stroke="black" stroke-width="0.3"/>
<path d="M56.5703 288.535C57.0172 288.535 57.3799 288.898 57.3799 289.345C57.3799 289.792 57.0172 290.154 56.5703 290.154H52.4111C51.9642 290.154 51.6016 289.792 51.6016 289.345C51.6016 288.898 51.9642 288.535 52.4111 288.535H56.5703Z" fill="black" stroke="black" stroke-width="0.3"/>
<path d="M54.9258 291.018C55.3727 291.018 55.7354 291.38 55.7354 291.827C55.7354 292.274 55.3727 292.637 54.9258 292.637H52.4111C51.9642 292.637 51.6016 292.274 51.6016 291.827C51.6016 291.38 51.9642 291.018 52.4111 291.018H54.9258Z" fill="black" stroke="black" stroke-width="0.3"/>
<path d="M120.96 258.9C130.169 258.9 137.66 266.391 137.66 275.6C137.66 280.801 135.181 285.776 131.029 288.911C130.869 289.032 130.68 289.091 130.493 289.091C130.258 289.091 130.024 288.996 129.853 288.817L129.783 288.736C129.486 288.344 129.564 287.785 129.957 287.488C133.665 284.69 135.879 280.245 135.879 275.6C135.879 267.374 129.186 260.681 120.96 260.681C112.734 260.681 106.041 267.374 106.041 275.6C106.041 280.245 108.255 284.69 111.963 287.488C112.332 287.767 112.425 288.275 112.189 288.661L112.138 288.736C111.841 289.13 111.282 289.202 110.892 288.911H110.891C106.739 285.776 104.261 280.801 104.261 275.6C104.261 266.391 111.751 258.901 120.96 258.9Z" fill="black" stroke="black" stroke-width="0.2"/>
<path d="M129.198 298.553C129.253 298.528 129.304 298.49 129.333 298.471L129.398 298.432C129.418 298.42 129.439 298.402 129.461 298.384L129.479 298.379L129.497 298.36C129.519 298.337 129.534 298.311 129.543 298.294C129.554 298.274 129.559 298.266 129.564 298.259V298.258C129.598 298.214 129.645 298.157 129.676 298.091L129.678 298.086C129.701 298.029 129.71 297.965 129.719 297.925C129.727 297.888 129.747 297.822 129.749 297.757C129.752 297.682 129.731 297.603 129.723 297.558L129.722 297.554C129.72 297.545 129.72 297.537 129.718 297.514C129.716 297.494 129.714 297.465 129.703 297.434V297.433L125.539 285.779L125.537 285.776L125.532 285.761C125.53 285.753 125.525 285.74 125.52 285.727L123.119 279.009C124.25 278.289 125.012 277.038 125.012 275.599C125.012 273.363 123.193 271.547 120.959 271.547C118.726 271.547 116.907 273.363 116.907 275.599C116.907 277.037 117.668 278.289 118.799 279.009L116.396 285.733C116.392 285.744 116.389 285.755 116.387 285.761C116.384 285.769 116.383 285.773 116.382 285.776L116.38 285.779L112.216 297.433V297.434C112.205 297.465 112.202 297.495 112.2 297.515C112.198 297.537 112.198 297.546 112.196 297.554V297.558C112.188 297.602 112.167 297.681 112.17 297.756L112.169 297.757C112.171 297.822 112.192 297.888 112.2 297.925C112.209 297.965 112.218 298.029 112.241 298.086L112.243 298.091C112.274 298.156 112.321 298.214 112.354 298.258V298.259C112.36 298.266 112.365 298.273 112.376 298.293C112.385 298.31 112.399 298.336 112.422 298.36L112.439 298.378L112.457 298.384C112.479 298.403 112.5 298.419 112.521 298.432C112.549 298.449 112.564 298.456 112.586 298.47V298.471C112.619 298.492 112.677 298.539 112.738 298.562C112.736 298.562 112.734 298.56 112.732 298.559C112.738 298.562 112.747 298.566 112.757 298.569V298.571C112.758 298.572 112.76 298.572 112.762 298.572C112.763 298.573 112.764 298.574 112.766 298.574V298.573C112.86 298.605 112.957 298.622 113.055 298.622C113.218 298.622 113.37 298.563 113.502 298.485L113.505 298.483C113.534 298.465 113.563 298.446 113.594 298.423L113.595 298.424L113.597 298.422C113.601 298.418 113.606 298.415 113.623 298.406C113.637 298.399 113.661 298.386 113.683 298.365L113.686 298.362L120.959 291.086L128.233 298.362L128.236 298.365C128.258 298.385 128.28 298.398 128.294 298.405C128.31 298.414 128.316 298.418 128.32 298.422L128.325 298.425C128.357 298.447 128.385 298.465 128.414 298.483L128.417 298.485C128.549 298.563 128.701 298.623 128.864 298.623C128.961 298.623 129.059 298.605 129.152 298.573L129.153 298.574C129.154 298.574 129.155 298.573 129.156 298.572C129.158 298.572 129.16 298.572 129.162 298.571L129.161 298.569C129.166 298.568 129.17 298.565 129.174 298.563L129.175 298.564L129.18 298.562C129.183 298.561 129.186 298.558 129.189 298.557M129.198 298.553L129.196 298.554C129.195 298.555 129.19 298.556 129.185 298.559C129.186 298.558 129.188 298.557 129.189 298.557M129.198 298.553C129.195 298.554 129.192 298.555 129.189 298.557M129.198 298.553L129.195 298.555C129.194 298.555 129.192 298.555 129.189 298.557M115.226 294.301L119.7 289.827L117.58 287.708L115.226 294.301ZM122.218 289.827L126.692 294.301L124.338 287.708L122.218 289.827ZM121.442 279.605C121.288 279.628 121.126 279.651 120.959 279.651C120.791 279.651 120.63 279.628 120.476 279.605L118.242 285.852L120.959 288.567L123.675 285.853L121.442 279.605ZM120.959 273.327C119.707 273.327 118.689 274.347 118.688 275.599C118.688 276.851 119.707 277.87 120.959 277.87C122.211 277.87 123.23 276.851 123.23 275.599C123.23 274.347 122.211 273.327 120.959 273.327Z" fill="black" stroke="black" stroke-width="0.2"/>
<path d="M120.96 265.225C126.681 265.225 131.336 269.879 131.336 275.601C131.336 278.086 130.456 280.47 128.857 282.316V282.317C128.681 282.52 128.432 282.625 128.185 282.625C127.978 282.625 127.769 282.553 127.602 282.407V282.406C127.23 282.084 127.19 281.524 127.512 281.152C128.83 279.63 129.555 277.658 129.555 275.601C129.555 270.862 125.7 267.005 120.96 267.005C116.22 267.005 112.364 270.862 112.364 275.601C112.364 277.658 113.09 279.63 114.408 281.152C114.71 281.501 114.693 282.016 114.383 282.345L114.317 282.407C113.948 282.728 113.384 282.689 113.062 282.316C111.463 280.47 110.584 278.085 110.584 275.601C110.584 269.879 115.239 265.225 120.96 265.225Z" fill="black" stroke="black" stroke-width="0.2"/>
<path d="M294.462 279H266.538C264.587 279 263 280.648 263 282.673V295.327C263 297.352 264.587 299 266.538 299H294.462C296.413 299 298 297.352 298 295.327V282.673C298 280.648 296.413 279 294.462 279ZM295.881 295.327C295.881 296.139 295.245 296.8 294.462 296.8H266.538C265.755 296.8 265.119 296.139 265.119 295.327V282.673C265.119 281.861 265.755 281.2 266.538 281.2H294.462C295.245 281.2 295.881 281.861 295.881 282.673V295.327Z" fill="black"/>
<path d="M280.5 273C281.396 273 282.292 272.708 282.974 272.123C283.636 271.556 284 270.802 284 270C284 269.198 283.636 268.444 282.974 267.877C281.61 266.708 279.39 266.708 278.026 267.877C277.364 268.444 277 269.198 277 270C277 270.802 277.364 271.556 278.026 272.123C278.708 272.708 279.604 273 280.5 273ZM279.619 269.248C279.862 269.039 280.181 268.935 280.5 268.935C280.819 268.935 281.138 269.039 281.381 269.248C281.615 269.448 281.745 269.716 281.745 270C281.745 270.284 281.615 270.551 281.381 270.752C280.895 271.169 280.105 271.169 279.619 270.752C279.384 270.551 279.255 270.284 279.255 270C279.255 269.716 279.385 269.449 279.619 269.248Z" fill="black"/>
<path d="M284.332 274.717C284.554 274.906 284.845 275 285.136 275C285.426 275 285.716 274.906 285.938 274.718C287.268 273.591 288 272.094 288 270.5C288 268.906 287.268 267.408 285.938 266.282C285.494 265.906 284.775 265.906 284.332 266.283C283.889 266.66 283.89 267.271 284.334 267.647C285.233 268.409 285.728 269.422 285.728 270.5C285.728 271.578 285.233 272.591 284.334 273.353C283.89 273.729 283.889 274.34 284.332 274.717Z" fill="black"/>
<path d="M275.062 274.718C275.284 274.906 275.574 275 275.864 275C276.155 275 276.446 274.906 276.668 274.717C277.111 274.34 277.11 273.729 276.666 273.353C275.767 272.591 275.272 271.578 275.272 270.5C275.272 269.422 275.767 268.409 276.666 267.647C277.11 267.271 277.111 266.66 276.668 266.283C276.225 265.906 275.506 265.906 275.062 266.282C273.732 267.408 273 268.906 273 270.5C273 272.093 273.732 273.592 275.062 274.718Z" fill="black"/>
<path d="M271.944 292.035H269.111V284.982C269.111 284.44 268.639 284 268.056 284C267.473 284 267 284.44 267 284.982V293.018C267 293.56 267.473 294 268.056 294H271.944C272.527 294 273 293.56 273 293.018C273 292.475 272.527 292.035 271.944 292.035Z" fill="black"/>
<path d="M275 284C274.448 284 274 284.44 274 284.982V293.018C274 293.56 274.448 294 275 294C275.552 294 276 293.56 276 293.018V284.982C276 284.44 275.552 284 275 284Z" fill="black"/>
<path d="M285.18 284.042C284.571 283.885 283.927 284.18 283.743 284.701L282 289.638L280.257 284.701C280.073 284.18 279.429 283.885 278.82 284.042C278.21 284.2 277.865 284.75 278.05 285.271L280.896 293.334C280.897 293.335 280.897 293.336 280.897 293.336C281.211 294.195 282.757 294.247 283.103 293.336C283.103 293.336 283.103 293.335 283.104 293.334L285.951 285.271C286.135 284.75 285.789 284.2 285.18 284.042Z" fill="black"/>
<path d="M292.925 285.965C293.519 285.965 294 285.525 294 284.982C294 284.44 293.519 284 292.925 284H288.075C287.481 284 287 284.44 287 284.982V293.018C287 293.56 287.481 294 288.075 294H292.78C293.374 294 293.855 293.56 293.855 293.018C293.855 292.475 293.374 292.035 292.78 292.035H289.15V289.476H292.201C292.795 289.476 293.276 289.037 293.276 288.494C293.276 287.951 292.795 287.512 292.201 287.512H289.15V285.965H292.925Z" fill="black"/>
<path d="M289.314 270C289.314 272.344 288.58 274.547 287.248 276.205C286.918 276.615 286.917 277.281 287.246 277.692C287.411 277.897 287.627 278 287.843 278C288.059 278 288.274 277.898 288.439 277.693C290.09 275.638 291 272.906 291 270C291 267.094 290.09 264.362 288.439 262.307C288.109 261.897 287.575 261.898 287.246 262.309C286.917 262.719 286.918 263.385 287.248 263.795C288.58 265.453 289.314 267.656 289.314 270Z" fill="black"/>
<path d="M273.157 278C273.373 278 273.589 277.897 273.754 277.692C274.083 277.281 274.082 276.615 273.752 276.205C272.42 274.548 271.686 272.344 271.686 270C271.686 267.656 272.42 265.452 273.752 263.795C274.082 263.385 274.083 262.719 273.754 262.309C273.424 261.898 272.891 261.897 272.561 262.307C270.91 264.362 270 267.094 270 270C270 272.906 270.91 275.638 272.561 277.693C272.726 277.898 272.941 278 273.157 278Z" fill="black"/>
<defs>
<clipPath id="clip0_1624_4718">
<rect width="34.3053" height="34.3053" fill="white" transform="translate(262.642 22.6406)"/>
</clipPath>
<clipPath id="clip1_1624_4718">
<rect width="34.3053" height="34.3053" fill="white" transform="translate(262.642 102.641)"/>
</clipPath>
</defs>
</svg>
