<svg width="512" height="512" viewBox="0 0 512 512" fill="none" xmlns="http://www.w3.org/2000/svg">
<circle cx="40" cy="40" r="40" fill="white"/>
<circle cx="50.4297" cy="29.8467" r="12.0069" fill="#40E8E8"/>
<path d="M57.75 39.321C58.5838 37.5624 59.0063 35.6762 59.0063 33.7084C59.0063 26.4673 53.0816 20.5762 45.7991 20.5762C38.9221 20.5762 33.2636 25.8899 32.7117 32.6269C25.933 33.1755 20.5853 38.8357 20.5853 45.7149C20.5853 47.6828 21.0078 49.569 21.8416 51.3276L20.6071 57.5007C20.4682 58.1955 20.9999 58.847 21.7109 58.847C21.8729 58.847 21.329 58.9443 28.1786 57.5901C29.9375 58.4244 31.8241 58.847 33.7925 58.847C40.6691 58.847 46.3275 53.5338 46.8798 46.7972C48.4592 46.6704 49.9786 46.2639 51.413 45.5835L57.6624 46.8191C58.4486 46.9746 59.1416 46.2798 58.9845 45.4942L57.75 39.321ZM33.7925 56.5959C32.05 56.5959 30.386 56.1968 28.8464 55.4098C28.6212 55.2947 28.3638 55.2587 28.1157 55.3078L23.145 56.2906L24.1242 51.3942C24.174 51.1454 24.1383 50.887 24.0226 50.661C23.2357 49.1215 22.8365 47.4575 22.8365 45.7149C22.8365 40.0744 27.1805 35.423 32.7203 34.8861C32.9677 37.6554 34.0781 40.1798 35.7804 42.188H29.5902C28.9686 42.188 28.4646 42.692 28.4646 43.3136C28.4646 43.9353 28.9686 44.4392 29.5902 44.4392H38.2377C40.075 45.7377 42.2588 46.576 44.6207 46.7871C44.0804 52.2855 39.4306 56.5959 33.7925 56.5959ZM55.4675 39.3876L56.4467 44.2841L51.476 43.3012C51.2279 43.2523 50.9705 43.2881 50.7453 43.4032C49.2057 44.1902 47.5417 44.5893 45.7992 44.5893C39.7994 44.5893 34.9182 39.7081 34.9182 33.7084C34.9182 27.7086 39.7994 22.8274 45.7992 22.8274C51.8404 22.8274 56.7552 27.7086 56.7552 33.7084C56.7552 35.4509 56.3561 37.1149 55.5691 38.6545C55.4535 38.8804 55.4177 39.1388 55.4675 39.3876Z" fill="#222222"/>
<path d="M45.8628 27.1823C43.8886 27.1452 42.2725 28.7299 42.2725 30.6999C42.2725 31.3215 42.7764 31.8255 43.3981 31.8255C44.0197 31.8255 44.5237 31.3215 44.5237 30.6999C44.5237 29.9788 45.1164 29.418 45.8175 29.4331C46.4778 29.4463 47.0218 29.9725 47.056 30.6309C47.0938 31.3613 46.5138 31.9688 45.7956 31.971C45.1753 31.9728 44.6734 32.4762 44.6734 33.0966V35.5115C44.6734 36.1331 45.1774 36.6371 45.799 36.6371C46.4207 36.6371 46.9246 36.1331 46.9246 35.5115V34.0326C48.3641 33.5392 49.3891 32.1497 49.3042 30.5142C49.2091 28.6828 47.6975 27.2192 45.8628 27.1823Z" fill="#222222"/>
<path d="M46.9034 38.8937C46.8414 38.5981 46.6779 38.3494 46.4246 38.1778C45.8415 37.7946 45.1003 38.0238 44.8066 38.5838C44.5049 39.1604 44.7421 39.8243 45.2689 40.1057C46.0982 40.5505 47.0803 39.8398 46.9034 38.8937Z" fill="#222222"/>
<path d="M37.9941 46.9941H29.5895C28.9678 46.9941 28.4639 47.4981 28.4639 48.1198C28.4639 48.7414 28.9678 49.2454 29.5895 49.2454H37.9941C38.6157 49.2454 39.1197 48.7414 39.1197 48.1198C39.1197 47.4981 38.6158 46.9941 37.9941 46.9941Z" fill="#222222"/>
<circle cx="40" cy="120" r="40" fill="white"/>
<circle cx="50.4297" cy="109.847" r="12.0069" fill="#B68CFF"/>
<path d="M57.75 119.321C58.5838 117.562 59.0063 115.676 59.0063 113.708C59.0063 106.467 53.0816 100.576 45.7991 100.576C38.9221 100.576 33.2636 105.89 32.7117 112.627C25.933 113.175 20.5853 118.836 20.5853 125.715C20.5853 127.683 21.0078 129.569 21.8416 131.328L20.6071 137.501C20.4682 138.196 20.9999 138.847 21.7109 138.847C21.8729 138.847 21.329 138.944 28.1786 137.59C29.9375 138.424 31.8241 138.847 33.7925 138.847C40.6691 138.847 46.3275 133.534 46.8798 126.797C48.4592 126.67 49.9786 126.264 51.413 125.584L57.6624 126.819C58.4486 126.975 59.1416 126.28 58.9845 125.494L57.75 119.321ZM33.7925 136.596C32.05 136.596 30.386 136.197 28.8464 135.41C28.6212 135.295 28.3638 135.259 28.1157 135.308L23.145 136.291L24.1242 131.394C24.174 131.145 24.1383 130.887 24.0226 130.661C23.2357 129.122 22.8365 127.457 22.8365 125.715C22.8365 120.074 27.1805 115.423 32.7203 114.886C32.9677 117.655 34.0781 120.18 35.7804 122.188H29.5902C28.9686 122.188 28.4646 122.692 28.4646 123.314C28.4646 123.935 28.9686 124.439 29.5902 124.439H38.2377C40.075 125.738 42.2588 126.576 44.6207 126.787C44.0804 132.285 39.4306 136.596 33.7925 136.596ZM55.4675 119.388L56.4467 124.284L51.476 123.301C51.2279 123.252 50.9705 123.288 50.7453 123.403C49.2057 124.19 47.5417 124.589 45.7992 124.589C39.7994 124.589 34.9182 119.708 34.9182 113.708C34.9182 107.709 39.7994 102.827 45.7992 102.827C51.8404 102.827 56.7552 107.709 56.7552 113.708C56.7552 115.451 56.3561 117.115 55.5691 118.654C55.4535 118.88 55.4177 119.139 55.4675 119.388Z" fill="#222222"/>
<path d="M45.8628 107.182C43.8886 107.145 42.2725 108.73 42.2725 110.7C42.2725 111.322 42.7764 111.826 43.3981 111.826C44.0197 111.826 44.5237 111.322 44.5237 110.7C44.5237 109.979 45.1164 109.418 45.8175 109.433C46.4778 109.446 47.0218 109.973 47.056 110.631C47.0938 111.361 46.5138 111.969 45.7956 111.971C45.1753 111.973 44.6734 112.476 44.6734 113.097V115.511C44.6734 116.133 45.1774 116.637 45.799 116.637C46.4207 116.637 46.9246 116.133 46.9246 115.511V114.033C48.3641 113.539 49.3891 112.15 49.3042 110.514C49.2091 108.683 47.6975 107.219 45.8628 107.182Z" fill="#222222"/>
<path d="M46.9034 118.894C46.8414 118.598 46.6779 118.349 46.4246 118.178C45.8415 117.795 45.1003 118.024 44.8066 118.584C44.5049 119.16 44.7421 119.824 45.2689 120.106C46.0982 120.551 47.0803 119.84 46.9034 118.894Z" fill="#222222"/>
<path d="M37.9941 126.994H29.5895C28.9678 126.994 28.4639 127.498 28.4639 128.12C28.4639 128.741 28.9678 129.245 29.5895 129.245H37.9941C38.6157 129.245 39.1197 128.741 39.1197 128.12C39.1197 127.498 38.6158 126.994 37.9941 126.994Z" fill="#222222"/>
<circle cx="120" cy="40" r="40" fill="white"/>
<circle cx="127.959" cy="29.1241" r="12.0069" fill="#40E8E8"/>
<path fill-rule="evenodd" clip-rule="evenodd" d="M126.271 23.0201L133.791 30.5402V51.4616C133.791 52.009 133.573 52.5316 133.187 52.9191C132.8 53.3049 132.277 53.5225 131.73 53.5225H111.12C110.437 53.5225 109.883 52.9686 109.883 52.286C109.883 51.6034 109.329 51.0494 108.647 51.0494C107.964 51.0494 107.41 51.6034 107.41 52.286C107.41 54.3354 109.07 55.9957 111.12 55.9957H131.73C132.932 55.9957 134.086 55.5176 134.937 54.6684C135.786 53.8177 136.264 52.6635 136.264 51.4616C136.264 45.3347 136.264 32.6127 136.264 30.3687C136.264 29.8229 136.046 29.2986 135.66 28.9112C134.455 27.7059 129.105 22.3556 127.9 21.1503C127.512 20.7645 126.988 20.5469 126.442 20.5469H111.944C110.742 20.5469 109.588 21.025 108.737 21.8741C107.888 22.7249 107.41 23.8791 107.41 25.081V31.6762C107.41 32.3588 107.964 32.9128 108.647 32.9128C109.329 32.9128 109.883 32.3588 109.883 31.6762V25.081C109.883 24.5336 110.101 24.011 110.487 23.6235C110.874 23.2377 111.397 23.0201 111.944 23.0201H126.271Z" fill="#222222"/>
<path fill-rule="evenodd" clip-rule="evenodd" d="M125.547 21.7835V30.0274C125.547 30.71 126.101 31.264 126.783 31.264H135.027C135.71 31.264 136.264 30.71 136.264 30.0274C136.264 29.3448 135.71 28.7908 135.027 28.7908H128.02V21.7835C128.02 21.1009 127.466 20.5469 126.783 20.5469C126.101 20.5469 125.547 21.1009 125.547 21.7835Z" fill="#222222"/>
<path fill-rule="evenodd" clip-rule="evenodd" d="M113.387 35.1981C109.644 33.0365 104.85 34.3209 102.688 38.0637C100.528 41.8081 101.813 46.6011 105.555 48.7626C109.298 50.9242 114.093 49.6398 116.254 45.8954C118.414 42.1527 117.13 37.358 113.387 35.1981ZM112.151 37.3399C114.711 38.8188 115.59 42.0982 114.113 44.6588C112.634 47.221 109.353 48.0998 106.792 46.6209C104.231 45.1419 103.351 41.8625 104.83 39.3003C106.309 36.7397 109.59 35.8609 112.151 37.3399Z" fill="#222222"/>
<path fill-rule="evenodd" clip-rule="evenodd" d="M105.102 47.0726L101.023 54.1409C100.682 54.7312 100.885 55.4896 101.475 55.8309C102.067 56.1706 102.824 55.9678 103.165 55.3775L107.244 48.3092C107.585 47.7189 107.383 46.9621 106.792 46.6208C106.2 46.2795 105.444 46.4823 105.102 47.0726Z" fill="#222222"/>
<path fill-rule="evenodd" clip-rule="evenodd" d="M113.594 29.6138H121.838C122.521 29.6138 123.075 29.0598 123.075 28.3772C123.075 27.6946 122.521 27.1406 121.838 27.1406H113.594C112.911 27.1406 112.357 27.6946 112.357 28.3772C112.357 29.0598 112.911 29.6138 113.594 29.6138Z" fill="#222222"/>
<path fill-rule="evenodd" clip-rule="evenodd" d="M118.539 36.2095H130.081C130.763 36.2095 131.317 35.6555 131.317 34.9729C131.317 34.2903 130.763 33.7363 130.081 33.7363H118.539C117.857 33.7363 117.303 34.2903 117.303 34.9729C117.303 35.6555 117.857 36.2095 118.539 36.2095Z" fill="#222222"/>
<path fill-rule="evenodd" clip-rule="evenodd" d="M120.189 42.8072H130.081C130.764 42.8072 131.318 42.2532 131.318 41.5706C131.318 40.888 130.764 40.334 130.081 40.334H120.189C119.506 40.334 118.952 40.888 118.952 41.5706C118.952 42.2532 119.506 42.8072 120.189 42.8072Z" fill="#222222"/>
<path fill-rule="evenodd" clip-rule="evenodd" d="M118.539 49.4009H130.081C130.763 49.4009 131.317 48.8469 131.317 48.1643C131.317 47.4817 130.763 46.9277 130.081 46.9277H118.539C117.857 46.9277 117.303 47.4817 117.303 48.1643C117.303 48.8469 117.857 49.4009 118.539 49.4009Z" fill="#222222"/>
<circle cx="120" cy="120" r="40" fill="white"/>
<circle cx="127.959" cy="109.124" r="12.0069" fill="#B68CFF"/>
<path fill-rule="evenodd" clip-rule="evenodd" d="M126.271 103.02L133.791 110.54V131.462C133.791 132.009 133.573 132.532 133.187 132.919C132.8 133.305 132.277 133.523 131.73 133.523H111.12C110.437 133.523 109.883 132.969 109.883 132.286C109.883 131.603 109.329 131.049 108.647 131.049C107.964 131.049 107.41 131.603 107.41 132.286C107.41 134.335 109.07 135.996 111.12 135.996H131.73C132.932 135.996 134.086 135.518 134.937 134.668C135.786 133.818 136.264 132.664 136.264 131.462C136.264 125.335 136.264 112.613 136.264 110.369C136.264 109.823 136.046 109.299 135.66 108.911C134.455 107.706 129.105 102.356 127.9 101.15C127.512 100.765 126.988 100.547 126.442 100.547H111.944C110.742 100.547 109.588 101.025 108.737 101.874C107.888 102.725 107.41 103.879 107.41 105.081V111.676C107.41 112.359 107.964 112.913 108.647 112.913C109.329 112.913 109.883 112.359 109.883 111.676V105.081C109.883 104.534 110.101 104.011 110.487 103.624C110.874 103.238 111.397 103.02 111.944 103.02H126.271Z" fill="#222222"/>
<path fill-rule="evenodd" clip-rule="evenodd" d="M125.547 101.783V110.027C125.547 110.71 126.101 111.264 126.783 111.264H135.027C135.71 111.264 136.264 110.71 136.264 110.027C136.264 109.345 135.71 108.791 135.027 108.791H128.02V101.783C128.02 101.101 127.466 100.547 126.783 100.547C126.101 100.547 125.547 101.101 125.547 101.783Z" fill="#222222"/>
<path fill-rule="evenodd" clip-rule="evenodd" d="M113.387 115.198C109.644 113.037 104.85 114.321 102.688 118.064C100.528 121.808 101.813 126.601 105.555 128.763C109.298 130.924 114.093 129.64 116.254 125.895C118.414 122.153 117.13 117.358 113.387 115.198ZM112.151 117.34C114.711 118.819 115.59 122.098 114.113 124.659C112.634 127.221 109.353 128.1 106.792 126.621C104.231 125.142 103.351 121.862 104.83 119.3C106.309 116.74 109.59 115.861 112.151 117.34Z" fill="#222222"/>
<path fill-rule="evenodd" clip-rule="evenodd" d="M105.102 127.073L101.023 134.141C100.682 134.731 100.885 135.49 101.475 135.831C102.067 136.171 102.824 135.968 103.165 135.378L107.244 128.309C107.585 127.719 107.383 126.962 106.792 126.621C106.2 126.28 105.444 126.482 105.102 127.073Z" fill="#222222"/>
<path fill-rule="evenodd" clip-rule="evenodd" d="M113.594 109.614H121.838C122.521 109.614 123.075 109.06 123.075 108.377C123.075 107.695 122.521 107.141 121.838 107.141H113.594C112.911 107.141 112.357 107.695 112.357 108.377C112.357 109.06 112.911 109.614 113.594 109.614Z" fill="#222222"/>
<path fill-rule="evenodd" clip-rule="evenodd" d="M118.539 116.21H130.081C130.763 116.21 131.317 115.656 131.317 114.973C131.317 114.29 130.763 113.736 130.081 113.736H118.539C117.857 113.736 117.303 114.29 117.303 114.973C117.303 115.656 117.857 116.21 118.539 116.21Z" fill="#222222"/>
<path fill-rule="evenodd" clip-rule="evenodd" d="M120.189 122.807H130.081C130.764 122.807 131.318 122.253 131.318 121.571C131.318 120.888 130.764 120.334 130.081 120.334H120.189C119.506 120.334 118.952 120.888 118.952 121.571C118.952 122.253 119.506 122.807 120.189 122.807Z" fill="#222222"/>
<path fill-rule="evenodd" clip-rule="evenodd" d="M118.539 129.401H130.081C130.763 129.401 131.317 128.847 131.317 128.164C131.317 127.482 130.763 126.928 130.081 126.928H118.539C117.857 126.928 117.303 127.482 117.303 128.164C117.303 128.847 117.857 129.401 118.539 129.401Z" fill="#222222"/>
<circle cx="200.068" cy="39.9648" r="39.9316" fill="white"/>
<circle cx="199.932" cy="39.9316" r="39.9316" fill="white"/>
<circle cx="186.713" cy="39.0384" r="11.6439" fill="#40E8E8"/>
<path d="M222.542 51.0597L213.12 43.993C216.425 43.9059 219.212 41.2176 219.212 37.7407V28.8639C219.212 25.3288 216.332 22.6074 212.955 22.6074H188.861C185.484 22.6074 182.604 25.3288 182.604 28.8639V37.7407C182.604 41.2751 185.484 43.9971 188.861 43.9971H206.699V58.9815C206.699 59.3918 206.911 59.773 207.26 59.9887C207.61 60.2043 208.046 60.224 208.412 60.0403L212.002 58.2447L214.065 62.3649C214.359 62.9507 215.07 63.1854 215.654 62.8936L220.301 60.5685C220.886 60.2761 221.123 59.5653 220.831 58.9805L218.773 54.8613L222.362 53.0657C222.729 52.8821 222.975 52.5217 223.011 52.1131C223.048 51.7044 222.871 51.3058 222.542 51.0597ZM188.861 41.6292C186.731 41.6292 184.972 39.9116 184.972 37.7407V28.8639C184.972 26.6889 186.735 24.9753 188.861 24.9753H212.955C215.086 24.9753 216.844 26.6942 216.844 28.8639V37.7407C216.844 39.9161 215.08 41.6293 212.955 41.6293H188.861V41.6292ZM216.655 53.2731C216.07 53.5656 215.833 54.2764 216.125 54.8611L218.183 58.9803L215.652 60.2465L213.589 56.1262C213.296 55.5408 212.584 55.3056 212.001 55.5976L209.067 57.0654V43.9127L219.589 51.8049L216.655 53.2731Z" fill="#222222"/>
<path d="M203.445 27.6797C202.791 27.6797 202.261 28.2098 202.261 28.8636V35.2042C202.261 35.9498 201.654 36.5565 200.909 36.5565C200.163 36.5565 199.556 35.9498 199.556 35.2042V28.8636C199.556 28.2098 199.026 27.6797 198.372 27.6797C197.719 27.6797 197.188 28.2098 197.188 28.8636V35.2042C197.188 37.2555 198.857 38.9243 200.909 38.9243C202.96 38.9243 204.629 37.2555 204.629 35.2042V28.8636C204.629 28.2097 204.099 27.6797 203.445 27.6797Z" fill="#222222"/>
<path d="M214.141 31.3998V28.8636C214.141 28.2098 213.61 27.6797 212.957 27.6797C212.303 27.6797 211.773 28.2098 211.773 28.8636V31.3998C211.773 32.1455 211.166 32.7521 210.42 32.7521C209.675 32.7521 209.068 32.1455 209.068 31.3998V28.8636C209.068 28.2098 208.538 27.6797 207.884 27.6797C207.23 27.6797 206.7 28.2098 206.7 28.8636V31.3998C206.7 33.0372 207.764 34.43 209.236 34.9257V37.7405C209.236 38.3943 209.767 38.9244 210.42 38.9244C211.074 38.9244 211.604 38.3943 211.604 37.7405V34.9257C213.077 34.4299 214.141 33.0372 214.141 31.3998Z" fill="#222222"/>
<path d="M191.715 27.6797H188.862C188.208 27.6797 187.678 28.2098 187.678 28.8636V37.7405C187.678 38.3943 188.208 38.9244 188.862 38.9244H191.715C193.57 38.9244 195.118 37.4189 195.118 35.5213C195.118 34.7102 194.82 33.9151 194.293 33.3023C194.827 32.6852 195.118 31.9064 195.118 31.0829C195.118 29.2256 193.607 27.6797 191.715 27.6797ZM191.715 36.5565H190.046V34.4859H191.715C192.28 34.4859 192.75 34.9471 192.75 35.5213C192.75 36.0981 192.275 36.5565 191.715 36.5565ZM191.715 32.1181H190.046V30.0475H191.715C192.288 30.0475 192.75 30.5208 192.75 31.0829C192.75 31.6621 192.272 32.1181 191.715 32.1181Z" fill="#222222"/>
<circle cx="200.068" cy="119.965" r="39.9316" fill="white"/>
<circle cx="199.932" cy="119.932" r="39.9316" fill="white"/>
<circle cx="186.713" cy="119.038" r="11.6439" fill="#B68CFF"/>
<path d="M222.542 131.06L213.12 123.993C216.425 123.906 219.212 121.218 219.212 117.741V108.864C219.212 105.329 216.332 102.607 212.955 102.607H188.861C185.484 102.607 182.604 105.329 182.604 108.864V117.741C182.604 121.275 185.484 123.997 188.861 123.997H206.699V138.981C206.699 139.392 206.911 139.773 207.26 139.989C207.61 140.204 208.046 140.224 208.412 140.04L212.002 138.245L214.065 142.365C214.359 142.951 215.07 143.185 215.654 142.894L220.301 140.569C220.886 140.276 221.123 139.565 220.831 138.981L218.773 134.861L222.362 133.066C222.729 132.882 222.975 132.522 223.011 132.113C223.048 131.704 222.871 131.306 222.542 131.06ZM188.861 121.629C186.731 121.629 184.972 119.912 184.972 117.741V108.864C184.972 106.689 186.735 104.975 188.861 104.975H212.955C215.086 104.975 216.844 106.694 216.844 108.864V117.741C216.844 119.916 215.08 121.629 212.955 121.629H188.861V121.629ZM216.655 133.273C216.07 133.566 215.833 134.276 216.125 134.861L218.183 138.98L215.652 140.246L213.589 136.126C213.296 135.541 212.584 135.306 212.001 135.598L209.067 137.065V123.913L219.589 131.805L216.655 133.273Z" fill="#222222"/>
<path d="M203.445 107.68C202.791 107.68 202.261 108.21 202.261 108.864V115.204C202.261 115.95 201.654 116.556 200.909 116.556C200.163 116.556 199.556 115.95 199.556 115.204V108.864C199.556 108.21 199.026 107.68 198.372 107.68C197.719 107.68 197.188 108.21 197.188 108.864V115.204C197.188 117.255 198.857 118.924 200.909 118.924C202.96 118.924 204.629 117.255 204.629 115.204V108.864C204.629 108.21 204.099 107.68 203.445 107.68Z" fill="#222222"/>
<path d="M214.141 111.4V108.864C214.141 108.21 213.61 107.68 212.957 107.68C212.303 107.68 211.773 108.21 211.773 108.864V111.4C211.773 112.145 211.166 112.752 210.42 112.752C209.675 112.752 209.068 112.145 209.068 111.4V108.864C209.068 108.21 208.538 107.68 207.884 107.68C207.23 107.68 206.7 108.21 206.7 108.864V111.4C206.7 113.037 207.764 114.43 209.236 114.926V117.74C209.236 118.394 209.767 118.924 210.42 118.924C211.074 118.924 211.604 118.394 211.604 117.74V114.926C213.077 114.43 214.141 113.037 214.141 111.4Z" fill="#222222"/>
<path d="M191.715 107.68H188.862C188.208 107.68 187.678 108.21 187.678 108.864V117.74C187.678 118.394 188.208 118.924 188.862 118.924H191.715C193.57 118.924 195.118 117.419 195.118 115.521C195.118 114.71 194.82 113.915 194.293 113.302C194.827 112.685 195.118 111.906 195.118 111.083C195.118 109.226 193.607 107.68 191.715 107.68ZM191.715 116.556H190.046V114.486H191.715C192.28 114.486 192.75 114.947 192.75 115.521C192.75 116.098 192.275 116.556 191.715 116.556ZM191.715 112.118H190.046V110.048H191.715C192.288 110.048 192.75 110.521 192.75 111.083C192.75 111.662 192.272 112.118 191.715 112.118Z" fill="#222222"/>
<circle cx="280" cy="40" r="40" fill="white"/>
<circle cx="290.703" cy="29.0914" r="10.566" fill="#40E8E8"/>
<g clip-path="url(#clip0_1053_2463)">
<path d="M290.477 36.7675C290.546 36.51 290.51 36.2357 290.376 36.0048L288.366 32.5232C288.233 32.2924 288.013 32.124 287.756 32.055C287.499 31.986 287.224 32.0221 286.993 32.1554L285.664 32.9228C284.831 32.2162 283.864 31.6638 282.812 31.2937V29.7414C282.812 29.1863 282.362 28.7363 281.807 28.7363H277.787C277.232 28.7363 276.782 29.1863 276.782 29.7414V31.2937C275.73 31.6638 274.763 32.2162 273.93 32.9228L272.601 32.1554C272.37 32.0221 272.095 31.986 271.838 32.055C271.581 32.1239 271.361 32.2924 271.228 32.5232L269.218 36.0048C269.085 36.2357 269.048 36.51 269.117 36.7675C269.186 37.0249 269.355 37.2444 269.586 37.3777L270.927 38.1521C270.808 38.7298 270.752 39.2634 270.752 39.7918C270.752 40.3201 270.808 40.8537 270.927 41.4314L269.586 42.2058C269.355 42.3391 269.186 42.5586 269.117 42.816C269.048 43.0735 269.084 43.3478 269.218 43.5787L271.228 47.0603C271.361 47.2911 271.581 47.4595 271.838 47.5285C272.096 47.5976 272.37 47.5614 272.601 47.4281L273.93 46.6607C274.763 47.3673 275.73 47.9197 276.782 48.2898V49.8421C276.782 50.3972 277.232 50.8472 277.787 50.8472H281.807C282.362 50.8472 282.812 50.3972 282.812 49.8421V48.2898C283.864 47.9197 284.831 47.3673 285.664 46.6607L286.993 47.4281C287.224 47.5614 287.499 47.5975 287.756 47.5285C288.013 47.4596 288.233 47.2911 288.366 47.0603L290.376 43.5787C290.51 43.3478 290.546 43.0735 290.477 42.816C290.408 42.5586 290.239 42.3391 290.008 42.2058L288.667 41.4314C288.786 40.8537 288.842 40.3201 288.842 39.7918C288.842 39.2634 288.786 38.7298 288.667 38.1521L290.009 37.3777C290.239 37.2444 290.408 37.0249 290.477 36.7675ZM286.545 37.9265C286.741 38.6331 286.832 39.2258 286.832 39.7918C286.832 40.3577 286.741 40.9504 286.545 41.657C286.422 42.0985 286.614 42.5671 287.011 42.7961L288.133 43.444L287.128 45.1847L286.027 44.5493C285.631 44.3202 285.129 44.3884 284.808 44.7152C283.934 45.605 282.808 46.2477 281.554 46.5738C281.111 46.689 280.802 47.0889 280.802 47.5466V48.8371H278.792V47.5466C278.792 47.0889 278.483 46.689 278.04 46.5738C276.785 46.2477 275.66 45.6051 274.786 44.7152C274.465 44.3883 273.963 44.3201 273.567 44.5493L272.466 45.1847L271.461 43.444L272.583 42.7961C272.98 42.5671 273.172 42.0985 273.049 41.657C272.853 40.9504 272.762 40.3577 272.762 39.7918C272.762 39.2258 272.853 38.6331 273.049 37.9265C273.172 37.485 272.98 37.0164 272.583 36.7874L271.461 36.1395L272.466 34.3988L273.567 35.0342C273.964 35.2632 274.465 35.1951 274.786 34.8683C275.66 33.9785 276.786 33.3358 278.04 33.0097C278.483 32.8945 278.792 32.4946 278.792 32.0369V30.7464H280.802V32.0369C280.802 32.4946 281.111 32.8945 281.554 33.0097C282.809 33.3358 283.934 33.9784 284.808 34.8683C285.129 35.1951 285.631 35.2632 286.027 35.0342L287.128 34.3988L288.133 36.1395L287.011 36.7874C286.614 37.0164 286.422 37.485 286.545 37.9265Z" fill="#222222"/>
<path d="M279.797 34.7676C277.026 34.7676 274.771 37.0219 274.771 39.7928C274.771 42.5637 277.026 44.818 279.797 44.818C282.568 44.818 284.822 42.5637 284.822 39.7928C284.822 37.0219 282.568 34.7676 279.797 34.7676ZM279.797 42.8079C278.134 42.8079 276.782 41.4553 276.782 39.7928C276.782 38.1302 278.134 36.7777 279.797 36.7777C281.459 36.7777 282.812 38.1302 282.812 39.7928C282.812 41.4553 281.459 42.8079 279.797 42.8079Z" fill="#222222"/>
<path d="M293.299 30.5546C293.707 30.1459 293.542 29.526 293.542 29.526L292.12 25.262C291.945 24.7353 291.375 24.4507 290.849 24.6263C290.322 24.8019 290.038 25.371 290.213 25.8976L290.334 26.26C289.432 25.5736 288.46 24.9686 287.437 24.4612C285.036 23.2702 282.394 22.6406 279.796 22.6406C275.239 22.6406 270.939 24.4317 267.687 27.6838C264.435 30.9359 262.644 35.2365 262.644 39.7933C262.644 41.8979 263.086 44.0539 263.958 46.2016C264.116 46.5921 264.492 46.8288 264.889 46.8288C265.015 46.8288 265.143 46.805 265.267 46.7548C265.781 46.5459 266.029 45.9598 265.82 45.4455C265.046 43.5391 264.654 41.6375 264.654 39.7933C264.654 31.4436 271.447 24.6507 279.796 24.6507C282.861 24.6507 285.955 25.6702 288.525 27.4384C288.034 27.3374 287.533 27.617 287.371 28.1047C287.195 28.6313 287.48 29.2004 288.006 29.376L292.27 30.7973C292.27 30.7973 292.871 30.982 293.299 30.5546Z" fill="#222222"/>
<path d="M266.051 50.0606L267.472 54.3246C267.613 54.7458 268.005 55.0122 268.426 55.0121C268.531 55.0121 268.638 54.9954 268.744 54.9603C269.27 54.7848 269.555 54.2157 269.379 53.689L269.258 53.3266C270.16 54.013 271.132 54.618 272.155 55.1256C274.557 56.3165 277.199 56.946 279.797 56.946C284.353 56.946 288.654 55.155 291.906 51.9029C295.158 48.6507 296.949 44.3501 296.949 39.7934C296.949 37.6887 296.507 35.5327 295.635 33.385C295.426 32.8707 294.84 32.6231 294.326 32.8319C293.812 33.0407 293.564 33.6268 293.773 34.1412C294.547 36.0475 294.939 37.9492 294.939 39.7934C294.939 48.143 288.146 54.9359 279.797 54.9359C276.732 54.9359 273.638 53.9164 271.068 52.1482C271.559 52.2491 272.059 51.9697 272.222 51.4819C272.397 50.9553 272.113 50.3861 271.586 50.2106L267.322 48.7893C266.727 48.5907 266.294 49.0321 266.294 49.0321C265.876 49.4495 266.051 50.0606 266.051 50.0606Z" fill="#222222"/>
</g>
<circle cx="280" cy="120" r="40" fill="white"/>
<circle cx="290.703" cy="109.091" r="10.566" fill="#B68CFF"/>
<g clip-path="url(#clip1_1053_2463)">
<path d="M290.477 116.767C290.546 116.51 290.51 116.236 290.376 116.005L288.366 112.523C288.233 112.292 288.013 112.124 287.756 112.055C287.499 111.986 287.224 112.022 286.993 112.155L285.664 112.923C284.831 112.216 283.864 111.664 282.812 111.294V109.741C282.812 109.186 282.362 108.736 281.807 108.736H277.787C277.232 108.736 276.782 109.186 276.782 109.741V111.294C275.73 111.664 274.763 112.216 273.93 112.923L272.601 112.155C272.37 112.022 272.095 111.986 271.838 112.055C271.581 112.124 271.361 112.292 271.228 112.523L269.218 116.005C269.085 116.236 269.048 116.51 269.117 116.767C269.186 117.025 269.355 117.244 269.586 117.378L270.927 118.152C270.808 118.73 270.752 119.263 270.752 119.792C270.752 120.32 270.808 120.854 270.927 121.431L269.586 122.206C269.355 122.339 269.186 122.559 269.117 122.816C269.048 123.074 269.084 123.348 269.218 123.579L271.228 127.06C271.361 127.291 271.581 127.46 271.838 127.529C272.096 127.598 272.37 127.561 272.601 127.428L273.93 126.661C274.763 127.367 275.73 127.92 276.782 128.29V129.842C276.782 130.397 277.232 130.847 277.787 130.847H281.807C282.362 130.847 282.812 130.397 282.812 129.842V128.29C283.864 127.92 284.831 127.367 285.664 126.661L286.993 127.428C287.224 127.561 287.499 127.597 287.756 127.529C288.013 127.46 288.233 127.291 288.366 127.06L290.376 123.579C290.51 123.348 290.546 123.073 290.477 122.816C290.408 122.559 290.239 122.339 290.008 122.206L288.667 121.431C288.786 120.854 288.842 120.32 288.842 119.792C288.842 119.263 288.786 118.73 288.667 118.152L290.009 117.378C290.239 117.244 290.408 117.025 290.477 116.767ZM286.545 117.927C286.741 118.633 286.832 119.226 286.832 119.792C286.832 120.358 286.741 120.95 286.545 121.657C286.422 122.099 286.614 122.567 287.011 122.796L288.133 123.444L287.128 125.185L286.027 124.549C285.631 124.32 285.129 124.388 284.808 124.715C283.934 125.605 282.808 126.248 281.554 126.574C281.111 126.689 280.802 127.089 280.802 127.547V128.837H278.792V127.547C278.792 127.089 278.483 126.689 278.04 126.574C276.785 126.248 275.66 125.605 274.786 124.715C274.465 124.388 273.963 124.32 273.567 124.549L272.466 125.185L271.461 123.444L272.583 122.796C272.98 122.567 273.172 122.099 273.049 121.657C272.853 120.95 272.762 120.358 272.762 119.792C272.762 119.226 272.853 118.633 273.049 117.927C273.172 117.485 272.98 117.016 272.583 116.787L271.461 116.14L272.466 114.399L273.567 115.034C273.964 115.263 274.465 115.195 274.786 114.868C275.66 113.978 276.786 113.336 278.04 113.01C278.483 112.895 278.792 112.495 278.792 112.037V110.746H280.802V112.037C280.802 112.495 281.111 112.895 281.554 113.01C282.809 113.336 283.934 113.978 284.808 114.868C285.129 115.195 285.631 115.263 286.027 115.034L287.128 114.399L288.133 116.14L287.011 116.787C286.614 117.016 286.422 117.485 286.545 117.927Z" fill="#222222"/>
<path d="M279.797 114.768C277.026 114.768 274.771 117.022 274.771 119.793C274.771 122.564 277.026 124.818 279.797 124.818C282.568 124.818 284.822 122.564 284.822 119.793C284.822 117.022 282.568 114.768 279.797 114.768ZM279.797 122.808C278.134 122.808 276.782 121.455 276.782 119.793C276.782 118.13 278.134 116.778 279.797 116.778C281.459 116.778 282.812 118.13 282.812 119.793C282.812 121.455 281.459 122.808 279.797 122.808Z" fill="#222222"/>
<path d="M293.299 110.555C293.707 110.146 293.542 109.526 293.542 109.526L292.12 105.262C291.945 104.735 291.375 104.451 290.849 104.626C290.322 104.802 290.038 105.371 290.213 105.898L290.334 106.26C289.432 105.574 288.46 104.969 287.437 104.461C285.036 103.27 282.394 102.641 279.796 102.641C275.239 102.641 270.939 104.432 267.687 107.684C264.435 110.936 262.644 115.237 262.644 119.793C262.644 121.898 263.086 124.054 263.958 126.202C264.116 126.592 264.492 126.829 264.889 126.829C265.015 126.829 265.143 126.805 265.267 126.755C265.781 126.546 266.029 125.96 265.82 125.445C265.046 123.539 264.654 121.637 264.654 119.793C264.654 111.444 271.447 104.651 279.796 104.651C282.861 104.651 285.955 105.67 288.525 107.438C288.034 107.337 287.533 107.617 287.371 108.105C287.195 108.631 287.48 109.2 288.006 109.376L292.27 110.797C292.27 110.797 292.871 110.982 293.299 110.555Z" fill="#222222"/>
<path d="M266.051 130.061L267.472 134.325C267.613 134.746 268.005 135.012 268.426 135.012C268.531 135.012 268.638 134.995 268.744 134.96C269.27 134.785 269.555 134.216 269.379 133.689L269.258 133.327C270.16 134.013 271.132 134.618 272.155 135.126C274.557 136.316 277.199 136.946 279.797 136.946C284.353 136.946 288.654 135.155 291.906 131.903C295.158 128.651 296.949 124.35 296.949 119.793C296.949 117.689 296.507 115.533 295.635 113.385C295.426 112.871 294.84 112.623 294.326 112.832C293.812 113.041 293.564 113.627 293.773 114.141C294.547 116.048 294.939 117.949 294.939 119.793C294.939 128.143 288.146 134.936 279.797 134.936C276.732 134.936 273.638 133.916 271.068 132.148C271.559 132.249 272.059 131.97 272.222 131.482C272.397 130.955 272.113 130.386 271.586 130.211L267.322 128.789C266.727 128.591 266.294 129.032 266.294 129.032C265.876 129.45 266.051 130.061 266.051 130.061Z" fill="#222222"/>
</g>
<circle cx="360" cy="40" r="40" fill="white"/>
<circle cx="348.131" cy="48.9508" r="10.566" fill="#40E8E8"/>
<path d="M372.693 22.6055H347.033C344.46 22.6055 342.367 24.6979 342.367 27.271V45.9331C342.367 48.5062 344.46 50.5986 347.033 50.5986H356.364V55.2641H352.865C352.22 55.2641 351.698 55.7858 351.698 56.4305C351.698 57.0752 352.22 57.5969 352.865 57.5969H366.861C367.506 57.5969 368.028 57.0752 368.028 56.4305C368.028 55.7858 367.506 55.2641 366.861 55.2641H363.362V50.5986H372.693C375.266 50.5986 377.359 48.5062 377.359 45.9331V27.271C377.359 24.6979 375.266 22.6055 372.693 22.6055ZM361.029 55.2641H358.697V50.5986H361.029V55.2641ZM375.026 45.9331C375.026 47.2191 373.979 48.2658 372.693 48.2658H347.033C345.746 48.2658 344.7 47.2191 344.7 45.9331V27.271C344.7 25.985 345.746 24.9382 347.033 24.9382H372.693C373.979 24.9382 375.026 25.985 375.026 27.271V45.9331ZM366.861 29.6038V33.1029C366.861 33.7476 366.34 34.2693 365.695 34.2693C365.05 34.2693 364.528 33.7476 364.528 33.1029V32.4195L360.688 36.2603C360.232 36.7159 359.494 36.7159 359.038 36.2603L357.53 34.7522L353.689 38.5931C353.461 38.8209 353.163 38.9348 352.865 38.9348C352.566 38.9348 352.268 38.8209 352.04 38.5931C351.584 38.1375 351.584 37.3994 352.04 36.9438L356.705 32.2782C357.161 31.8226 357.899 31.8226 358.355 32.2782L359.863 33.7863L362.879 30.7701H362.196C361.551 30.7701 361.029 30.2485 361.029 29.6038C361.029 28.9591 361.551 28.4374 362.196 28.4374H365.695C366.34 28.4374 366.861 28.9591 366.861 29.6038ZM366.861 43.6003C366.861 44.245 366.34 44.7667 365.695 44.7667H354.031C353.387 44.7667 352.865 44.245 352.865 43.6003C352.865 42.9556 353.387 42.4339 354.031 42.4339V40.1012C354.031 39.4565 354.553 38.9348 355.197 38.9348C355.842 38.9348 356.364 39.4565 356.364 40.1012V42.4339H358.697V40.1012C358.697 39.4565 359.219 38.9348 359.863 38.9348C360.507 38.9348 361.029 39.4565 361.029 40.1012V42.4339H363.362V36.602C363.362 35.9573 363.884 35.4357 364.528 35.4357C365.173 35.4357 365.695 35.9573 365.695 36.602V42.4339C366.34 42.4339 366.861 42.9556 366.861 43.6003Z" fill="#222222"/>
<circle cx="360" cy="120" r="40" fill="white"/>
<circle cx="348.131" cy="128.951" r="10.566" fill="#B68CFF"/>
<path d="M372.693 102.605H347.033C344.46 102.605 342.367 104.698 342.367 107.271V125.933C342.367 128.506 344.46 130.599 347.033 130.599H356.364V135.264H352.865C352.22 135.264 351.698 135.786 351.698 136.431C351.698 137.075 352.22 137.597 352.865 137.597H366.861C367.506 137.597 368.028 137.075 368.028 136.431C368.028 135.786 367.506 135.264 366.861 135.264H363.362V130.599H372.693C375.266 130.599 377.359 128.506 377.359 125.933V107.271C377.359 104.698 375.266 102.605 372.693 102.605ZM361.029 135.264H358.697V130.599H361.029V135.264ZM375.026 125.933C375.026 127.219 373.979 128.266 372.693 128.266H347.033C345.746 128.266 344.7 127.219 344.7 125.933V107.271C344.7 105.985 345.746 104.938 347.033 104.938H372.693C373.979 104.938 375.026 105.985 375.026 107.271V125.933ZM366.861 109.604V113.103C366.861 113.748 366.34 114.269 365.695 114.269C365.05 114.269 364.528 113.748 364.528 113.103V112.419L360.688 116.26C360.232 116.716 359.494 116.716 359.038 116.26L357.53 114.752L353.689 118.593C353.461 118.821 353.163 118.935 352.865 118.935C352.566 118.935 352.268 118.821 352.04 118.593C351.584 118.137 351.584 117.399 352.04 116.944L356.705 112.278C357.161 111.823 357.899 111.823 358.355 112.278L359.863 113.786L362.879 110.77H362.196C361.551 110.77 361.029 110.248 361.029 109.604C361.029 108.959 361.551 108.437 362.196 108.437H365.695C366.34 108.437 366.861 108.959 366.861 109.604ZM366.861 123.6C366.861 124.245 366.34 124.767 365.695 124.767H354.031C353.387 124.767 352.865 124.245 352.865 123.6C352.865 122.956 353.387 122.434 354.031 122.434V120.101C354.031 119.456 354.553 118.935 355.197 118.935C355.842 118.935 356.364 119.456 356.364 120.101V122.434H358.697V120.101C358.697 119.456 359.219 118.935 359.863 118.935C360.507 118.935 361.029 119.456 361.029 120.101V122.434H363.362V116.602C363.362 115.957 363.884 115.436 364.528 115.436C365.173 115.436 365.695 115.957 365.695 116.602V122.434C366.34 122.434 366.861 122.956 366.861 123.6Z" fill="#222222"/>
<defs>
<clipPath id="clip0_1053_2463">
<rect width="34.3053" height="34.3053" fill="white" transform="translate(262.642 22.6406)"/>
</clipPath>
<clipPath id="clip1_1053_2463">
<rect width="34.3053" height="34.3053" fill="white" transform="translate(262.642 102.641)"/>
</clipPath>
</defs>
</svg>
