<svg width="1799" height="56" viewBox="0 0 1799 56" fill="none" xmlns="http://www.w3.org/2000/svg">
<path d="M1799 28L7.03335e-06 28" stroke="#1BA4A7" stroke-width="3"/>
<circle cx="534" cy="28" r="27" transform="rotate(90 534 28)" fill="white" stroke="#1BA4A7" stroke-width="2"/>
<circle cx="6" cy="6" r="5.5" transform="matrix(-4.37114e-08 1 1 4.37114e-08 528 22)" fill="#1BA4A7" stroke="#1BA4A7"/>
<circle cx="899" cy="28" r="27" transform="rotate(90 899 28)" fill="white" stroke="#1BA4A7" stroke-width="2"/>
<circle cx="6" cy="6" r="5.5" transform="matrix(-4.37114e-08 1 1 4.37114e-08 893 22)" fill="#1BA4A7" stroke="#1BA4A7"/>
<circle cx="1264" cy="28" r="27" transform="rotate(90 1264 28)" fill="white" stroke="#1BA4A7" stroke-width="2"/>
<circle cx="6" cy="6" r="5.5" transform="matrix(-4.37114e-08 1 1 4.37114e-08 1258 22)" fill="#1BA4A7" stroke="#1BA4A7"/>
<circle cx="1629" cy="28" r="27" transform="rotate(90 1629 28)" fill="white" stroke="#1BA4A7" stroke-width="2"/>
<circle cx="6" cy="6" r="5.5" transform="matrix(-4.37114e-08 1 1 4.37114e-08 1623 22)" fill="#1BA4A7" stroke="#1BA4A7"/>
<circle cx="169" cy="28" r="27" transform="rotate(90 169 28)" fill="white" stroke="#1BA4A7" stroke-width="2"/>
<circle cx="6" cy="6" r="5.5" transform="matrix(-4.37114e-08 1 1 4.37114e-08 163 22)" fill="#1BA4A7" stroke="#1BA4A7"/>
</svg>
