<svg width="512" height="512" viewBox="0 0 512 512" fill="none" xmlns="http://www.w3.org/2000/svg">
<circle cx="40" cy="40" r="40" fill="white"/>
<circle cx="50.4287" cy="29.8428" r="12.0069" fill="#40E8E8"/>
<path d="M57.7471 39.3151C58.5809 37.5565 59.0034 35.6704 59.0034 33.7025C59.0034 26.4614 53.0787 20.5703 45.7962 20.5703C38.9192 20.5703 33.2606 25.884 32.7088 32.6211C25.93 33.1696 20.5824 38.8298 20.5824 45.7091C20.5824 47.677 21.0049 49.5631 21.8387 51.3217L20.6042 57.4949C20.4652 58.1897 20.997 58.8412 21.708 58.8412C21.87 58.8412 21.3261 58.9384 28.1757 57.5843C29.9346 58.4186 31.8212 58.8412 33.7896 58.8412C40.6662 58.8412 46.3246 53.528 46.8769 46.7913C48.4562 46.6645 49.9757 46.2581 51.4101 45.5777L57.6595 46.8132C58.4457 46.9687 59.1387 46.2739 58.9816 45.4883L57.7471 39.3151ZM33.7896 56.59C32.0471 56.59 30.383 56.191 28.8435 55.4039C28.6183 55.2888 28.3608 55.2529 28.1128 55.302L23.1421 56.2848L24.1213 51.3883C24.1711 51.1396 24.1353 50.8811 24.0197 50.6552C23.2327 49.1156 22.8336 47.4516 22.8336 45.7091C22.8336 40.0685 27.1776 35.4172 32.7174 34.8803C32.9647 37.6496 34.0752 40.174 35.7774 42.1821H29.5873C28.9657 42.1821 28.4617 42.6861 28.4617 43.3078C28.4617 43.9294 28.9657 44.4334 29.5873 44.4334H38.2348C40.072 45.7318 42.2559 46.5702 44.6177 46.7813C44.0775 52.2796 39.4277 56.59 33.7896 56.59ZM55.4645 39.3818L56.4438 44.2782L51.473 43.2954C51.225 43.2465 50.9676 43.2822 50.7424 43.3974C49.2028 44.1843 47.5388 44.5835 45.7962 44.5835C39.7965 44.5835 34.9153 39.7023 34.9153 33.7025C34.9153 27.7027 39.7965 22.8215 45.7962 22.8215C51.8374 22.8215 56.7522 27.7027 56.7522 33.7025C56.7522 35.445 56.3532 37.1091 55.5661 38.6486C55.4506 38.8746 55.4148 39.1329 55.4645 39.3818Z" fill="#222222"/>
<path d="M45.8599 27.1803C43.8857 27.1433 42.2695 28.7279 42.2695 30.698C42.2695 31.3196 42.7735 31.8236 43.3951 31.8236C44.0168 31.8236 44.5208 31.3196 44.5208 30.698C44.5208 29.9769 45.1134 29.416 45.8145 29.4311C46.4748 29.4444 47.0189 29.9706 47.0531 30.629C47.0909 31.3594 46.5109 31.9669 45.7927 31.969C45.1723 31.9709 44.6705 32.4742 44.6705 33.0946V35.5095C44.6705 36.1312 45.1744 36.6351 45.7961 36.6351C46.4177 36.6351 46.9217 36.1312 46.9217 35.5095V34.0306C48.3611 33.5373 49.3862 32.1477 49.3013 30.5122C49.2062 28.6808 47.6946 27.2172 45.8599 27.1803Z" fill="#222222"/>
<path d="M46.9014 38.8898C46.8394 38.5942 46.676 38.3455 46.4226 38.1739C45.8396 37.7907 45.0984 38.0199 44.8046 38.5799C44.5029 39.1565 44.7402 39.8204 45.2669 40.1018C46.0963 40.5466 47.0784 39.8359 46.9014 38.8898Z" fill="#222222"/>
<path d="M37.9912 46.9922H29.5866C28.9649 46.9922 28.4609 47.4962 28.4609 48.1178C28.4609 48.7394 28.9649 49.2434 29.5866 49.2434H37.9912C38.6128 49.2434 39.1168 48.7394 39.1168 48.1178C39.1168 47.4962 38.6129 46.9922 37.9912 46.9922Z" fill="#222222"/>
<circle cx="40" cy="120" r="40" fill="white"/>
<circle cx="50.4287" cy="109.843" r="12.0069" fill="#B68CFF"/>
<path d="M57.7471 119.315C58.5809 117.557 59.0034 115.67 59.0034 113.703C59.0034 106.461 53.0787 100.57 45.7962 100.57C38.9192 100.57 33.2606 105.884 32.7088 112.621C25.93 113.17 20.5824 118.83 20.5824 125.709C20.5824 127.677 21.0049 129.563 21.8387 131.322L20.6042 137.495C20.4652 138.19 20.997 138.841 21.708 138.841C21.87 138.841 21.3261 138.938 28.1757 137.584C29.9346 138.419 31.8212 138.841 33.7896 138.841C40.6662 138.841 46.3246 133.528 46.8769 126.791C48.4562 126.664 49.9757 126.258 51.4101 125.578L57.6595 126.813C58.4457 126.969 59.1387 126.274 58.9816 125.488L57.7471 119.315ZM33.7896 136.59C32.0471 136.59 30.383 136.191 28.8435 135.404C28.6183 135.289 28.3608 135.253 28.1128 135.302L23.1421 136.285L24.1213 131.388C24.1711 131.14 24.1353 130.881 24.0197 130.655C23.2327 129.116 22.8336 127.452 22.8336 125.709C22.8336 120.069 27.1776 115.417 32.7174 114.88C32.9647 117.65 34.0752 120.174 35.7774 122.182H29.5873C28.9657 122.182 28.4617 122.686 28.4617 123.308C28.4617 123.929 28.9657 124.433 29.5873 124.433H38.2348C40.072 125.732 42.2559 126.57 44.6177 126.781C44.0775 132.28 39.4277 136.59 33.7896 136.59ZM55.4645 119.382L56.4438 124.278L51.473 123.295C51.225 123.246 50.9676 123.282 50.7424 123.397C49.2028 124.184 47.5388 124.583 45.7962 124.583C39.7965 124.583 34.9153 119.702 34.9153 113.703C34.9153 107.703 39.7965 102.822 45.7962 102.822C51.8374 102.822 56.7522 107.703 56.7522 113.703C56.7522 115.445 56.3532 117.109 55.5661 118.649C55.4506 118.875 55.4148 119.133 55.4645 119.382Z" fill="#222222"/>
<path d="M45.8599 107.18C43.8857 107.143 42.2695 108.728 42.2695 110.698C42.2695 111.32 42.7735 111.824 43.3951 111.824C44.0168 111.824 44.5208 111.32 44.5208 110.698C44.5208 109.977 45.1134 109.416 45.8145 109.431C46.4748 109.444 47.0189 109.971 47.0531 110.629C47.0909 111.359 46.5109 111.967 45.7927 111.969C45.1723 111.971 44.6705 112.474 44.6705 113.095V115.51C44.6705 116.131 45.1744 116.635 45.7961 116.635C46.4177 116.635 46.9217 116.131 46.9217 115.51V114.031C48.3611 113.537 49.3862 112.148 49.3013 110.512C49.2062 108.681 47.6946 107.217 45.8599 107.18Z" fill="#222222"/>
<path d="M46.9014 118.89C46.8394 118.594 46.676 118.345 46.4226 118.174C45.8396 117.791 45.0984 118.02 44.8046 118.58C44.5029 119.157 44.7402 119.82 45.2669 120.102C46.0963 120.547 47.0784 119.836 46.9014 118.89Z" fill="#222222"/>
<path d="M37.9912 126.992H29.5866C28.9649 126.992 28.4609 127.496 28.4609 128.118C28.4609 128.739 28.9649 129.243 29.5866 129.243H37.9912C38.6128 129.243 39.1168 128.739 39.1168 128.118C39.1168 127.496 38.6129 126.992 37.9912 126.992Z" fill="#222222"/>
<circle cx="120" cy="40" r="40" fill="white"/>
<circle cx="127.96" cy="29.1241" r="12.0069" fill="#40E8E8"/>
<path fill-rule="evenodd" clip-rule="evenodd" d="M126.271 23.02L133.791 30.5402V51.4616C133.791 52.009 133.573 52.5316 133.187 52.9191C132.8 53.3049 132.277 53.5225 131.73 53.5225H111.12C110.437 53.5225 109.883 52.9686 109.883 52.286C109.883 51.6034 109.329 51.0494 108.647 51.0494C107.964 51.0494 107.41 51.6034 107.41 52.286C107.41 54.3354 109.07 55.9957 111.12 55.9957H131.73C132.932 55.9957 134.086 55.5176 134.937 54.6684C135.786 53.8177 136.264 52.6635 136.264 51.4616C136.264 45.3347 136.264 32.6127 136.264 30.3687C136.264 29.8229 136.046 29.2986 135.66 28.9112C134.455 27.7059 129.105 22.3556 127.9 21.1503C127.512 20.7645 126.988 20.5469 126.442 20.5469H111.944C110.742 20.5469 109.588 21.025 108.737 21.8741C107.888 22.7249 107.41 23.8791 107.41 25.081V31.6762C107.41 32.3588 107.964 32.9127 108.647 32.9127C109.329 32.9127 109.883 32.3588 109.883 31.6762V25.081C109.883 24.5336 110.101 24.011 110.487 23.6235C110.874 23.2377 111.397 23.02 111.944 23.02H126.271Z" fill="#222222"/>
<path fill-rule="evenodd" clip-rule="evenodd" d="M125.547 21.7835V30.0274C125.547 30.71 126.101 31.264 126.783 31.264H135.027C135.71 31.264 136.264 30.71 136.264 30.0274C136.264 29.3448 135.71 28.7908 135.027 28.7908H128.02V21.7835C128.02 21.1009 127.466 20.5469 126.783 20.5469C126.101 20.5469 125.547 21.1009 125.547 21.7835Z" fill="#222222"/>
<path fill-rule="evenodd" clip-rule="evenodd" d="M113.388 35.1981C109.645 33.0365 104.851 34.3209 102.689 38.0637C100.529 41.8081 101.814 46.6011 105.556 48.7626C109.299 50.9242 114.094 49.6398 116.255 45.8954C118.415 42.1527 117.131 37.358 113.388 35.1981ZM112.151 37.3399C114.712 38.8188 115.591 42.0982 114.114 44.6588C112.635 47.221 109.354 48.0998 106.793 46.6209C104.232 45.1419 103.352 41.8625 104.831 39.3003C106.31 36.7397 109.591 35.8609 112.151 37.3399Z" fill="#222222"/>
<path fill-rule="evenodd" clip-rule="evenodd" d="M105.104 47.0706L101.025 54.139C100.684 54.7292 100.887 55.4877 101.477 55.829C102.069 56.1686 102.826 55.9658 103.167 55.3756L107.246 48.3072C107.587 47.717 107.384 46.9602 106.794 46.6189C106.202 46.2776 105.446 46.4804 105.104 47.0706Z" fill="#222222"/>
<path fill-rule="evenodd" clip-rule="evenodd" d="M113.596 29.6138H121.84C122.522 29.6138 123.076 29.0598 123.076 28.3772C123.076 27.6946 122.522 27.1406 121.84 27.1406H113.596C112.913 27.1406 112.359 27.6946 112.359 28.3772C112.359 29.0598 112.913 29.6138 113.596 29.6138Z" fill="#222222"/>
<path fill-rule="evenodd" clip-rule="evenodd" d="M118.541 36.2075H130.083C130.765 36.2075 131.319 35.6536 131.319 34.971C131.319 34.2884 130.765 33.7344 130.083 33.7344H118.541C117.859 33.7344 117.305 34.2884 117.305 34.971C117.305 35.6536 117.859 36.2075 118.541 36.2075Z" fill="#222222"/>
<path fill-rule="evenodd" clip-rule="evenodd" d="M120.19 42.8091H130.082C130.765 42.8091 131.319 42.2551 131.319 41.5725C131.319 40.8899 130.765 40.3359 130.082 40.3359H120.19C119.507 40.3359 118.953 40.8899 118.953 41.5725C118.953 42.2551 119.507 42.8091 120.19 42.8091Z" fill="#222222"/>
<path fill-rule="evenodd" clip-rule="evenodd" d="M118.541 49.4029H130.083C130.765 49.4029 131.319 48.8489 131.319 48.1663C131.319 47.4837 130.765 46.9297 130.083 46.9297H118.541C117.859 46.9297 117.305 47.4837 117.305 48.1663C117.305 48.8489 117.859 49.4029 118.541 49.4029Z" fill="#222222"/>
<circle cx="120" cy="120" r="40" fill="white"/>
<circle cx="127.96" cy="109.124" r="12.0069" fill="#B68CFF"/>
<path fill-rule="evenodd" clip-rule="evenodd" d="M126.271 103.02L133.791 110.54V131.462C133.791 132.009 133.573 132.532 133.187 132.919C132.8 133.305 132.277 133.523 131.73 133.523H111.12C110.437 133.523 109.883 132.969 109.883 132.286C109.883 131.603 109.329 131.049 108.647 131.049C107.964 131.049 107.41 131.603 107.41 132.286C107.41 134.335 109.07 135.996 111.12 135.996H131.73C132.932 135.996 134.086 135.518 134.937 134.668C135.786 133.818 136.264 132.664 136.264 131.462C136.264 125.335 136.264 112.613 136.264 110.369C136.264 109.823 136.046 109.299 135.66 108.911C134.455 107.706 129.105 102.356 127.9 101.15C127.512 100.765 126.988 100.547 126.442 100.547H111.944C110.742 100.547 109.588 101.025 108.737 101.874C107.888 102.725 107.41 103.879 107.41 105.081V111.676C107.41 112.359 107.964 112.913 108.647 112.913C109.329 112.913 109.883 112.359 109.883 111.676V105.081C109.883 104.534 110.101 104.011 110.487 103.624C110.874 103.238 111.397 103.02 111.944 103.02H126.271Z" fill="#222222"/>
<path fill-rule="evenodd" clip-rule="evenodd" d="M125.547 101.783V110.027C125.547 110.71 126.101 111.264 126.783 111.264H135.027C135.71 111.264 136.264 110.71 136.264 110.027C136.264 109.345 135.71 108.791 135.027 108.791H128.02V101.783C128.02 101.101 127.466 100.547 126.783 100.547C126.101 100.547 125.547 101.101 125.547 101.783Z" fill="#222222"/>
<path fill-rule="evenodd" clip-rule="evenodd" d="M113.388 115.198C109.645 113.037 104.851 114.321 102.689 118.064C100.529 121.808 101.814 126.601 105.556 128.763C109.299 130.924 114.094 129.64 116.255 125.895C118.415 122.153 117.131 117.358 113.388 115.198ZM112.151 117.34C114.712 118.819 115.591 122.098 114.114 124.659C112.635 127.221 109.354 128.1 106.793 126.621C104.232 125.142 103.352 121.862 104.831 119.3C106.31 116.74 109.591 115.861 112.151 117.34Z" fill="#222222"/>
<path fill-rule="evenodd" clip-rule="evenodd" d="M105.104 127.071L101.025 134.139C100.684 134.729 100.887 135.488 101.477 135.829C102.069 136.169 102.826 135.966 103.167 135.376L107.246 128.307C107.587 127.717 107.384 126.96 106.794 126.619C106.202 126.278 105.446 126.48 105.104 127.071Z" fill="#222222"/>
<path fill-rule="evenodd" clip-rule="evenodd" d="M113.596 109.614H121.84C122.522 109.614 123.076 109.06 123.076 108.377C123.076 107.695 122.522 107.141 121.84 107.141H113.596C112.913 107.141 112.359 107.695 112.359 108.377C112.359 109.06 112.913 109.614 113.596 109.614Z" fill="#222222"/>
<path fill-rule="evenodd" clip-rule="evenodd" d="M118.541 116.208H130.083C130.765 116.208 131.319 115.654 131.319 114.971C131.319 114.288 130.765 113.734 130.083 113.734H118.541C117.859 113.734 117.305 114.288 117.305 114.971C117.305 115.654 117.859 116.208 118.541 116.208Z" fill="#222222"/>
<path fill-rule="evenodd" clip-rule="evenodd" d="M120.19 122.809H130.082C130.765 122.809 131.319 122.255 131.319 121.573C131.319 120.89 130.765 120.336 130.082 120.336H120.19C119.507 120.336 118.953 120.89 118.953 121.573C118.953 122.255 119.507 122.809 120.19 122.809Z" fill="#222222"/>
<path fill-rule="evenodd" clip-rule="evenodd" d="M118.541 129.403H130.083C130.765 129.403 131.319 128.849 131.319 128.166C131.319 127.484 130.765 126.93 130.083 126.93H118.541C117.859 126.93 117.305 127.484 117.305 128.166C117.305 128.849 117.859 129.403 118.541 129.403Z" fill="#222222"/>
<circle cx="200.068" cy="39.9629" r="39.9316" fill="white"/>
<circle cx="199.932" cy="39.9316" r="39.9316" fill="white"/>
<circle cx="186.714" cy="39.0384" r="11.6439" fill="#40E8E8"/>
<path d="M222.54 51.0539L213.117 43.9871C216.422 43.9001 219.209 41.2118 219.209 37.7349V28.858C219.209 25.3229 216.329 22.6016 212.952 22.6016H188.858C185.481 22.6016 182.602 25.3229 182.602 28.858V37.7349C182.602 41.2692 185.481 43.9913 188.858 43.9913H206.696V58.9756C206.696 59.386 206.908 59.7671 207.257 59.9828C207.607 60.1985 208.043 60.2181 208.41 60.0345L211.999 58.2388L214.062 62.3591C214.356 62.9449 215.067 63.1795 215.651 62.8877L220.298 60.5627C220.883 60.2702 221.12 59.5594 220.828 58.9747L218.77 54.8555L222.359 53.0598C222.726 52.8763 222.972 52.5158 223.008 52.1073C223.045 51.6986 222.868 51.3 222.54 51.0539ZM188.858 41.6234C186.728 41.6234 184.969 39.9057 184.969 37.7348V28.858C184.969 26.683 186.732 24.9694 188.858 24.9694H212.952C215.083 24.9694 216.841 26.6883 216.841 28.858V37.7349C216.841 39.9102 215.077 41.6235 212.952 41.6235H188.858V41.6234ZM216.652 53.2673C216.067 53.5597 215.83 54.2705 216.122 54.8552L218.18 58.9745L215.649 60.2406L213.586 56.1204C213.293 55.5349 212.581 55.2998 211.998 55.5917L209.064 57.0596V43.9068L219.587 51.799L216.652 53.2673Z" fill="#222222"/>
<path d="M203.444 27.6758C202.79 27.6758 202.26 28.2059 202.26 28.8597V35.2003C202.26 35.9459 201.653 36.5526 200.908 36.5526C200.162 36.5526 199.555 35.9459 199.555 35.2003V28.8597C199.555 28.2059 199.025 27.6758 198.371 27.6758C197.718 27.6758 197.188 28.2059 197.188 28.8597V35.2003C197.188 37.2516 198.856 38.9204 200.908 38.9204C202.959 38.9204 204.628 37.2516 204.628 35.2003V28.8597C204.628 28.2058 204.098 27.6758 203.444 27.6758Z" fill="#222222"/>
<path d="M214.14 31.3959V28.8597C214.14 28.2059 213.61 27.6758 212.956 27.6758C212.302 27.6758 211.772 28.2059 211.772 28.8597V31.3959C211.772 32.1416 211.165 32.7482 210.419 32.7482C209.674 32.7482 209.067 32.1416 209.067 31.3959V28.8597C209.067 28.2059 208.537 27.6758 207.883 27.6758C207.229 27.6758 206.699 28.2059 206.699 28.8597V31.3959C206.699 33.0333 207.763 34.4261 209.236 34.9218V37.7366C209.236 38.3904 209.766 38.9205 210.419 38.9205C211.073 38.9205 211.603 38.3904 211.603 37.7366V34.9218C213.076 34.426 214.14 33.0333 214.14 31.3959Z" fill="#222222"/>
<path d="M191.713 27.6758H188.86C188.206 27.6758 187.676 28.2059 187.676 28.8597V37.7366C187.676 38.3904 188.206 38.9205 188.86 38.9205H191.713C193.568 38.9205 195.116 37.415 195.116 35.5174C195.116 34.7063 194.818 33.9112 194.291 33.2984C194.825 32.6813 195.116 31.9025 195.116 31.079C195.116 29.2217 193.605 27.6758 191.713 27.6758ZM191.713 36.5526H190.044V34.482H191.713C192.278 34.482 192.748 34.9431 192.748 35.5174C192.748 36.0942 192.273 36.5526 191.713 36.5526ZM191.713 32.1142H190.044V30.0436H191.713C192.286 30.0436 192.748 30.5169 192.748 31.079C192.748 31.6582 192.27 32.1142 191.713 32.1142Z" fill="#222222"/>
<circle cx="200.068" cy="119.963" r="39.9316" fill="white"/>
<circle cx="199.932" cy="119.932" r="39.9316" fill="white"/>
<circle cx="186.714" cy="119.038" r="11.6439" fill="#B68CFF"/>
<path d="M222.54 131.054L213.117 123.987C216.422 123.9 219.209 121.212 219.209 117.735V108.858C219.209 105.323 216.329 102.602 212.952 102.602H188.858C185.481 102.602 182.602 105.323 182.602 108.858V117.735C182.602 121.269 185.481 123.991 188.858 123.991H206.696V138.976C206.696 139.386 206.908 139.767 207.257 139.983C207.607 140.198 208.043 140.218 208.41 140.034L211.999 138.239L214.062 142.359C214.356 142.945 215.067 143.18 215.651 142.888L220.298 140.563C220.883 140.27 221.12 139.559 220.828 138.975L218.77 134.855L222.359 133.06C222.726 132.876 222.972 132.516 223.008 132.107C223.045 131.699 222.868 131.3 222.54 131.054ZM188.858 121.623C186.728 121.623 184.969 119.906 184.969 117.735V108.858C184.969 106.683 186.732 104.969 188.858 104.969H212.952C215.083 104.969 216.841 106.688 216.841 108.858V117.735C216.841 119.91 215.077 121.623 212.952 121.623H188.858V121.623ZM216.652 133.267C216.067 133.56 215.83 134.271 216.122 134.855L218.18 138.974L215.649 140.241L213.586 136.12C213.293 135.535 212.581 135.3 211.998 135.592L209.064 137.06V123.907L219.587 131.799L216.652 133.267Z" fill="#222222"/>
<path d="M203.444 107.676C202.79 107.676 202.26 108.206 202.26 108.86V115.2C202.26 115.946 201.653 116.553 200.908 116.553C200.162 116.553 199.555 115.946 199.555 115.2V108.86C199.555 108.206 199.025 107.676 198.371 107.676C197.718 107.676 197.188 108.206 197.188 108.86V115.2C197.188 117.252 198.856 118.92 200.908 118.92C202.959 118.92 204.628 117.252 204.628 115.2V108.86C204.628 108.206 204.098 107.676 203.444 107.676Z" fill="#222222"/>
<path d="M214.14 111.396V108.86C214.14 108.206 213.61 107.676 212.956 107.676C212.302 107.676 211.772 108.206 211.772 108.86V111.396C211.772 112.142 211.165 112.748 210.419 112.748C209.674 112.748 209.067 112.142 209.067 111.396V108.86C209.067 108.206 208.537 107.676 207.883 107.676C207.229 107.676 206.699 108.206 206.699 108.86V111.396C206.699 113.033 207.763 114.426 209.236 114.922V117.737C209.236 118.39 209.766 118.921 210.419 118.921C211.073 118.921 211.603 118.39 211.603 117.737V114.922C213.076 114.426 214.14 113.033 214.14 111.396Z" fill="#222222"/>
<path d="M191.713 107.676H188.86C188.206 107.676 187.676 108.206 187.676 108.86V117.737C187.676 118.39 188.206 118.921 188.86 118.921H191.713C193.568 118.921 195.116 117.415 195.116 115.517C195.116 114.706 194.818 113.911 194.291 113.298C194.825 112.681 195.116 111.902 195.116 111.079C195.116 109.222 193.605 107.676 191.713 107.676ZM191.713 116.553H190.044V114.482H191.713C192.278 114.482 192.748 114.943 192.748 115.517C192.748 116.094 192.273 116.553 191.713 116.553ZM191.713 112.114H190.044V110.044H191.713C192.286 110.044 192.748 110.517 192.748 111.079C192.748 111.658 192.27 112.114 191.713 112.114Z" fill="#222222"/>
<circle cx="280" cy="40" r="40" fill="white"/>
<circle cx="290.703" cy="29.0895" r="10.566" fill="#40E8E8"/>
<g clip-path="url(#clip0_1053_2463)">
<path d="M290.476 36.7655C290.545 36.508 290.509 36.2337 290.375 36.0029L288.365 32.5213C288.232 32.2905 288.013 32.122 287.755 32.053C287.498 31.9841 287.223 32.0201 286.992 32.1534L285.663 32.9208C284.83 32.2143 283.863 31.6619 282.811 31.2918V29.7394C282.811 29.1844 282.361 28.7344 281.806 28.7344H277.786C277.231 28.7344 276.781 29.1844 276.781 29.7394V31.2918C275.729 31.6619 274.762 32.2143 273.929 32.9208L272.6 32.1534C272.369 32.0201 272.094 31.984 271.837 32.053C271.58 32.122 271.36 32.2904 271.227 32.5213L269.217 36.0029C269.084 36.2337 269.047 36.5081 269.116 36.7655C269.185 37.023 269.354 37.2425 269.585 37.3758L270.926 38.1501C270.807 38.7279 270.751 39.2615 270.751 39.7898C270.751 40.3181 270.807 40.8517 270.926 41.4295L269.585 42.2038C269.354 42.3371 269.185 42.5567 269.116 42.8141C269.047 43.0716 269.083 43.3459 269.217 43.5767L271.227 47.0583C271.36 47.2891 271.58 47.4576 271.837 47.5266C272.095 47.5957 272.369 47.5595 272.6 47.4262L273.929 46.6588C274.762 47.3653 275.729 47.9177 276.781 48.2878V49.8402C276.781 50.3952 277.231 50.8452 277.786 50.8452H281.806C282.361 50.8452 282.811 50.3952 282.811 49.8402V48.2878C283.863 47.9177 284.83 47.3653 285.663 46.6588L286.992 47.4262C287.223 47.5594 287.498 47.5955 287.755 47.5266C288.012 47.4576 288.232 47.2892 288.365 47.0583L290.375 43.5767C290.509 43.3459 290.545 43.0715 290.476 42.8141C290.407 42.5566 290.238 42.3371 290.007 42.2038L288.666 41.4295C288.785 40.8517 288.841 40.3181 288.841 39.7898C288.841 39.2615 288.785 38.7279 288.666 38.1501L290.008 37.3758C290.238 37.2425 290.407 37.023 290.476 36.7655ZM286.544 37.9246C286.74 38.6312 286.831 39.2238 286.831 39.7898C286.831 40.3558 286.74 40.9484 286.544 41.655C286.421 42.0966 286.613 42.5651 287.01 42.7942L288.132 43.442L287.127 45.1828L286.026 44.5473C285.63 44.3182 285.128 44.3864 284.807 44.7133C283.933 45.6031 282.807 46.2458 281.553 46.5719C281.11 46.687 280.801 47.0869 280.801 47.5446V48.8351H278.791V47.5446C278.791 47.0869 278.482 46.687 278.039 46.5719C276.784 46.2458 275.659 45.6031 274.785 44.7133C274.464 44.3864 273.962 44.3182 273.566 44.5473L272.465 45.1828L271.46 43.442L272.582 42.7942C272.979 42.5651 273.171 42.0966 273.048 41.655C272.852 40.9484 272.761 40.3558 272.761 39.7898C272.761 39.2238 272.852 38.6312 273.048 37.9246C273.171 37.483 272.979 37.0145 272.582 36.7854L271.46 36.1376L272.465 34.3968L273.566 35.0323C273.963 35.2613 274.464 35.1932 274.785 34.8663C275.66 33.9765 276.785 33.3338 278.039 33.0077C278.482 32.8926 278.791 32.4927 278.791 32.035V30.7445H280.801V32.035C280.801 32.4927 281.11 32.8926 281.553 33.0077C282.808 33.3338 283.933 33.9765 284.807 34.8663C285.128 35.1932 285.63 35.2613 286.026 35.0323L287.127 34.3968L288.132 36.1376L287.01 36.7854C286.613 37.0145 286.421 37.483 286.544 37.9246Z" fill="#222222"/>
<path d="M279.795 34.7656C277.024 34.7656 274.77 37.0199 274.77 39.7908C274.77 42.5617 277.024 44.816 279.795 44.816C282.566 44.816 284.82 42.5617 284.82 39.7908C284.82 37.0199 282.566 34.7656 279.795 34.7656ZM279.795 42.8059C278.132 42.8059 276.78 41.4534 276.78 39.7908C276.78 38.1283 278.132 36.7757 279.795 36.7757C281.457 36.7757 282.81 38.1283 282.81 39.7908C282.81 41.4534 281.457 42.8059 279.795 42.8059Z" fill="#222222"/>
<path d="M293.296 30.5546C293.705 30.1459 293.539 29.526 293.539 29.526L292.117 25.262C291.942 24.7353 291.373 24.4507 290.846 24.6263C290.319 24.8019 290.035 25.371 290.21 25.8976L290.331 26.26C289.429 25.5736 288.457 24.9686 287.434 24.4612C285.033 23.2702 282.391 22.6406 279.793 22.6406C275.236 22.6406 270.936 24.4317 267.684 27.6838C264.432 30.9359 262.641 35.2365 262.641 39.7933C262.641 41.8979 263.083 44.0539 263.955 46.2016C264.113 46.5921 264.489 46.8288 264.886 46.8288C265.012 46.8288 265.14 46.805 265.264 46.7548C265.778 46.5459 266.026 45.9598 265.817 45.4455C265.043 43.5391 264.651 41.6375 264.651 39.7933C264.651 31.4436 271.444 24.6507 279.793 24.6507C282.858 24.6507 285.952 25.6702 288.522 27.4384C288.031 27.3374 287.53 27.617 287.368 28.1047C287.192 28.6313 287.477 29.2004 288.004 29.376L292.268 30.7973C292.268 30.7973 292.868 30.982 293.296 30.5546Z" fill="#222222"/>
<path d="M266.048 50.0606L267.469 54.3246C267.61 54.7458 268.002 55.0122 268.423 55.0121C268.528 55.0121 268.635 54.9954 268.741 54.9603C269.267 54.7848 269.552 54.2157 269.376 53.689L269.255 53.3266C270.157 54.013 271.129 54.618 272.152 55.1256C274.554 56.3165 277.196 56.946 279.794 56.946C284.35 56.946 288.651 55.155 291.903 51.9029C295.155 48.6507 296.946 44.3501 296.946 39.7934C296.946 37.6887 296.504 35.5327 295.632 33.385C295.424 32.8707 294.837 32.6231 294.323 32.8319C293.809 33.0407 293.561 33.6268 293.77 34.1412C294.544 36.0475 294.936 37.9492 294.936 39.7934C294.936 48.143 288.143 54.9359 279.794 54.9359C276.729 54.9359 273.635 53.9164 271.065 52.1482C271.556 52.2491 272.056 51.9697 272.219 51.4819C272.395 50.9553 272.11 50.3861 271.583 50.2106L267.319 48.7893C266.724 48.5907 266.291 49.0321 266.291 49.0321C265.873 49.4495 266.048 50.0606 266.048 50.0606Z" fill="#222222"/>
</g>
<circle cx="280" cy="120" r="40" fill="white"/>
<circle cx="290.703" cy="109.089" r="10.566" fill="#B68CFF"/>
<g clip-path="url(#clip1_1053_2463)">
<path d="M290.476 116.766C290.545 116.508 290.509 116.234 290.375 116.003L288.365 112.521C288.232 112.29 288.013 112.122 287.755 112.053C287.498 111.984 287.223 112.02 286.992 112.153L285.663 112.921C284.83 112.214 283.863 111.662 282.811 111.292V109.739C282.811 109.184 282.361 108.734 281.806 108.734H277.786C277.231 108.734 276.781 109.184 276.781 109.739V111.292C275.729 111.662 274.762 112.214 273.929 112.921L272.6 112.153C272.369 112.02 272.094 111.984 271.837 112.053C271.58 112.122 271.36 112.29 271.227 112.521L269.217 116.003C269.084 116.234 269.047 116.508 269.116 116.766C269.185 117.023 269.354 117.242 269.585 117.376L270.926 118.15C270.807 118.728 270.751 119.261 270.751 119.79C270.751 120.318 270.807 120.852 270.926 121.429L269.585 122.204C269.354 122.337 269.185 122.557 269.116 122.814C269.047 123.072 269.083 123.346 269.217 123.577L271.227 127.058C271.36 127.289 271.58 127.458 271.837 127.527C272.095 127.596 272.369 127.559 272.6 127.426L273.929 126.659C274.762 127.365 275.729 127.918 276.781 128.288V129.84C276.781 130.395 277.231 130.845 277.786 130.845H281.806C282.361 130.845 282.811 130.395 282.811 129.84V128.288C283.863 127.918 284.83 127.365 285.663 126.659L286.992 127.426C287.223 127.559 287.498 127.596 287.755 127.527C288.012 127.458 288.232 127.289 288.365 127.058L290.375 123.577C290.509 123.346 290.545 123.072 290.476 122.814C290.407 122.557 290.238 122.337 290.007 122.204L288.666 121.429C288.785 120.852 288.841 120.318 288.841 119.79C288.841 119.261 288.785 118.728 288.666 118.15L290.008 117.376C290.238 117.242 290.407 117.023 290.476 116.766ZM286.544 117.925C286.74 118.631 286.831 119.224 286.831 119.79C286.831 120.356 286.74 120.948 286.544 121.655C286.421 122.097 286.613 122.565 287.01 122.794L288.132 123.442L287.127 125.183L286.026 124.547C285.63 124.318 285.128 124.386 284.807 124.713C283.933 125.603 282.807 126.246 281.553 126.572C281.11 126.687 280.801 127.087 280.801 127.545V128.835H278.791V127.545C278.791 127.087 278.482 126.687 278.039 126.572C276.784 126.246 275.659 125.603 274.785 124.713C274.464 124.386 273.962 124.318 273.566 124.547L272.465 125.183L271.46 123.442L272.582 122.794C272.979 122.565 273.171 122.097 273.048 121.655C272.852 120.948 272.761 120.356 272.761 119.79C272.761 119.224 272.852 118.631 273.048 117.925C273.171 117.483 272.979 117.014 272.582 116.785L271.46 116.138L272.465 114.397L273.566 115.032C273.963 115.261 274.464 115.193 274.785 114.866C275.66 113.977 276.785 113.334 278.039 113.008C278.482 112.893 278.791 112.493 278.791 112.035V110.744H280.801V112.035C280.801 112.493 281.11 112.893 281.553 113.008C282.808 113.334 283.933 113.976 284.807 114.866C285.128 115.193 285.63 115.261 286.026 115.032L287.127 114.397L288.132 116.138L287.01 116.785C286.613 117.014 286.421 117.483 286.544 117.925Z" fill="#222222"/>
<path d="M279.795 114.766C277.024 114.766 274.77 117.02 274.77 119.791C274.77 122.562 277.024 124.816 279.795 124.816C282.566 124.816 284.82 122.562 284.82 119.791C284.82 117.02 282.566 114.766 279.795 114.766ZM279.795 122.806C278.132 122.806 276.78 121.453 276.78 119.791C276.78 118.128 278.132 116.776 279.795 116.776C281.457 116.776 282.81 118.128 282.81 119.791C282.81 121.453 281.457 122.806 279.795 122.806Z" fill="#222222"/>
<path d="M293.296 110.555C293.705 110.146 293.539 109.526 293.539 109.526L292.117 105.262C291.942 104.735 291.373 104.451 290.846 104.626C290.319 104.802 290.035 105.371 290.21 105.898L290.331 106.26C289.429 105.574 288.457 104.969 287.434 104.461C285.033 103.27 282.391 102.641 279.793 102.641C275.236 102.641 270.936 104.432 267.684 107.684C264.432 110.936 262.641 115.237 262.641 119.793C262.641 121.898 263.083 124.054 263.955 126.202C264.113 126.592 264.489 126.829 264.886 126.829C265.012 126.829 265.14 126.805 265.264 126.755C265.778 126.546 266.026 125.96 265.817 125.445C265.043 123.539 264.651 121.637 264.651 119.793C264.651 111.444 271.444 104.651 279.793 104.651C282.858 104.651 285.952 105.67 288.522 107.438C288.031 107.337 287.53 107.617 287.368 108.105C287.192 108.631 287.477 109.2 288.004 109.376L292.268 110.797C292.268 110.797 292.868 110.982 293.296 110.555Z" fill="#222222"/>
<path d="M266.048 130.061L267.469 134.325C267.61 134.746 268.002 135.012 268.423 135.012C268.528 135.012 268.635 134.995 268.741 134.96C269.267 134.785 269.552 134.216 269.376 133.689L269.255 133.327C270.157 134.013 271.129 134.618 272.152 135.126C274.554 136.316 277.196 136.946 279.794 136.946C284.35 136.946 288.651 135.155 291.903 131.903C295.155 128.651 296.946 124.35 296.946 119.793C296.946 117.689 296.504 115.533 295.632 113.385C295.424 112.871 294.837 112.623 294.323 112.832C293.809 113.041 293.561 113.627 293.77 114.141C294.544 116.048 294.936 117.949 294.936 119.793C294.936 128.143 288.143 134.936 279.794 134.936C276.729 134.936 273.635 133.916 271.065 132.148C271.556 132.249 272.056 131.97 272.219 131.482C272.395 130.955 272.11 130.386 271.583 130.211L267.319 128.789C266.724 128.591 266.291 129.032 266.291 129.032C265.873 129.45 266.048 130.061 266.048 130.061Z" fill="#222222"/>
</g>
<circle cx="360" cy="40" r="40" fill="white"/>
<circle cx="348.132" cy="48.9488" r="10.566" fill="#40E8E8"/>
<path d="M372.693 22.6094H347.033C344.46 22.6094 342.367 24.7018 342.367 27.2749V45.937C342.367 48.5101 344.46 50.6025 347.033 50.6025H356.364V55.268H352.865C352.22 55.268 351.698 55.7897 351.698 56.4344C351.698 57.0791 352.22 57.6008 352.865 57.6008H366.861C367.506 57.6008 368.028 57.0791 368.028 56.4344C368.028 55.7897 367.506 55.268 366.861 55.268H363.362V50.6025H372.693C375.266 50.6025 377.359 48.5101 377.359 45.937V27.2749C377.359 24.7018 375.266 22.6094 372.693 22.6094ZM361.029 55.268H358.697V50.6025H361.029V55.268ZM375.026 45.937C375.026 47.223 373.979 48.2698 372.693 48.2698H347.033C345.746 48.2698 344.7 47.223 344.7 45.937V27.2749C344.7 25.9889 345.746 24.9421 347.033 24.9421H372.693C373.979 24.9421 375.026 25.9889 375.026 27.2749V45.937ZM366.861 29.6077V33.1068C366.861 33.7515 366.34 34.2732 365.695 34.2732C365.05 34.2732 364.528 33.7515 364.528 33.1068V32.4234L360.688 36.2642C360.232 36.7198 359.494 36.7198 359.038 36.2642L357.53 34.7561L353.689 38.597C353.461 38.8248 353.163 38.9387 352.865 38.9387C352.566 38.9387 352.268 38.8248 352.04 38.597C351.584 38.1414 351.584 37.4033 352.04 36.9477L356.705 32.2821C357.161 31.8265 357.899 31.8265 358.355 32.2821L359.863 33.7902L362.879 30.774H362.196C361.551 30.774 361.029 30.2524 361.029 29.6077C361.029 28.963 361.551 28.4413 362.196 28.4413H365.695C366.34 28.4413 366.861 28.963 366.861 29.6077ZM366.861 43.6042C366.861 44.2489 366.34 44.7706 365.695 44.7706H354.031C353.387 44.7706 352.865 44.2489 352.865 43.6042C352.865 42.9595 353.387 42.4378 354.031 42.4378V40.1051C354.031 39.4604 354.553 38.9387 355.197 38.9387C355.842 38.9387 356.364 39.4604 356.364 40.1051V42.4378H358.697V40.1051C358.697 39.4604 359.219 38.9387 359.863 38.9387C360.507 38.9387 361.029 39.4604 361.029 40.1051V42.4378H363.362V36.6059C363.362 35.9612 363.884 35.4396 364.528 35.4396C365.173 35.4396 365.695 35.9612 365.695 36.6059V42.4378C366.34 42.4378 366.861 42.9595 366.861 43.6042Z" fill="#222222"/>
<circle cx="360" cy="120" r="40" fill="white"/>
<circle cx="348.132" cy="128.949" r="10.566" fill="#B68CFF"/>
<path d="M372.693 102.609H347.033C344.46 102.609 342.367 104.702 342.367 107.275V125.937C342.367 128.51 344.46 130.603 347.033 130.603H356.364V135.268H352.865C352.22 135.268 351.698 135.79 351.698 136.434C351.698 137.079 352.22 137.601 352.865 137.601H366.861C367.506 137.601 368.028 137.079 368.028 136.434C368.028 135.79 367.506 135.268 366.861 135.268H363.362V130.603H372.693C375.266 130.603 377.359 128.51 377.359 125.937V107.275C377.359 104.702 375.266 102.609 372.693 102.609ZM361.029 135.268H358.697V130.603H361.029V135.268ZM375.026 125.937C375.026 127.223 373.979 128.27 372.693 128.27H347.033C345.746 128.27 344.7 127.223 344.7 125.937V107.275C344.7 105.989 345.746 104.942 347.033 104.942H372.693C373.979 104.942 375.026 105.989 375.026 107.275V125.937ZM366.861 109.608V113.107C366.861 113.752 366.34 114.273 365.695 114.273C365.05 114.273 364.528 113.752 364.528 113.107V112.423L360.688 116.264C360.232 116.72 359.494 116.72 359.038 116.264L357.53 114.756L353.689 118.597C353.461 118.825 353.163 118.939 352.865 118.939C352.566 118.939 352.268 118.825 352.04 118.597C351.584 118.141 351.584 117.403 352.04 116.948L356.705 112.282C357.161 111.827 357.899 111.827 358.355 112.282L359.863 113.79L362.879 110.774H362.196C361.551 110.774 361.029 110.252 361.029 109.608C361.029 108.963 361.551 108.441 362.196 108.441H365.695C366.34 108.441 366.861 108.963 366.861 109.608ZM366.861 123.604C366.861 124.249 366.34 124.771 365.695 124.771H354.031C353.387 124.771 352.865 124.249 352.865 123.604C352.865 122.96 353.387 122.438 354.031 122.438V120.105C354.031 119.46 354.553 118.939 355.197 118.939C355.842 118.939 356.364 119.46 356.364 120.105V122.438H358.697V120.105C358.697 119.46 359.219 118.939 359.863 118.939C360.507 118.939 361.029 119.46 361.029 120.105V122.438H363.362V116.606C363.362 115.961 363.884 115.44 364.528 115.44C365.173 115.44 365.695 115.961 365.695 116.606V122.438C366.34 122.438 366.861 122.96 366.861 123.604Z" fill="#222222"/>
<defs>
<clipPath id="clip0_1053_2463">
<rect width="34.3053" height="34.3053" fill="white" transform="translate(262.641 22.6406)"/>
</clipPath>
<clipPath id="clip1_1053_2463">
<rect width="34.3053" height="34.3053" fill="white" transform="translate(262.641 102.641)"/>
</clipPath>
</defs>
</svg>
