<svg width="1798" height="56" viewBox="0 0 1798 56" fill="none" xmlns="http://www.w3.org/2000/svg">
<path d="M1798 28L-1.72853e-06 28" stroke="#A198FF" stroke-width="3"/>
<circle cx="671" cy="28" r="27" transform="rotate(90 671 28)" fill="white" stroke="#A198FF" stroke-width="2"/>
<circle cx="6" cy="6" r="5.5" transform="matrix(-4.37114e-08 1 1 4.37114e-08 665 22)" fill="#A198FF" stroke="#A198FF"/>
<circle cx="1127" cy="28" r="27" transform="rotate(90 1127 28)" fill="white" stroke="#A198FF" stroke-width="2"/>
<circle cx="6" cy="6" r="5.5" transform="matrix(-4.37114e-08 1 1 4.37114e-08 1121 22)" fill="#A198FF" stroke="#A198FF"/>
<circle cx="1583" cy="28" r="27" transform="rotate(90 1583 28)" fill="white" stroke="#A198FF" stroke-width="2"/>
<circle cx="6" cy="6" r="5.5" transform="matrix(-4.37114e-08 1 1 4.37114e-08 1577 22)" fill="#A198FF" stroke="#A198FF"/>
<circle cx="215" cy="28" r="27" transform="rotate(90 215 28)" fill="white" stroke="#A198FF" stroke-width="2"/>
<circle cx="6" cy="6" r="5.5" transform="matrix(-4.37114e-08 1 1 4.37114e-08 209 22)" fill="#A198FF" stroke="#A198FF"/>
</svg>
