<svg width="16" height="16" viewBox="0 0 16 16" fill="none" xmlns="http://www.w3.org/2000/svg">
<g clip-path="url(#clip0_40000331_5330)">
<path d="M3.33333 14C2.96667 14 2.65289 13.8696 2.392 13.6087C2.13111 13.3478 2.00044 13.0338 2 12.6667V3.33334C2 2.96667 2.13067 2.65289 2.392 2.392C2.65333 2.13111 2.96711 2.00045 3.33333 2H8.66667C8.85556 2 9.014 2.064 9.142 2.192C9.27 2.32 9.33378 2.47822 9.33333 2.66667C9.33289 2.85511 9.26889 3.01356 9.14133 3.142C9.01378 3.27045 8.85556 3.33422 8.66667 3.33334H3.33333V12.6667H12.6667V7.33334C12.6667 7.14445 12.7307 6.98622 12.8587 6.85867C12.9867 6.73111 13.1449 6.66711 13.3333 6.66667C13.5218 6.66622 13.6802 6.73022 13.8087 6.85867C13.9371 6.98711 14.0009 7.14534 14 7.33334V12.6667C14 13.0333 13.8696 13.3473 13.6087 13.6087C13.3478 13.87 13.0338 14.0004 12.6667 14H3.33333ZM5.33333 6.66667C5.14444 6.66667 4.98622 6.73067 4.85867 6.85867C4.73111 6.98667 4.66711 7.14489 4.66667 7.33334V10.6667C4.66667 10.8556 4.73067 11.014 4.85867 11.142C4.98667 11.27 5.14489 11.3338 5.33333 11.3333C5.52178 11.3329 5.68022 11.2689 5.80867 11.1413C5.93711 11.0138 6.00089 10.8556 6 10.6667V7.33334C6 7.14445 5.936 6.98622 5.808 6.85867C5.68 6.73111 5.52178 6.66711 5.33333 6.66667ZM8 4.66667C7.81111 4.66667 7.65289 4.73067 7.52533 4.85867C7.39778 4.98667 7.33378 5.14489 7.33333 5.33334V10.6667C7.33333 10.8556 7.39733 11.014 7.52533 11.142C7.65333 11.27 7.81156 11.3338 8 11.3333C8.18844 11.3329 8.34689 11.2689 8.47533 11.1413C8.60378 11.0138 8.66756 10.8556 8.66667 10.6667V5.33334C8.66667 5.14445 8.60267 4.98622 8.47467 4.85867C8.34667 4.73111 8.18844 4.66711 8 4.66667ZM10.6667 8.66667C10.4778 8.66667 10.3196 8.73067 10.192 8.85867C10.0644 8.98667 10.0004 9.14489 10 9.33334V10.6667C10 10.8556 10.064 11.014 10.192 11.142C10.32 11.27 10.4782 11.3338 10.6667 11.3333C10.8551 11.3329 11.0136 11.2689 11.142 11.1413C11.2704 11.0138 11.3342 10.8556 11.3333 10.6667V9.33334C11.3333 9.14445 11.2693 8.98623 11.1413 8.85867C11.0133 8.73111 10.8551 8.66711 10.6667 8.66667ZM11.3333 4.66667H10.6667C10.4778 4.66667 10.3196 4.60267 10.192 4.47467C10.0644 4.34667 10.0004 4.18845 10 4C9.99956 3.81156 10.0636 3.65334 10.192 3.52534C10.3204 3.39734 10.4787 3.33334 10.6667 3.33334H11.3333V2.66667C11.3333 2.47778 11.3973 2.31956 11.5253 2.192C11.6533 2.06445 11.8116 2.00045 12 2C12.1884 1.99956 12.3469 2.06356 12.4753 2.192C12.6038 2.32045 12.6676 2.47867 12.6667 2.66667V3.33334H13.3333C13.5222 3.33334 13.6807 3.39734 13.8087 3.52534C13.9367 3.65334 14.0004 3.81156 14 4C13.9996 4.18845 13.9356 4.34689 13.808 4.47534C13.6804 4.60378 13.5222 4.66756 13.3333 4.66667H12.6667V5.33334C12.6667 5.52222 12.6027 5.68067 12.4747 5.80867C12.3467 5.93667 12.1884 6.00045 12 6C11.8116 5.99956 11.6533 5.93556 11.5253 5.808C11.3973 5.68045 11.3333 5.52222 11.3333 5.33334V4.66667Z" fill="#030723"/>
</g>
<defs>
<clipPath id="clip0_40000331_5330">
<rect width="16" height="16" fill="white"/>
</clipPath>
</defs>
</svg>
