<svg width="30" height="26" viewBox="0 0 30 26" fill="none" xmlns="http://www.w3.org/2000/svg">
<path d="M9.57501 15.0998L16.4761 6.30742H12.7113C11.0216 6.30742 9.86552 6.84122 8.83391 8.08675L5.19956 12.713V0.00614162H1.55335C0.693675 0.00614162 0 0.724003 0 1.6198V25.3279H3.64622C4.50589 25.3279 5.19956 24.61 5.19956 23.7203V17.4129L8.1521 21.1679L10.6659 24.3707C11.1699 25.0272 11.8398 25.334 12.5276 25.334H17.6145L14.324 21.1556L9.56908 15.112L9.57501 15.0998ZM25.5294 20.8489C24.7646 20.8489 24.1361 20.1985 24.1361 19.4008V0H20.4899C19.6302 0 18.9366 0.717865 18.9366 1.60753V20.4132C18.9366 23.3154 20.8753 25.3217 23.6856 25.3217H27.6934C28.5531 25.3217 29.2527 24.6039 29.2527 23.7142V20.8489H25.5353H25.5294Z" fill="#221E1F"/>
<path d="M5.70312 12.07L5.71498 12.0577C5.71498 12.0577 5.70905 12.0577 5.70312 12.0638V12.07ZM29.9934 8.48061V4.90967L29.6732 5.26554C29.6614 5.27168 28.6831 6.30245 25.8788 6.30245H12.622C10.5292 6.30245 9.53905 7.18598 8.79202 8.14314L8.38293 8.66467C8.38293 8.66467 8.35922 8.69535 8.34736 8.70762L5.71498 12.0638C6.66951 11.3153 7.97978 10.8674 9.31969 10.8674H25.8847C27.8946 10.8674 29.8274 10.2538 29.9815 8.70148C30.0053 8.57263 29.9993 8.49287 29.9993 8.49287L29.9934 8.48061Z" fill="#ED1B23"/>
</svg>
