<svg width="48" height="48" viewBox="0 0 48 48" fill="none" xmlns="http://www.w3.org/2000/svg">
<path d="M15.3196 28.159L26.3611 14.0916H20.3376C17.6341 14.0916 15.7844 14.9456 14.1339 16.9384L8.31905 24.3402V4.00983H2.48529C1.10985 4.00983 0 5.15837 0 6.59161V44.5234H5.83378C7.20922 44.5234 8.31905 43.3749 8.31905 41.9514V31.8599L13.043 37.8677L17.065 42.992C17.8713 44.0424 18.9432 44.5332 20.0435 44.5332H28.1823L22.9177 37.8481L15.3101 28.1786L15.3196 28.159ZM40.8459 37.3572C39.6222 37.3572 38.6167 36.3166 38.6167 35.0405V4H32.7829C31.4075 4 30.2977 5.14855 30.2977 6.57198V36.6602C30.2977 41.3035 33.3995 44.5136 37.8958 44.5136H44.3082C45.6836 44.5136 46.803 43.365 46.803 41.9416V37.3572H40.8554H40.8459Z" fill="#221E1F"/>
<path d="M9.12573 23.3094L9.14469 23.2897C9.14469 23.2897 9.13522 23.2898 9.12573 23.2996V23.3094ZM47.9891 17.5666V11.8533L47.4768 12.4227C47.4579 12.4325 45.8927 14.0817 41.4059 14.0817H20.1957C16.8472 14.0817 15.263 15.4953 14.0678 17.0267L13.4133 17.8611C13.4133 17.8611 13.3754 17.9102 13.3564 17.9298L9.14469 23.2996C10.6719 22.1019 12.7683 21.3853 14.9121 21.3853H41.4154C44.6311 21.3853 47.7235 20.4036 47.9701 17.92C48.008 17.7138 47.9985 17.5862 47.9985 17.5862L47.9891 17.5666Z" fill="#ED1B23"/>
</svg>
