<svg width="400" height="400" viewBox="0 0 400 400" fill="none" xmlns="http://www.w3.org/2000/svg">
<g clip-path="url(#clip0_2005_5107)">
<path d="M200 400C310.456 400 400 310.457 400 200C400 89.5431 310.456 0 200 0C89.5426 0 -0.000488281 89.5431 -0.000488281 200C-0.000488281 310.457 89.5426 400 200 400Z" fill="#004098"/>
<path d="M45.2672 250.93C45.8263 251.85 46.728 253.78 47.4313 255.655C48.2789 257.945 48.5855 259.442 48.333 260.903C48.1527 262.292 47.3231 263.554 45.8263 264.113C44.3475 264.672 42.6522 264.312 41.2636 262.707H41.2095C41.4079 264.817 40.4881 266.764 38.3421 267.558C36.8452 268.117 35.4025 267.864 34.1761 267.143C32.7695 266.295 31.471 264.474 30.2266 261.174C29.5413 259.316 29.1446 257.891 28.9642 257.008L45.2852 250.912L45.2672 250.93ZM32.9137 259.767C33.0039 260.164 33.1662 260.597 33.4007 261.246C34.0319 262.941 35.2402 264.203 36.9895 263.554C38.6667 262.923 38.7749 261.174 38.0715 259.298L37.5846 258.018L32.8957 259.767H32.9137ZM40.2898 257.026L40.7406 258.252C41.48 260.218 42.6883 260.975 43.9146 260.524C45.177 260.055 45.4836 258.847 44.8524 257.152C44.5458 256.34 44.3294 255.89 44.1491 255.583L40.2717 257.026H40.2898Z" fill="white"/>
<path d="M41.7315 274.951C40.3068 275.798 40.3068 277.62 41.1364 279.297C41.7315 280.523 42.3988 281.443 43.1742 282.254L40.9741 283.914C39.9281 282.958 38.9723 281.641 38.2148 280.072C36.2852 276.159 37.4574 272.786 41.0642 271.019C43.9858 269.576 48.1156 269.811 50.0994 273.832C51.9389 277.565 49.7207 280.415 46.8713 281.803C46.2581 282.11 45.681 282.308 45.3925 282.381L41.7315 274.932V274.951ZM46.2761 277.98C47.1418 277.547 48.4222 276.447 47.6107 274.806C46.8713 273.291 45.1941 273.345 44.1842 273.742L46.2761 277.998V277.98Z" fill="white"/>
<path d="M46.0602 286.927C46.0602 287.792 46.3848 289.361 46.9799 290.389C47.5931 291.435 48.2063 291.652 48.7834 291.309C49.3605 290.967 49.4146 290.48 49.09 288.929C48.4948 286.187 49.2162 284.564 50.5507 283.807C52.6066 282.581 55.2216 283.428 56.8447 286.151C57.6021 287.45 57.9989 288.766 58.071 289.65L55.3298 290.444C55.3118 289.776 55.0954 288.622 54.5363 287.666C54.0313 286.837 53.4182 286.548 52.8591 286.891C52.3361 287.197 52.3181 287.792 52.6607 289.434C53.1837 291.976 52.6607 293.473 51.0377 294.465C48.9818 295.691 46.493 294.952 44.6175 291.796C43.7518 290.353 43.301 288.875 43.2649 287.756L46.0963 286.909L46.0602 286.927Z" fill="white"/>
<path d="M66.1515 294.249L63.1217 296.341L64.7448 298.703L62.3282 300.38L60.7051 298.018L56.8818 300.669C55.6014 301.552 55.2227 302.256 55.926 303.248C56.2146 303.662 56.4851 303.951 56.6835 304.167L54.2128 305.917C53.7439 305.61 53.0946 304.907 52.4454 303.969C51.706 302.905 51.4716 301.769 51.6519 300.867C51.8683 299.821 52.6618 298.829 54.1587 297.783L58.4869 294.79L57.513 293.383L59.9296 291.706L60.9035 293.112L63.1938 291.525L66.1515 294.249Z" fill="white"/>
<path d="M62.2008 316.432L72.4623 301.355L75.3478 304.529L70.8573 310.445C69.5768 312.158 68.1341 313.979 66.9979 315.386L67.034 315.422C68.639 314.34 70.5146 313.222 72.4262 312.068L78.8104 308.281L81.6778 311.437L77.1151 317.532C75.8527 319.227 74.6444 320.724 73.364 322.239L73.4001 322.275C75.0412 321.139 76.8446 320.021 78.6481 318.885L84.9961 315.061L87.7554 318.073L71.5606 326.658L68.639 323.447L73.2558 317.19C74.3379 315.729 75.3838 314.394 76.7364 312.879L76.7003 312.843C75.0051 313.961 73.5624 314.881 71.9573 315.783L65.1765 319.678L62.2188 316.432H62.2008Z" fill="#FBF494"/>
<path d="M91.9385 336.16C88.8727 339.731 84.9232 339.19 82.3082 336.954C79.4588 334.501 78.8637 330.732 81.5868 327.594C84.292 324.438 88.0972 324.204 91.2352 326.891C94.2289 329.47 94.4633 333.239 91.9385 336.16ZM84.7789 330.191C83.3362 331.868 82.9574 333.726 84.2559 334.844C85.4281 335.854 87.1955 335.331 88.7104 333.581C89.9547 332.121 90.6761 330.173 89.2875 328.983C87.8267 327.738 86.0052 328.766 84.7789 330.209V330.191Z" fill="white"/>
<path d="M96.5201 336.989C97.6383 335.456 98.3055 334.428 98.9187 333.49L101.714 335.51L100.434 337.512L100.524 337.566C102.147 336.43 103.896 336.718 104.888 337.458C105.195 337.674 105.339 337.782 105.537 337.999L103.337 341.047C103.139 340.83 102.886 340.596 102.526 340.325C101.335 339.46 100.055 339.514 99.1171 340.361C98.9187 340.542 98.7203 340.776 98.5219 341.047L94.6987 346.331L91.4525 343.986L96.5201 336.989Z" fill="white"/>
<path d="M108.584 346.676L108.62 346.712C109.143 346.405 109.685 346.135 110.208 345.864L114.446 343.917L118.557 346.424L111.921 348.479L112.426 357.749L108.224 355.188L108.332 349.057L106.799 349.598L104.707 353.042L101.299 350.95L111.019 335.008L114.428 337.1L108.584 346.694V346.676Z" fill="white"/>
<path d="M132.336 347.846L136.051 349.397L130.478 362.652L136.989 365.375L135.69 368.477L125.483 364.185L132.354 347.828L132.336 347.846Z" fill="#FBF494"/>
<path d="M139.424 369.755L143.608 357.582L147.395 358.881L143.211 371.054L139.424 369.755ZM148.676 355.544C148.315 356.59 147.233 357.168 145.989 356.735C144.798 356.32 144.293 355.202 144.672 354.174C145.015 353.074 146.097 352.515 147.323 352.948C148.549 353.362 149.036 354.444 148.676 355.562V355.544Z" fill="white"/>
<path d="M147.846 372.534L150.588 362.994L148.965 362.525L149.776 359.694L151.399 360.163L151.543 359.676C151.976 358.179 152.896 356.664 154.303 355.979C155.529 355.348 156.954 355.402 158.072 355.726C158.937 355.979 159.569 356.267 160.056 356.574L159.046 359.496C158.739 359.297 158.36 359.099 157.855 358.954C156.593 358.594 155.781 359.423 155.421 360.632L155.24 361.263L157.711 361.984L156.9 364.816L154.447 364.112L151.706 373.652L147.828 372.534H147.846Z" fill="white"/>
<path d="M161.716 370.84C161.5 372.481 162.943 373.599 164.764 373.978C166.099 374.267 167.217 374.303 168.353 374.195L168.317 376.954C166.928 377.188 165.287 377.116 163.592 376.773C159.318 375.872 157.388 372.878 158.218 368.947C158.885 365.755 161.608 362.653 165.99 363.572C170.066 364.438 170.932 367.919 170.282 371.039C170.138 371.706 169.94 372.283 169.832 372.553L161.716 370.84ZM166.874 369.145C167.072 368.189 167 366.512 165.197 366.133C163.556 365.791 162.564 367.143 162.239 368.171L166.874 369.145Z" fill="white"/>
<path d="M185.59 362.219C186.654 362.057 188.782 362.021 190.784 362.111C193.218 362.237 194.715 362.544 195.96 363.373C197.168 364.095 197.998 365.357 197.907 366.944C197.835 368.513 196.825 369.938 194.805 370.587V370.641C196.789 371.29 198.214 372.895 198.106 375.186C198.016 376.791 197.222 378.017 196.068 378.847C194.733 379.802 192.551 380.271 189.016 380.091C187.051 379.983 185.572 379.784 184.688 379.604L185.572 362.201L185.59 362.219ZM188.8 377.061C189.197 377.133 189.666 377.151 190.351 377.187C192.172 377.278 193.796 376.682 193.904 374.807C193.994 373.022 192.425 372.228 190.423 372.12L189.053 372.048L188.8 377.043V377.061ZM189.215 369.198L190.531 369.27C192.641 369.379 193.814 368.567 193.868 367.251C193.94 365.916 192.948 365.141 191.126 365.05C190.261 365.014 189.756 365.05 189.413 365.05L189.197 369.18L189.215 369.198Z" fill="#FBF494"/>
<path d="M210.604 379.949L210.315 378.668H210.243C209.449 379.732 208.169 380.346 206.636 380.418C204.039 380.544 202.398 378.723 202.29 376.667C202.128 373.33 205.049 371.581 209.594 371.401V371.22C209.558 370.535 209.143 369.579 207.159 369.669C205.843 369.723 204.472 370.246 203.66 370.806L202.795 368.263C203.66 367.722 205.392 367 207.736 366.892C212.028 366.694 213.507 369.146 213.651 372.176L213.868 376.649C213.922 377.875 214.03 379.065 214.192 379.769L210.586 379.931L210.604 379.949ZM209.846 373.907C207.736 373.98 206.131 374.557 206.203 376.108C206.257 377.136 206.961 377.604 207.844 377.55C208.836 377.496 209.63 376.811 209.846 375.981C209.882 375.765 209.9 375.531 209.9 375.296L209.828 373.907H209.846Z" fill="white"/>
<path d="M216.774 360.725L220.742 360.256L222.906 378.813L218.938 379.282L216.774 360.725Z" fill="white"/>
<path d="M235.093 376.83L234.624 375.604H234.552C233.921 376.776 232.713 377.569 231.216 377.84C228.655 378.327 226.779 376.74 226.401 374.72C225.787 371.438 228.438 369.31 232.911 368.498L232.875 368.318C232.749 367.651 232.208 366.749 230.26 367.128C228.962 367.362 227.681 368.065 226.942 368.733L225.751 366.334C226.545 365.685 228.15 364.729 230.458 364.296C234.678 363.503 236.482 365.739 237.041 368.715L237.87 373.115C238.105 374.323 238.375 375.477 238.628 376.163L235.093 376.83ZM233.506 370.951C231.432 371.312 229.917 372.105 230.206 373.638C230.386 374.648 231.162 375.009 232.045 374.846C233.019 374.666 233.705 373.872 233.813 373.025C233.813 372.808 233.813 372.574 233.759 372.339L233.506 370.969V370.951Z" fill="white"/>
<path d="M241.768 366.456C241.318 364.923 240.885 363.607 240.524 362.543L243.86 361.569L244.528 363.21H244.6C244.87 362.254 245.79 360.703 247.846 360.108C250.371 359.369 252.751 360.487 253.815 364.13L255.943 371.452L252.102 372.57L250.118 365.717C249.649 364.13 248.784 363.192 247.395 363.607C246.331 363.914 245.916 364.833 245.862 365.609C245.826 365.861 245.88 366.258 245.988 366.619L248.044 373.742L244.203 374.86L241.768 366.438V366.456Z" fill="white"/>
<path d="M270.208 365.756C269.667 366.315 268.512 367.036 267.088 367.595C263.21 369.11 259.82 367.722 258.341 363.952C256.97 360.454 258.251 356.649 262.723 354.899C263.697 354.521 264.851 354.268 265.753 354.25L266.24 357.244C265.717 357.226 264.996 357.298 264.022 357.695C262.056 358.452 261.335 360.346 262.128 362.311C262.994 364.511 264.906 365.089 266.727 364.385C267.611 364.043 268.242 363.628 268.711 363.177L270.226 365.756H270.208Z" fill="white"/>
<path d="M274.645 358.397C275.492 359.821 277.296 359.821 278.973 359.01C280.199 358.415 281.119 357.765 281.93 356.972L283.59 359.172C282.634 360.218 281.317 361.156 279.748 361.931C275.817 363.843 272.462 362.671 270.695 359.064C269.27 356.124 269.505 351.994 273.526 350.047C277.26 348.225 280.109 350.443 281.498 353.293C281.804 353.906 281.985 354.483 282.075 354.772L274.627 358.415L274.645 358.397ZM277.674 353.87C277.242 352.986 276.16 351.706 274.5 352.517C272.985 353.257 273.04 354.934 273.418 355.944L277.674 353.87Z" fill="white"/>
<path d="M304.709 346.243C304.294 346.964 303.122 348.191 301.319 349.381C296.197 352.753 291.454 351.293 288.677 347.091C285.34 342.041 287.108 336.847 291.58 333.908C293.312 332.771 294.863 332.248 295.656 332.158L296.72 335.26C295.854 335.422 294.736 335.783 293.546 336.559C290.895 338.308 289.885 341.266 292.049 344.566C293.997 347.541 296.991 348.245 299.984 346.279C300.994 345.612 301.968 344.656 302.455 343.953L304.673 346.243H304.709Z" fill="white"/>
<path d="M314.554 330.715C317.511 334.376 316.267 338.163 313.598 340.327C310.676 342.69 306.871 342.582 304.256 339.353C301.641 336.125 302.11 332.338 305.32 329.741C308.386 327.252 312.137 327.721 314.572 330.715H314.554ZM307.376 336.666C308.765 338.38 310.532 339.101 311.849 338.019C313.057 337.045 312.859 335.206 311.398 333.402C310.19 331.905 308.386 330.859 306.979 331.995C305.483 333.204 306.168 335.188 307.358 336.666H307.376Z" fill="white"/>
<path d="M317.062 325.719C315.908 324.601 314.88 323.7 314.032 322.96L316.359 320.526L317.748 321.59L317.802 321.535C317.603 320.58 317.513 318.92 319.046 317.315C320.2 316.125 321.715 315.746 323.068 316.287L323.104 316.251C322.959 315.458 322.977 314.664 323.14 313.979C323.32 313.168 323.717 312.464 324.384 311.779C326.097 309.994 328.64 309.849 331.417 312.518L336.882 317.766L334.177 320.58L329.127 315.728C327.775 314.43 326.584 314.123 325.683 315.061C325.051 315.728 325.051 316.63 325.412 317.352C325.556 317.622 325.809 317.965 326.043 318.181L331.472 323.393L328.766 326.206L323.573 321.211C322.4 320.075 321.192 319.732 320.326 320.652C319.623 321.391 319.767 322.383 320.074 322.996C320.218 323.303 320.453 323.591 320.687 323.808L326.097 329.002L323.392 331.815L317.08 325.737L317.062 325.719Z" fill="white"/>
<path d="M334.3 307.198C332.948 306.188 331.758 305.376 330.766 304.709L332.84 301.914L334.391 302.833L334.427 302.797C333.886 301.228 334.192 299.623 335.31 298.108C336.988 295.854 340.45 295.277 343.75 297.712C347.52 300.489 347.52 304.204 345.824 306.512C344.905 307.757 343.678 308.352 342.65 308.316L342.614 308.352L347.754 312.157L345.373 315.367L334.318 307.18L334.3 307.198ZM339.116 305.773C339.368 305.953 339.621 306.116 339.837 306.206C340.865 306.639 342.055 306.386 342.759 305.448C343.786 304.06 343.245 302.364 341.478 301.066C339.837 299.84 338.034 299.659 336.97 301.102C336.302 302.004 336.374 303.32 337.168 304.24C337.312 304.402 337.511 304.583 337.691 304.727L339.116 305.773Z" fill="white"/>
<path d="M355.654 290.932L354.427 290.481L354.391 290.553C354.842 291.797 354.644 293.222 353.85 294.52C352.516 296.757 350.099 297.117 348.332 296.071C345.464 294.358 345.627 290.95 347.989 287.072L347.827 286.982C347.232 286.639 346.222 286.441 345.194 288.136C344.527 289.272 344.184 290.697 344.202 291.689L341.605 291.004C341.641 289.976 342.002 288.136 343.192 286.134C345.392 282.455 348.26 282.582 350.857 284.133L354.698 286.423C355.762 287.054 356.808 287.613 357.475 287.866L355.618 290.968L355.654 290.932ZM350.207 288.208C349.107 289.994 348.693 291.653 350.027 292.446C350.911 292.969 351.686 292.645 352.155 291.869C352.66 291.004 352.516 289.976 351.957 289.326C351.794 289.182 351.614 289.038 351.416 288.912L350.225 288.19L350.207 288.208Z" fill="white"/>
<path d="M352.302 279.063C350.86 278.378 349.597 277.837 348.551 277.404L350.03 274.266L351.707 274.861L351.743 274.789C351.238 273.96 350.679 272.246 351.581 270.317C352.699 267.936 355.116 266.89 358.542 268.513L365.431 271.778L363.718 275.384L357.28 272.337C355.783 271.633 354.502 271.669 353.889 272.968C353.42 273.96 353.817 274.879 354.376 275.438C354.539 275.637 354.881 275.853 355.206 276.016L361.915 279.19L360.201 282.796L352.284 279.045L352.302 279.063Z" fill="white"/>
<path d="M356.394 259.661L362.995 260.021C363.789 260.093 364.762 260.166 365.466 260.256L365.502 260.184C364.925 259.769 364.077 259.246 363.446 258.813L358.054 255.17L359.532 251.148L366.458 256.865C370.623 260.346 372.12 262.221 372.842 264.007C373.509 265.738 373.383 267.253 373.166 268.245L369.686 267.866C369.776 267.361 369.776 266.694 369.632 266.009C369.541 265.323 369.181 264.494 368.694 263.899C368.568 263.718 368.387 263.574 368.225 263.502C368.099 263.466 367.9 263.412 367.54 263.448L354.88 263.845L356.413 259.661H356.394Z" fill="white"/>
<path d="M30.1165 228.8C32.985 228.8 35.3103 226.474 35.3103 223.606C35.3103 220.737 32.985 218.412 30.1165 218.412C27.248 218.412 24.9226 220.737 24.9226 223.606C24.9226 226.474 27.248 228.8 30.1165 228.8Z" fill="#FBF494"/>
<path d="M369.884 228.8C372.752 228.8 375.078 226.474 375.078 223.606C375.078 220.737 372.752 218.412 369.884 218.412C367.015 218.412 364.69 220.737 364.69 223.606C364.69 226.474 367.015 228.8 369.884 228.8Z" fill="#FBF494"/>
<path d="M21.4607 174.497L45.0495 176.174L44.7069 181.008L33.3633 180.196L33.2731 181.585L44.6167 182.396L44.274 187.229L20.6852 185.552C19.2425 185.444 18.3768 184.416 18.485 182.955C18.5932 181.494 19.6032 180.611 21.0279 180.719L28.6924 181.26L28.7826 179.871L21.118 179.33C19.6753 179.222 18.8097 178.194 18.9179 176.733C19.0261 175.273 20.036 174.389 21.4607 174.497ZM38.3227 189.971C38.4309 188.366 39.7474 187.987 40.7934 188.059C41.8755 188.131 43.0477 188.726 42.9395 190.295L42.4886 196.77C42.2362 200.358 41.3344 200.972 37.8719 200.719L22.5788 199.637C19.1162 199.384 18.3408 198.663 18.5932 195.074L19.008 189.231C19.1162 187.626 20.4327 187.193 21.4787 187.265C22.5608 187.338 23.7871 187.987 23.6789 189.556L23.4084 193.379C23.3723 193.884 23.5166 194.118 24.1658 194.155L37.1685 195.074C37.7997 195.128 37.9801 194.912 38.0161 194.407L38.3408 189.953L38.3227 189.971Z" fill="#FBF494"/>
<path d="M29.9552 160.449C29.342 160.269 28.819 159.962 28.4223 159.583C28.0075 160.756 27.0336 161.188 25.9516 160.864C24.8335 160.521 24.2744 159.62 24.6711 158.321L25.8253 154.534C24.3465 153.993 23.7514 152.676 24.2383 151.089C24.7253 149.502 25.9335 148.763 27.4665 149.142L28.6207 145.354C29.0174 144.056 29.9913 143.605 31.1094 143.93C32.1914 144.254 32.7505 145.192 32.4439 146.4C33.003 146.31 33.5981 146.346 34.1932 146.527L36.6279 147.266C40.1626 148.348 41.3889 151.648 40.0724 155.904C38.7739 160.179 35.9065 162.252 32.3718 161.188L29.9372 160.449H29.9552ZM35.8524 136.986C36.3393 135.363 37.746 135.273 38.792 135.598C39.874 135.922 40.9381 136.806 40.4692 138.393L40.2167 139.223L47.773 141.531L46.15 146.833L29.9732 141.91C28.2419 141.387 27.7189 139.854 28.1518 138.465C28.5846 137.059 29.865 136.085 31.5783 136.608L35.5819 137.834L35.8344 137.005L35.8524 136.986ZM33.021 151.432C31.7406 151.035 30.6766 151.612 30.2798 152.911C29.8831 154.245 30.4421 155.309 31.7225 155.706L33.4538 156.229C34.6982 156.608 35.8344 156.049 36.2311 154.732C36.6279 153.434 35.9967 152.352 34.7523 151.955L33.021 151.432ZM49.4142 143.479C49.8831 141.91 51.0372 141.603 52.1013 141.91C53.1833 142.234 53.9408 143.172 53.4899 144.705L48.5305 160.972C47.6288 163.948 46.3483 164.417 43.517 163.551L41.443 162.92C39.8019 162.415 39.351 160.918 39.8019 159.439C40.2528 157.96 41.461 157.041 43.0841 157.546L44.4367 157.96C44.8695 158.087 45.0138 157.996 45.122 157.6L49.4142 143.479Z" fill="#FBF494"/>
<path d="M50.5304 124.077C49.1418 126.475 48.0597 126.98 45.7874 125.664L39.5115 122.057C37.2572 120.758 37.0768 119.55 38.4655 117.134L42.5593 109.992C43.8758 107.702 45.0119 107.233 47.4105 108.621L56.4276 113.797L50.5304 124.059V124.077ZM47.2301 120.452C47.5728 120.65 47.8433 120.614 48.0777 120.199L50.332 116.286L45.7694 113.671C45.4628 113.491 45.1923 113.509 44.9939 113.869L42.9741 117.386C42.7757 117.747 42.9199 117.999 43.2265 118.18L47.2482 120.488L47.2301 120.452ZM62.1986 113.382L47.5367 104.96C45.9677 104.059 45.8054 102.472 46.5448 101.191C47.2842 99.9108 48.745 99.2616 50.314 100.145L64.9758 108.567L62.2166 113.382H62.1986ZM60.9903 128.279C59.4393 130.966 58.0868 131.146 55.5259 129.685L53.0011 128.243C51.4321 127.341 51.3419 125.79 52.1174 124.437C52.8929 123.085 54.2635 122.472 55.8144 123.355L57.5998 124.383C58.0507 124.654 58.213 124.582 58.4835 124.131L66.0399 110.984C66.8694 109.541 68.0597 109.487 69.0155 110.046C70.0074 110.605 70.5665 111.705 69.7369 113.112L61.0083 128.315L60.9903 128.279Z" fill="#FBF494"/>
<path d="M78.4663 84.1476L80.0533 85.6084L83.4618 81.9114C85.7341 79.4407 86.8703 79.6571 89.2328 81.8393L93.1282 85.4281L89.377 89.5038L86.0046 86.4019C85.68 86.0953 85.4456 86.1134 85.139 86.438L74.8234 97.6373C73.8135 98.7374 72.5691 98.7374 71.6494 97.8897C70.7296 97.0421 70.6394 95.8338 71.6494 94.7337L76.212 89.7743L74.625 88.3136L69.3229 94.0665C68.2228 95.2748 66.9244 95.0223 66.0768 94.2288C65.2472 93.4533 64.8504 92.1909 65.9866 90.9826L76.6629 79.4046C76.2481 78.3767 75.5628 77.2946 74.4807 76.3027L73.9577 75.8158C73.5971 75.4732 73.3806 75.5453 73.038 75.906L63.2274 86.5462C62.001 87.8627 60.8108 87.7906 59.873 86.9249C58.9893 86.1134 58.7549 84.9051 59.9992 83.5705L71.6494 70.9285C73.3446 69.089 74.7873 69.1071 76.2481 70.4416L77.4744 71.5778C79.0434 73.0205 79.9271 74.355 80.3599 75.4371L80.4501 75.3289C81.5862 74.1026 82.8667 74.3911 83.6962 75.1666C84.5439 75.9601 84.9045 77.2225 83.7864 78.4127L78.4843 84.1657L78.4663 84.1476Z" fill="#FBF494"/>
<path d="M104.832 51.4132C102.903 47.8785 104.832 44.47 108.818 42.2879C112.803 40.1057 116.735 40.2861 118.683 43.8388L119.133 44.6684C121.081 48.2211 119.133 51.6296 115.148 53.7937C111.162 55.9759 107.231 55.7955 105.283 52.2428L104.832 51.4132ZM109.99 49.5918C110.621 50.7279 111.938 50.8902 113.146 50.223C114.354 49.5557 114.986 48.3294 114.354 47.1932L113.958 46.4718C113.326 45.3357 111.956 45.1734 110.747 45.8587C109.539 46.544 108.962 47.7523 109.575 48.8704L109.972 49.5918H109.99ZM118.574 66.4358C116.356 67.6441 114.39 66.8686 113.453 65.1553L113.128 64.5782C112.226 62.9191 112.803 61.1517 115.022 59.9434L127.303 53.2166L126.978 52.6395C126.816 52.351 126.672 52.2608 126.365 52.4412L112.677 59.9434C111.721 60.4664 110.964 59.9975 110.567 59.2581C110.188 58.5728 110.188 57.599 111.126 57.094L127.249 48.2572C129.395 47.085 130.495 47.3014 131.523 49.177L133.687 53.1265L118.737 61.314C118.394 61.4944 118.34 61.7829 118.466 62.0354L118.538 62.1616C118.665 62.378 118.935 62.4863 119.278 62.2879L133.489 54.5151C134.463 53.9741 135.31 54.5331 135.707 55.2725C136.086 55.9578 136.086 56.8956 135.094 57.4367L118.628 66.4538L118.574 66.4358ZM124.85 48.6179L119.729 39.2581C118.863 37.6711 119.548 36.2284 120.847 35.525C122.127 34.8217 123.732 35.0201 124.598 36.6071L129.72 45.9669L124.85 48.6359V48.6179Z" fill="#FBF494"/>
<path d="M143.263 37.545C145.012 36.9318 146.437 37.6171 146.996 39.2041C147.555 40.8092 146.869 42.2158 145.12 42.829C143.371 43.4422 141.964 42.7929 141.405 41.1698C140.846 39.5468 141.531 38.1581 143.281 37.545H143.263Z" fill="#FBF494"/>
<path d="M160.83 36.6641C159.387 36.9166 158.269 36.2133 158.052 34.8968C157.872 33.8868 158.287 33.1114 159.279 32.5162C160.884 31.4161 161.605 29.7209 161.064 26.0239L160.848 24.6172C160.667 23.0663 161.587 22.0383 163.084 21.8039C164.563 21.5694 165.681 22.3449 165.933 23.8418L166.132 24.9959C166.258 25.6993 166.348 26.4026 166.366 27.0338C170.009 27.3043 171.903 29.6488 172.299 34.3197L167.412 35.1673C167.412 33.1114 166.799 31.9031 165.933 31.4883C165.104 34.3377 163.264 36.2493 160.83 36.6641ZM178.143 34.5541C182.11 33.8688 184.437 35.6542 184.978 38.7561C185.501 41.8219 183.914 44.3106 179.946 44.9959L167.953 47.0699C163.968 47.7552 161.641 45.8796 161.118 42.8679C160.595 39.8381 162.164 37.3133 166.15 36.628L178.143 34.5541ZM178.143 41.335C179.207 41.1546 179.531 40.4513 179.405 39.7119C179.279 38.9725 178.738 38.4134 177.674 38.6118L167.917 40.289C166.853 40.4693 166.529 41.1727 166.655 41.9121C166.781 42.6515 167.322 43.2106 168.386 43.0122L178.143 41.335ZM176.934 29.0356L177.746 33.7426L172.967 34.5721L170.875 22.4712C170.622 21.0464 171.434 19.9644 172.877 19.7119C174.319 19.4594 175.419 20.2349 175.654 21.6596L176.213 24.9418L177.439 24.7254L176.88 21.4432C176.628 20.0185 177.439 18.9364 178.882 18.684C180.325 18.4315 181.425 19.2069 181.659 20.6317L183.751 32.7326L178.972 33.5622L178.161 28.8553L176.934 29.0717V29.0356Z" fill="#FBF494"/>
<path d="M197.836 32.3C196.484 32.2279 195.816 31.5245 195.889 30.3703C195.943 29.2342 196.646 28.5128 198.035 28.5849L202.056 28.7833L202.11 27.7914H201.858C198.648 27.6111 197.223 25.6814 197.331 23.355C197.331 23.0304 197.421 22.7238 197.566 22.4172C196.772 22.1287 196.339 21.5516 196.376 20.6679C196.43 19.4776 197.277 18.8825 198.666 18.9546L202.597 19.153C202.886 17.9267 203.914 17.3676 205.411 17.4398C206.908 17.5119 207.863 18.1792 208.026 19.4416L211.939 19.64C213.328 19.7121 214.085 20.3974 214.031 21.5877C213.977 22.4713 213.49 23.0124 212.678 23.2107C212.805 23.5173 212.841 23.8239 212.823 24.1665C212.697 26.493 211.091 28.2784 207.863 28.098L207.34 28.062L207.286 29.0538L212.029 29.3063C213.418 29.3785 214.031 30.1539 213.977 31.2901C213.923 32.4443 213.183 33.0755 211.831 33.0033L197.854 32.282L197.836 32.3ZM219.117 41.5876C220.217 41.6418 220.668 42.3631 220.614 43.1927C220.577 43.9682 220.091 44.6174 218.954 44.5453L200.65 43.6075C198.125 43.4812 196.953 42.1647 197.043 40.3433L197.079 39.8203C197.169 38.1792 198.467 37.025 200.992 37.1693L214.536 37.8726V37.4578C214.572 37.1873 214.5 36.9889 214.139 36.9709L199.099 36.1954C198.017 36.1413 197.602 35.474 197.656 34.6445C197.692 33.869 198.197 33.2197 199.261 33.2919L217.349 34.2297C219.622 34.3559 220.325 35.1133 220.235 37.1332L220.054 40.7941L203.571 39.9465C203.21 39.9285 203.03 40.1088 203.03 40.3433V40.3974C203.03 40.6138 203.174 40.8302 203.535 40.8482L219.153 41.6598L219.117 41.5876ZM203.553 22.5074C202.724 22.4713 202.255 22.8501 202.219 23.5534C202.183 24.1846 202.597 24.6535 203.445 24.7076L206.583 24.8699C207.412 24.906 207.881 24.4912 207.917 23.86C207.954 23.1747 207.539 22.7238 206.709 22.6877L203.571 22.5254L203.553 22.5074ZM221.587 23.7518C223.283 23.8419 223.715 25.1584 223.643 26.2766C223.589 27.4127 222.994 28.6571 221.335 28.5669L220.469 28.5308L220.199 33.6526L214.807 33.3821L215.456 20.9745C215.546 19.2612 216.844 18.3776 218.305 18.4497C219.766 18.5218 220.938 19.5317 220.848 21.245L220.722 23.7157L221.587 23.7518Z" fill="#FBF494"/>
<path d="M251.974 45.2662L246.961 43.8415L248.097 39.8379L243.372 38.5034L242.236 42.507L238.773 41.5331C238.755 41.7315 238.719 41.9479 238.647 42.1643L238.322 43.2825C238.16 43.8776 238.268 43.9858 238.845 44.1481L253.219 48.2239C254.842 48.6927 255.184 49.8469 254.878 50.911C254.571 52.011 253.651 52.8046 252.046 52.3537L235.293 47.6107C232.281 46.7631 231.758 45.5367 232.569 42.6693L233.146 40.6134C233.651 38.7919 235.13 38.5034 236.627 38.9182C237.006 39.0264 237.366 39.1887 237.655 39.351L238.304 37.0787L235.365 36.2491C233.796 35.7982 233.417 34.5539 233.742 33.4177C234.048 32.3176 235.004 31.4159 236.609 31.8668L251.65 36.1229C252.425 35.2392 253.164 34.0129 253.615 32.4078L253.832 31.6323C253.976 31.1454 253.814 31.0011 253.327 30.8569L239.422 26.9254C237.691 26.4385 237.24 25.2662 237.583 24.0399C237.907 22.8857 238.881 22.1102 240.649 22.5972L257.024 27.232C259.567 27.9533 260.216 29.2879 259.675 31.2175L259.17 32.9849C258.521 35.2572 257.691 36.6819 256.88 37.6197L257.06 37.6738C258.665 38.1247 258.99 39.4051 258.683 40.5052C258.358 41.6233 257.403 42.507 255.816 42.0561L253.038 41.2626L251.902 45.2662H251.974Z" fill="#FBF494"/>
<path d="M285.646 57.4198C289.127 59.3314 289.776 62.0005 288.333 64.6155C286.89 67.2485 284.293 68.1141 280.813 66.2205L270.172 60.3774C266.674 58.4477 266.061 55.7606 267.485 53.1817C268.892 50.6028 271.507 49.665 275.006 51.5767L285.646 57.4198ZM273.13 40.8102C273.473 40.1971 273.924 39.7823 274.447 39.5118C273.635 38.8445 273.509 37.9428 273.978 37.0771C274.537 36.0492 275.511 35.7065 276.719 36.3558L279.586 37.9247C280.398 36.8427 281.606 36.6082 282.977 37.3476C284.347 38.087 284.762 39.2412 284.275 40.5036L287.143 42.0726C288.333 42.7219 288.585 43.7498 288.026 44.7778C287.54 45.6795 286.674 46.0221 285.7 45.6795C285.754 46.2746 285.628 46.9058 285.303 47.4829L284.329 49.2503C282.688 52.2439 279.334 52.8391 275.583 50.7832C271.832 48.7273 270.515 45.5713 272.156 42.5776L273.13 40.8102ZM281.462 62.3431C282.364 62.8301 283.049 62.5776 283.41 61.9283C283.77 61.2791 283.626 60.5577 282.724 60.0708L274.392 55.4901C273.473 54.9852 272.787 55.2376 272.427 55.9049C272.066 56.5541 272.21 57.2755 273.13 57.7805L281.462 62.3612V62.3431ZM280.723 45.4631C281.372 44.2908 281.065 43.2088 280.055 42.6497C279.009 42.0726 277.945 42.4153 277.296 43.5695L276.719 44.6155C276.088 45.7516 276.394 46.8337 277.44 47.4108C278.468 47.9698 279.532 47.6452 280.163 46.491L280.741 45.445L280.723 45.4631ZM289.145 50.9996L289.866 49.6831L288.694 49.0339C287.503 48.3846 287.107 47.2485 287.72 46.1303C288.315 45.0302 289.487 44.6876 290.695 45.3549L291.868 45.9861L292.03 45.6975C292.896 44.1105 294.501 43.9121 295.781 44.6155C297.062 45.3188 297.765 46.7796 296.899 48.3485L290.894 59.2953L286.025 56.6263L287.125 54.6245L285.952 53.9752C284.762 53.326 284.365 52.1898 284.979 51.0717C285.574 49.9716 286.746 49.629 287.954 50.2962L289.127 50.9455L289.145 50.9996Z" fill="#FBF494"/>
<path d="M330.099 94.7684C331.217 95.9947 330.838 97.2571 330.008 98.0145C329.143 98.808 327.862 99.0425 326.762 97.8342L321.46 92.0813L316.771 96.3915L312.948 92.2255L317.637 87.9153L312.335 82.1624C311.235 80.9541 311.577 79.6917 312.425 78.9162C313.255 78.1408 314.553 77.8703 315.671 79.0966L330.099 94.7684ZM320.504 81.6935C317.655 78.5916 318.034 74.9126 320.577 72.5862L320.919 72.2616C323.444 69.9352 327.141 69.845 329.99 72.9469L337.366 80.9722C340.216 84.074 339.855 87.7711 337.312 90.0975L336.97 90.4221C334.445 92.7485 330.73 92.8207 327.88 89.7188L320.504 81.6935ZM324.418 76.8062C323.552 77.5997 323.552 78.8441 324.544 79.9262L329.99 85.8414C330.964 86.9054 332.245 87.0136 333.092 86.2201L333.471 85.8594C334.337 85.0659 334.319 83.8035 333.345 82.7395L327.898 76.8243C326.907 75.7422 325.644 75.652 324.797 76.4456L324.4 76.8062H324.418Z" fill="#FBF494"/>
<path d="M349.898 126.509C350.728 127.952 350.06 129.088 349.086 129.665C348.076 130.242 346.778 130.188 345.948 128.781L342.053 122.001L336.877 124.958L334.064 120.053L339.24 117.095L335.344 110.314C334.533 108.89 335.146 107.735 336.156 107.158C337.148 106.599 338.464 106.599 339.294 108.042L349.88 126.527L349.898 126.509ZM341.259 104.814C342.342 104.075 343.658 104.237 344.56 105.391C346.85 108.258 350.746 109.701 354.515 108.222C356.048 107.663 357.274 108.295 358.013 109.593C358.825 111.018 358.5 112.569 356.859 113.452C356.264 113.759 355.669 114.011 355.074 114.192C357.382 118.267 357.021 123.678 351.737 127.447L348.942 122.56C351.503 120.396 351.972 117.203 350.241 114.444C346.291 113.867 342.486 111.451 340.664 108.168C339.979 106.906 340.177 105.571 341.241 104.832L341.259 104.814Z" fill="#FBF494"/>
<path d="M362.724 147.681L367.358 146.275C367.737 146.167 367.953 145.842 367.827 145.409L365.97 139.278C365.483 137.69 366.384 136.572 367.503 136.23C368.585 135.905 370.045 136.266 370.532 137.889L372.949 145.842C373.833 148.764 372.823 150.314 370.388 151.054L364.293 152.911C355.131 155.689 349.883 151.198 347.683 144.778C347.178 143.389 347.575 141.856 349.162 141.46C350.298 141.171 351.344 141.586 351.903 142.866C353.652 146.996 356.448 149.593 362.724 147.681ZM351.398 160.883L373.688 154.102C375.42 153.579 376.7 154.553 377.115 155.959C377.548 157.366 377.025 158.881 375.293 159.404L353.003 166.185L351.398 160.883Z" fill="#FBF494"/>
<path d="M365.157 200.486L356.663 201.081L355.31 181.694C355.094 178.647 356.122 177.745 358.935 177.546L363.534 177.222C365.355 177.096 366.221 178.232 366.329 179.837C366.437 181.334 365.824 182.488 364.255 182.74L365.121 194.968C366.708 194.968 367.483 196.086 367.591 197.583C367.7 199.188 366.978 200.378 365.175 200.504L365.157 200.486ZM359.891 195.292L361.64 195.166L360.793 182.975L359.692 183.047C359.133 183.083 359.061 183.227 359.097 183.786L359.909 195.292H359.891ZM373.164 175.382L374.517 175.292C378.502 175.022 380.829 178.051 381.135 182.524C381.406 186.473 380.017 189.521 376.897 190.387L377.15 194.066L379.476 193.904C381.279 193.777 382.307 195.004 382.416 196.482C382.524 197.943 381.676 199.314 379.873 199.44L368.529 200.234L368.15 194.697L372.857 194.372L372.587 190.639C369.593 190.062 367.88 187.321 367.609 183.516C367.303 179.043 369.142 175.689 373.164 175.4V175.382ZM373.543 180.702C372.262 180.793 371.559 181.875 371.667 183.191C371.757 184.49 372.605 185.482 373.885 185.391L375.238 185.301C376.518 185.211 377.24 184.111 377.114 182.812C376.987 181.478 376.14 180.522 374.895 180.612L373.543 180.702Z" fill="#FBF494"/>
<path d="M202.977 262.47C202.977 262.47 240.452 275.094 258.775 235.833C264.113 224.381 272.931 199.097 278.702 184.85C281.931 176.879 290.93 169.99 305.826 174.462C314.104 176.951 321.119 184.435 320.326 196.987C319.298 213.128 301.173 254.48 291.904 267.736C274.969 291.992 260.596 295.905 247.377 296.338C220.56 297.222 202.977 262.452 202.977 262.452V262.47Z" fill="#FBF494"/>
<path d="M148.097 168.511C162.907 168.511 174.914 156.504 174.914 141.694C174.914 126.883 162.907 114.877 148.097 114.877C133.286 114.877 121.28 126.883 121.28 141.694C121.28 156.504 133.286 168.511 148.097 168.511Z" fill="#83CFF4"/>
<path d="M252.75 168.511C267.56 168.511 279.567 156.504 279.567 141.694C279.567 126.883 267.56 114.877 252.75 114.877C237.939 114.877 225.933 126.883 225.933 141.694C225.933 156.504 237.939 168.511 252.75 168.511Z" fill="#FBF494"/>
<path d="M202.992 262.469C193.29 245.823 178.7 211.252 177.78 196.824C176.987 184.272 186.906 178.123 195.508 177.257C210.044 175.778 216.175 176.734 219.403 184.705C225.174 198.952 233.993 224.236 239.331 235.688C242.199 241.838 245.535 246.707 249.124 250.548C230.026 271.215 203.696 262.721 202.992 262.487V262.469Z" fill="#FFE246"/>
<path d="M151.021 250.531C147.432 246.69 144.095 241.803 141.228 235.671C135.89 224.219 127.071 198.935 121.3 184.688C118.072 176.717 109.073 169.828 94.1765 174.3C85.8988 176.789 78.8835 184.273 79.677 196.825C80.5967 211.271 95.1864 245.824 104.889 262.47C105.61 262.704 131.94 271.198 151.021 250.531Z" fill="#25BCEF"/>
<path d="M104.852 262.47C104.852 262.47 142.327 275.094 160.65 235.833C165.988 224.381 174.807 199.097 180.578 184.85C183.806 176.879 192.805 169.99 207.701 174.462C215.979 176.951 222.994 184.435 222.201 196.987C221.173 213.128 203.048 254.48 193.779 267.736C176.845 291.992 162.471 295.905 149.252 296.338C122.435 297.222 104.852 262.452 104.852 262.452V262.47Z" fill="#83CFF4"/>
</g>
<defs>
<clipPath id="clip0_2005_5107">
<rect width="400" height="400" fill="white"/>
</clipPath>
</defs>
</svg>
