<svg width="256" height="250" viewBox="0 0 256 250" fill="none" xmlns="http://www.w3.org/2000/svg">
<path d="M88 46.5625C89.2979 46.5625 90.5667 46.1776 91.6459 45.4565C92.7251 44.7354 93.5663 43.7105 94.063 42.5114C94.5597 41.3122 94.6896 39.9927 94.4364 38.7197C94.1832 37.4467 93.5582 36.2774 92.6404 35.3596C91.7226 34.4418 90.5533 33.8168 89.2803 33.5636C88.0073 33.3104 86.6878 33.4403 85.4886 33.937C84.2895 34.4337 83.2646 35.2749 82.5435 36.3541C81.8224 37.4333 81.4375 38.7021 81.4375 40C81.4375 41.7405 82.1289 43.4097 83.3596 44.6404C84.5903 45.8711 86.2595 46.5625 88 46.5625ZM90.8967 38.7951L87.6154 42.0764C87.5585 42.1337 87.4908 42.1791 87.4163 42.2101C87.3417 42.2411 87.2618 42.2571 87.181 42.2571C87.1002 42.2571 87.0203 42.2411 86.9457 42.2101C86.8712 42.1791 86.8035 42.1337 86.7466 42.0764L85.1059 40.4375C84.9907 40.3223 84.926 40.166 84.926 40.0031C84.926 39.8401 84.9907 39.6838 85.1059 39.5686C85.2212 39.4534 85.3774 39.3887 85.5404 39.3887C85.7033 39.3887 85.8596 39.4534 85.9748 39.5686L87.1797 40.7735L90.0234 37.9254C90.1387 37.8102 90.2949 37.7454 90.4579 37.7454C90.6208 37.7454 90.7771 37.8102 90.8923 37.9254C91.0075 38.0406 91.0723 38.1969 91.0723 38.3598C91.0723 38.5228 91.0075 38.679 90.8923 38.7943L90.8967 38.7951Z" fill="black"/>
<path d="M88 50.6682C89.0546 50.6682 90.0856 50.9809 90.9625 51.5669C91.8394 52.1528 92.5228 52.9856 92.9264 53.96C93.33 54.9343 93.4355 56.0065 93.2298 57.0409C93.024 58.0752 92.5161 59.0254 91.7703 59.7711C91.0245 60.5168 90.0744 61.0246 89.04 61.2303C88.0056 61.436 86.9335 61.3303 85.9591 60.9267C84.9848 60.523 84.152 59.8395 83.5662 58.9626C82.9803 58.0856 82.6677 57.0546 82.6678 56C82.6678 55.2998 82.8057 54.6064 83.0737 53.9595C83.3416 53.3126 83.7344 52.7248 84.2296 52.2297C84.7247 51.7346 85.3125 51.3418 85.9595 51.0739C86.6064 50.806 87.2998 50.6681 88 50.6682ZM88 62.5625C89.2979 62.5625 90.5667 62.1776 91.6459 61.4565C92.7251 60.7354 93.5663 59.7105 94.063 58.5114C94.5597 57.3122 94.6896 55.9927 94.4364 54.7197C94.1832 53.4467 93.5582 52.2774 92.6404 51.3596C91.7226 50.4418 90.5533 49.8168 89.2803 49.5636C88.0073 49.3104 86.6878 49.4403 85.4886 49.937C84.2895 50.4337 83.2646 51.2749 82.5435 52.3541C81.8224 53.4333 81.4375 54.7021 81.4375 56C81.4375 57.7405 82.1289 59.4097 83.3596 60.6404C84.5903 61.8711 86.2595 62.5625 88 62.5625ZM90.8967 54.7951C91.0119 54.6799 91.0766 54.5236 91.0766 54.3607C91.0766 54.1977 91.0119 54.0415 90.8967 53.9263C90.7815 53.811 90.6252 53.7463 90.4623 53.7463C90.2993 53.7463 90.143 53.811 90.0278 53.9263L87.1841 56.77L85.9774 55.5669C85.862 55.4517 85.7055 55.387 85.5424 55.3872C85.3793 55.3873 85.2229 55.4523 85.1077 55.5678C84.9925 55.6832 84.9278 55.8397 84.928 56.0028C84.9282 56.1659 84.9931 56.3223 85.1086 56.4375L86.7492 58.0781C86.8061 58.1354 86.8738 58.1809 86.9484 58.2119C87.0229 58.2429 87.1029 58.2589 87.1836 58.2589C87.2644 58.2589 87.3443 58.2429 87.4189 58.2119C87.4934 58.1809 87.5611 58.1354 87.6181 58.0781L90.8967 54.7951Z" fill="black"/>
<path d="M66.7501 15.5226H66.0001V14.0226C65.6026 14.0215 65.2217 13.8631 64.9406 13.5821C64.6595 13.301 64.5012 12.9201 64.5001 12.5226V4.27258C64.4976 4.0753 64.5353 3.87958 64.6111 3.6974C64.6868 3.51523 64.799 3.35042 64.9406 3.21308C65.078 3.07144 65.2427 2.95931 65.4249 2.88357C65.6071 2.80783 65.8028 2.77006 66.0001 2.77258H78.0001C78.1974 2.77006 78.3931 2.80783 78.5753 2.88357C78.7575 2.95931 78.9223 3.07144 79.0596 3.21308C79.2013 3.35042 79.3134 3.51523 79.3892 3.6974C79.4649 3.87958 79.5026 4.0753 79.5001 4.27258V12.5226C79.4991 12.9201 79.3407 13.301 79.0596 13.5821C78.7786 13.8631 78.3976 14.0215 78.0001 14.0226V15.5226H77.2501L76.7626 14.0226H67.2566L66.7501 15.5226ZM70.0526 5.58708C69.5851 5.58322 69.1252 5.70598 68.7217 5.94233C68.3183 6.17869 67.9863 6.51983 67.7611 6.92958C67.5019 7.41584 67.3741 7.96129 67.3901 8.51208C67.372 9.06161 67.496 9.60651 67.7501 10.0941C67.9707 10.4988 68.3024 10.8321 68.7061 11.0546C69.1056 11.2692 69.5526 11.3799 70.0061 11.3766C70.352 11.3824 70.6949 11.3114 71.01 11.1688C71.3252 11.0261 71.6047 10.8153 71.8286 10.5516L71.1236 9.71158C70.9916 9.85812 70.8358 9.98121 70.6626 10.0756C70.4771 10.1748 70.2695 10.2252 70.0591 10.2221C69.8761 10.2272 69.6944 10.1879 69.5298 10.1076C69.3653 10.0272 69.2226 9.90813 69.1141 9.76058C68.8583 9.37957 68.7343 8.92524 68.7611 8.46708C68.734 8.00946 68.8711 7.55718 69.1476 7.19158C69.2572 7.05017 69.3975 6.93553 69.558 6.85636C69.7184 6.77718 69.8947 6.73554 70.0736 6.73458C70.2581 6.73111 70.4408 6.7721 70.6061 6.85408C70.7673 6.93874 70.9163 7.04469 71.0491 7.16908L71.7491 6.31408C71.5422 6.10233 71.2996 5.92853 71.0326 5.80058C70.7269 5.65451 70.3914 5.58108 70.0526 5.58708ZM74.6126 8.03958C74.6832 8.03389 74.7542 8.04522 74.8195 8.07263C74.8849 8.10003 74.9427 8.14271 74.9881 8.19708C75.0859 8.38103 75.1275 8.58969 75.1076 8.79708V11.2726H76.4426V8.63258C76.4657 8.18834 76.356 7.74729 76.1276 7.36558C76.0128 7.20779 75.8594 7.08212 75.6821 7.00061C75.5048 6.91911 75.3096 6.88449 75.1151 6.90008C74.8528 6.89377 74.5934 6.95453 74.3611 7.07658C74.161 7.1851 73.976 7.3196 73.8111 7.47658L73.8786 6.71858V5.28008H72.5436V11.2726H73.8786V8.42258C73.9837 8.31402 74.1012 8.2182 74.2286 8.13708C74.3454 8.07036 74.4782 8.03632 74.6126 8.03958Z" fill="black"/>
<path d="M71.2646 3.91906C71.1766 3.91924 71.0898 3.89885 71.011 3.85952C70.9323 3.8202 70.8638 3.76303 70.8111 3.69256L69.1131 1.42806C69.0685 1.36857 69.0361 1.30088 69.0177 1.22886C68.9992 1.15684 68.9952 1.08189 69.0057 1.0083C69.0163 0.934714 69.0412 0.86392 69.0791 0.799965C69.117 0.736009 69.1671 0.680145 69.2266 0.635561C69.2861 0.590977 69.3538 0.558547 69.4258 0.540123C69.4978 0.521698 69.5728 0.517639 69.6464 0.528179C69.7199 0.538718 69.7907 0.563649 69.8547 0.601548C69.9187 0.639447 69.9745 0.689572 70.0191 0.749061L71.7191 3.01306C71.782 3.09696 71.8204 3.19669 71.8299 3.30111C71.8394 3.40554 71.8198 3.51056 71.7731 3.60446C71.7264 3.69836 71.6546 3.77746 71.5656 3.83292C71.4766 3.88838 71.374 3.91803 71.2691 3.91856L71.2646 3.91906Z" fill="black"/>
<path d="M72.396 3.919C72.2737 3.91911 72.1547 3.87945 72.057 3.806C71.9974 3.76142 71.9472 3.70553 71.9092 3.64153C71.8713 3.57754 71.8463 3.50668 71.8358 3.43303C71.8252 3.35938 71.8293 3.28437 71.8478 3.2123C71.8663 3.14022 71.8988 3.0725 71.9435 3.013L73.6435 0.748999C73.6864 0.685459 73.7418 0.631313 73.8064 0.589848C73.8709 0.548382 73.9432 0.520463 74.0188 0.507786C74.0944 0.495108 74.1719 0.497936 74.2464 0.516099C74.3209 0.534261 74.391 0.567379 74.4523 0.61344C74.5136 0.659502 74.5649 0.717547 74.6031 0.784052C74.6413 0.850556 74.6656 0.924131 74.6745 1.00031C74.6834 1.07649 74.6768 1.15368 74.6549 1.2272C74.6331 1.30072 74.5965 1.36904 74.5475 1.428L72.8495 3.6925C72.7967 3.76296 72.7283 3.82014 72.6495 3.85946C72.5708 3.89879 72.484 3.91917 72.396 3.919Z" fill="black"/>
<path d="M65.875 46.135C65.8755 46.2493 65.8986 46.3624 65.9429 46.4677C65.9871 46.5731 66.0518 46.6687 66.1331 46.749C66.2143 46.8294 66.3107 46.8929 66.4165 46.936C66.5224 46.9791 66.6357 47.0008 66.75 47H71.125V40.7865H65.875V46.135ZM72.875 47H77.25C77.3643 47.0008 77.4776 46.9791 77.5835 46.936C77.6893 46.8929 77.7857 46.8294 77.8669 46.749C77.9482 46.6687 78.0129 46.5731 78.0571 46.4677C78.1014 46.3624 78.1245 46.2493 78.125 46.135V40.785H72.875V47ZM78.125 36.4605H76.975C77.1527 36.1275 77.247 35.7564 77.25 35.379C77.2454 34.7448 76.9895 34.1383 76.5386 33.6924C76.0876 33.2465 75.4782 32.9975 74.844 33C73.7065 33 72.971 33.576 72.0275 34.8465C71.084 33.575 70.35 33 69.211 33C68.5767 32.9974 67.9672 33.2463 67.5161 33.6922C67.065 34.1381 66.8091 34.7447 66.8045 35.379C66.8064 35.7567 66.9012 36.1281 67.0805 36.4605H65.875C65.7608 36.4597 65.6475 36.4815 65.5416 36.5245C65.4358 36.5675 65.3395 36.631 65.2582 36.7113C65.177 36.7916 65.1123 36.8872 65.068 36.9925C65.0237 37.0978 65.0006 37.2108 65 37.325V39.488C65.0011 39.6033 65.0476 39.7134 65.1296 39.7944C65.2116 39.8755 65.3222 39.9208 65.4375 39.9205H78.5625C78.6776 39.9208 78.7881 39.8756 78.87 39.7948C78.952 39.714 78.9987 39.6041 79 39.489V37.325C78.9994 37.2108 78.9763 37.0978 78.932 36.9925C78.8877 36.8872 78.823 36.7916 78.7418 36.7113C78.6605 36.631 78.5642 36.5675 78.4584 36.5245C78.3525 36.4815 78.2392 36.4597 78.125 36.4605ZM69.208 36.4605C68.9212 36.4605 68.6461 36.3466 68.4433 36.1438C68.2404 35.9409 68.1265 35.6659 68.1265 35.379C68.1265 35.0922 68.2404 34.8171 68.4433 34.6143C68.6461 34.4115 68.9212 34.2975 69.208 34.2975C69.752 34.2975 70.154 34.3865 71.5625 36.4605H69.208ZM74.8435 36.4605H72.4895C73.895 34.392 74.286 34.2975 74.844 34.2975C75.1308 34.2975 75.4059 34.4115 75.6087 34.6143C75.8116 34.8171 75.9255 35.0922 75.9255 35.379C75.9255 35.6659 75.8116 35.9409 75.6087 36.1438C75.4059 36.3466 75.1303 36.4605 74.8435 36.4605Z" fill="black"/>
<path d="M5.47562 56.5193H6.425L5.95119 55.1552L5.47562 56.5193ZM10.4631 56.1094C10.3415 56.1094 10.2225 56.1455 10.1214 56.213C10.0202 56.2806 9.94138 56.3767 9.89482 56.4891C9.84827 56.6015 9.83609 56.7252 9.85982 56.8445C9.88355 56.9638 9.94214 57.0734 10.0282 57.1595C10.1142 57.2455 10.2238 57.3041 10.3431 57.3278C10.4624 57.3515 10.5861 57.3394 10.6985 57.2928C10.8109 57.2462 10.907 57.1674 10.9746 57.0662C11.0422 56.9651 11.0782 56.8462 11.0782 56.7245C11.0781 56.6436 11.0621 56.5635 11.031 56.4887C10.9999 56.414 10.9544 56.3461 10.8971 56.289C10.8397 56.2319 10.7717 56.1866 10.6969 56.1558C10.622 56.125 10.5419 56.1092 10.4609 56.1094H10.4631ZM13.3318 51.1875H2.66775C2.3415 51.1876 2.02865 51.3173 1.79796 51.548C1.56727 51.7787 1.43762 52.0915 1.4375 52.4177V59.801C1.43762 60.1272 1.56727 60.4401 1.79796 60.6708C2.02865 60.9015 2.3415 61.0311 2.66775 61.0312H13.3318C13.6581 61.0313 13.9711 60.9016 14.2019 60.6709C14.4327 60.4402 14.5624 60.1273 14.5625 59.801V52.4177C14.5624 52.0914 14.4327 51.7785 14.2019 51.5478C13.9711 51.3171 13.6581 51.1875 13.3318 51.1875ZM7.86088 58.5703H7.42687C7.34166 58.5702 7.25857 58.5437 7.18912 58.4943C7.11967 58.4449 7.06729 58.3752 7.03925 58.2947L6.85025 57.75H5.04862L4.85963 58.2947C4.83169 58.3752 4.77935 58.4451 4.70987 58.4945C4.6404 58.5439 4.55725 58.5704 4.472 58.5703H4.03756C3.97214 58.5703 3.90768 58.5546 3.84955 58.5246C3.79141 58.4946 3.74129 58.4512 3.70336 58.3979C3.66543 58.3446 3.64079 58.283 3.6315 58.2182C3.6222 58.1535 3.62853 58.0874 3.64994 58.0256L5.025 54.0619C5.0669 53.9411 5.14536 53.8365 5.24948 53.7624C5.3536 53.6883 5.47821 53.6485 5.606 53.6484H6.28938C6.41717 53.6485 6.54178 53.6883 6.6459 53.7624C6.75002 53.8365 6.82848 53.9411 6.87038 54.0619L8.24675 58.0256C8.26822 58.0873 8.27464 58.1532 8.26548 58.2179C8.25632 58.2825 8.23185 58.3441 8.1941 58.3974C8.15635 58.4506 8.10641 58.4941 8.04845 58.5242C7.99049 58.5543 7.92618 58.5701 7.86088 58.5703ZM12.3063 58.1604C12.3064 58.2142 12.2958 58.2676 12.2752 58.3174C12.2547 58.3672 12.2245 58.4124 12.1864 58.4505C12.1483 58.4886 12.1031 58.5189 12.0534 58.5395C12.0036 58.5601 11.9502 58.5707 11.8964 58.5707H11.4864C11.4279 58.5701 11.3702 58.5568 11.3173 58.5316C11.2644 58.5065 11.2176 58.4701 11.1802 58.4251C10.9029 58.5461 10.6002 58.5974 10.2986 58.5743C9.99693 58.5512 9.70554 58.4544 9.44995 58.2926C9.19436 58.1307 8.98235 57.9087 8.83251 57.6459C8.68267 57.383 8.59956 57.0875 8.59047 56.7851C8.58137 56.4827 8.64656 56.1827 8.78034 55.9113C8.91412 55.64 9.11239 55.4056 9.35779 55.2287C9.60319 55.0517 9.88824 54.9377 10.188 54.8965C10.4877 54.8553 10.7929 54.8883 11.0769 54.9924V54.0584C11.0769 54.0045 11.0876 53.9512 11.1082 53.9014C11.1288 53.8516 11.159 53.8064 11.1972 53.7684C11.2353 53.7303 11.2805 53.7001 11.3303 53.6795C11.3801 53.6589 11.4334 53.6484 11.4873 53.6484H11.8977C11.9516 53.6484 12.005 53.659 12.0548 53.6796C12.1046 53.7002 12.1499 53.7304 12.188 53.7685C12.2261 53.8066 12.2563 53.8519 12.2769 53.9017C12.2975 53.9515 12.3081 54.0049 12.3081 54.0588L12.3063 58.1604Z" fill="black"/>
<path d="M20.375 80.5C19.8778 80.5004 19.4012 80.6981 19.0496 81.0496C18.6981 81.4012 18.5004 81.8778 18.5 82.375V93.625C18.5004 94.1222 18.6981 94.5988 19.0496 94.9504C19.4012 95.3019 19.8778 95.4996 20.375 95.5H27.875C28.3722 95.4996 28.8488 95.3019 29.2004 94.9504C29.5519 94.5988 29.7496 94.1222 29.75 93.625V85.1875H26C25.8768 85.1876 25.7549 85.1635 25.6411 85.1164C25.5273 85.0693 25.4239 85.0003 25.3368 84.9132C25.2497 84.8261 25.1807 84.7227 25.1336 84.6089C25.0865 84.4951 25.0624 84.3732 25.0625 84.25V80.5H20.375ZM26 80.5V84.25H29.75L26 80.5ZM20.375 88C20.375 87.8146 20.43 87.6333 20.533 87.4792C20.636 87.325 20.7824 87.2048 20.9537 87.1339C21.125 87.0629 21.3135 87.0443 21.4954 87.0805C21.6773 87.1167 21.8443 87.206 21.9754 87.3371C22.1065 87.4682 22.1958 87.6352 22.232 87.8171C22.2682 87.999 22.2496 88.1875 22.1786 88.3588C22.1077 88.5301 21.9875 88.6765 21.8333 88.7795C21.6792 88.8825 21.4979 88.9375 21.3125 88.9375C21.0639 88.9375 20.8254 88.8387 20.6496 88.6629C20.4738 88.4871 20.375 88.2486 20.375 88ZM24.828 88.9375C24.9038 88.9373 24.9784 88.9554 25.0457 88.9902C25.113 89.025 25.1709 89.0755 25.2145 89.1375L27.7925 92.8875C27.841 92.958 27.8692 93.0403 27.8743 93.1257C27.8794 93.2111 27.861 93.2962 27.8212 93.3719C27.7815 93.4476 27.7217 93.511 27.6486 93.5553C27.5754 93.5995 27.4915 93.6229 27.406 93.623H20.844C20.7613 93.6228 20.6801 93.6007 20.6087 93.5588C20.5373 93.517 20.4782 93.457 20.4376 93.385C20.3969 93.3129 20.3761 93.2313 20.3772 93.1486C20.3783 93.0659 20.4014 92.9849 20.444 92.914L21.85 90.5725C21.8915 90.5033 21.9501 90.446 22.0202 90.406C22.0902 90.366 22.1693 90.3446 22.25 90.344C22.3308 90.344 22.4102 90.3651 22.4803 90.4052C22.5505 90.4452 22.609 90.5029 22.65 90.5725L23.025 91.1995L24.44 89.143C24.4836 89.081 24.5415 89.0305 24.6088 88.9957C24.6761 88.9609 24.7507 88.9428 24.8265 88.943L24.828 88.9375Z" fill="black"/>
<path d="M75.267 94H68.732C68.5003 94.4014 68.1363 94.7098 67.7023 94.8726C67.2683 95.0353 66.7913 95.0423 66.3527 94.8923C65.9142 94.7423 65.5414 94.4446 65.298 94.0502C65.0546 93.6557 64.9557 93.189 65.0183 92.7298C65.0809 92.2705 65.3012 91.8473 65.6413 91.5324C65.9814 91.2175 66.4203 91.0305 66.883 91.0034C67.3457 90.9762 67.8034 91.1106 68.178 91.3836C68.5526 91.6566 68.8207 92.0512 68.9365 92.5H71.4995V91.0395C70.2182 90.9026 69.0381 90.2795 68.2024 89.2985C67.3667 88.3175 66.9391 87.0535 67.0075 85.7666C67.076 84.4798 67.6353 83.2682 68.5703 82.3814C69.5054 81.4947 70.7449 81.0002 72.0335 81H72.117H72.1605C72.203 81 72.248 81 72.296 81.007C73.5221 81.0721 74.6822 81.583 75.5579 82.4436C76.4336 83.3042 76.9647 84.4552 77.0511 85.68C77.1376 86.9047 76.7734 88.1189 76.0272 89.094C75.2811 90.069 74.2043 90.7378 72.9995 90.9745V92.5H75.0625C75.1782 92.0512 75.4463 91.6565 75.8208 91.3834C76.1952 91.1103 76.6529 90.9757 77.1156 91.0027C77.5783 91.0297 78.0173 91.2166 78.3575 91.5313C78.6977 91.8461 78.918 92.2693 78.9808 92.7285C79.0436 93.1877 78.9449 93.6545 78.7016 94.049C78.4584 94.4435 78.0856 94.7413 77.6471 94.8915C77.2086 95.0416 76.7316 95.0348 76.2976 94.8722C75.8635 94.7096 75.4989 94.4013 75.267 94ZM76.4281 93C76.4281 93.113 76.4616 93.2235 76.5244 93.3175C76.5872 93.4115 76.6764 93.4847 76.7808 93.528C76.8853 93.5713 77.0002 93.5826 77.111 93.5605C77.2219 93.5385 77.3237 93.484 77.4036 93.4041C77.4836 93.3242 77.538 93.2224 77.5601 93.1115C77.5821 93.0006 77.5708 92.8857 77.5275 92.7813C77.4843 92.6769 77.411 92.5876 77.317 92.5248C77.2231 92.462 77.1126 92.4285 76.9995 92.4285C76.848 92.4288 76.7028 92.4891 76.5957 92.5962C76.4886 92.7033 76.4283 92.8485 76.4281 93ZM66.4281 93C66.4281 93.113 66.4616 93.2235 66.5244 93.3175C66.5872 93.4115 66.6764 93.4847 66.7808 93.528C66.8853 93.5713 67.0002 93.5826 67.111 93.5605C67.2219 93.5385 67.3237 93.484 67.4036 93.4041C67.4836 93.3242 67.538 93.2224 67.5601 93.1115C67.5821 93.0006 67.5708 92.8857 67.5275 92.7813C67.4843 92.6769 67.411 92.5876 67.317 92.5248C67.2231 92.462 67.1126 92.4285 66.9995 92.4285C66.848 92.4286 66.7027 92.4889 66.5955 92.596C66.4884 92.7032 66.4282 92.8485 66.4281 93ZM71.6781 88.5625C71.6122 88.6519 71.5724 88.7577 71.5631 88.8683C71.5539 88.979 71.5755 89.09 71.6255 89.189C71.6756 89.2881 71.7521 89.3714 71.8466 89.4295C71.9412 89.4877 72.05 89.5185 72.161 89.5185C72.272 89.5185 72.3809 89.4877 72.4754 89.4295C72.57 89.3714 72.6465 89.2881 72.6966 89.189C72.7466 89.09 72.7682 88.979 72.7589 88.8683C72.7497 88.7577 72.7099 88.6519 72.644 88.5625C72.8099 88.004 72.9132 87.4288 72.952 86.8475H71.3695C71.4081 87.4288 71.5114 88.0041 71.6775 88.5625H71.6781ZM70.228 89.042C70.0121 88.3286 69.8814 87.5921 69.8385 86.848H68.619C68.7285 87.3023 68.9272 87.7302 69.2037 88.1069C69.4802 88.4836 69.8289 88.8015 70.2295 89.042H70.228ZM74.1551 88.8255C74.7999 88.3345 75.2556 87.636 75.445 86.848H74.4795C74.4396 87.5165 74.3314 88.1791 74.1565 88.8255H74.1551ZM74.486 85.322H75.4676C75.2948 84.4934 74.8288 83.7549 74.1551 83.2425C74.3396 83.9218 74.4511 84.619 74.4875 85.322H74.486ZM71.676 83.5055C71.501 84.0968 71.3952 84.7063 71.3606 85.322H72.9575C72.9227 84.7064 72.8169 84.0968 72.642 83.5055C72.7079 83.4161 72.7476 83.3103 72.7569 83.1997C72.7662 83.089 72.7446 82.978 72.6945 82.879C72.6445 82.7799 72.568 82.6966 72.4734 82.6385C72.3789 82.5803 72.27 82.5495 72.159 82.5495C72.048 82.5495 71.9392 82.5803 71.8447 82.6385C71.7501 82.6966 71.6736 82.7799 71.6235 82.879C71.5734 82.978 71.5518 83.089 71.5611 83.1997C71.5704 83.3103 71.6102 83.4161 71.676 83.5055ZM69.551 83.5555C69.0655 84.0382 68.733 84.6533 68.5951 85.324H69.8315C69.8692 84.544 70.0025 83.7715 70.2285 83.024C69.9825 83.1724 69.7555 83.3502 69.5525 83.5535L69.551 83.5555Z" fill="black"/>
<path d="M13.6 109.6H2.4C2.0287 109.6 1.6726 109.452 1.41005 109.19C1.1475 108.927 1 108.571 1 108.2L1.007 99.7999C1.007 99.4298 1.15353 99.0748 1.41457 98.8124C1.67561 98.5501 2.02991 98.4018 2.4 98.3999H3.1L4.5 101.2H6.6L5.2 98.3999H6.6L8 101.2H10.1L8.7 98.3999H10.1L11.5 101.2H13.6L12.2 98.3999H15V108.2C15 108.571 14.8525 108.927 14.5899 109.19C14.3274 109.452 13.9713 109.6 13.6 109.6ZM7.06667 103.49C7.02163 103.489 6.97676 103.497 6.93484 103.513C6.89293 103.53 6.85485 103.555 6.82296 103.586C6.79107 103.618 6.76606 103.656 6.74946 103.698C6.73286 103.74 6.72504 103.785 6.72647 103.83V106.785C6.72626 106.846 6.74199 106.905 6.77205 106.957C6.80211 107.009 6.84543 107.052 6.89759 107.082C6.94975 107.112 7.0089 107.127 7.06901 107.127C7.12913 107.126 7.18805 107.11 7.2398 107.079L9.73973 105.602C9.79083 105.572 9.8332 105.529 9.86264 105.478C9.89208 105.426 9.90756 105.368 9.90756 105.309C9.90756 105.249 9.89208 105.191 9.86264 105.14C9.8332 105.088 9.79083 105.045 9.73973 105.015L7.2398 103.537C7.18725 103.506 7.12749 103.49 7.06667 103.49Z" fill="black"/>
<path d="M64.5 104C64.5 102.517 64.9399 101.067 65.764 99.8332C66.5881 98.5999 67.7594 97.6386 69.1299 97.0709C70.5003 96.5032 72.0083 96.3547 73.4632 96.6441C74.918 96.9335 76.2544 97.6478 77.3033 98.6967C78.3522 99.7456 79.0665 101.082 79.3559 102.537C79.6453 103.992 79.4968 105.5 78.9291 106.87C78.3614 108.241 77.4001 109.412 76.1668 110.236C74.9334 111.06 73.4834 111.5 72 111.5C70.0109 111.5 68.1032 110.71 66.6967 109.303C65.2902 107.897 64.5 105.989 64.5 104ZM69.2315 101.478C69.1462 101.438 69.054 101.417 68.9603 101.414C68.8665 101.411 68.7732 101.427 68.6857 101.461C68.5982 101.495 68.5183 101.545 68.4508 101.611C68.3833 101.676 68.3295 101.754 68.2926 101.84C68.2556 101.926 68.2363 102.019 68.2358 102.113C68.2352 102.206 68.2534 102.299 68.2894 102.386C68.3253 102.473 68.3782 102.551 68.4449 102.617C68.5117 102.683 68.5909 102.735 68.678 102.77L69.028 102.92C69.5322 103.136 70.0589 103.296 70.5985 103.397V104.865C70.5988 104.991 70.578 105.115 70.537 105.234L69.696 107.757C69.6369 107.934 69.6506 108.127 69.7341 108.294C69.8176 108.461 69.9641 108.588 70.1413 108.647C70.3184 108.706 70.5118 108.693 70.6788 108.609C70.8459 108.526 70.9729 108.379 71.032 108.202L71.747 106.058C71.765 106.003 71.7996 105.956 71.8458 105.922C71.8921 105.889 71.9478 105.87 72.005 105.87C72.0623 105.87 72.1181 105.888 72.1645 105.922C72.2109 105.955 72.2453 106.003 72.263 106.058L72.978 108.202C73.0371 108.379 73.1641 108.526 73.3312 108.609C73.4982 108.693 73.6916 108.706 73.8687 108.647C74.0459 108.588 74.1924 108.461 74.2759 108.294C74.3594 108.127 74.3731 107.934 74.314 107.757L73.473 105.234C73.4322 105.115 73.4114 104.991 73.4115 104.865V103.4C73.9507 103.298 74.4773 103.138 74.982 102.923L75.332 102.773C75.4988 102.696 75.6291 102.558 75.6951 102.386C75.7612 102.215 75.7577 102.025 75.6855 101.857C75.6132 101.688 75.4779 101.554 75.3085 101.484C75.139 101.414 74.9488 101.412 74.7785 101.481L74.4285 101.627C73.6631 101.956 72.8387 102.126 72.0055 102.127C71.1723 102.126 70.348 101.956 69.5825 101.627L69.2325 101.477L69.2315 101.478ZM72 101.188C72.2318 101.188 72.4584 101.119 72.6511 100.99C72.8439 100.861 72.9941 100.678 73.0828 100.464C73.1715 100.25 73.1947 100.014 73.1495 99.7869C73.1043 99.5595 72.9926 99.3507 72.8287 99.1868C72.6648 99.0229 72.456 98.9112 72.2286 98.866C72.0013 98.8208 71.7657 98.844 71.5515 98.9327C71.3373 99.0214 71.1543 99.1716 71.0255 99.3644C70.8967 99.5571 70.828 99.7837 70.828 100.016C70.828 100.326 70.9515 100.624 71.1713 100.844C71.3911 101.064 71.6892 101.188 72 101.188Z" fill="black"/>
<path d="M12.3754 127H3.62509C3.10199 127.001 2.59071 126.845 2.15738 126.552C1.73536 126.267 1.40499 125.865 1.20628 125.397C1.06947 125.073 0.999314 124.726 1.00001 124.375C1.00001 124.099 1.01261 123.823 1.03781 123.556C1.06207 123.298 1.09847 123.043 1.14654 122.792C1.19321 122.552 1.25061 122.312 1.31828 122.079C1.38362 121.856 1.45829 121.633 1.54602 121.417C1.70921 121.007 1.90751 120.612 2.13871 120.236C2.35536 119.885 2.59776 119.55 2.86393 119.234C3.1123 118.939 3.37817 118.66 3.66009 118.397C3.9093 118.164 4.18184 117.934 4.47072 117.711C5.00414 117.3 5.49649 116.984 5.89177 116.733H5.89457L6.02337 116.651C6.10457 116.598 6.18111 116.549 6.24971 116.504H9.74983C9.8791 116.589 9.99203 116.662 10.1054 116.734H10.1082C10.5035 116.987 10.9949 117.302 11.5274 117.714C11.8163 117.937 12.0874 118.168 12.338 118.4C12.6206 118.663 12.8871 118.943 13.1361 119.237C13.4022 119.553 13.6446 119.888 13.8613 120.239C14.0925 120.615 14.2908 121.01 14.454 121.421C14.5399 121.637 14.6164 121.859 14.6817 122.083C14.7499 122.316 14.8077 122.555 14.8535 122.795C14.9001 123.045 14.9379 123.302 14.9622 123.56C14.9874 123.827 15 124.102 15 124.378C15.0007 124.901 14.8444 125.412 14.5515 125.845C14.2665 126.267 13.8653 126.598 13.3965 126.797C13.0733 126.932 12.726 127.001 12.3754 127ZM8.26858 122.762L8.76186 124.733C8.78125 124.812 8.82593 124.883 8.88912 124.934C8.9523 124.986 9.03053 125.015 9.11187 125.018H9.12541C9.20457 125.018 9.28177 124.993 9.34603 124.947C9.41028 124.9 9.45833 124.835 9.48335 124.76L10.1493 122.762H10.63C10.7274 122.758 10.8197 122.717 10.8874 122.647C10.9551 122.577 10.9929 122.483 10.9929 122.386C10.9929 122.288 10.9551 122.195 10.8874 122.125C10.8197 122.054 10.7274 122.013 10.63 122.01H10.3999L10.987 120.249C11.0184 120.155 11.011 120.051 10.9665 119.962C10.922 119.873 10.8439 119.805 10.7495 119.773C10.7113 119.76 10.6712 119.754 10.6309 119.754C10.552 119.754 10.4751 119.778 10.411 119.824C10.3469 119.87 10.299 119.935 10.2739 120.01L9.60655 122.01H8.85753L8.36425 120.039C8.34564 119.956 8.29944 119.882 8.23324 119.829C8.16704 119.776 8.08478 119.747 8 119.747C7.91522 119.747 7.83296 119.776 7.76676 119.829C7.70056 119.882 7.65436 119.956 7.63576 120.039L7.14247 122.01H6.39065L5.72563 120.012C5.69413 119.917 5.62628 119.839 5.53701 119.794C5.44774 119.749 5.34436 119.742 5.24961 119.773C5.15486 119.805 5.07651 119.873 5.03179 119.962C4.98706 120.051 4.97964 120.154 5.01114 120.249L5.59869 122.01H5.36815C5.27074 122.014 5.17847 122.055 5.11078 122.125C5.04308 122.195 5.00525 122.289 5.00525 122.386C5.00525 122.484 5.04308 122.577 5.11078 122.648C5.17847 122.718 5.27074 122.759 5.36815 122.762H5.84883L6.51479 124.76C6.5398 124.835 6.58785 124.9 6.65211 124.947C6.71637 124.993 6.79356 125.018 6.87273 125.018H6.88626C6.96761 125.015 7.04583 124.986 7.10902 124.934C7.1722 124.883 7.21689 124.812 7.23628 124.733L7.72956 122.762H8.26998H8.26858ZM9.17767 123.298L9.04374 122.762H9.35641L9.17767 123.298ZM6.8186 123.298L6.63986 122.762H6.95253L6.8186 123.298ZM8.07864 122.01H7.91437L8.00023 121.68L8.08237 122.01L8.07864 122.01ZM9.75029 115.625H6.25018L4.9542 113.681C4.90969 113.615 4.88398 113.538 4.87983 113.459C4.87568 113.38 4.89326 113.301 4.93066 113.231C4.96807 113.161 5.02389 113.102 5.0921 113.062C5.16031 113.021 5.23833 113 5.31775 113H10.6846C10.7639 113 10.8419 113.021 10.91 113.062C10.9781 113.103 11.0338 113.161 11.0712 113.231C11.1086 113.301 11.1262 113.38 11.1221 113.459C11.1181 113.538 11.0925 113.615 11.0481 113.681L9.75029 115.625Z" fill="black"/>
<path d="M11.75 143H4.75C4.52017 143 4.29258 142.955 4.08023 142.867C3.86788 142.779 3.67494 142.65 3.51243 142.488C3.34991 142.325 3.22101 142.132 3.13309 141.92C3.04516 141.707 2.99994 141.48 3 141.25V130.75C2.99994 130.52 3.04516 130.293 3.13309 130.08C3.22101 129.868 3.34991 129.675 3.51243 129.512C3.67494 129.35 3.86788 129.221 4.08023 129.133C4.29258 129.045 4.52017 129 4.75 129H9.125V132.5C9.12525 132.732 9.21751 132.954 9.38155 133.118C9.5456 133.282 9.76801 133.375 10 133.375H13.5V141.25C13.5001 141.48 13.4548 141.707 13.3669 141.92C13.279 142.132 13.1501 142.325 12.9876 142.488C12.8251 142.65 12.6321 142.779 12.4198 142.867C12.2074 142.955 11.9798 143 11.75 143ZM8.51973 139.008L9.013 140.979C9.03239 141.058 9.07707 141.129 9.14025 141.18C9.20344 141.232 9.28166 141.261 9.363 141.264H9.37653C9.4557 141.264 9.53289 141.239 9.59715 141.193C9.6614 141.146 9.70945 141.081 9.73447 141.006L10.4004 139.008H10.8811C10.9315 139.009 10.9819 139.001 11.029 138.983C11.0762 138.965 11.1192 138.937 11.1556 138.902C11.1919 138.867 11.2208 138.825 11.2405 138.779C11.2603 138.732 11.2704 138.682 11.2704 138.632C11.2704 138.581 11.2603 138.531 11.2405 138.485C11.2208 138.438 11.1919 138.396 11.1556 138.361C11.1192 138.326 11.0762 138.299 11.029 138.281C10.9819 138.262 10.9315 138.254 10.8811 138.256H10.6533L11.2409 136.495C11.2722 136.4 11.2649 136.297 11.2203 136.208C11.1758 136.118 11.0978 136.05 11.0033 136.019C10.9643 136.006 10.9235 136 10.8825 136C10.8036 136 10.7266 136.025 10.6626 136.071C10.5985 136.117 10.5505 136.182 10.5255 136.257L9.86 138.256H9.10727L8.614 136.285C8.5954 136.202 8.54919 136.129 8.483 136.076C8.4168 136.023 8.33454 135.994 8.24977 135.994C8.16499 135.994 8.08274 136.023 8.01654 136.076C7.95034 136.129 7.90414 136.202 7.88553 136.285L7.39227 138.256H6.64L5.97547 136.258C5.94383 136.163 5.87597 136.085 5.78674 136.04C5.69752 135.996 5.59421 135.988 5.49947 136.02C5.45279 136.035 5.4096 136.059 5.37237 136.091C5.33513 136.123 5.30458 136.162 5.28247 136.206C5.26001 136.25 5.24655 136.298 5.24287 136.348C5.23918 136.397 5.24535 136.447 5.261 136.494L5.84667 138.256H5.618C5.5206 138.26 5.42833 138.301 5.36064 138.371C5.29295 138.441 5.25511 138.535 5.25511 138.632C5.25511 138.73 5.29295 138.823 5.36064 138.893C5.42833 138.964 5.5206 139.005 5.618 139.008H6.09867L6.7646 141.006C6.78962 141.082 6.83766 141.147 6.90192 141.193C6.96617 141.239 7.04337 141.264 7.12253 141.264H7.13607C7.21741 141.261 7.29563 141.232 7.35881 141.181C7.42199 141.129 7.46668 141.059 7.48607 140.98L7.97933 139.009H8.51973V139.008ZM5.18773 132.5C5.12908 132.498 5.07064 132.508 5.01588 132.529C4.96113 132.55 4.91118 132.582 4.86901 132.623C4.82684 132.664 4.79331 132.713 4.77041 132.767C4.74751 132.821 4.73571 132.879 4.73571 132.938C4.73571 132.996 4.74751 133.054 4.77041 133.108C4.79331 133.162 4.82684 133.211 4.86901 133.252C4.91118 133.293 4.96113 133.325 5.01588 133.346C5.07064 133.367 5.12908 133.377 5.18773 133.375H6.93773C7.05129 133.371 7.15896 133.324 7.23798 133.242C7.317 133.16 7.36118 133.051 7.36118 132.938C7.36118 132.824 7.317 132.715 7.23798 132.633C7.15896 132.551 7.05129 132.504 6.93773 132.5H5.18773ZM5.18773 130.75C5.12908 130.748 5.07064 130.758 5.01588 130.779C4.96113 130.8 4.91118 130.832 4.86901 130.873C4.82684 130.914 4.79331 130.963 4.77041 131.017C4.74751 131.071 4.73571 131.129 4.73571 131.188C4.73571 131.246 4.74751 131.304 4.77041 131.358C4.79331 131.412 4.82684 131.461 4.86901 131.502C4.91118 131.543 4.96113 131.575 5.01588 131.596C5.07064 131.617 5.12908 131.627 5.18773 131.625H6.93773C7.05129 131.621 7.15896 131.574 7.23798 131.492C7.317 131.41 7.36118 131.301 7.36118 131.188C7.36118 131.074 7.317 130.965 7.23798 130.883C7.15896 130.801 7.05129 130.754 6.93773 130.75H5.18773ZM9.42927 139.544L9.29533 139.008H9.608L9.42927 139.544ZM7.07027 139.544L6.89153 139.008H7.2042L7.07027 139.544ZM8.33027 138.256H8.166L8.24813 137.926L8.33027 138.256ZM13.5 132.5H10V129L13.5 132.5Z" fill="black"/>
<path d="M30.2735 142.562H29.6875V129.203C29.6875 129.017 29.6134 128.838 29.4816 128.706C29.3498 128.574 29.1709 128.5 28.9845 128.5H19.1405C18.9541 128.5 18.7752 128.574 18.6434 128.706C18.5116 128.838 18.4375 129.017 18.4375 129.203V142.562H17.85C17.7572 142.562 17.6682 142.599 17.6025 142.665C17.5369 142.731 17.5 142.82 17.5 142.913V143.5H30.625V142.914C30.6252 142.868 30.6162 142.822 30.5986 142.779C30.5811 142.737 30.5552 142.698 30.5225 142.665C30.4898 142.632 30.451 142.606 30.4082 142.589C30.3655 142.571 30.3197 142.562 30.2735 142.562ZM21.25 130.727C21.25 130.634 21.2869 130.545 21.3525 130.479C21.4182 130.413 21.5072 130.377 21.6 130.377H22.772C22.8648 130.377 22.9538 130.413 23.0195 130.479C23.0851 130.545 23.122 130.634 23.122 130.727V131.9C23.122 131.946 23.1129 131.991 23.0954 132.034C23.0778 132.076 23.052 132.115 23.0195 132.147C22.987 132.18 22.9484 132.206 22.9059 132.223C22.8635 132.241 22.818 132.25 22.772 132.25H21.6C21.554 132.25 21.5085 132.241 21.4661 132.223C21.4236 132.206 21.385 132.18 21.3525 132.147C21.32 132.115 21.2942 132.076 21.2766 132.034C21.2591 131.991 21.25 131.946 21.25 131.9V130.727ZM21.25 133.539C21.25 133.446 21.2869 133.357 21.3525 133.292C21.4182 133.226 21.5072 133.189 21.6 133.189H22.772C22.8648 133.189 22.9538 133.226 23.0195 133.292C23.0851 133.357 23.122 133.446 23.122 133.539V134.711C23.122 134.804 23.0851 134.893 23.0195 134.958C22.9538 135.024 22.8648 135.061 22.772 135.061H21.6C21.5072 135.061 21.4182 135.024 21.3525 134.958C21.2869 134.893 21.25 134.804 21.25 134.711V133.539ZM22.7735 137.875H21.6C21.5072 137.875 21.4182 137.838 21.3525 137.772C21.2869 137.707 21.25 137.618 21.25 137.525V136.35C21.25 136.257 21.2869 136.168 21.3525 136.103C21.4182 136.037 21.5072 136 21.6 136H22.772C22.8648 136 22.9538 136.037 23.0195 136.103C23.0851 136.168 23.122 136.257 23.122 136.35V137.522C23.1224 137.568 23.1137 137.614 23.0964 137.657C23.079 137.699 23.0535 137.738 23.0211 137.771C22.9887 137.804 22.9502 137.83 22.9077 137.848C22.8652 137.866 22.8196 137.875 22.7735 137.875ZM25 142.562H23.125V140.1C23.125 140.007 23.1619 139.918 23.2275 139.853C23.2932 139.787 23.3822 139.75 23.475 139.75H24.65C24.7428 139.75 24.8318 139.787 24.8975 139.853C24.9631 139.918 25 140.007 25 140.1V142.562ZM26.875 137.524C26.875 137.616 26.8381 137.705 26.7725 137.771C26.7068 137.837 26.6178 137.873 26.525 137.873H25.35C25.2572 137.873 25.1682 137.837 25.1025 137.771C25.0369 137.705 25 137.616 25 137.524V136.35C25 136.257 25.0369 136.168 25.1025 136.103C25.1682 136.037 25.2572 136 25.35 136H26.522C26.6148 136 26.7038 136.037 26.7695 136.103C26.8351 136.168 26.872 136.257 26.872 136.35L26.875 137.524ZM26.875 134.711C26.875 134.804 26.8381 134.893 26.7725 134.958C26.7068 135.024 26.6178 135.061 26.525 135.061H25.35C25.2572 135.061 25.1682 135.024 25.1025 134.958C25.0369 134.893 25 134.804 25 134.711V133.539C25 133.446 25.0369 133.357 25.1025 133.292C25.1682 133.226 25.2572 133.189 25.35 133.189H26.522C26.6148 133.189 26.7038 133.226 26.7695 133.292C26.8351 133.357 26.872 133.446 26.872 133.539L26.875 134.711ZM26.875 131.898C26.875 131.991 26.8381 132.08 26.7725 132.146C26.7068 132.212 26.6178 132.249 26.525 132.249H25.35C25.2572 132.249 25.1682 132.212 25.1025 132.146C25.0369 132.08 25 131.991 25 131.898V130.727C25 130.634 25.0369 130.545 25.1025 130.479C25.1682 130.413 25.2572 130.377 25.35 130.377H26.522C26.6148 130.377 26.7038 130.413 26.7695 130.479C26.8351 130.545 26.872 130.634 26.872 130.727L26.875 131.898Z" fill="black"/>
<path d="M60.1334 130.367H51.8667C51.0383 130.367 50.3667 131.038 50.3667 131.867V140.133C50.3667 140.962 51.0383 141.633 51.8667 141.633H60.1334C60.9618 141.633 61.6334 140.962 61.6334 140.133V131.867C61.6334 131.038 60.9618 130.367 60.1334 130.367Z" stroke="black" stroke-width="1.5"/>
<path fill-rule="evenodd" clip-rule="evenodd" d="M50 157.75C50 157.336 50.2985 157 50.6667 157H61.3333C61.7015 157 62 157.336 62 157.75C62 158.164 61.7015 158.5 61.3333 158.5H50.6667C50.2985 158.5 50 158.164 50 157.75Z" fill="black"/>
<path d="M72.9105 161.572C72.9106 161.431 72.883 161.291 72.8293 161.161C72.7755 161.031 72.6966 160.913 72.5971 160.814C72.4977 160.714 72.3795 160.635 72.2495 160.581C72.1195 160.528 71.9802 160.5 71.8395 160.5C71.6988 160.5 71.5594 160.527 71.4293 160.581C71.2992 160.635 71.1811 160.714 71.0815 160.814C70.982 160.913 70.9031 161.031 70.8493 161.161C70.7955 161.291 70.7679 161.431 70.768 161.572V170.143C70.7679 170.284 70.7955 170.423 70.8493 170.553C70.9031 170.683 70.982 170.801 71.0815 170.901C71.1811 171 71.2992 171.079 71.4293 171.133C71.5594 171.187 71.6988 171.215 71.8395 171.215C71.9802 171.215 72.1196 171.187 72.2497 171.133C72.3798 171.079 72.4979 171 72.5975 170.901C72.697 170.801 72.7759 170.683 72.8297 170.553C72.8835 170.423 72.9111 170.284 72.911 170.143L72.9105 161.572ZM71.8395 175.5C72.1948 175.5 72.5355 175.359 72.7867 175.108C73.0379 174.856 73.179 174.516 73.179 174.16C73.179 173.985 73.1444 173.81 73.077 173.648C73.0097 173.485 72.9111 173.338 72.7867 173.213C72.6623 173.089 72.5146 172.99 72.3521 172.923C72.1896 172.856 72.0154 172.821 71.8395 172.821C71.6636 172.821 71.4894 172.856 71.3269 172.923C71.1644 172.99 71.0167 173.089 70.8923 173.213C70.6411 173.465 70.5 173.805 70.5 174.16C70.5 174.516 70.6411 174.856 70.8923 175.108C71.0167 175.232 71.1644 175.331 71.3269 175.398C71.4894 175.465 71.6636 175.5 71.8395 175.5Z" fill="black"/>
<path fill-rule="evenodd" clip-rule="evenodd" d="M107.849 2.39917H100.153C99.1854 2.39917 98.4014 3.18317 98.4014 4.15117V11.8472C98.4014 12.8152 99.1854 13.5992 100.153 13.5992H107.849C108.817 13.5992 109.601 12.8152 109.601 11.8472V4.15117C109.601 3.18317 108.817 2.39917 107.849 2.39917ZM106.401 8.68717C106.937 8.38317 106.937 7.60717 106.401 7.30317L103.401 5.56717C102.865 5.26317 102.201 5.64717 102.201 6.26317V9.72717C102.201 10.3432 102.865 10.7272 103.401 10.4232L106.401 8.68717Z" fill="black"/>
<path d="M107.848 18.3999H100.152C99.1839 18.3999 98.3999 19.1839 98.3999 20.1519V27.8479C98.3999 28.8159 99.1839 29.5999 100.152 29.5999H107.848C108.816 29.5999 109.6 28.8159 109.6 27.8479V20.1519C109.6 19.1839 108.816 18.3999 107.848 18.3999ZM108.192 27.3039C108.192 27.7839 107.8 28.1679 107.32 28.1679H100.68C100.2 28.1679 99.8079 27.7839 99.8079 27.3039V26.2239L101.2 24.9999C101.504 24.7359 101.952 24.7359 102.256 24.9999L103.584 26.1679L106.44 22.9359C106.76 22.5759 107.32 22.5759 107.64 22.9359L108.184 23.5519V27.3039H108.192ZM101.368 21.7439C101.368 21.0079 101.968 20.4079 102.704 20.4079C103.44 20.4079 104.04 21.0079 104.04 21.7439C104.04 22.4799 103.44 23.0799 102.704 23.0799C101.968 23.0799 101.368 22.4799 101.368 21.7439Z" fill="black"/>
<path d="M103.998 72.1437C105.7 72.1437 107.084 70.7972 107.084 69.1422C107.084 67.4871 105.7 66.1406 103.998 66.1406C102.296 66.1406 100.913 67.4871 100.913 69.1422C100.913 70.7972 102.296 72.1437 103.998 72.1437Z" fill="black"/>
<path d="M104.001 73.0783C101.037 73.0409 97.4553 75.2664 97.4553 77.9594C97.4553 78.2586 97.7826 78.5017 98.1847 78.5017H109.817C110.219 78.5017 110.546 78.2586 110.546 77.9594C110.546 75.2664 106.965 73.1157 104.001 73.0783Z" fill="black"/>
<path d="M110.667 104.652C110.667 104.818 110.532 104.952 110.367 104.952H104.952V110.367C104.952 110.532 104.818 110.667 104.652 110.667H103.348C103.182 110.667 103.048 110.532 103.048 110.367V104.952H97.6333C97.4676 104.952 97.3333 104.818 97.3333 104.652V103.348C97.3333 103.182 97.4676 103.048 97.6333 103.048H103.048V97.6333C103.048 97.4676 103.182 97.3333 103.348 97.3333H104.652C104.818 97.3333 104.952 97.4676 104.952 97.6333V103.048H110.367C110.532 103.048 110.667 103.182 110.667 103.348V104.652Z" fill="black"/>
<path d="M110.182 146.061H107.273C107.073 146.061 106.91 146.223 106.91 146.424V157.695C106.91 157.896 107.073 158.059 107.273 158.059H110.182C110.383 158.059 110.546 157.896 110.546 157.695V146.424C110.546 146.223 110.383 146.061 110.182 146.061Z" fill="black"/>
<path d="M105.456 149.333H102.547C102.346 149.333 102.183 149.496 102.183 149.696V157.695C102.183 157.896 102.346 158.059 102.547 158.059H105.456C105.656 158.059 105.819 157.896 105.819 157.695V149.696C105.819 149.496 105.656 149.333 105.456 149.333Z" fill="black"/>
<path d="M100.729 152.605H97.8204C97.6196 152.605 97.4568 152.768 97.4568 152.969V157.695C97.4568 157.896 97.6196 158.059 97.8204 158.059H100.729C100.93 158.059 101.093 157.896 101.093 157.695V152.969C101.093 152.768 100.93 152.605 100.729 152.605Z" fill="black"/>
<path d="M111.636 158.786H96.3658C96.2694 158.786 96.1769 158.824 96.1087 158.892C96.0405 158.961 96.0022 159.053 96.0022 159.149C96.0022 159.246 96.0405 159.338 96.1087 159.407C96.1769 159.475 96.2694 159.513 96.3658 159.513H111.636C111.733 159.513 111.825 159.475 111.894 159.407C111.962 159.338 112 159.246 112 159.149C112 159.053 111.962 158.961 111.894 158.892C111.825 158.824 111.733 158.786 111.636 158.786Z" fill="black"/>
<path d="M96.3657 151.878C96.4135 151.878 96.461 151.869 96.5053 151.851C96.5496 151.833 96.5899 151.806 96.6238 151.772L101.819 146.573V147.515C101.819 147.611 101.858 147.704 101.926 147.772C101.994 147.84 102.087 147.878 102.183 147.878C102.28 147.878 102.372 147.84 102.44 147.772C102.508 147.704 102.547 147.611 102.547 147.515V145.697C102.546 145.649 102.536 145.602 102.518 145.559C102.501 145.514 102.475 145.473 102.441 145.439C102.407 145.405 102.366 145.379 102.321 145.362C102.278 145.344 102.231 145.334 102.183 145.333H100.365C100.269 145.333 100.176 145.372 100.108 145.44C100.04 145.508 100.002 145.6 100.002 145.697C100.002 145.793 100.04 145.886 100.108 145.954C100.176 146.022 100.269 146.06 100.365 146.06H101.307L96.1075 151.256C96.0735 151.29 96.0464 151.33 96.028 151.374C96.0095 151.419 96 151.466 96 151.514C96 151.562 96.0095 151.61 96.028 151.654C96.0464 151.698 96.0735 151.739 96.1075 151.772C96.1415 151.806 96.1818 151.833 96.2261 151.851C96.2704 151.869 96.3178 151.878 96.3657 151.878Z" fill="black"/>
<path d="M114.201 50.2002V61.8002H125.801V50.2002H114.201ZM115.201 60.8002V56.8002H119.201V60.8002H115.201ZM125.001 61.0002H120.001V56.0002H115.001V51.0002H125.001V61.0002Z" fill="black"/>
<path d="M122.922 53.9201L124.192 52.6601L123.342 51.8101L122.082 53.0801L121.002 52.0001V55.0001H124.002L122.922 53.9201Z" fill="black"/>
<path d="M114.201 34.2V45.8H125.801V34.2H114.201ZM115.201 44.8V40.8H119.201V44.8H115.201ZM125.001 45H120.001V40H115.001V35H125.001V45Z" fill="black"/>
<path d="M121.661 39.1898L122.921 37.9198L124.001 38.9998V35.9998H121.001L122.081 37.0798L120.811 38.3398L121.661 39.1898Z" fill="black"/>
<path d="M7.99992 1.33325C4.31992 1.33325 1.33325 4.31992 1.33325 7.99992C1.33325 11.6799 4.31992 14.6666 7.99992 14.6666C11.6799 14.6666 14.6666 11.6799 14.6666 7.99992C14.6666 4.31992 11.6799 1.33325 7.99992 1.33325ZM7.99992 3.99992C9.28658 3.99992 10.3333 5.04659 10.3333 6.33325C10.3333 7.61992 9.28658 8.66658 7.99992 8.66658C6.71325 8.66658 5.66659 7.61992 5.66659 6.33325C5.66659 5.04659 6.71325 3.99992 7.99992 3.99992ZM7.99992 13.3333C6.64658 13.3333 5.04659 12.7866 3.90659 11.4133C5.03325 10.5333 6.45325 9.99992 7.99992 9.99992C9.54658 9.99992 10.9666 10.5333 12.0933 11.4133C10.9533 12.7866 9.35325 13.3333 7.99992 13.3333Z" fill="black"/>
<path d="M88.4999 17.3333C84.8199 17.3333 81.8333 20.3199 81.8333 23.9999C81.8333 27.6799 84.8199 30.6666 88.4999 30.6666C92.1799 30.6666 95.1666 27.6799 95.1666 23.9999C95.1666 20.3199 92.1799 17.3333 88.4999 17.3333ZM85.3999 28.3333C86.2733 27.7066 87.3399 27.3333 88.4999 27.3333C89.6599 27.3333 90.7266 27.7066 91.5999 28.3333C90.7266 28.9599 89.6599 29.3333 88.4999 29.3333C87.3399 29.3333 86.2733 28.9599 85.3999 28.3333ZM92.5933 27.4133C91.4666 26.5333 90.0466 25.9999 88.4999 25.9999C86.9533 25.9999 85.5333 26.5333 84.4066 27.4133C83.6333 26.4866 83.1666 25.2999 83.1666 23.9999C83.1666 21.0533 85.5533 18.6666 88.4999 18.6666C91.4466 18.6666 93.8333 21.0533 93.8333 23.9999C93.8333 25.2999 93.3666 26.4866 92.5933 27.4133Z" fill="black"/>
<path d="M88.4999 19.9999C87.2133 19.9999 86.1666 21.0466 86.1666 22.3333C86.1666 23.6199 87.2133 24.6666 88.4999 24.6666C89.7866 24.6666 90.8333 23.6199 90.8333 22.3333C90.8333 21.0466 89.7866 19.9999 88.4999 19.9999ZM88.4999 23.3333C87.9466 23.3333 87.4999 22.8866 87.4999 22.3333C87.4999 21.7799 87.9466 21.3333 88.4999 21.3333C89.0533 21.3333 89.4999 21.7799 89.4999 22.3333C89.4999 22.8866 89.0533 23.3333 88.4999 23.3333Z" fill="black"/>
<path d="M7.99992 17.3333C4.31992 17.3333 1.33325 20.3199 1.33325 23.9999C1.33325 27.6799 4.31992 30.6666 7.99992 30.6666C11.6799 30.6666 14.6666 27.6799 14.6666 23.9999C14.6666 20.3199 11.6799 17.3333 7.99992 17.3333ZM10.6666 24.6666H8.66658V26.6666C8.66658 27.0333 8.36658 27.3333 7.99992 27.3333C7.63325 27.3333 7.33325 27.0333 7.33325 26.6666V24.6666H5.33325C4.96659 24.6666 4.66659 24.3666 4.66659 23.9999C4.66659 23.6333 4.96659 23.3333 5.33325 23.3333H7.33325V21.3333C7.33325 20.9666 7.63325 20.6666 7.99992 20.6666C8.36658 20.6666 8.66658 20.9666 8.66658 21.3333V23.3333H10.6666C11.0333 23.3333 11.3333 23.6333 11.3333 23.9999C11.3333 24.3666 11.0333 24.6666 10.6666 24.6666Z" fill="black"/>
<path d="M14.0001 65.3333H2.00008C1.26675 65.3333 0.666748 65.9333 0.666748 66.6666V74.6666C0.666748 75.3999 1.26675 75.9999 2.00008 75.9999H6.66675V77.3333H6.00008C5.63341 77.3333 5.33341 77.6333 5.33341 77.9999C5.33341 78.3666 5.63341 78.6666 6.00008 78.6666H10.0001C10.3667 78.6666 10.6667 78.3666 10.6667 77.9999C10.6667 77.6333 10.3667 77.3333 10.0001 77.3333H9.33341V75.9999H14.0001C14.7334 75.9999 15.3334 75.3999 15.3334 74.6666V66.6666C15.3334 65.9333 14.7334 65.3333 14.0001 65.3333ZM13.3334 74.6666H2.66675C2.30008 74.6666 2.00008 74.3666 2.00008 73.9999V67.3333C2.00008 66.9666 2.30008 66.6666 2.66675 66.6666H13.3334C13.7001 66.6666 14.0001 66.9666 14.0001 67.3333V73.9999C14.0001 74.3666 13.7001 74.6666 13.3334 74.6666Z" fill="black"/>
<path d="M8.00077 174.5C8.7341 174.5 9.3341 173.9 9.3341 173.167H6.66743C6.66743 173.9 7.26077 174.5 8.00077 174.5ZM12.0008 170.5V167.167C12.0008 165.12 10.9074 163.407 9.00077 162.953V162.5C9.00077 161.947 8.5541 161.5 8.00077 161.5C7.44743 161.5 7.00077 161.947 7.00077 162.5V162.953C5.08743 163.407 4.00077 165.113 4.00077 167.167V170.5L3.14077 171.36C2.72077 171.78 3.0141 172.5 3.60743 172.5H12.3874C12.9808 172.5 13.2808 171.78 12.8608 171.36L12.0008 170.5Z" fill="black"/>
<path d="M10.6667 151.333C11.7734 151.333 12.6601 150.44 12.6601 149.333C12.6601 148.227 11.7734 147.333 10.6667 147.333C9.56008 147.333 8.66675 148.227 8.66675 149.333C8.66675 150.44 9.56008 151.333 10.6667 151.333ZM5.33341 151.333C6.44008 151.333 7.32675 150.44 7.32675 149.333C7.32675 148.227 6.44008 147.333 5.33341 147.333C4.22675 147.333 3.33341 148.227 3.33341 149.333C3.33341 150.44 4.22675 151.333 5.33341 151.333ZM5.33341 152.667C3.78008 152.667 0.666748 153.447 0.666748 155V156C0.666748 156.367 0.966748 156.667 1.33341 156.667H9.33341C9.70008 156.667 10.0001 156.367 10.0001 156V155C10.0001 153.447 6.88675 152.667 5.33341 152.667ZM10.6667 152.667C10.4734 152.667 10.2534 152.68 10.0201 152.7C10.0334 152.707 10.0401 152.72 10.0467 152.727C10.8067 153.28 11.3334 154.02 11.3334 155V156C11.3334 156.233 11.2867 156.46 11.2134 156.667H14.6667C15.0334 156.667 15.3334 156.367 15.3334 156V155C15.3334 153.447 12.2201 152.667 10.6667 152.667Z" fill="black"/>
<path d="M28.0001 42.0001V44.0001H20.0001V42.0001H18.6667V44.0001C18.6667 44.7334 19.2667 45.3334 20.0001 45.3334H28.0001C28.7334 45.3334 29.3334 44.7334 29.3334 44.0001V42.0001H28.0001ZM27.3334 39.3334L26.3934 38.3934L24.6667 40.1134V34.6667H23.3334V40.1134L21.6067 38.3934L20.6667 39.3334L24.0001 42.6667L27.3334 39.3334Z" fill="black"/>
<path d="M27.3333 49.3333C26.9667 49.3333 26.6667 49.6333 26.6667 49.9999V50.6666H21.3333V49.9999C21.3333 49.6333 21.0333 49.3333 20.6667 49.3333C20.3 49.3333 20 49.6333 20 49.9999V50.6666H19.3333C18.5933 50.6666 18.0067 51.2666 18.0067 51.9999L18 61.3333C18 62.0666 18.5933 62.6666 19.3333 62.6666H28.6667C29.4 62.6666 30 62.0666 30 61.3333V51.9999C30 51.2666 29.4 50.6666 28.6667 50.6666H28V49.9999C28 49.6333 27.7 49.3333 27.3333 49.3333ZM28.6667 61.3333H19.3333V54.6666H28.6667V61.3333ZM23.3333 56.6666C23.3333 56.2999 23.6333 55.9999 24 55.9999C24.3667 55.9999 24.6667 56.2999 24.6667 56.6666C24.6667 57.0333 24.3667 57.3333 24 57.3333C23.6333 57.3333 23.3333 57.0333 23.3333 56.6666ZM20.6667 56.6666C20.6667 56.2999 20.9667 55.9999 21.3333 55.9999C21.7 55.9999 22 56.2999 22 56.6666C22 57.0333 21.7 57.3333 21.3333 57.3333C20.9667 57.3333 20.6667 57.0333 20.6667 56.6666ZM26 56.6666C26 56.2999 26.3 55.9999 26.6667 55.9999C27.0333 55.9999 27.3333 56.2999 27.3333 56.6666C27.3333 57.0333 27.0333 57.3333 26.6667 57.3333C26.3 57.3333 26 57.0333 26 56.6666ZM23.3333 59.3333C23.3333 58.9666 23.6333 58.6666 24 58.6666C24.3667 58.6666 24.6667 58.9666 24.6667 59.3333C24.6667 59.6999 24.3667 59.9999 24 59.9999C23.6333 59.9999 23.3333 59.6999 23.3333 59.3333ZM20.6667 59.3333C20.6667 58.9666 20.9667 58.6666 21.3333 58.6666C21.7 58.6666 22 58.9666 22 59.3333C22 59.6999 21.7 59.9999 21.3333 59.9999C20.9667 59.9999 20.6667 59.6999 20.6667 59.3333ZM26 59.3333C26 58.9666 26.3 58.6666 26.6667 58.6666C27.0333 58.6666 27.3333 58.9666 27.3333 59.3333C27.3333 59.6999 27.0333 59.9999 26.6667 59.9999C26.3 59.9999 26 59.6999 26 59.3333Z" fill="black"/>
<path d="M27.3333 71V68.6667C27.3333 68.3 27.0333 68 26.6667 68H18.6667C18.3 68 18 68.3 18 68.6667V75.3333C18 75.7 18.3 76 18.6667 76H26.6667C27.0333 76 27.3333 75.7 27.3333 75.3333V73L28.86 74.5267C29.28 74.9467 30 74.6467 30 74.0533V69.94C30 69.3467 29.28 69.0467 28.86 69.4667L27.3333 71Z" fill="black"/>
<path d="M28.6667 98.6666H28V97.9999C28 97.6333 27.7 97.3333 27.3333 97.3333C26.9667 97.3333 26.6667 97.6333 26.6667 97.9999V98.6666H21.3333V97.9999C21.3333 97.6333 21.0333 97.3333 20.6667 97.3333C20.3 97.3333 20 97.6333 20 97.9999V98.6666H19.3333C18.5933 98.6666 18.0067 99.2666 18.0067 99.9999L18 109.333C18 110.067 18.5933 110.667 19.3333 110.667H28.6667C29.4 110.667 30 110.067 30 109.333V99.9999C30 99.2666 29.4 98.6666 28.6667 98.6666ZM28 109.333H20C19.6333 109.333 19.3333 109.033 19.3333 108.667V102H28.6667V108.667C28.6667 109.033 28.3667 109.333 28 109.333ZM21.3333 103.333H23.3333C23.7 103.333 24 103.633 24 104V106C24 106.367 23.7 106.667 23.3333 106.667H21.3333C20.9667 106.667 20.6667 106.367 20.6667 106V104C20.6667 103.633 20.9667 103.333 21.3333 103.333Z" fill="black"/>
<path d="M23.9999 113.333C20.3333 113.333 17.3333 116.333 17.3333 120C17.3333 123.667 20.3333 126.667 23.9999 126.667C27.6666 126.667 30.6666 123.667 30.6666 120C30.6666 116.333 27.6666 113.333 23.9999 113.333ZM26.3666 122.533L23.6466 120.86C23.4466 120.74 23.3266 120.527 23.3266 120.293V117.167C23.3333 116.893 23.5599 116.667 23.8333 116.667C24.1066 116.667 24.3333 116.893 24.3333 117.167V120.133L26.8933 121.673C27.1333 121.82 27.2133 122.133 27.0666 122.373C26.9199 122.607 26.6066 122.68 26.3666 122.533Z" fill="black"/>
<path d="M23.9999 145.333C21.4199 145.333 19.3333 147.42 19.3333 150C19.3333 153.5 23.9999 158.667 23.9999 158.667C23.9999 158.667 28.6666 153.5 28.6666 150C28.6666 147.42 26.5799 145.333 23.9999 145.333ZM23.9999 151.667C23.0799 151.667 22.3333 150.92 22.3333 150C22.3333 149.08 23.0799 148.333 23.9999 148.333C24.9199 148.333 25.6666 149.08 25.6666 150C25.6666 150.92 24.9199 151.667 23.9999 151.667Z" fill="black"/>
<path d="M25.3726 166.013L25.9859 166.627L19.9459 172.667H19.3326V172.053L25.3726 166.013ZM27.7726 162C27.6059 162 27.4326 162.067 27.3059 162.193L26.0859 163.413L28.5859 165.913L29.8059 164.693C30.0659 164.433 30.0659 164.013 29.8059 163.753L28.2459 162.193C28.1126 162.06 27.9459 162 27.7726 162ZM25.3726 164.127L17.9993 171.5V174H20.4993L27.8726 166.627L25.3726 164.127Z" fill="black"/>
<path d="M44.6667 2H35.3333C34.6 2 34 2.6 34 3.33333V12.6667C34 13.4 34.6 14 35.3333 14H44.6667C45.4 14 46 13.4 46 12.6667V3.33333C46 2.6 45.4 2 44.6667 2ZM37.3333 11.3333C36.9667 11.3333 36.6667 11.0333 36.6667 10.6667V7.33333C36.6667 6.96667 36.9667 6.66667 37.3333 6.66667C37.7 6.66667 38 6.96667 38 7.33333V10.6667C38 11.0333 37.7 11.3333 37.3333 11.3333ZM40 11.3333C39.6333 11.3333 39.3333 11.0333 39.3333 10.6667V5.33333C39.3333 4.96667 39.6333 4.66667 40 4.66667C40.3667 4.66667 40.6667 4.96667 40.6667 5.33333V10.6667C40.6667 11.0333 40.3667 11.3333 40 11.3333ZM42.6667 11.3333C42.3 11.3333 42 11.0333 42 10.6667V9.33333C42 8.96667 42.3 8.66667 42.6667 8.66667C43.0333 8.66667 43.3333 8.96667 43.3333 9.33333V10.6667C43.3333 11.0333 43.0333 11.3333 42.6667 11.3333Z" fill="black"/>
<path d="M41.9999 106.583L39.4133 103.997L41.9999 101.41C42.2599 101.15 42.2599 100.73 41.9999 100.47C41.7399 100.21 41.3199 100.21 41.0599 100.47L37.9999 103.53C37.7399 103.79 37.7399 104.21 37.9999 104.47L41.0599 107.53C41.3199 107.79 41.7399 107.79 41.9999 107.53C42.2533 107.27 42.2599 106.843 41.9999 106.583Z" fill="black"/>
<path d="M37.4166 85.9999L40.0032 88.5866L42.5899 85.9999C42.8499 85.7399 43.2699 85.7399 43.5299 85.9999C43.7899 86.2599 43.7899 86.6799 43.5299 86.9399L40.4699 89.9999C40.2099 90.2599 39.7899 90.2599 39.5299 89.9999L36.4699 86.9399C36.2099 86.6799 36.2099 86.2599 36.4699 85.9999C36.7299 85.7466 37.1566 85.7399 37.4166 85.9999Z" fill="black"/>
<path d="M37.9999 74.5832L40.5866 71.9966L37.9999 69.4099C37.7399 69.1499 37.7399 68.7299 37.9999 68.4699C38.2599 68.2099 38.6799 68.2099 38.9399 68.4699L41.9999 71.5299C42.2599 71.7899 42.2599 72.2099 41.9999 72.4699L38.9399 75.5299C38.6799 75.7899 38.2599 75.7899 37.9999 75.5299C37.7466 75.2699 37.7399 74.8432 37.9999 74.5832Z" fill="black"/>
<path d="M37.4166 57.9999L40.0032 55.4133L42.5899 57.9999C42.8499 58.2599 43.2699 58.2599 43.5299 57.9999C43.7899 57.7399 43.7899 57.3199 43.5299 57.0599L40.4699 53.9999C40.2099 53.7399 39.7899 53.7399 39.5299 53.9999L36.4699 57.0599C36.2099 57.3199 36.2099 57.7399 36.4699 57.9999C36.7299 58.2533 37.1566 58.2599 37.4166 57.9999Z" fill="black"/>
<path d="M124.19 107.526C124.45 107.266 124.45 106.846 124.19 106.586L121.61 103.999L124.197 101.413C124.457 101.153 124.457 100.733 124.197 100.473C123.937 100.213 123.517 100.213 123.257 100.473L120.197 103.533C119.937 103.793 119.937 104.213 120.197 104.473L123.257 107.533C123.51 107.786 123.93 107.786 124.19 107.526Z" fill="black"/>
<path d="M119.797 107.526C120.057 107.266 120.057 106.846 119.797 106.586L117.217 103.999L119.803 101.413C120.063 101.153 120.063 100.733 119.803 100.473C119.543 100.213 119.123 100.213 118.863 100.473L115.803 103.533C115.543 103.793 115.543 104.213 115.803 104.473L118.863 107.533C119.117 107.786 119.537 107.786 119.797 107.526Z" fill="black"/>
<path d="M115.803 116.474C115.543 116.734 115.543 117.154 115.803 117.414L118.39 120L115.803 122.587C115.543 122.847 115.543 123.267 115.803 123.527C116.063 123.787 116.483 123.787 116.743 123.527L119.803 120.467C120.063 120.207 120.063 119.787 119.803 119.527L116.75 116.474C116.49 116.214 116.063 116.214 115.803 116.474Z" fill="black"/>
<path d="M120.197 116.474C119.937 116.734 119.937 117.154 120.197 117.414L122.783 120L120.197 122.587C119.937 122.847 119.937 123.267 120.197 123.527C120.457 123.787 120.877 123.787 121.137 123.527L124.197 120.467C124.457 120.207 124.457 119.787 124.197 119.527L121.137 116.467C120.883 116.214 120.457 116.214 120.197 116.474Z" fill="black"/>
<path d="M43.9999 120.667H40.6666V124C40.6666 124.367 40.3666 124.667 39.9999 124.667C39.6333 124.667 39.3333 124.367 39.3333 124V120.667H35.9999C35.6333 120.667 35.3333 120.367 35.3333 120C35.3333 119.633 35.6333 119.333 35.9999 119.333H39.3333V116C39.3333 115.633 39.6333 115.333 39.9999 115.333C40.3666 115.333 40.6666 115.633 40.6666 116V119.333H43.9999C44.3666 119.333 44.6666 119.633 44.6666 120C44.6666 120.367 44.3666 120.667 43.9999 120.667Z" fill="black"/>
<path d="M43.9999 136.667H35.9999C35.6333 136.667 35.3333 136.367 35.3333 136C35.3333 135.633 35.6333 135.333 35.9999 135.333H43.9999C44.3666 135.333 44.6666 135.633 44.6666 136C44.6666 136.367 44.3666 136.667 43.9999 136.667Z" fill="black"/>
<path d="M71.9999 129.333C68.3199 129.333 65.3333 132.32 65.3333 136C65.3333 139.68 68.3199 142.667 71.9999 142.667C75.6799 142.667 78.6666 139.68 78.6666 136C78.6666 132.32 75.6799 129.333 71.9999 129.333ZM71.9999 136.667C71.6333 136.667 71.3333 136.367 71.3333 136V133.333C71.3333 132.967 71.6333 132.667 71.9999 132.667C72.3666 132.667 72.6666 132.967 72.6666 133.333V136C72.6666 136.367 72.3666 136.667 71.9999 136.667ZM72.6666 139.333H71.3333V138H72.6666V139.333Z" fill="black"/>
<path d="M104 132.667C104.367 132.667 104.667 132.967 104.667 133.333V136C104.667 136.367 104.367 136.667 104 136.667C103.633 136.667 103.333 136.367 103.333 136V133.333C103.333 132.967 103.633 132.667 104 132.667ZM103.993 129.333C100.313 129.333 97.3333 132.32 97.3333 136C97.3333 139.68 100.313 142.667 103.993 142.667C107.68 142.667 110.667 139.68 110.667 136C110.667 132.32 107.68 129.333 103.993 129.333ZM104 141.333C101.053 141.333 98.6666 138.947 98.6666 136C98.6666 133.053 101.053 130.667 104 130.667C106.947 130.667 109.333 133.053 109.333 136C109.333 138.947 106.947 141.333 104 141.333ZM104.667 139.333H103.333V138H104.667V139.333Z" fill="black"/>
<path d="M66.98 157.669H77.02C78.0467 157.669 78.6867 156.556 78.1733 155.669L73.1533 146.996C72.64 146.109 71.36 146.109 70.8467 146.996L65.8267 155.669C65.3133 156.556 65.9533 157.669 66.98 157.669ZM72 153.002C71.6333 153.002 71.3333 152.702 71.3333 152.336V151.002C71.3333 150.636 71.6333 150.336 72 150.336C72.3667 150.336 72.6667 150.636 72.6667 151.002V152.336C72.6667 152.702 72.3667 153.002 72 153.002ZM72.6667 155.669H71.3333V154.336H72.6667V155.669Z" fill="black"/>
<path d="M88.0001 131C84.6667 131 81.8201 133.073 80.6667 136C81.8201 138.927 84.6667 141 88.0001 141C91.3334 141 94.1801 138.927 95.3334 136C94.1801 133.073 91.3334 131 88.0001 131ZM88.0001 139.333C86.1601 139.333 84.6667 137.84 84.6667 136C84.6667 134.16 86.1601 132.667 88.0001 132.667C89.8401 132.667 91.3334 134.16 91.3334 136C91.3334 137.84 89.8401 139.333 88.0001 139.333ZM88.0001 134C86.8934 134 86.0001 134.893 86.0001 136C86.0001 137.107 86.8934 138 88.0001 138C89.1067 138 90.0001 137.107 90.0001 136C90.0001 134.893 89.1067 134 88.0001 134Z" fill="black"/>
<path d="M85.8634 74.5833L83.55 72.27C83.29 72.01 82.87 72.01 82.61 72.27C82.35 72.53 82.35 72.95 82.61 73.21L85.3967 75.9967C85.6567 76.2567 86.0767 76.2567 86.3367 75.9967L93.39 68.9433C93.65 68.6833 93.65 68.2633 93.39 68.0033C93.13 67.7433 92.71 67.7433 92.45 68.0033L85.8634 74.5833Z" fill="black"/>
<path d="M86.3309 92.1992C86.5909 91.9392 86.5909 91.5192 86.3309 91.2592L83.7509 88.6658H93.8642C94.2309 88.6658 94.5309 88.3658 94.5309 87.9992C94.5309 87.6325 94.2309 87.3325 93.8642 87.3325H83.7509L86.3376 84.7458C86.5976 84.4858 86.5976 84.0658 86.3376 83.8058C86.0776 83.5458 85.6576 83.5458 85.3976 83.8058L81.6642 87.5325C81.4042 87.7925 81.4042 88.2125 81.6642 88.4725L85.3909 92.1992C85.6509 92.4525 86.0776 92.4525 86.3309 92.1992Z" fill="black"/>
<path d="M89.6691 99.8008C89.4091 100.061 89.4091 100.481 89.6691 100.741L92.2491 103.334H82.1358C81.7691 103.334 81.4691 103.634 81.4691 104.001C81.4691 104.367 81.7691 104.667 82.1358 104.667H92.2491L89.6624 107.254C89.4024 107.514 89.4024 107.934 89.6624 108.194C89.9224 108.454 90.3424 108.454 90.6024 108.194L94.3358 104.467C94.5958 104.207 94.5958 103.787 94.3358 103.527L90.6091 99.8008C90.3491 99.5475 89.9224 99.5475 89.6691 99.8008Z" fill="black"/>
<g clip-path="url(#clip0_1021_7050)">
<path d="M87.9999 171.333C89.8399 171.333 91.3333 169.84 91.3333 168C91.3333 166.16 89.8399 164.667 87.9999 164.667C86.1599 164.667 84.6666 166.16 84.6666 168C84.6666 169.84 86.1599 171.333 87.9999 171.333ZM94.6666 167.333H93.3333C92.9666 167.333 92.6666 167.633 92.6666 168C92.6666 168.367 92.9666 168.667 93.3333 168.667H94.6666C95.0333 168.667 95.3333 168.367 95.3333 168C95.3333 167.633 95.0333 167.333 94.6666 167.333ZM82.6666 167.333H81.3333C80.9666 167.333 80.6666 167.633 80.6666 168C80.6666 168.367 80.9666 168.667 81.3333 168.667H82.6666C83.0333 168.667 83.3333 168.367 83.3333 168C83.3333 167.633 83.0333 167.333 82.6666 167.333ZM88.6666 174.667V173.333C88.6666 172.967 88.3666 172.667 87.9999 172.667C87.6333 172.667 87.3333 172.967 87.3333 173.333V174.667C87.3333 175.033 87.6333 175.333 87.9999 175.333C88.3666 175.333 88.6666 175.033 88.6666 174.667ZM88.6666 162.667V161.333C88.6666 160.967 88.3666 160.667 87.9999 160.667C87.6333 160.667 87.3333 160.967 87.3333 161.333V162.667C87.3333 163.033 87.6333 163.333 87.9999 163.333C88.3666 163.333 88.6666 163.033 88.6666 162.667ZM92.0066 172.947C92.2666 173.207 92.6933 173.207 92.9466 172.947C93.2066 172.687 93.2066 172.26 92.9466 172.007L92.2399 171.3C91.9799 171.04 91.5533 171.04 91.2999 171.3C91.0466 171.56 91.0399 171.987 91.2999 172.24L92.0066 172.947ZM83.7599 164.7C84.0199 164.96 84.4466 164.96 84.6999 164.7C84.9599 164.44 84.9599 164.013 84.6999 163.76L83.9933 163.053C83.7333 162.793 83.3066 162.793 83.0533 163.053C82.7933 163.313 82.7933 163.74 83.0533 163.993L83.7599 164.7ZM83.0533 172.007C82.7933 172.267 82.7933 172.693 83.0533 172.947C83.3133 173.207 83.7399 173.207 83.9933 172.947L84.6999 172.24C84.9599 171.98 84.9599 171.553 84.6999 171.3C84.4399 171.047 84.0133 171.04 83.7599 171.3L83.0533 172.007ZM91.2999 163.76C91.0399 164.02 91.0399 164.447 91.2999 164.7C91.5599 164.96 91.9866 164.96 92.2399 164.7L92.9466 163.993C93.2066 163.733 93.2066 163.307 92.9466 163.053C92.6866 162.8 92.2599 162.793 92.0066 163.053L91.2999 163.76Z" fill="black"/>
</g>
<path d="M98.9813 35.9999H100.315V36.6666C100.315 37.3999 100.915 37.9999 101.648 37.9999H105.648C106.381 37.9999 106.981 37.3999 106.981 36.6666V35.9999H108.315V39.3333H109.648V35.9999C109.648 35.2666 109.048 34.6666 108.315 34.6666H105.528C105.248 33.8933 104.515 33.3333 103.648 33.3333C102.781 33.3333 102.048 33.8933 101.768 34.6666H98.9813C98.2479 34.6666 97.6479 35.2666 97.6479 35.9999V45.3333C97.6479 46.0666 98.2479 46.6666 98.9813 46.6666H102.981V45.3333H98.9813V35.9999ZM103.648 34.6666C104.015 34.6666 104.315 34.9666 104.315 35.3333C104.315 35.6999 104.015 35.9999 103.648 35.9999C103.281 35.9999 102.981 35.6999 102.981 35.3333C102.981 34.9666 103.281 34.6666 103.648 34.6666Z" fill="black"/>
<path d="M110.148 40.8333C109.875 40.5599 109.421 40.5599 109.148 40.8333L105.988 43.9999L104.481 42.4999C104.208 42.2266 103.761 42.2266 103.481 42.4999C103.208 42.7733 103.208 43.2266 103.481 43.4999L105.515 45.5266C105.775 45.7866 106.195 45.7866 106.455 45.5266L110.141 41.8333C110.421 41.5599 110.421 41.1066 110.148 40.8333Z" fill="black"/>
<g clip-path="url(#clip1_1021_7050)">
<path d="M123.333 90.0001H124.667V84.6667C124.667 83.9334 124.067 83.3334 123.333 83.3334H118V84.6667H122.667C123.033 84.6667 123.333 84.9667 123.333 85.3334V90.0001ZM117.333 91.3334C116.967 91.3334 116.667 91.0334 116.667 90.6667V81.3334C116.667 80.9667 116.367 80.6667 116 80.6667C115.633 80.6667 115.333 80.9667 115.333 81.3334V83.3334H113.333C112.967 83.3334 112.667 83.6334 112.667 84.0001C112.667 84.3667 112.967 84.6667 113.333 84.6667H115.333V91.3334C115.333 92.0667 115.933 92.6667 116.667 92.6667H123.333V94.6667C123.333 95.0334 123.633 95.3334 124 95.3334C124.367 95.3334 124.667 95.0334 124.667 94.6667V92.6667H126.667C127.033 92.6667 127.333 92.3667 127.333 92.0001C127.333 91.6334 127.033 91.3334 126.667 91.3334H117.333Z" fill="black"/>
</g>
<path d="M26.5667 2.56667L27.5333 3.53333L26.08 4.97333C25.82 5.23333 25.82 5.66 26.08 5.92C26.34 6.18 26.7667 6.18 27.0267 5.92L28.4667 4.46667L29.4333 5.43333C29.64 5.64 30 5.49333 30 5.19333V2.33333C30 2.14667 29.8533 2 29.6667 2H26.8067C26.5067 2 26.36 2.36 26.5667 2.56667ZM18.5667 5.43333L19.5333 4.46667L20.9733 5.92C21.2333 6.18 21.66 6.18 21.92 5.92C22.18 5.66 22.18 5.23333 21.92 4.97333L20.4667 3.53333L21.4333 2.56667C21.64 2.36 21.4933 2 21.1933 2H18.3333C18.1467 2 18 2.14667 18 2.33333V5.19333C18 5.49333 18.36 5.64 18.5667 5.43333ZM21.4333 13.4333L20.4667 12.4667L21.92 11.0267C22.18 10.7667 22.18 10.34 21.92 10.08C21.66 9.82 21.2333 9.82 20.9733 10.08L19.5333 11.5333L18.5667 10.5667C18.36 10.36 18 10.5067 18 10.8067V13.6667C18 13.8533 18.1467 14 18.3333 14H21.1933C21.4933 14 21.64 13.64 21.4333 13.4333ZM29.4333 10.5667L28.4667 11.5333L27.0267 10.08C26.7667 9.82 26.34 9.82 26.08 10.08C25.82 10.34 25.82 10.7667 26.08 11.0267L27.5333 12.4667L26.5667 13.4333C26.36 13.64 26.5067 14 26.8067 14H29.6667C29.8533 14 30 13.8533 30 13.6667V10.8067C30 10.5067 29.64 10.36 29.4333 10.5667Z" fill="black"/>
<path d="M18.0001 21.3334C18.0001 21.7001 18.3001 22.0001 18.6667 22.0001H21.3334C21.7001 22.0001 22.0001 21.7001 22.0001 21.3334V18.6667C22.0001 18.3001 21.7001 18.0001 21.3334 18.0001C20.9667 18.0001 20.6667 18.3001 20.6667 18.6667V19.7267L19.0801 18.1401C18.8201 17.8801 18.4001 17.8801 18.1401 18.1401C17.8801 18.4001 17.8801 18.8201 18.1401 19.0801L19.7267 20.6667H18.6667C18.3001 20.6667 18.0001 20.9667 18.0001 21.3334ZM29.3334 20.6667H28.2734L29.8601 19.0801C30.1201 18.8201 30.1201 18.4001 29.8601 18.1401C29.6001 17.8801 29.1801 17.8801 28.9201 18.1401L27.3334 19.7267V18.6667C27.3334 18.3001 27.0334 18.0001 26.6667 18.0001C26.3001 18.0001 26.0001 18.3001 26.0001 18.6667V21.3334C26.0001 21.7001 26.3001 22.0001 26.6667 22.0001H29.3334C29.7001 22.0001 30.0001 21.7001 30.0001 21.3334C30.0001 20.9667 29.7001 20.6667 29.3334 20.6667ZM18.6667 27.3334H19.7267L18.1401 28.9201C17.8801 29.1801 17.8801 29.6001 18.1401 29.8601C18.4001 30.1201 18.8201 30.1201 19.0801 29.8601L20.6667 28.2734V29.3334C20.6667 29.7001 20.9667 30.0001 21.3334 30.0001C21.7001 30.0001 22.0001 29.7001 22.0001 29.3334V26.6667C22.0001 26.3001 21.7001 26.0001 21.3334 26.0001H18.6667C18.3001 26.0001 18.0001 26.3001 18.0001 26.6667C18.0001 27.0334 18.3001 27.3334 18.6667 27.3334ZM30.0001 26.6667C30.0001 26.3001 29.7001 26.0001 29.3334 26.0001H26.6667C26.3001 26.0001 26.0001 26.3001 26.0001 26.6667V29.3334C26.0001 29.7001 26.3001 30.0001 26.6667 30.0001C27.0334 30.0001 27.3334 29.7001 27.3334 29.3334V28.2734L28.9201 29.8601C29.1801 30.1201 29.6001 30.1201 29.8601 29.8601C30.1201 29.6001 30.1201 29.1801 29.8601 28.9201L28.2734 27.3334H29.3334C29.7001 27.3334 30.0001 27.0334 30.0001 26.6667Z" fill="black"/>
<path d="M109.333 52.0001H104L103.06 51.0601C102.807 50.8067 102.467 50.6667 102.113 50.6667H98.6666C97.9333 50.6667 97.3399 51.2667 97.3399 52.0001L97.3333 60.0001C97.3333 60.7334 97.9333 61.3334 98.6666 61.3334H109.333C110.067 61.3334 110.667 60.7334 110.667 60.0001V53.3334C110.667 52.6001 110.067 52.0001 109.333 52.0001ZM108.667 60.0001H99.3333C98.9666 60.0001 98.6666 59.7001 98.6666 59.3334V54.0001C98.6666 53.6334 98.9666 53.3334 99.3333 53.3334H108.667C109.033 53.3334 109.333 53.6334 109.333 54.0001V59.3334C109.333 59.7001 109.033 60.0001 108.667 60.0001Z" fill="black"/>
<path d="M68.4459 72.8333C66.9726 72.8333 65.7792 74.0266 65.7792 75.4999C65.7792 76.9733 66.9726 78.1666 68.4459 78.1666C69.9192 78.1666 71.1126 76.9733 71.1126 75.4999C71.1126 74.0266 69.9192 72.8333 68.4459 72.8333ZM72.4326 73.4999V77.4999C72.4326 77.8666 72.7326 78.1666 73.0992 78.1666H77.0992C77.4659 78.1666 77.7659 77.8666 77.7659 77.4999V73.4999C77.7659 73.1333 77.4659 72.8333 77.0992 72.8333H73.0992C72.7326 72.8333 72.4326 73.1333 72.4326 73.4999ZM67.8526 66.5466L65.6526 70.5066C65.4059 70.9533 65.7259 71.4999 66.2326 71.4999H70.6326C71.1392 71.4999 71.4592 70.9533 71.2126 70.5066L69.0126 66.5466C68.7592 66.0933 68.1059 66.0933 67.8526 66.5466ZM76.5992 65.8333C75.8926 65.8333 75.3926 66.2066 75.0992 66.6133C74.8059 66.2066 74.3059 65.8333 73.5992 65.8333C72.5592 65.8333 71.7659 66.6866 71.7659 67.6666C71.7659 68.8866 73.1192 69.7799 74.6659 71.1199C74.9126 71.3333 75.2792 71.3333 75.5326 71.1199C77.0792 69.7799 78.4326 68.8866 78.4326 67.6666C78.4326 66.6866 77.6392 65.8333 76.5992 65.8333Z" fill="black"/>
<g clip-path="url(#clip2_1021_7050)">
<path d="M71.6846 114.165C73.0246 112.825 75.0313 112.551 76.6446 113.338L74.2246 115.758C73.9646 116.018 73.9646 116.438 74.2246 116.698L75.2846 117.758C75.5446 118.025 75.9646 118.025 76.2246 117.758L78.6446 115.338C79.4246 116.958 79.1513 118.951 77.8113 120.291C76.5713 121.531 74.758 121.858 73.218 121.278L67.9113 126.585C67.2246 127.271 66.118 127.271 65.438 126.585C64.7513 125.898 64.7513 124.791 65.438 124.111L70.718 118.825C70.1046 117.265 70.4246 115.425 71.6846 114.165Z" fill="black"/>
</g>
<g clip-path="url(#clip3_1021_7050)">
<path d="M104 89.9999C102.9 89.9999 102 89.0999 102 87.9999C102 86.8999 102.9 85.9999 104 85.9999C105.1 85.9999 106 86.8999 106 87.9999C106 89.0999 105.1 89.9999 104 89.9999ZM104 91.3333C105.84 91.3333 107.333 89.8399 107.333 87.9999C107.333 86.1599 105.84 84.6666 104 84.6666C102.16 84.6666 100.667 86.1599 100.667 87.9999C100.667 89.8399 102.16 91.3333 104 91.3333ZM110.667 87.3333H109.333C108.967 87.3333 108.667 87.6333 108.667 87.9999C108.667 88.3666 108.967 88.6666 109.333 88.6666H110.667C111.033 88.6666 111.333 88.3666 111.333 87.9999C111.333 87.6333 111.033 87.3333 110.667 87.3333ZM98.6666 87.3333H97.3333C96.9666 87.3333 96.6666 87.6333 96.6666 87.9999C96.6666 88.3666 96.9666 88.6666 97.3333 88.6666H98.6666C99.0333 88.6666 99.3333 88.3666 99.3333 87.9999C99.3333 87.6333 99.0333 87.3333 98.6666 87.3333ZM104.667 94.6666V93.3333C104.667 92.9666 104.367 92.6666 104 92.6666C103.633 92.6666 103.333 92.9666 103.333 93.3333V94.6666C103.333 95.0333 103.633 95.3333 104 95.3333C104.367 95.3333 104.667 95.0333 104.667 94.6666ZM104.667 82.6666V81.3333C104.667 80.9666 104.367 80.6666 104 80.6666C103.633 80.6666 103.333 80.9666 103.333 81.3333V82.6666C103.333 83.0333 103.633 83.3333 104 83.3333C104.367 83.3333 104.667 83.0333 104.667 82.6666ZM108.007 92.9466C108.267 93.2066 108.693 93.2066 108.947 92.9466C109.207 92.6866 109.207 92.2599 108.947 92.0066L108.24 91.2999C107.98 91.0399 107.553 91.0399 107.3 91.2999C107.047 91.5599 107.04 91.9866 107.3 92.2399L108.007 92.9466ZM99.7599 84.6999C100.02 84.9599 100.447 84.9599 100.7 84.6999C100.96 84.4399 100.96 84.0133 100.7 83.7599L99.9933 83.0533C99.7333 82.7933 99.3066 82.7933 99.0533 83.0533C98.7933 83.3133 98.7933 83.7399 99.0533 83.9933L99.7599 84.6999ZM99.0533 92.0066C98.7933 92.2666 98.7933 92.6933 99.0533 92.9466C99.3133 93.2066 99.7399 93.2066 99.9933 92.9466L100.7 92.2399C100.96 91.9799 100.96 91.5533 100.7 91.2999C100.44 91.0466 100.013 91.0399 99.7599 91.2999L99.0533 92.0066ZM107.3 83.7599C107.04 84.0199 107.04 84.4466 107.3 84.6999C107.56 84.9599 107.987 84.9599 108.24 84.6999L108.947 83.9933C109.207 83.7333 109.207 83.3066 108.947 83.0533C108.687 82.7999 108.26 82.7933 108.007 83.0533L107.3 83.7599Z" fill="black"/>
</g>
<path d="M88.0001 148.313C89.8401 148.313 91.3334 149.807 91.3334 151.647C91.3334 151.987 91.2667 152.313 91.1734 152.62L93.2134 154.66C94.1401 153.84 94.8734 152.813 95.3334 151.64C94.1801 148.72 91.3334 146.647 88.0001 146.647C87.1534 146.647 86.3401 146.78 85.5734 147.027L87.0201 148.473C87.3334 148.38 87.6601 148.313 88.0001 148.313ZM81.8067 146.087C81.5467 146.347 81.5467 146.767 81.8067 147.027L83.1201 148.34C82.0401 149.2 81.1801 150.333 80.6667 151.647C81.8201 154.573 84.6667 156.647 88.0001 156.647C89.0134 156.647 89.9801 156.447 90.8734 156.1L92.6867 157.913C92.9467 158.173 93.3667 158.173 93.6267 157.913C93.8867 157.653 93.8867 157.233 93.6267 156.973L82.7534 146.087C82.4934 145.827 82.0667 145.827 81.8067 146.087ZM88.0001 154.98C86.1601 154.98 84.6667 153.487 84.6667 151.647C84.6667 151.133 84.7867 150.647 84.9934 150.22L86.0401 151.267C86.0201 151.387 86.0001 151.513 86.0001 151.647C86.0001 152.753 86.8934 153.647 88.0001 153.647C88.1334 153.647 88.2534 153.627 88.3801 153.6L89.4267 154.647C88.9934 154.86 88.5134 154.98 88.0001 154.98ZM89.9801 151.427C89.8801 150.493 89.1467 149.767 88.2201 149.667L89.9801 151.427Z" fill="black"/>
<path d="M39.9999 145.333C36.3199 145.333 33.3333 148.32 33.3333 152C33.3333 155.68 36.3199 158.667 39.9999 158.667C43.6799 158.667 46.6666 155.68 46.6666 152C46.6666 148.32 43.6799 145.333 39.9999 145.333ZM40.6666 156.667H39.3333V155.333H40.6666V156.667ZM42.0466 151.5L41.4466 152.113C41.1133 152.453 40.8733 152.76 40.7533 153.24C40.6999 153.453 40.6666 153.693 40.6666 154H39.3333V153.667C39.3333 153.36 39.3866 153.067 39.4799 152.793C39.6133 152.407 39.8333 152.06 40.1133 151.78L40.9399 150.94C41.2466 150.647 41.3933 150.207 41.3066 149.74C41.2199 149.26 40.8466 148.853 40.3799 148.72C39.6399 148.513 38.9533 148.933 38.7333 149.567C38.6533 149.813 38.4466 150 38.1866 150H37.9866C37.5999 150 37.3333 149.627 37.4399 149.253C37.7266 148.273 38.5599 147.527 39.5933 147.367C40.6066 147.207 41.5733 147.733 42.1733 148.567C42.9599 149.653 42.7266 150.82 42.0466 151.5Z" fill="black"/>
<path d="M85.6128 4.69341C85.0795 4.46675 84.8528 3.80675 85.1728 3.32675C85.8195 2.36675 86.8995 1.66675 88.3261 1.66675C89.8928 1.66675 90.9661 2.38008 91.5128 3.27341C91.9795 4.04008 92.2528 5.47342 91.5328 6.54008C90.7328 7.72008 89.9661 8.08008 89.5528 8.84008C89.4528 9.02008 89.3928 9.16675 89.3528 9.46675C89.2928 9.95341 88.8928 10.3334 88.3995 10.3334C87.8195 10.3334 87.3461 9.83342 87.4128 9.25342C87.4528 8.91342 87.5328 8.56008 87.7195 8.22675C88.2328 7.30008 89.2195 6.75341 89.7928 5.93341C90.3995 5.07341 90.0595 3.46675 88.3395 3.46675C87.5595 3.46675 87.0528 3.87341 86.7395 4.36008C86.5061 4.74008 86.0195 4.86008 85.6128 4.69341ZM89.6661 13.0001C89.6661 13.7334 89.0661 14.3334 88.3328 14.3334C87.5995 14.3334 86.9995 13.7334 86.9995 13.0001C86.9995 12.2667 87.5995 11.6667 88.3328 11.6667C89.0661 11.6667 89.6661 12.2667 89.6661 13.0001Z" fill="black"/>
<g clip-path="url(#clip4_1021_7050)">
<path d="M72.0001 53.3334C70.5267 53.3334 69.3334 54.5267 69.3334 56.0001C69.3334 57.4734 70.5267 58.6667 72.0001 58.6667C73.4734 58.6667 74.6667 57.4734 74.6667 56.0001C74.6667 54.5267 73.4734 53.3334 72.0001 53.3334ZM77.9601 55.3334C77.6534 52.5534 75.4467 50.3467 72.6667 50.0401V49.3334C72.6667 48.9667 72.3667 48.6667 72.0001 48.6667C71.6334 48.6667 71.3334 48.9667 71.3334 49.3334V50.0401C68.5534 50.3467 66.3467 52.5534 66.0401 55.3334H65.3334C64.9667 55.3334 64.6667 55.6334 64.6667 56.0001C64.6667 56.3667 64.9667 56.6667 65.3334 56.6667H66.0401C66.3467 59.4467 68.5534 61.6534 71.3334 61.9601V62.6667C71.3334 63.0334 71.6334 63.3334 72.0001 63.3334C72.3667 63.3334 72.6667 63.0334 72.6667 62.6667V61.9601C75.4467 61.6534 77.6534 59.4467 77.9601 56.6667H78.6667C79.0334 56.6667 79.3334 56.3667 79.3334 56.0001C79.3334 55.6334 79.0334 55.3334 78.6667 55.3334H77.9601ZM72.0001 60.6667C69.4201 60.6667 67.3334 58.5801 67.3334 56.0001C67.3334 53.4201 69.4201 51.3334 72.0001 51.3334C74.5801 51.3334 76.6667 53.4201 76.6667 56.0001C76.6667 58.5801 74.5801 60.6667 72.0001 60.6667Z" fill="black"/>
</g>
<path d="M42.3334 16.6667H35.0001C34.2667 16.6667 33.6667 17.2667 33.6667 18.0001V26.6667C33.6667 27.0334 33.9667 27.3334 34.3334 27.3334C34.7001 27.3334 35.0001 27.0334 35.0001 26.6667V18.6667C35.0001 18.3001 35.3001 18.0001 35.6667 18.0001H42.3334C42.7001 18.0001 43.0001 17.7001 43.0001 17.3334C43.0001 16.9667 42.7001 16.6667 42.3334 16.6667ZM42.7267 19.7267L45.9467 22.9467C46.1934 23.1934 46.3334 23.5334 46.3334 23.8867V30.0001C46.3334 30.7334 45.7334 31.3334 45.0001 31.3334H37.6601C36.9267 31.3334 36.3334 30.7334 36.3334 30.0001L36.3401 20.6667C36.3401 19.9334 36.9334 19.3334 37.6667 19.3334H41.7801C42.1334 19.3334 42.4734 19.4734 42.7267 19.7267ZM42.3334 24.0001H45.3334L41.6667 20.3334V23.3334C41.6667 23.7001 41.9667 24.0001 42.3334 24.0001Z" fill="black"/>
<path d="M44.2 163.807C43.94 163.547 43.52 163.547 43.26 163.807L40 167.06L36.74 163.8C36.48 163.54 36.06 163.54 35.8 163.8C35.54 164.06 35.54 164.48 35.8 164.74L39.06 168L35.8 171.26C35.54 171.52 35.54 171.94 35.8 172.2C36.06 172.46 36.48 172.46 36.74 172.2L40 168.94L43.26 172.2C43.52 172.46 43.94 172.46 44.2 172.2C44.46 171.94 44.46 171.52 44.2 171.26L40.94 168L44.2 164.74C44.4533 164.487 44.4533 164.06 44.2 163.807Z" fill="black"/>
<path d="M52.0001 38.6667C51.2667 38.6667 50.6667 39.2667 50.6667 40.0001C50.6667 40.7334 51.2667 41.3334 52.0001 41.3334C52.7334 41.3334 53.3334 40.7334 53.3334 40.0001C53.3334 39.2667 52.7334 38.6667 52.0001 38.6667ZM60.0001 38.6667C59.2667 38.6667 58.6667 39.2667 58.6667 40.0001C58.6667 40.7334 59.2667 41.3334 60.0001 41.3334C60.7334 41.3334 61.3334 40.7334 61.3334 40.0001C61.3334 39.2667 60.7334 38.6667 60.0001 38.6667ZM56.0001 38.6667C55.2667 38.6667 54.6667 39.2667 54.6667 40.0001C54.6667 40.7334 55.2667 41.3334 56.0001 41.3334C56.7334 41.3334 57.3334 40.7334 57.3334 40.0001C57.3334 39.2667 56.7334 38.6667 56.0001 38.6667Z" fill="black"/>
<path d="M56.0001 21.3334C56.7334 21.3334 57.3334 20.7334 57.3334 20.0001C57.3334 19.2667 56.7334 18.6667 56.0001 18.6667C55.2667 18.6667 54.6667 19.2667 54.6667 20.0001C54.6667 20.7334 55.2667 21.3334 56.0001 21.3334ZM56.0001 22.6667C55.2667 22.6667 54.6667 23.2667 54.6667 24.0001C54.6667 24.7334 55.2667 25.3334 56.0001 25.3334C56.7334 25.3334 57.3334 24.7334 57.3334 24.0001C57.3334 23.2667 56.7334 22.6667 56.0001 22.6667ZM56.0001 26.6667C55.2667 26.6667 54.6667 27.2667 54.6667 28.0001C54.6667 28.7334 55.2667 29.3334 56.0001 29.3334C56.7334 29.3334 57.3334 28.7334 57.3334 28.0001C57.3334 27.2667 56.7334 26.6667 56.0001 26.6667Z" fill="black"/>
<path fill-rule="evenodd" clip-rule="evenodd" d="M60.6666 56.5799C60.6666 56.2666 60.4399 56.0133 60.1333 55.9266C59.2866 55.6933 58.6666 54.9199 58.6666 53.9999V50.6666H59.3333C59.6999 50.6666 59.9999 50.3666 59.9999 49.9999C59.9999 49.6333 59.6999 49.3333 59.3333 49.3333H52.6666C52.2999 49.3333 51.9999 49.6333 51.9999 49.9999C51.9999 50.3666 52.2999 50.6666 52.6666 50.6666H53.3333V53.9999C53.3333 54.9199 52.7133 55.6933 51.8666 55.9266C51.5599 56.0133 51.3333 56.2666 51.3333 56.5799V56.6666C51.3333 57.0333 51.6333 57.3333 51.9999 57.3333H55.3199L55.3333 61.9999C55.3333 62.3666 55.6333 62.6666 55.9999 62.6666C56.3666 62.6666 56.6666 62.3666 56.6666 61.9999L56.6533 57.3333H59.9999C60.3666 57.3333 60.6666 57.0333 60.6666 56.6666V56.5799Z" fill="black"/>
<path d="M50.6667 75.0001C50.6667 75.5867 50.9267 76.1134 51.3334 76.4801V77.3334C51.3334 77.8867 51.7801 78.3334 52.3334 78.3334C52.8867 78.3334 53.3334 77.8867 53.3334 77.3334V77.0001H58.6667V77.3334C58.6667 77.8801 59.1134 78.3334 59.6667 78.3334C60.2134 78.3334 60.6667 77.8867 60.6667 77.3334V76.4801C61.0734 76.1134 61.3334 75.5867 61.3334 75.0001V68.3334C61.3334 66.0001 58.9467 65.6667 56.0001 65.6667C53.0534 65.6667 50.6667 66.0001 50.6667 68.3334V75.0001ZM53.0001 75.6667C52.4467 75.6667 52.0001 75.2201 52.0001 74.6667C52.0001 74.1134 52.4467 73.6667 53.0001 73.6667C53.5534 73.6667 54.0001 74.1134 54.0001 74.6667C54.0001 75.2201 53.5534 75.6667 53.0001 75.6667ZM59.0001 75.6667C58.4467 75.6667 58.0001 75.2201 58.0001 74.6667C58.0001 74.1134 58.4467 73.6667 59.0001 73.6667C59.5534 73.6667 60.0001 74.1134 60.0001 74.6667C60.0001 75.2201 59.5534 75.6667 59.0001 75.6667ZM60.0001 71.6667H52.0001V68.3334H60.0001V71.6667Z" fill="black"/>
<path d="M52.6184 84.5468V91.4534C52.6184 91.9801 53.1984 92.3001 53.6451 92.0134L59.0717 88.5601C59.4851 88.3001 59.4851 87.7001 59.0717 87.4334L53.6451 83.9868C53.1984 83.7001 52.6184 84.0201 52.6184 84.5468Z" fill="black"/>
<path d="M59.7612 100.234C58.6746 99.1477 57.1346 98.5211 55.4412 98.6944C52.9946 98.9411 50.9812 100.928 50.7079 103.374C50.3412 106.608 52.8412 109.334 55.9946 109.334C58.1212 109.334 59.9479 108.088 60.8012 106.294C61.0146 105.848 60.6946 105.334 60.2012 105.334C59.9546 105.334 59.7212 105.468 59.6146 105.688C58.8612 107.308 57.0546 108.334 55.0812 107.894C53.6012 107.568 52.4079 106.361 52.0946 104.881C51.5346 102.294 53.5012 100.001 55.9946 100.001C57.1012 100.001 58.0879 100.461 58.8079 101.188L57.8012 102.194C57.3812 102.614 57.6746 103.334 58.2679 103.334H60.6612C61.0279 103.334 61.3279 103.034 61.3279 102.668V100.274C61.3279 99.6811 60.6079 99.3811 60.1879 99.8011L59.7612 100.234Z" fill="black"/>
<path d="M58.6511 121.648H58.1245L57.9378 121.468C58.7378 120.534 59.1511 119.261 58.9245 117.908C58.6111 116.054 57.0645 114.574 55.1978 114.348C52.3778 114.001 50.0045 116.374 50.3511 119.194C50.5778 121.061 52.0578 122.608 53.9111 122.921C55.2645 123.148 56.5378 122.734 57.4711 121.934L57.6511 122.121V122.648L60.4845 125.481C60.7578 125.754 61.2045 125.754 61.4778 125.481C61.7511 125.208 61.7511 124.761 61.4778 124.488L58.6511 121.648ZM54.6511 121.648C52.9911 121.648 51.6511 120.308 51.6511 118.648C51.6511 116.988 52.9911 115.648 54.6511 115.648C56.3111 115.648 57.6511 116.988 57.6511 118.648C57.6511 120.308 56.3111 121.648 54.6511 121.648Z" fill="black"/>
<path d="M77 23.9999C77 23.8466 76.9934 23.6999 76.98 23.5466L78.22 22.6066C78.4867 22.4066 78.56 22.0333 78.3934 21.7399L77.1467 19.5866C76.98 19.2933 76.62 19.1733 76.3134 19.3066L74.88 19.9133C74.6334 19.7399 74.3734 19.5866 74.1 19.4599L73.9067 17.9199C73.8667 17.5866 73.58 17.3333 73.2467 17.3333H70.76C70.42 17.3333 70.1334 17.5866 70.0934 17.9199L69.9 19.4599C69.6267 19.5866 69.3667 19.7399 69.12 19.9133L67.6867 19.3066C67.38 19.1733 67.02 19.2933 66.8534 19.5866L65.6067 21.7466C65.44 22.0399 65.5134 22.4066 65.78 22.6133L67.02 23.5533C67.0067 23.6999 67 23.8466 67 23.9999C67 24.1533 67.0067 24.2999 67.02 24.4533L65.78 25.3933C65.5134 25.5933 65.44 25.9666 65.6067 26.2599L66.8534 28.4133C67.02 28.7066 67.38 28.8266 67.6867 28.6933L69.12 28.0866C69.3667 28.2599 69.6267 28.4133 69.9 28.5399L70.0934 30.0799C70.1334 30.4133 70.42 30.6666 70.7534 30.6666H73.24C73.5734 30.6666 73.86 30.4133 73.9 30.0799L74.0934 28.5399C74.3667 28.4133 74.6267 28.2599 74.8734 28.0866L76.3067 28.6933C76.6134 28.8266 76.9734 28.7066 77.14 28.4133L78.3867 26.2599C78.5534 25.9666 78.48 25.5999 78.2134 25.3933L76.9734 24.4533C76.9934 24.2999 77 24.1533 77 23.9999ZM72.0267 26.3333C70.74 26.3333 69.6934 25.2866 69.6934 23.9999C69.6934 22.7133 70.74 21.6666 72.0267 21.6666C73.3134 21.6666 74.36 22.7133 74.36 23.9999C74.36 25.2866 73.3134 26.3333 72.0267 26.3333Z" fill="black"/>
<path d="M101.333 124.667C102.067 124.667 102.667 124.067 102.667 123.333V116.667C102.667 115.933 102.067 115.333 101.333 115.333C100.6 115.333 100 115.933 100 116.667V123.333C100 124.067 100.6 124.667 101.333 124.667ZM105.333 116.667V123.333C105.333 124.067 105.933 124.667 106.667 124.667C107.4 124.667 108 124.067 108 123.333V116.667C108 115.933 107.4 115.333 106.667 115.333C105.933 115.333 105.333 115.933 105.333 116.667Z" fill="black"/>
<path d="M114 6.66794V9.33461C114 9.70128 114.3 10.0013 114.667 10.0013H116.667L118.86 12.1946C119.28 12.6146 120 12.3146 120 11.7213V4.27461C120 3.68128 119.28 3.38128 118.86 3.80128L116.667 6.00128H114.667C114.3 6.00128 114 6.30128 114 6.66794ZM123 8.00128C123 6.82128 122.32 5.80794 121.333 5.31461V10.6813C122.32 10.1946 123 9.18128 123 8.00128ZM121.333 2.96794V3.10128C121.333 3.35461 121.5 3.57461 121.733 3.66794C123.453 4.35461 124.667 6.04128 124.667 8.00128C124.667 9.96128 123.453 11.6479 121.733 12.3346C121.493 12.4279 121.333 12.6479 121.333 12.9013V13.0346C121.333 13.4546 121.753 13.7479 122.14 13.6013C124.4 12.7413 126 10.5613 126 8.00128C126 5.44128 124.4 3.26128 122.14 2.40128C121.753 2.24794 121.333 2.54794 121.333 2.96794Z" fill="black"/>
<path d="M124 76.6667H116C115.633 76.6667 115.333 76.3667 115.333 76V68C115.333 67.6333 115.633 67.3333 116 67.3333H119.333C119.7 67.3333 120 67.0333 120 66.6667C120 66.3 119.7 66 119.333 66H115.333C114.593 66 114 66.6 114 67.3333V76.6667C114 77.4 114.6 78 115.333 78H124.667C125.4 78 126 77.4 126 76.6667V72.6667C126 72.3 125.7 72 125.333 72C124.967 72 124.667 72.3 124.667 72.6667V76C124.667 76.3667 124.367 76.6667 124 76.6667ZM121.333 66.6667C121.333 67.0333 121.633 67.3333 122 67.3333H123.727L117.64 73.42C117.38 73.68 117.38 74.1 117.64 74.36C117.9 74.62 118.32 74.62 118.58 74.36L124.667 68.2733V70C124.667 70.3667 124.967 70.6667 125.333 70.6667C125.7 70.6667 126 70.3667 126 70V66.6667C126 66.3 125.7 66 125.333 66H122C121.633 66 121.333 66.3 121.333 66.6667Z" fill="black"/>
<g clip-path="url(#clip5_1021_7050)">
<path d="M62.6666 172.667C63.0333 172.667 63.3333 172.367 63.3333 172L63.3333 162C63.3333 161.267 62.7333 160.667 61.9999 160.667L51.9999 160.667C51.6333 160.667 51.3333 160.967 51.3333 161.333C51.3333 161.7 51.6333 162 51.9999 162L61.3333 162C61.6999 162 61.9999 162.3 61.9999 162.667L61.9999 172C61.9999 172.367 62.2999 172.667 62.6666 172.667ZM49.9999 175.333L59.3333 175.333C60.0666 175.333 60.6666 174.733 60.6666 174L60.6666 164.667C60.6666 163.933 60.0666 163.333 59.3333 163.333L49.9999 163.333C49.2666 163.333 48.6666 163.933 48.6666 164.667L48.6666 174C48.6666 174.733 49.2666 175.333 49.9999 175.333ZM50.6666 164.667L58.6666 164.667C59.0333 164.667 59.3333 164.967 59.3333 165.333L59.3333 173.333C59.3333 173.7 59.0333 174 58.6666 174L50.6666 174C50.2999 174 49.9999 173.7 49.9999 173.333L49.9999 165.333C49.9999 164.967 50.2999 164.667 50.6666 164.667Z" fill="black"/>
</g>
<path d="M82 118.668V121.335C82 121.701 82.3 122.001 82.6667 122.001H84.6667L86.86 124.195C87.28 124.615 88 124.315 88 123.721V116.275C88 115.681 87.28 115.381 86.86 115.801L84.6667 118.001H82.6667C82.3 118.001 82 118.301 82 118.668ZM91 120.001C91 118.821 90.32 117.808 89.3333 117.315V122.681C90.32 122.195 91 121.181 91 120.001ZM89.3333 114.968V115.101C89.3333 115.355 89.5 115.575 89.7333 115.668C91.4533 116.355 92.6667 118.041 92.6667 120.001C92.6667 121.961 91.4533 123.648 89.7333 124.335C89.4933 124.428 89.3333 124.648 89.3333 124.901V125.035C89.3333 125.455 89.7533 125.748 90.14 125.601C92.4 124.741 94 122.561 94 120.001C94 117.441 92.4 115.261 90.14 114.401C89.7533 114.248 89.3333 114.548 89.3333 114.968Z" fill="black"/>
<path d="M114.42 18.4233C114.16 18.6833 114.16 19.1033 114.42 19.3633L116.86 21.8033L116.667 22.0033H114.667C114.3 22.0033 114 22.3033 114 22.6699V25.3366C114 25.7033 114.3 26.0033 114.667 26.0033H116.667L118.86 28.1966C119.28 28.6166 120 28.3166 120 27.7233V24.9433L122.787 27.7299C122.46 27.9766 122.107 28.1833 121.72 28.3366C121.48 28.4366 121.333 28.6899 121.333 28.9499C121.333 29.4299 121.82 29.7366 122.26 29.5566C122.793 29.3366 123.293 29.0433 123.74 28.6833L124.633 29.5766C124.893 29.8366 125.313 29.8366 125.573 29.5766C125.833 29.3166 125.833 28.8966 125.573 28.6366L115.367 18.4233C115.107 18.1633 114.687 18.1633 114.42 18.4233ZM124.667 24.0033C124.667 24.5499 124.567 25.0766 124.393 25.5633L125.413 26.5833C125.787 25.8033 126 24.9299 126 24.0033C126 21.4499 124.4 19.2633 122.147 18.4033C121.753 18.2499 121.333 18.5566 121.333 18.9766V19.1033C121.333 19.3566 121.5 19.5766 121.74 19.6699C123.453 20.3633 124.667 22.0433 124.667 24.0033ZM118.86 19.8099L118.747 19.9233L120 21.1766V20.2766C120 19.6833 119.28 19.3899 118.86 19.8099ZM123 24.0033C123 22.8233 122.32 21.8099 121.333 21.3166V22.5099L122.987 24.1633C122.993 24.1099 123 24.0566 123 24.0033Z" fill="black"/>
<path d="M13.6 94.023H2.4C2.0364 94.03 1.68486 93.8926 1.42242 93.6408C1.15999 93.389 1.00809 93.0435 1 92.6799L1 83.2757C1.00809 82.912 1.15998 82.5665 1.4224 82.3146C1.68481 82.0628 2.03636 81.9252 2.4 81.9321H5.9L7.3 83.9472H13.6C13.9639 83.9403 14.3156 84.0781 14.5781 84.3302C14.8405 84.5823 14.9923 84.9283 15 85.2921V92.6799C14.9919 93.0435 14.84 93.389 14.5776 93.6408C14.3151 93.8926 13.9636 94.03 13.6 94.023ZM6.4432 89.0763C6.36442 89.0764 6.28694 89.0965 6.21799 89.1346C6.14904 89.1727 6.09086 89.2276 6.04887 89.2943L4.88827 91.1511C4.84464 91.2214 4.8206 91.302 4.81863 91.3846C4.81666 91.4673 4.83683 91.5489 4.87706 91.6212C4.91729 91.6934 4.97611 91.7535 5.04742 91.7954C5.11873 91.8372 5.19993 91.8592 5.2826 91.8591H10.8518C10.9367 91.8589 11.0199 91.8355 11.0925 91.7915C11.1652 91.7475 11.2244 91.6846 11.2639 91.6094C11.3036 91.5347 11.3218 91.4506 11.3167 91.3662C11.3116 91.2818 11.2833 91.2004 11.2349 91.1311L9.1466 88.1145V88.1173C9.10361 88.0556 9.04634 88.0052 8.97967 87.9704C8.913 87.9356 8.83891 87.9174 8.7637 87.9174C8.68849 87.9174 8.6144 87.9356 8.54773 87.9704C8.48106 88.0052 8.42379 88.0556 8.3808 88.1173L7.18287 89.8491L6.83753 89.2952C6.79554 89.2285 6.73736 89.1736 6.66841 89.1355C6.59946 89.0974 6.52198 89.0774 6.4432 89.0773V89.0763ZM6.20987 85.8279C6.02631 85.828 5.84689 85.8825 5.69431 85.9845C5.54173 86.0866 5.42284 86.2316 5.35265 86.4012C5.28247 86.5708 5.26416 86.7574 5.30003 86.9374C5.33589 87.1175 5.42433 87.2828 5.55416 87.4126C5.68399 87.5423 5.84938 87.6307 6.02942 87.6665C6.20946 87.7022 6.39607 87.6838 6.56565 87.6136C6.73523 87.5433 6.88016 87.4243 6.98214 87.2717C7.08411 87.1191 7.13853 86.9396 7.13853 86.7561C7.13804 86.5102 7.04012 86.2746 6.86623 86.1008C6.69234 85.927 6.45666 85.8292 6.2108 85.8288L6.20987 85.8279Z" fill="black"/>
<path d="M6.6875 33.4375H2.3125C1.82925 33.4375 1.4375 33.8293 1.4375 34.3125V38.6875C1.4375 39.1707 1.82925 39.5625 2.3125 39.5625H6.6875C7.17075 39.5625 7.5625 39.1707 7.5625 38.6875V34.3125C7.5625 33.8293 7.17075 33.4375 6.6875 33.4375Z" fill="black"/>
<path d="M9.3125 46.5625H13.6875C14.1707 46.5625 14.5625 46.1707 14.5625 45.6875V41.3125C14.5625 40.8293 14.1707 40.4375 13.6875 40.4375H9.3125C8.82925 40.4375 8.4375 40.8293 8.4375 41.3125V45.6875C8.4375 46.1707 8.82925 46.5625 9.3125 46.5625Z" fill="black"/>
<path d="M7.5625 43.5C7.5625 41.8086 6.19137 40.4375 4.5 40.4375C2.80863 40.4375 1.4375 41.8086 1.4375 43.5C1.4375 45.1914 2.80863 46.5625 4.5 46.5625C6.19137 46.5625 7.5625 45.1914 7.5625 43.5Z" fill="black"/>
<path d="M8.4375 36.5C8.4375 38.1914 9.80863 39.5625 11.5 39.5625C13.1914 39.5625 14.5625 38.1914 14.5625 36.5C14.5625 34.8086 13.1914 33.4375 11.5 33.4375C9.80863 33.4375 8.4375 34.8086 8.4375 36.5Z" fill="black"/>
<line x1="50.75" y1="12.75" x2="61.25" y2="12.75" stroke="black" stroke-width="1.5" stroke-linecap="round"/>
<line x1="50.75" y1="8.25" x2="61.25" y2="8.25" stroke="black" stroke-width="1.5" stroke-linecap="round"/>
<line x1="50.75" y1="3.75" x2="61.25" y2="3.75" stroke="black" stroke-width="1.5" stroke-linecap="round"/>
<path d="M40.9229 33.5386C41.682 33.5386 42.3076 34.1643 42.3076 34.9233V35.3843H45.5381C45.793 35.3843 46 35.5913 46 35.8462C46 36.1011 45.793 36.3081 45.5381 36.3081H45.0518L44.6143 44.1792C44.5455 45.4166 43.5786 46.4614 42.3076 46.4614H37.6641C36.3933 46.4613 35.4221 45.4176 35.3574 44.1782L34.9463 36.3081H34.4619C34.207 36.3081 34 36.1011 34 35.8462C34.0001 35.5913 34.207 35.3843 34.4619 35.3843H37.6924V34.9233C37.6924 34.1643 38.3181 33.5386 39.0771 33.5386H40.9229ZM35.8701 36.3081L36.2793 44.1294C36.3212 44.9325 36.8896 45.5384 37.6641 45.5386H42.3076C43.0822 45.5386 43.6486 44.9334 43.6934 44.1284L44.1279 36.3081H35.8701ZM39.0771 34.4614C38.8135 34.4614 38.6152 34.6597 38.6152 34.9233V35.3843H41.3848V34.9233C41.3848 34.6597 41.1865 34.4614 40.9229 34.4614H39.0771Z" fill="black"/>
<path d="M40.9229 33.5386C41.682 33.5386 42.3076 34.1643 42.3076 34.9233V35.3843H45.5381C45.793 35.3843 46 35.5913 46 35.8462C46 36.1011 45.793 36.3081 45.5381 36.3081H45.0518L44.6143 44.1792C44.5455 45.4166 43.5786 46.4614 42.3076 46.4614H37.6641C36.3933 46.4613 35.4221 45.4176 35.3574 44.1782L34.9463 36.3081H34.4619C34.207 36.3081 34 36.1011 34 35.8462C34.0001 35.5913 34.207 35.3843 34.4619 35.3843H37.6924V34.9233C37.6924 34.1643 38.3181 33.5386 39.0771 33.5386H40.9229ZM35.8701 36.3081L36.2793 44.1294C36.3212 44.9325 36.8896 45.5384 37.6641 45.5386H42.3076C43.0822 45.5386 43.6486 44.9334 43.6934 44.1284L44.1279 36.3081H35.8701ZM39.0771 34.4614C38.8135 34.4614 38.6152 34.6597 38.6152 34.9233V35.3843H41.3848V34.9233C41.3848 34.6597 41.1865 34.4614 40.9229 34.4614H39.0771Z" stroke="black"/>
<path d="M38.6157 38.1538C38.8705 38.154 39.0767 38.3609 39.0767 38.6157V43.231C39.0766 43.4857 38.8704 43.6917 38.6157 43.6919C38.3609 43.6919 38.1539 43.4858 38.1538 43.231V38.6157C38.1538 38.3608 38.3608 38.1538 38.6157 38.1538Z" fill="black"/>
<path d="M38.6157 38.1538C38.8705 38.154 39.0767 38.3609 39.0767 38.6157V43.231C39.0766 43.4857 38.8704 43.6917 38.6157 43.6919C38.3609 43.6919 38.1539 43.4858 38.1538 43.231V38.6157C38.1538 38.3608 38.3608 38.1538 38.6157 38.1538Z" stroke="black"/>
<path d="M41.385 38.1538C41.6397 38.154 41.8459 38.3609 41.8459 38.6157V43.231C41.8458 43.4857 41.6397 43.6917 41.385 43.6919C41.1302 43.6919 40.9232 43.4858 40.9231 43.231V38.6157C40.9231 38.3608 41.1301 38.1538 41.385 38.1538Z" fill="black"/>
<path d="M41.385 38.1538C41.6397 38.154 41.8459 38.3609 41.8459 38.6157V43.231C41.8458 43.4857 41.6397 43.6917 41.385 43.6919C41.1302 43.6919 40.9232 43.4858 40.9231 43.231V38.6157C40.9231 38.3608 41.1301 38.1538 41.385 38.1538Z" stroke="black"/>
<path fill-rule="evenodd" clip-rule="evenodd" d="M111 173.75C111 174.165 110.665 174.5 110.25 174.5L98.25 174.5C97.835 174.5 97.5 174.165 97.5 173.75C97.5 173.335 97.835 173 98.25 173L110.25 173C110.665 173 111 173.335 111 173.75Z" fill="black"/>
<path fill-rule="evenodd" clip-rule="evenodd" d="M104.959 170.25L104.959 163.6L107.194 165.835C107.264 165.905 107.349 165.965 107.439 166.005C107.534 166.045 107.634 166.065 107.734 166.065C107.834 166.065 107.934 166.045 108.029 166.01C108.124 165.97 108.209 165.915 108.279 165.845C108.349 165.775 108.409 165.69 108.444 165.595C108.484 165.5 108.504 165.4 108.499 165.3C108.499 165.2 108.479 165.1 108.439 165.005C108.399 164.91 108.339 164.83 108.269 164.76L104.734 161.225C104.664 161.155 104.579 161.1 104.489 161.06C104.399 161.02 104.299 161.005 104.204 161L104.194 161C104.094 161 103.999 161.02 103.904 161.055C103.809 161.095 103.729 161.15 103.659 161.22L100.124 164.755C100.054 164.825 99.9942 164.91 99.9542 165C99.9142 165.095 99.8942 165.195 99.8942 165.295C99.8942 165.395 99.9142 165.495 99.9492 165.59C99.9892 165.685 100.044 165.77 100.114 165.84C100.184 165.91 100.269 165.97 100.364 166.005C100.459 166.045 100.559 166.065 100.659 166.06C100.759 166.06 100.859 166.04 100.954 166C101.049 165.96 101.129 165.9 101.199 165.83L103.434 163.595L103.434 170.245C103.439 170.445 103.524 170.635 103.664 170.775C103.804 170.915 103.999 170.99 104.194 170.99C104.389 170.99 104.584 170.915 104.724 170.775C104.864 170.635 104.949 170.45 104.954 170.25L104.959 170.25Z" fill="black"/>
<circle cx="120" cy="136" r="6.3" stroke="black" stroke-width="1.4"/>
<line x1="120.2" y1="130" x2="120.2" y2="142.5" stroke="black" stroke-width="1.4"/>
<line x1="120.094" y1="136.912" x2="125.388" y2="133.14" stroke="black" stroke-width="1.4"/>
<defs>
<clipPath id="clip0_1021_7050">
<rect width="16" height="16" fill="white" transform="matrix(-1 0 0 -1 96 176)"/>
</clipPath>
<clipPath id="clip1_1021_7050">
<rect width="16" height="16" fill="white" transform="translate(112 80)"/>
</clipPath>
<clipPath id="clip2_1021_7050">
<rect width="16" height="16" fill="white" transform="matrix(-1 0 0 1 80 112)"/>
</clipPath>
<clipPath id="clip3_1021_7050">
<rect width="16" height="16" fill="white" transform="matrix(-1 0 0 -1 112 96)"/>
</clipPath>
<clipPath id="clip4_1021_7050">
<rect width="16" height="16" fill="white" transform="translate(64 48)"/>
</clipPath>
<clipPath id="clip5_1021_7050">
<rect width="16" height="16" fill="white" transform="translate(64 176) rotate(180)"/>
</clipPath>
</defs>
</svg>
