<svg width="400" height="400" viewBox="0 0 400 400" fill="none" xmlns="http://www.w3.org/2000/svg">
<g clip-path="url(#clip0_40000073_9044)">
<path d="M200 400C310.457 400 400 310.457 400 200C400 89.5431 310.457 0 200 0C89.5431 0 0 89.5431 0 200C0 310.457 89.5431 400 200 400Z" fill="#004098"/>
<path d="M45.2678 250.93C45.8269 251.85 46.7286 253.78 47.4319 255.655C48.2795 257.945 48.5861 259.442 48.3336 260.903C48.1533 262.292 47.3237 263.554 45.8269 264.113C44.3481 264.672 42.6528 264.312 41.2642 262.707H41.2101C41.4085 264.817 40.4887 266.764 38.3427 267.558C36.8458 268.117 35.4031 267.864 34.1767 267.143C32.7701 266.295 31.4716 264.474 30.2272 261.174C29.5419 259.316 29.1452 257.891 28.9648 257.008L45.2859 250.912L45.2678 250.93ZM32.9143 259.767C33.0045 260.164 33.1668 260.597 33.4013 261.246C34.0325 262.941 35.2408 264.203 36.9901 263.554C38.6673 262.923 38.7755 261.174 38.0721 259.298L37.5852 258.018L32.8963 259.767H32.9143ZM40.2904 257.026L40.7412 258.252C41.4806 260.218 42.6889 260.975 43.9152 260.524C45.1776 260.055 45.4842 258.847 44.853 257.152C44.5464 256.34 44.33 255.89 44.1497 255.583L40.2723 257.026H40.2904Z" fill="white"/>
<path d="M41.7311 274.951C40.3064 275.798 40.3064 277.62 41.136 279.297C41.7311 280.523 42.3984 281.443 43.1739 282.254L40.9737 283.914C39.9277 282.958 38.9719 281.641 38.2145 280.072C36.2848 276.159 37.457 272.786 41.0639 271.019C43.9854 269.576 48.1153 269.811 50.099 273.832C51.9385 277.565 49.7203 280.415 46.8709 281.803C46.2577 282.11 45.6806 282.308 45.3921 282.381L41.7311 274.932V274.951ZM46.2758 277.98C47.1414 277.547 48.4218 276.447 47.6103 274.806C46.8709 273.291 45.1937 273.345 44.1838 273.742L46.2758 277.998V277.98Z" fill="white"/>
<path d="M46.0609 286.927C46.0609 287.792 46.3856 289.361 46.9807 290.389C47.5938 291.435 48.207 291.652 48.7841 291.309C49.3612 290.967 49.4153 290.48 49.0907 288.929C48.4956 286.187 49.2169 284.564 50.5515 283.807C52.6074 282.581 55.2223 283.428 56.8454 286.151C57.6029 287.45 57.9996 288.766 58.0718 289.65L55.3305 290.444C55.3125 289.776 55.0961 288.622 54.537 287.666C54.0321 286.837 53.4189 286.548 52.8599 286.891C52.3369 287.197 52.3188 287.792 52.6615 289.434C53.1845 291.976 52.6615 293.473 51.0384 294.465C48.9825 295.691 46.4938 294.952 44.6182 291.796C43.7526 290.353 43.3017 288.875 43.2656 287.756L46.097 286.909L46.0609 286.927Z" fill="white"/>
<path d="M66.1512 294.249L63.1215 296.341L64.7445 298.703L62.3279 300.38L60.7049 298.018L56.8816 300.669C55.6012 301.552 55.2224 302.256 55.9258 303.248C56.2143 303.662 56.4848 303.951 56.6832 304.167L54.2125 305.917C53.7436 305.61 53.0944 304.907 52.4452 303.969C51.7058 302.905 51.4713 301.769 51.6517 300.867C51.8681 299.821 52.6616 298.829 54.1584 297.783L58.4866 294.79L57.5128 293.383L59.9294 291.706L60.9032 293.112L63.1936 291.525L66.1512 294.249Z" fill="white"/>
<path d="M62.1992 316.432L72.4607 301.355L75.3462 304.529L70.8557 310.445C69.5752 312.158 68.1325 313.979 66.9963 315.386L67.0324 315.422C68.6374 314.34 70.513 313.222 72.4246 312.068L78.8088 308.281L81.6762 311.437L77.1135 317.532C75.8512 319.227 74.6429 320.724 73.3624 322.239L73.3985 322.275C75.0396 321.139 76.843 320.021 78.6465 318.885L84.9945 315.061L87.7538 318.073L71.559 326.658L68.6375 323.447L73.2542 317.19C74.3363 315.729 75.3823 314.394 76.7348 312.879L76.6988 312.843C75.0035 313.961 73.5608 314.881 71.9558 315.783L65.1749 319.678L62.2172 316.432H62.1992Z" fill="#FBF494"/>
<path d="M91.9378 336.16C88.8719 339.731 84.9224 339.19 82.3075 336.954C79.4581 334.501 78.8629 330.732 81.5861 327.594C84.2912 324.438 88.0965 324.204 91.2344 326.891C94.2281 329.47 94.4626 333.239 91.9378 336.16ZM84.7782 330.191C83.3354 331.868 82.9567 333.726 84.2552 334.844C85.4274 335.854 87.1948 335.331 88.7096 333.581C89.954 332.121 90.6754 330.173 89.2867 328.983C87.826 327.738 86.0045 328.766 84.7782 330.209V330.191Z" fill="white"/>
<path d="M96.5208 336.989C97.6389 335.456 98.3061 334.428 98.9193 333.49L101.715 335.51L100.434 337.512L100.524 337.566C102.147 336.43 103.897 336.718 104.889 337.458C105.195 337.674 105.34 337.782 105.538 337.999L103.338 341.047C103.139 340.83 102.887 340.596 102.526 340.325C101.336 339.46 100.055 339.514 99.1177 340.361C98.9193 340.542 98.7209 340.776 98.5226 341.047L94.6993 346.331L91.4531 343.986L96.5208 336.989Z" fill="white"/>
<path d="M108.583 346.676L108.619 346.712C109.142 346.405 109.683 346.135 110.206 345.864L114.444 343.917L118.556 346.424L111.919 348.479L112.424 357.749L108.222 355.188L108.33 349.057L106.797 349.598L104.705 353.042L101.297 350.95L111.017 335.008L114.426 337.1L108.583 346.694V346.676Z" fill="white"/>
<path d="M132.337 347.846L136.052 349.397L130.48 362.652L136.99 365.375L135.692 368.477L125.484 364.185L132.355 347.828L132.337 347.846Z" fill="#FBF494"/>
<path d="M139.426 369.755L143.61 357.582L147.397 358.881L143.213 371.054L139.426 369.755ZM148.677 355.544C148.317 356.59 147.235 357.168 145.99 356.735C144.8 356.32 144.295 355.202 144.674 354.174C145.016 353.074 146.098 352.515 147.325 352.948C148.551 353.362 149.038 354.444 148.677 355.562V355.544Z" fill="white"/>
<path d="M147.846 372.534L150.587 362.994L148.964 362.525L149.776 359.694L151.399 360.163L151.543 359.676C151.976 358.179 152.896 356.664 154.302 355.979C155.529 355.348 156.953 355.402 158.072 355.726C158.937 355.979 159.568 356.267 160.055 356.574L159.045 359.496C158.739 359.297 158.36 359.099 157.855 358.954C156.593 358.594 155.781 359.423 155.421 360.632L155.24 361.263L157.711 361.984L156.899 364.816L154.447 364.112L151.705 373.652L147.828 372.534H147.846Z" fill="white"/>
<path d="M161.714 370.84C161.498 372.481 162.941 373.599 164.762 373.978C166.097 374.267 167.215 374.303 168.351 374.195L168.315 376.954C166.926 377.188 165.285 377.116 163.59 376.773C159.316 375.872 157.386 372.878 158.216 368.947C158.883 365.755 161.606 362.653 165.989 363.572C170.064 364.438 170.93 367.919 170.281 371.039C170.136 371.706 169.938 372.283 169.83 372.553L161.714 370.84ZM166.872 369.145C167.071 368.189 166.999 366.512 165.195 366.133C163.554 365.791 162.562 367.143 162.237 368.171L166.872 369.145Z" fill="white"/>
<path d="M185.589 362.219C186.653 362.057 188.781 362.021 190.783 362.111C193.218 362.237 194.715 362.544 195.959 363.373C197.167 364.095 197.997 365.357 197.907 366.944C197.834 368.513 196.825 369.938 194.805 370.587V370.641C196.788 371.29 198.213 372.895 198.105 375.186C198.015 376.791 197.221 378.017 196.067 378.847C194.733 379.802 192.55 380.271 189.016 380.091C187.05 379.983 185.571 379.784 184.688 379.604L185.571 362.201L185.589 362.219ZM188.799 377.061C189.196 377.133 189.665 377.151 190.35 377.187C192.172 377.278 193.795 376.682 193.903 374.807C193.993 373.022 192.424 372.228 190.422 372.12L189.052 372.048L188.799 377.043V377.061ZM189.214 369.198L190.531 369.27C192.641 369.379 193.813 368.567 193.867 367.251C193.939 365.916 192.947 365.141 191.126 365.05C190.26 365.014 189.755 365.05 189.412 365.05L189.196 369.18L189.214 369.198Z" fill="#FBF494"/>
<path d="M210.605 379.949L210.317 378.668H210.245C209.451 379.732 208.171 380.346 206.638 380.418C204.041 380.544 202.4 378.723 202.292 376.667C202.129 373.33 205.051 371.581 209.595 371.401V371.22C209.559 370.535 209.145 369.579 207.161 369.669C205.844 369.723 204.474 370.246 203.662 370.806L202.797 368.263C203.662 367.722 205.393 367 207.738 366.892C212.03 366.694 213.509 369.146 213.653 372.176L213.87 376.649C213.924 377.875 214.032 379.065 214.194 379.769L210.587 379.931L210.605 379.949ZM209.848 373.907C207.738 373.98 206.133 374.557 206.205 376.108C206.259 377.136 206.962 377.604 207.846 377.55C208.838 377.496 209.632 376.811 209.848 375.981C209.884 375.765 209.902 375.531 209.902 375.296L209.83 373.907H209.848Z" fill="white"/>
<path d="M216.773 360.725L220.741 360.256L222.905 378.813L218.938 379.282L216.773 360.725Z" fill="white"/>
<path d="M235.092 376.83L234.623 375.604H234.551C233.92 376.776 232.711 377.569 231.214 377.84C228.654 378.327 226.778 376.74 226.399 374.72C225.786 371.438 228.437 369.31 232.91 368.498L232.874 368.318C232.747 367.651 232.206 366.749 230.259 367.128C228.96 367.362 227.68 368.065 226.94 368.733L225.75 366.334C226.544 365.685 228.149 364.729 230.457 364.296C234.677 363.503 236.48 365.739 237.039 368.715L237.869 373.115C238.103 374.323 238.374 375.477 238.626 376.163L235.092 376.83ZM233.505 370.951C231.431 371.312 229.916 372.105 230.204 373.638C230.385 374.648 231.16 375.009 232.044 374.846C233.018 374.666 233.703 373.872 233.811 373.025C233.811 372.808 233.811 372.574 233.757 372.339L233.505 370.969V370.951Z" fill="white"/>
<path d="M241.768 366.456C241.317 364.923 240.884 363.607 240.523 362.543L243.86 361.569L244.527 363.21H244.599C244.87 362.254 245.789 360.703 247.845 360.108C250.37 359.369 252.751 360.487 253.815 364.13L255.943 371.452L252.101 372.57L250.118 365.717C249.649 364.13 248.783 363.192 247.394 363.607C246.33 363.914 245.916 364.833 245.862 365.609C245.826 365.861 245.88 366.258 245.988 366.619L248.044 373.742L244.202 374.86L241.768 366.438V366.456Z" fill="white"/>
<path d="M270.209 365.756C269.668 366.315 268.514 367.036 267.089 367.595C263.212 369.11 259.822 367.722 258.343 363.952C256.972 360.454 258.253 356.649 262.725 354.899C263.699 354.521 264.853 354.268 265.755 354.25L266.242 357.244C265.719 357.226 264.997 357.298 264.024 357.695C262.058 358.452 261.336 360.346 262.13 362.311C262.996 364.511 264.907 365.089 266.729 364.385C267.612 364.043 268.244 363.628 268.712 363.177L270.227 365.756H270.209Z" fill="white"/>
<path d="M274.643 358.397C275.49 359.821 277.294 359.821 278.971 359.01C280.197 358.415 281.117 357.765 281.929 356.972L283.588 359.172C282.632 360.218 281.316 361.156 279.747 361.931C275.815 363.843 272.461 362.671 270.693 359.064C269.269 356.124 269.503 351.994 273.525 350.047C277.258 348.225 280.107 350.443 281.496 353.293C281.802 353.906 281.983 354.483 282.073 354.772L274.625 358.415L274.643 358.397ZM277.673 353.87C277.24 352.986 276.158 351.706 274.499 352.517C272.984 353.257 273.038 354.934 273.417 355.944L277.673 353.87Z" fill="white"/>
<path d="M304.709 346.243C304.294 346.964 303.122 348.191 301.318 349.381C296.197 352.753 291.454 351.293 288.676 347.091C285.34 342.041 287.107 336.847 291.58 333.908C293.311 332.771 294.862 332.248 295.656 332.158L296.72 335.26C295.854 335.422 294.736 335.783 293.546 336.559C290.894 338.308 289.885 341.266 292.049 344.566C293.996 347.541 296.99 348.245 299.984 346.279C300.994 345.612 301.968 344.656 302.454 343.953L304.673 346.243H304.709Z" fill="white"/>
<path d="M314.554 330.715C317.512 334.376 316.267 338.163 313.598 340.327C310.677 342.69 306.871 342.582 304.257 339.353C301.642 336.125 302.11 332.338 305.321 329.741C308.386 327.252 312.137 327.721 314.572 330.715H314.554ZM307.376 336.666C308.765 338.38 310.532 339.101 311.849 338.019C313.057 337.045 312.859 335.206 311.398 333.402C310.19 331.905 308.386 330.859 306.98 331.995C305.483 333.204 306.168 335.188 307.358 336.666H307.376Z" fill="white"/>
<path d="M317.061 325.719C315.907 324.601 314.879 323.7 314.031 322.96L316.358 320.526L317.746 321.59L317.8 321.535C317.602 320.58 317.512 318.92 319.045 317.315C320.199 316.125 321.714 315.746 323.066 316.287L323.102 316.251C322.958 315.458 322.976 314.664 323.139 313.979C323.319 313.168 323.716 312.464 324.383 311.779C326.096 309.994 328.639 309.849 331.416 312.518L336.881 317.766L334.176 320.58L329.126 315.728C327.773 314.43 326.583 314.123 325.681 315.061C325.05 315.728 325.05 316.63 325.411 317.352C325.555 317.622 325.808 317.965 326.042 318.181L331.47 323.393L328.765 326.206L323.571 321.211C322.399 320.075 321.191 319.732 320.325 320.652C319.622 321.391 319.766 322.383 320.073 322.996C320.217 323.303 320.451 323.591 320.686 323.808L326.096 329.002L323.391 331.815L317.079 325.737L317.061 325.719Z" fill="white"/>
<path d="M334.3 307.198C332.948 306.188 331.758 305.376 330.766 304.709L332.84 301.914L334.391 302.833L334.427 302.797C333.886 301.228 334.192 299.623 335.31 298.108C336.987 295.854 340.45 295.277 343.75 297.712C347.519 300.489 347.519 304.204 345.824 306.512C344.904 307.757 343.678 308.352 342.65 308.316L342.614 308.352L347.754 312.157L345.373 315.367L334.318 307.18L334.3 307.198ZM339.115 305.773C339.368 305.953 339.62 306.116 339.837 306.206C340.865 306.639 342.055 306.386 342.758 305.448C343.786 304.06 343.245 302.364 341.478 301.066C339.837 299.84 338.033 299.659 336.969 301.102C336.302 302.004 336.374 303.32 337.168 304.24C337.312 304.402 337.51 304.583 337.691 304.727L339.115 305.773Z" fill="white"/>
<path d="M355.654 290.932L354.428 290.481L354.392 290.553C354.843 291.797 354.644 293.222 353.851 294.52C352.516 296.757 350.1 297.117 348.332 296.071C345.465 294.358 345.627 290.95 347.99 287.072L347.827 286.982C347.232 286.639 346.222 286.441 345.194 288.136C344.527 289.272 344.184 290.697 344.202 291.689L341.605 291.004C341.642 289.976 342.002 288.136 343.192 286.134C345.393 282.455 348.26 282.582 350.857 284.133L354.698 286.423C355.762 287.054 356.808 287.613 357.476 287.866L355.618 290.968L355.654 290.932ZM350.208 288.208C349.108 289.994 348.693 291.653 350.027 292.446C350.911 292.969 351.687 292.645 352.156 291.869C352.66 291.004 352.516 289.976 351.957 289.326C351.795 289.182 351.614 289.038 351.416 288.912L350.226 288.19L350.208 288.208Z" fill="white"/>
<path d="M352.302 279.063C350.859 278.378 349.597 277.837 348.551 277.404L350.03 274.266L351.707 274.861L351.743 274.789C351.238 273.96 350.679 272.246 351.581 270.317C352.699 267.936 355.115 266.89 358.542 268.513L365.431 271.778L363.718 275.384L357.279 272.337C355.783 271.633 354.502 271.669 353.889 272.968C353.42 273.96 353.817 274.879 354.376 275.438C354.538 275.637 354.881 275.853 355.205 276.016L361.914 279.19L360.201 282.796L352.284 279.045L352.302 279.063Z" fill="white"/>
<path d="M356.394 259.661L362.994 260.021C363.788 260.093 364.762 260.166 365.465 260.256L365.501 260.184C364.924 259.769 364.076 259.246 363.445 258.813L358.053 255.17L359.532 251.148L366.457 256.865C370.623 260.346 372.12 262.221 372.841 264.007C373.508 265.738 373.382 267.253 373.166 268.245L369.685 267.866C369.775 267.361 369.775 266.694 369.631 266.009C369.541 265.323 369.18 264.494 368.693 263.899C368.567 263.718 368.387 263.574 368.224 263.502C368.098 263.466 367.9 263.412 367.539 263.448L354.879 263.845L356.412 259.661H356.394Z" fill="white"/>
<path d="M30.1157 228.8C32.9842 228.8 35.3096 226.474 35.3096 223.606C35.3096 220.737 32.9842 218.412 30.1157 218.412C27.2473 218.412 24.9219 220.737 24.9219 223.606C24.9219 226.474 27.2473 228.8 30.1157 228.8Z" fill="#FBF494"/>
<path d="M369.881 228.8C372.75 228.8 375.075 226.474 375.075 223.606C375.075 220.737 372.75 218.412 369.881 218.412C367.013 218.412 364.688 220.737 364.688 223.606C364.688 226.474 367.013 228.8 369.881 228.8Z" fill="#FBF494"/>
<path d="M21.4613 174.497L45.0501 176.174L44.7075 181.008L33.3639 180.196L33.2737 181.585L44.6173 182.396L44.2746 187.229L20.6858 185.552C19.2431 185.444 18.3774 184.416 18.4856 182.955C18.5939 181.494 19.6038 180.611 21.0285 180.719L28.693 181.26L28.7832 179.871L21.1187 179.33C19.6759 179.222 18.8103 178.194 18.9185 176.733C19.0267 175.273 20.0366 174.389 21.4613 174.497ZM38.3233 189.971C38.4315 188.366 39.748 187.987 40.794 188.059C41.8761 188.131 43.0483 188.726 42.9401 190.295L42.4893 196.77C42.2368 200.358 41.3351 200.972 37.8725 200.719L22.5794 199.637C19.1168 199.384 18.3414 198.663 18.5939 195.074L19.0086 189.231C19.1168 187.626 20.4333 187.193 21.4793 187.265C22.5614 187.338 23.7877 187.987 23.6795 189.556L23.409 193.379C23.3729 193.884 23.5172 194.118 24.1664 194.155L37.1691 195.074C37.8003 195.128 37.9807 194.912 38.0168 194.407L38.3414 189.953L38.3233 189.971Z" fill="#FBF494"/>
<path d="M29.9578 160.449C29.3446 160.269 28.8216 159.962 28.4248 159.583C28.0101 160.756 27.0362 161.188 25.9541 160.864C24.836 160.521 24.277 159.62 24.6737 158.321L25.8279 154.534C24.3491 153.993 23.754 152.676 24.2409 151.089C24.7278 149.502 25.9361 148.763 27.469 149.142L28.6232 145.354C29.02 144.056 29.9938 143.605 31.1119 143.93C32.194 144.254 32.7531 145.192 32.4465 146.4C33.0055 146.31 33.6007 146.346 34.1958 146.527L36.6304 147.266C40.1651 148.348 41.3915 151.648 40.075 155.904C38.7765 160.179 35.9091 162.252 32.3743 161.188L29.9397 160.449H29.9578ZM35.855 136.986C36.3419 135.363 37.7486 135.273 38.7945 135.598C39.8766 135.922 40.9406 136.806 40.4717 138.393L40.2192 139.223L47.7756 141.531L46.1525 146.833L29.9758 141.91C28.2445 141.387 27.7215 139.854 28.1543 138.465C28.5871 137.059 29.8676 136.085 31.5808 136.608L35.5844 137.834L35.8369 137.005L35.855 136.986ZM33.0236 151.432C31.7431 151.035 30.6791 151.612 30.2824 152.911C29.8856 154.245 30.4447 155.309 31.7251 155.706L33.4564 156.229C34.7008 156.608 35.8369 156.049 36.2337 154.732C36.6304 153.434 35.9992 152.352 34.7549 151.955L33.0236 151.432ZM49.4167 143.479C49.8856 141.91 51.0398 141.603 52.1038 141.91C53.1859 142.234 53.9433 143.172 53.4925 144.705L48.533 160.972C47.6313 163.948 46.3509 164.417 43.5195 163.551L41.4456 162.92C39.8045 162.415 39.3536 160.918 39.8045 159.439C40.2553 157.96 41.4636 157.041 43.0867 157.546L44.4393 157.96C44.8721 158.087 45.0164 157.996 45.1246 157.6L49.4167 143.479Z" fill="#FBF494"/>
<path d="M50.533 124.077C49.1443 126.475 48.0623 126.98 45.79 125.664L39.514 122.057C37.2598 120.758 37.0794 119.55 38.468 117.134L42.5618 109.992C43.8783 107.702 45.0145 107.233 47.413 108.621L56.4302 113.797L50.533 124.059V124.077ZM47.2327 120.452C47.5754 120.65 47.8459 120.614 48.0803 120.199L50.3346 116.286L45.7719 113.671C45.4653 113.491 45.1948 113.509 44.9965 113.869L42.9766 117.386C42.7782 117.747 42.9225 117.999 43.2291 118.18L47.2507 120.488L47.2327 120.452ZM62.2011 113.382L47.5393 104.96C45.9703 104.059 45.808 102.472 46.5474 101.191C47.2868 99.9108 48.7476 99.2616 50.3166 100.145L64.9784 108.567L62.2192 113.382H62.2011ZM60.9928 128.279C59.4419 130.966 58.0893 131.146 55.5285 129.685L53.0037 128.243C51.4347 127.341 51.3445 125.79 52.12 124.437C52.8955 123.085 54.2661 122.472 55.817 123.355L57.6024 124.383C58.0533 124.654 58.2156 124.582 58.4861 124.131L66.0424 110.984C66.872 109.541 68.0623 109.487 69.0181 110.046C70.01 110.605 70.569 111.705 69.7395 113.112L61.0109 128.315L60.9928 128.279Z" fill="#FBF494"/>
<path d="M78.4694 84.1476L80.0564 85.6084L83.4648 81.9114C85.7372 79.4407 86.8733 79.6571 89.2358 81.8393L93.1312 85.4281L89.3801 89.5038L86.0077 86.4019C85.6831 86.0953 85.4486 86.1134 85.142 86.438L74.8264 97.6373C73.8165 98.7374 72.5722 98.7374 71.6524 97.8897C70.7327 97.0421 70.6425 95.8338 71.6524 94.7337L76.2151 89.7743L74.6281 88.3136L69.326 94.0665C68.2259 95.2748 66.9274 95.0223 66.0798 94.2288C65.2502 93.4533 64.8535 92.1909 65.9896 90.9826L76.6659 79.4046C76.2511 78.3767 75.5658 77.2946 74.4838 76.3027L73.9608 75.8158C73.6001 75.4732 73.3837 75.5453 73.041 75.906L63.2304 86.5462C62.0041 87.8627 60.8138 87.7906 59.876 86.9249C58.9924 86.1134 58.7579 84.9051 60.0023 83.5705L71.6524 70.9285C73.3476 69.089 74.7904 69.1071 76.2511 70.4416L77.4775 71.5778C79.0465 73.0205 79.9301 74.355 80.363 75.4371L80.4531 75.3289C81.5893 74.1026 82.8697 74.3911 83.6993 75.1666C84.5469 75.9601 84.9076 77.2225 83.7895 78.4127L78.4874 84.1657L78.4694 84.1476Z" fill="#FBF494"/>
<path d="M104.833 51.4132C102.903 47.8785 104.833 44.47 108.818 42.2879C112.804 40.1057 116.735 40.2861 118.683 43.8388L119.134 44.6684C121.082 48.2211 119.134 51.6296 115.148 53.7937C111.163 55.9759 107.231 55.7955 105.284 52.2428L104.833 51.4132ZM109.991 49.5918C110.622 50.7279 111.938 50.8902 113.147 50.223C114.355 49.5557 114.986 48.3294 114.355 47.1932L113.958 46.4718C113.327 45.3357 111.956 45.1734 110.748 45.8587C109.54 46.544 108.963 47.7523 109.576 48.8704L109.972 49.5918H109.991ZM118.575 66.4358C116.357 67.6441 114.391 66.8686 113.453 65.1553L113.128 64.5782C112.227 62.9191 112.804 61.1517 115.022 59.9434L127.303 53.2166L126.979 52.6395C126.817 52.351 126.672 52.2608 126.366 52.4412L112.678 59.9434C111.722 60.4664 110.964 59.9975 110.568 59.2581C110.189 58.5728 110.189 57.599 111.127 57.094L127.249 48.2572C129.395 47.085 130.495 47.3014 131.523 49.177L133.688 53.1265L118.737 61.314C118.394 61.4944 118.34 61.7829 118.467 62.0354L118.539 62.1616C118.665 62.378 118.936 62.4863 119.278 62.2879L133.489 54.5151C134.463 53.9741 135.311 54.5331 135.707 55.2725C136.086 55.9578 136.086 56.8956 135.094 57.4367L118.629 66.4538L118.575 66.4358ZM124.851 48.6179L119.729 39.2581C118.863 37.6711 119.549 36.2284 120.847 35.525C122.128 34.8217 123.733 35.0201 124.598 36.6071L129.72 45.9669L124.851 48.6359V48.6179Z" fill="#FBF494"/>
<path d="M143.263 37.545C145.012 36.9318 146.437 37.6171 146.996 39.2041C147.555 40.8092 146.87 42.2158 145.12 42.829C143.371 43.4422 141.964 42.7929 141.405 41.1698C140.846 39.5468 141.532 38.1581 143.281 37.545H143.263Z" fill="#FBF494"/>
<path d="M160.83 36.6641C159.387 36.9166 158.269 36.2133 158.053 34.8968C157.872 33.8868 158.287 33.1114 159.279 32.5162C160.884 31.4161 161.606 29.7209 161.064 26.0239L160.848 24.6172C160.668 23.0663 161.587 22.0383 163.084 21.8039C164.563 21.5694 165.681 22.3449 165.934 23.8418L166.132 24.9959C166.258 25.6993 166.349 26.4026 166.367 27.0338C170.009 27.3043 171.903 29.6488 172.3 34.3197L167.413 35.1673C167.413 33.1114 166.799 31.9031 165.934 31.4883C165.104 34.3377 163.265 36.2493 160.83 36.6641ZM178.143 34.5541C182.11 33.8688 184.437 35.6542 184.978 38.7561C185.501 41.8219 183.914 44.3106 179.946 44.9959L167.954 47.0699C163.968 47.7552 161.642 45.8796 161.119 42.8679C160.596 39.8381 162.165 37.3133 166.15 36.628L178.143 34.5541ZM178.143 41.335C179.207 41.1546 179.532 40.4513 179.405 39.7119C179.279 38.9725 178.738 38.4134 177.674 38.6118L167.918 40.289C166.853 40.4693 166.529 41.1727 166.655 41.9121C166.781 42.6515 167.322 43.2106 168.386 43.0122L178.143 41.335ZM176.935 29.0356L177.746 33.7426L172.967 34.5721L170.875 22.4712C170.623 21.0464 171.434 19.9644 172.877 19.7119C174.32 19.4594 175.42 20.2349 175.654 21.6596L176.213 24.9418L177.44 24.7254L176.881 21.4432C176.628 20.0185 177.44 18.9364 178.882 18.684C180.325 18.4315 181.425 19.2069 181.66 20.6317L183.752 32.7326L178.973 33.5622L178.161 28.8553L176.935 29.0717V29.0356Z" fill="#FBF494"/>
<path d="M197.836 32.3C196.483 32.2279 195.816 31.5245 195.888 30.3703C195.942 29.2342 196.646 28.5128 198.034 28.5849L202.056 28.7833L202.11 27.7914H201.857C198.647 27.6111 197.223 25.6814 197.331 23.355C197.331 23.0304 197.421 22.7238 197.565 22.4172C196.772 22.1287 196.339 21.5516 196.375 20.6679C196.429 19.4776 197.277 18.8825 198.665 18.9546L202.597 19.153C202.885 17.9267 203.913 17.3676 205.41 17.4398C206.907 17.5119 207.863 18.1792 208.025 19.4416L211.939 19.64C213.327 19.7121 214.085 20.3974 214.031 21.5877C213.976 22.4713 213.49 23.0124 212.678 23.2107C212.804 23.5173 212.84 23.8239 212.822 24.1665C212.696 26.493 211.091 28.2784 207.863 28.098L207.34 28.062L207.286 29.0538L212.029 29.3063C213.417 29.3785 214.031 30.1539 213.976 31.2901C213.922 32.4443 213.183 33.0755 211.83 33.0033L197.854 32.282L197.836 32.3ZM219.116 41.5876C220.216 41.6418 220.667 42.3631 220.613 43.1927C220.577 43.9682 220.09 44.6174 218.954 44.5453L200.649 43.6075C198.124 43.4812 196.952 42.1647 197.042 40.3433L197.078 39.8203C197.169 38.1792 198.467 37.025 200.992 37.1693L214.536 37.8726V37.4578C214.572 37.1873 214.499 36.9889 214.139 36.9709L199.098 36.1954C198.016 36.1413 197.601 35.474 197.655 34.6445C197.692 33.869 198.196 33.2197 199.26 33.2919L217.349 34.2297C219.621 34.3559 220.325 35.1133 220.234 37.1332L220.054 40.7941L203.571 39.9465C203.21 39.9285 203.03 40.1088 203.03 40.3433V40.3974C203.03 40.6138 203.174 40.8302 203.535 40.8482L219.152 41.6598L219.116 41.5876ZM203.553 22.5074C202.723 22.4713 202.254 22.85 202.218 23.5534C202.182 24.1846 202.597 24.6535 203.444 24.7076L206.582 24.8699C207.412 24.906 207.881 24.4912 207.917 23.86C207.953 23.1747 207.538 22.7238 206.709 22.6877L203.571 22.5254L203.553 22.5074ZM221.587 23.7518C223.282 23.8419 223.715 25.1584 223.643 26.2766C223.589 27.4127 222.994 28.6571 221.334 28.5669L220.469 28.5308L220.198 33.6526L214.806 33.3821L215.455 20.9745C215.545 19.2612 216.844 18.3776 218.305 18.4497C219.765 18.5218 220.938 19.5317 220.848 21.245L220.721 23.7157L221.587 23.7518Z" fill="#FBF494"/>
<path d="M251.974 45.2662L246.961 43.8415L248.097 39.8379L243.372 38.5034L242.236 42.507L238.773 41.5331C238.755 41.7315 238.719 41.9479 238.647 42.1643L238.322 43.2825C238.16 43.8776 238.268 43.9858 238.845 44.1481L253.219 48.2239C254.842 48.6927 255.184 49.8469 254.878 50.911C254.571 52.011 253.651 52.8046 252.046 52.3537L235.293 47.6107C232.281 46.7631 231.758 45.5367 232.569 42.6693L233.146 40.6134C233.651 38.7919 235.13 38.5034 236.627 38.9182C237.006 39.0264 237.366 39.1887 237.655 39.351L238.304 37.0787L235.365 36.2491C233.796 35.7982 233.417 34.5539 233.742 33.4177C234.048 32.3176 235.004 31.4159 236.609 31.8668L251.65 36.1229C252.425 35.2392 253.164 34.0129 253.615 32.4078L253.832 31.6323C253.976 31.1454 253.814 31.0011 253.327 30.8569L239.422 26.9254C237.691 26.4385 237.24 25.2662 237.583 24.0399C237.907 22.8857 238.881 22.1102 240.649 22.5972L257.024 27.232C259.567 27.9533 260.216 29.2879 259.675 31.2175L259.17 32.9849C258.521 35.2572 257.691 36.6819 256.88 37.6197L257.06 37.6738C258.665 38.1247 258.99 39.4051 258.683 40.5052C258.358 41.6233 257.403 42.507 255.816 42.0561L253.038 41.2626L251.902 45.2662H251.974Z" fill="#FBF494"/>
<path d="M285.648 57.4198C289.129 59.3314 289.778 62.0005 288.335 64.6155C286.893 67.2485 284.296 68.1141 280.815 66.2205L270.175 60.3774C266.676 58.4477 266.063 55.7606 267.488 53.1817C268.894 50.6028 271.509 49.665 275.008 51.5767L285.648 57.4198ZM273.132 40.8102C273.475 40.1971 273.926 39.7823 274.449 39.5118C273.637 38.8445 273.511 37.9428 273.98 37.0771C274.539 36.0492 275.513 35.7065 276.721 36.3558L279.589 37.9247C280.4 36.8427 281.609 36.6082 282.979 37.3476C284.35 38.087 284.765 39.2412 284.278 40.5036L287.145 42.0726C288.335 42.7219 288.588 43.7498 288.029 44.7778C287.542 45.6795 286.676 46.0221 285.702 45.6795C285.756 46.2746 285.63 46.9058 285.306 47.4829L284.332 49.2503C282.691 52.2439 279.336 52.8391 275.585 50.7832C271.834 48.7273 270.517 45.5713 272.159 42.5776L273.132 40.8102ZM281.464 62.3431C282.366 62.8301 283.051 62.5776 283.412 61.9283C283.773 61.2791 283.628 60.5577 282.727 60.0708L274.395 55.4901C273.475 54.9852 272.79 55.2376 272.429 55.9049C272.068 56.5541 272.213 57.2755 273.132 57.7805L281.464 62.3612V62.3431ZM280.725 45.4631C281.374 44.2908 281.067 43.2088 280.058 42.6497C279.012 42.0726 277.948 42.4153 277.298 43.5695L276.721 44.6155C276.09 45.7516 276.397 46.8337 277.443 47.4108C278.471 47.9698 279.535 47.6452 280.166 46.491L280.743 45.445L280.725 45.4631ZM289.147 50.9996L289.868 49.6831L288.696 49.0339C287.506 48.3846 287.109 47.2485 287.722 46.1303C288.317 45.0302 289.49 44.6876 290.698 45.3549L291.87 45.9861L292.032 45.6975C292.898 44.1105 294.503 43.9121 295.783 44.6155C297.064 45.3188 297.767 46.7796 296.902 48.3485L290.896 59.2953L286.027 56.6263L287.127 54.6245L285.955 53.9752C284.765 53.326 284.368 52.1898 284.981 51.0717C285.576 49.9716 286.748 49.629 287.957 50.2962L289.129 50.9455L289.147 50.9996Z" fill="#FBF494"/>
<path d="M330.099 94.7684C331.217 95.9947 330.838 97.2571 330.008 98.0145C329.143 98.808 327.862 99.0425 326.762 97.8342L321.46 92.0813L316.771 96.3915L312.948 92.2255L317.637 87.9153L312.335 82.1624C311.235 80.9541 311.577 79.6917 312.425 78.9162C313.255 78.1408 314.553 77.8703 315.671 79.0966L330.099 94.7684ZM320.504 81.6935C317.655 78.5916 318.034 74.9126 320.576 72.5862L320.919 72.2616C323.444 69.9352 327.141 69.845 329.99 72.9469L337.366 80.9722C340.216 84.074 339.855 87.7711 337.312 90.0975L336.97 90.4221C334.445 92.7485 330.73 92.8207 327.88 89.7188L320.504 81.6935ZM324.418 76.8062C323.552 77.5997 323.552 78.8441 324.544 79.9262L329.99 85.8414C330.964 86.9054 332.245 87.0136 333.092 86.2201L333.471 85.8594C334.337 85.0659 334.319 83.8035 333.345 82.7395L327.898 76.8243C326.906 75.7422 325.644 75.652 324.796 76.4456L324.4 76.8062H324.418Z" fill="#FBF494"/>
<path d="M349.9 126.509C350.73 127.952 350.063 129.088 349.089 129.665C348.079 130.242 346.781 130.188 345.951 128.781L342.056 122.001L336.88 124.958L334.066 120.053L339.242 117.095L335.347 110.314C334.535 108.89 335.148 107.735 336.158 107.158C337.15 106.599 338.467 106.599 339.296 108.042L349.882 126.527L349.9 126.509ZM341.262 104.814C342.344 104.075 343.661 104.237 344.562 105.391C346.853 108.258 350.748 109.701 354.517 108.222C356.05 107.663 357.277 108.295 358.016 109.593C358.827 111.018 358.503 112.569 356.862 113.452C356.267 113.759 355.671 114.011 355.076 114.192C357.385 118.267 357.024 123.678 351.74 127.447L348.945 122.56C351.506 120.396 351.974 117.203 350.243 114.444C346.294 113.867 342.488 111.451 340.667 108.168C339.982 106.906 340.18 105.571 341.244 104.832L341.262 104.814Z" fill="#FBF494"/>
<path d="M362.723 147.681L367.358 146.275C367.737 146.167 367.953 145.842 367.827 145.409L365.969 139.278C365.483 137.69 366.384 136.572 367.502 136.23C368.584 135.905 370.045 136.266 370.532 137.889L372.949 145.842C373.832 148.764 372.822 150.314 370.388 151.054L364.292 152.911C355.131 155.689 349.883 151.198 347.683 144.778C347.178 143.389 347.575 141.856 349.162 141.46C350.298 141.171 351.344 141.586 351.903 142.866C353.652 146.996 356.447 149.593 362.723 147.681ZM351.398 160.883L373.688 154.102C375.419 153.579 376.7 154.553 377.115 155.959C377.547 157.366 377.024 158.881 375.293 159.404L353.003 166.185L351.398 160.883Z" fill="#FBF494"/>
<path d="M365.16 200.486L356.666 201.081L355.313 181.694C355.097 178.647 356.125 177.745 358.938 177.546L363.537 177.222C365.358 177.096 366.224 178.232 366.332 179.837C366.44 181.334 365.827 182.488 364.258 182.74L365.124 194.968C366.711 194.968 367.486 196.086 367.594 197.583C367.703 199.188 366.981 200.378 365.178 200.504L365.16 200.486ZM359.894 195.292L361.643 195.166L360.795 182.975L359.695 183.047C359.136 183.083 359.064 183.227 359.1 183.786L359.912 195.292H359.894ZM373.167 175.382L374.52 175.292C378.505 175.022 380.832 178.051 381.138 182.524C381.409 186.473 380.02 189.521 376.9 190.387L377.153 194.066L379.479 193.904C381.282 193.777 382.31 195.004 382.419 196.482C382.527 197.943 381.679 199.314 379.876 199.44L368.532 200.234L368.153 194.697L372.86 194.372L372.59 190.639C369.596 190.062 367.883 187.321 367.612 183.516C367.306 179.043 369.145 175.689 373.167 175.4V175.382ZM373.546 180.702C372.265 180.793 371.562 181.875 371.67 183.191C371.76 184.49 372.608 185.482 373.888 185.391L375.241 185.301C376.521 185.211 377.243 184.111 377.116 182.812C376.99 181.478 376.143 180.522 374.898 180.612L373.546 180.702Z" fill="#FBF494"/>
<path d="M202.977 262.47C202.977 262.47 240.452 275.094 258.775 235.833C264.113 224.381 272.931 199.097 278.702 184.85C281.931 176.879 290.93 169.99 305.826 174.462C314.104 176.951 321.119 184.435 320.326 196.987C319.298 213.128 301.173 254.48 291.904 267.736C274.969 291.992 260.596 295.905 247.377 296.338C220.56 297.222 202.977 262.452 202.977 262.452V262.47Z" fill="#FBF494"/>
<path d="M148.098 168.511C162.909 168.511 174.915 156.504 174.915 141.694C174.915 126.883 162.909 114.877 148.098 114.877C133.288 114.877 121.281 126.883 121.281 141.694C121.281 156.504 133.288 168.511 148.098 168.511Z" fill="#83CFF4"/>
<path d="M252.751 168.511C267.561 168.511 279.568 156.504 279.568 141.694C279.568 126.883 267.561 114.877 252.751 114.877C237.94 114.877 225.934 126.883 225.934 141.694C225.934 156.504 237.94 168.511 252.751 168.511Z" fill="#FBF494"/>
<path d="M202.991 262.469C193.289 245.823 178.699 211.252 177.779 196.824C176.986 184.272 186.904 178.123 195.507 177.257C210.042 175.778 216.174 176.734 219.402 184.705C225.173 198.952 233.992 224.236 239.33 235.688C242.197 241.838 245.534 246.707 249.123 250.548C230.024 271.215 203.694 262.721 202.991 262.487V262.469Z" fill="#FFE246"/>
<path d="M151.022 250.531C147.433 246.69 144.097 241.803 141.229 235.671C135.891 224.219 127.073 198.935 121.302 184.688C118.074 176.717 109.074 169.828 94.1781 174.3C85.9004 176.789 78.885 184.273 79.6785 196.825C80.5983 211.271 95.188 245.824 104.89 262.47C105.612 262.704 131.942 271.198 151.022 250.531Z" fill="#25BCEF"/>
<path d="M104.852 262.47C104.852 262.47 142.327 275.094 160.65 235.833C165.988 224.381 174.806 199.097 180.577 184.85C183.806 176.879 192.805 169.99 207.701 174.462C215.979 176.951 222.994 184.435 222.201 196.987C221.173 213.128 203.048 254.48 193.779 267.736C176.844 291.992 162.471 295.905 149.252 296.338C122.435 297.222 104.852 262.452 104.852 262.452V262.47Z" fill="#83CFF4"/>
</g>
<defs>
<clipPath id="clip0_40000073_9044">
<rect width="400" height="400" fill="white"/>
</clipPath>
</defs>
</svg>
